  0
SECTION
  2
HEADER
  9
$ANGBASE
  50
0.0
  9
$ANGDIR
  70
1
  9
$MEASUREMENT
  70
0
  0
ENDSEC
  0
SECTION
  2
TABLES
  0
TABLE
  2
LTYPE
  70
4
  0
LTYPE
  5
40F
  2
CONTINUOUS
  70
0
  3
Solid line
  72
65
  73
0
  40
0.0
  0
LTYPE
  5
410
  2
DASHDOT
 70
0
  3
Dash Dot ____ _ ____ _
 72
65
 73
4
 40
2.0
 49
1.25
 49
-0.25
 49
0.25
 49
-0.25
  0
LTYPE
  5
411
  2
DASHED
 70
0
  3
Dashed __ __ __ __ __
 72
65
 73
2
 40
0.75
 49
0.5
 49
-0.25
  0
LTYPE
  5
43B
  2
DOTTED
 70
0
  3
Dotted .  .  .  .
 72
65
 73
2
 40
0.2
 49
0.0
 49
-0.2
  0
ENDTAB
  0
TABLE
  2
STYLE
  70
4
  0
STYLE
  2
KICAD
  70
0
  40
0
  41
1
  42
1
  50
0
  71
0
  3
isocp.shx
  0
STYLE
  2
KICADB
  70
0
  40
0
  41
1
  42
1
  50
0
  71
0
  3
isocp.shx
  0
STYLE
  2
KICADI
  70
0
  40
0
  41
1
  42
1
  50
15
  71
0
  3
isocp.shx
  0
STYLE
  2
KICADBI
  70
0
  40
0
  41
1
  42
1
  50
15
  71
0
  3
isocp.shx
  0
ENDTAB
  0
TABLE
  2
LAYER
  70
1
  0
LAYER
  2
BLACK
  70
0
  62
7
  6
CONTINUOUS
  0
ENDTAB
  0
ENDSEC
  0
SECTION
  2
ENTITIES
0
LINE
8
BLACK
6
CONTINUOUS
10
1.62878
20
-3.6638
11
1.63053
21
-3.66433
0
LINE
8
BLACK
6
CONTINUOUS
10
1.63053
20
-3.66433
11
1.63215
21
-3.66519
0
LINE
8
BLACK
6
CONTINUOUS
10
1.63215
20
-3.66519
11
1.63356
21
-3.66636
0
LINE
8
BLACK
6
CONTINUOUS
10
1.63356
20
-3.66636
11
1.63473
21
-3.66777
0
LINE
8
BLACK
6
CONTINUOUS
10
1.63473
20
-3.66777
11
1.63559
21
-3.66939
0
LINE
8
BLACK
6
CONTINUOUS
10
1.63559
20
-3.66939
11
1.63612
21
-3.67114
0
LINE
8
BLACK
6
CONTINUOUS
10
1.63612
20
-3.67114
11
1.6363
21
-3.67297
0
LINE
8
BLACK
6
CONTINUOUS
10
1.6363
20
-3.67297
11
1.6363
21
-3.69167
0
LINE
8
BLACK
6
CONTINUOUS
10
1.6363
20
-3.69167
11
1.63612
21
-3.69349
0
LINE
8
BLACK
6
CONTINUOUS
10
1.63612
20
-3.69349
11
1.63559
21
-3.69525
0
LINE
8
BLACK
6
CONTINUOUS
10
1.63559
20
-3.69525
11
1.63473
21
-3.69686
0
LINE
8
BLACK
6
CONTINUOUS
10
1.63473
20
-3.69686
11
1.63356
21
-3.69828
0
LINE
8
BLACK
6
CONTINUOUS
10
1.63356
20
-3.69828
11
1.63215
21
-3.69944
0
LINE
8
BLACK
6
CONTINUOUS
10
1.63215
20
-3.69944
11
1.63053
21
-3.70031
0
LINE
8
BLACK
6
CONTINUOUS
10
1.63053
20
-3.70031
11
1.62878
21
-3.70084
0
LINE
8
BLACK
6
CONTINUOUS
10
1.62878
20
-3.70084
11
1.62695
21
-3.70102
0
LINE
8
BLACK
6
CONTINUOUS
10
1.62695
20
-3.70102
11
1.60431
21
-3.70102
0
LINE
8
BLACK
6
CONTINUOUS
10
1.60431
20
-3.70102
11
1.60249
21
-3.70084
0
LINE
8
BLACK
6
CONTINUOUS
10
1.60249
20
-3.70084
11
1.60074
21
-3.70031
0
LINE
8
BLACK
6
CONTINUOUS
10
1.60074
20
-3.70031
11
1.59912
21
-3.69944
0
LINE
8
BLACK
6
CONTINUOUS
10
1.59912
20
-3.69944
11
1.5977
21
-3.69828
0
LINE
8
BLACK
6
CONTINUOUS
10
1.5977
20
-3.69828
11
1.59654
21
-3.69686
0
LINE
8
BLACK
6
CONTINUOUS
10
1.59654
20
-3.69686
11
1.59568
21
-3.69525
0
LINE
8
BLACK
6
CONTINUOUS
10
1.59568
20
-3.69525
11
1.59514
21
-3.69349
0
LINE
8
BLACK
6
CONTINUOUS
10
1.59514
20
-3.69349
11
1.59496
21
-3.69167
0
LINE
8
BLACK
6
CONTINUOUS
10
1.59496
20
-3.69167
11
1.59496
21
-3.67297
0
LINE
8
BLACK
6
CONTINUOUS
10
1.59496
20
-3.67297
11
1.59514
21
-3.67114
0
LINE
8
BLACK
6
CONTINUOUS
10
1.59514
20
-3.67114
11
1.59568
21
-3.66939
0
LINE
8
BLACK
6
CONTINUOUS
10
1.59568
20
-3.66939
11
1.59654
21
-3.66777
0
LINE
8
BLACK
6
CONTINUOUS
10
1.59654
20
-3.66777
11
1.5977
21
-3.66636
0
LINE
8
BLACK
6
CONTINUOUS
10
1.5977
20
-3.66636
11
1.59912
21
-3.66519
0
LINE
8
BLACK
6
CONTINUOUS
10
1.59912
20
-3.66519
11
1.60074
21
-3.66433
0
LINE
8
BLACK
6
CONTINUOUS
10
1.60074
20
-3.66433
11
1.60249
21
-3.6638
0
LINE
8
BLACK
6
CONTINUOUS
10
1.60249
20
-3.6638
11
1.60431
21
-3.66362
0
LINE
8
BLACK
6
CONTINUOUS
10
1.60431
20
-3.66362
11
1.62695
21
-3.66362
0
LINE
8
BLACK
6
CONTINUOUS
10
1.62695
20
-3.66362
11
1.62878
21
-3.6638
0
LINE
8
BLACK
6
CONTINUOUS
10
1.55988
20
-3.6638
11
1.56163
21
-3.66433
0
LINE
8
BLACK
6
CONTINUOUS
10
1.56163
20
-3.66433
11
1.56325
21
-3.66519
0
LINE
8
BLACK
6
CONTINUOUS
10
1.56325
20
-3.66519
11
1.56467
21
-3.66636
0
LINE
8
BLACK
6
CONTINUOUS
10
1.56467
20
-3.66636
11
1.56583
21
-3.66777
0
LINE
8
BLACK
6
CONTINUOUS
10
1.56583
20
-3.66777
11
1.56669
21
-3.66939
0
LINE
8
BLACK
6
CONTINUOUS
10
1.56669
20
-3.66939
11
1.56722
21
-3.67114
0
LINE
8
BLACK
6
CONTINUOUS
10
1.56722
20
-3.67114
11
1.5674
21
-3.67297
0
LINE
8
BLACK
6
CONTINUOUS
10
1.5674
20
-3.67297
11
1.5674
21
-3.69167
0
LINE
8
BLACK
6
CONTINUOUS
10
1.5674
20
-3.69167
11
1.56722
21
-3.69349
0
LINE
8
BLACK
6
CONTINUOUS
10
1.56722
20
-3.69349
11
1.56669
21
-3.69525
0
LINE
8
BLACK
6
CONTINUOUS
10
1.56669
20
-3.69525
11
1.56583
21
-3.69686
0
LINE
8
BLACK
6
CONTINUOUS
10
1.56583
20
-3.69686
11
1.56467
21
-3.69828
0
LINE
8
BLACK
6
CONTINUOUS
10
1.56467
20
-3.69828
11
1.56325
21
-3.69944
0
LINE
8
BLACK
6
CONTINUOUS
10
1.56325
20
-3.69944
11
1.56163
21
-3.70031
0
LINE
8
BLACK
6
CONTINUOUS
10
1.56163
20
-3.70031
11
1.55988
21
-3.70084
0
LINE
8
BLACK
6
CONTINUOUS
10
1.55988
20
-3.70084
11
1.55805
21
-3.70102
0
LINE
8
BLACK
6
CONTINUOUS
10
1.55805
20
-3.70102
11
1.53542
21
-3.70102
0
LINE
8
BLACK
6
CONTINUOUS
10
1.53542
20
-3.70102
11
1.53359
21
-3.70084
0
LINE
8
BLACK
6
CONTINUOUS
10
1.53359
20
-3.70084
11
1.53184
21
-3.70031
0
LINE
8
BLACK
6
CONTINUOUS
10
1.53184
20
-3.70031
11
1.53022
21
-3.69944
0
LINE
8
BLACK
6
CONTINUOUS
10
1.53022
20
-3.69944
11
1.5288
21
-3.69828
0
LINE
8
BLACK
6
CONTINUOUS
10
1.5288
20
-3.69828
11
1.52764
21
-3.69686
0
LINE
8
BLACK
6
CONTINUOUS
10
1.52764
20
-3.69686
11
1.52678
21
-3.69525
0
LINE
8
BLACK
6
CONTINUOUS
10
1.52678
20
-3.69525
11
1.52625
21
-3.69349
0
LINE
8
BLACK
6
CONTINUOUS
10
1.52625
20
-3.69349
11
1.52607
21
-3.69167
0
LINE
8
BLACK
6
CONTINUOUS
10
1.52607
20
-3.69167
11
1.52607
21
-3.67297
0
LINE
8
BLACK
6
CONTINUOUS
10
1.52607
20
-3.67297
11
1.52625
21
-3.67114
0
LINE
8
BLACK
6
CONTINUOUS
10
1.52625
20
-3.67114
11
1.52678
21
-3.66939
0
LINE
8
BLACK
6
CONTINUOUS
10
1.52678
20
-3.66939
11
1.52764
21
-3.66777
0
LINE
8
BLACK
6
CONTINUOUS
10
1.52764
20
-3.66777
11
1.5288
21
-3.66636
0
LINE
8
BLACK
6
CONTINUOUS
10
1.5288
20
-3.66636
11
1.53022
21
-3.66519
0
LINE
8
BLACK
6
CONTINUOUS
10
1.53022
20
-3.66519
11
1.53184
21
-3.66433
0
LINE
8
BLACK
6
CONTINUOUS
10
1.53184
20
-3.66433
11
1.53359
21
-3.6638
0
LINE
8
BLACK
6
CONTINUOUS
10
1.53359
20
-3.6638
11
1.53542
21
-3.66362
0
LINE
8
BLACK
6
CONTINUOUS
10
1.53542
20
-3.66362
11
1.55805
21
-3.66362
0
LINE
8
BLACK
6
CONTINUOUS
10
1.55805
20
-3.66362
11
1.55988
21
-3.6638
0
LINE
8
BLACK
6
CONTINUOUS
10
5.30964
20
-3.53881
11
5.31139
21
-3.53934
0
LINE
8
BLACK
6
CONTINUOUS
10
5.31139
20
-3.53934
11
5.31301
21
-3.5402
0
LINE
8
BLACK
6
CONTINUOUS
10
5.31301
20
-3.5402
11
5.31442
21
-3.54137
0
LINE
8
BLACK
6
CONTINUOUS
10
5.31442
20
-3.54137
11
5.31559
21
-3.54278
0
LINE
8
BLACK
6
CONTINUOUS
10
5.31559
20
-3.54278
11
5.31645
21
-3.5444
0
LINE
8
BLACK
6
CONTINUOUS
10
5.31645
20
-3.5444
11
5.31698
21
-3.54615
0
LINE
8
BLACK
6
CONTINUOUS
10
5.31698
20
-3.54615
11
5.31716
21
-3.54798
0
LINE
8
BLACK
6
CONTINUOUS
10
5.31716
20
-3.54798
11
5.31716
21
-3.56668
0
LINE
8
BLACK
6
CONTINUOUS
10
5.31716
20
-3.56668
11
5.31698
21
-3.5685
0
LINE
8
BLACK
6
CONTINUOUS
10
5.31698
20
-3.5685
11
5.31645
21
-3.57026
0
LINE
8
BLACK
6
CONTINUOUS
10
5.31645
20
-3.57026
11
5.31559
21
-3.57187
0
LINE
8
BLACK
6
CONTINUOUS
10
5.31559
20
-3.57187
11
5.31442
21
-3.57329
0
LINE
8
BLACK
6
CONTINUOUS
10
5.31442
20
-3.57329
11
5.31301
21
-3.57445
0
LINE
8
BLACK
6
CONTINUOUS
10
5.31301
20
-3.57445
11
5.31139
21
-3.57532
0
LINE
8
BLACK
6
CONTINUOUS
10
5.31139
20
-3.57532
11
5.30964
21
-3.57585
0
LINE
8
BLACK
6
CONTINUOUS
10
5.30964
20
-3.57585
11
5.30781
21
-3.57603
0
LINE
8
BLACK
6
CONTINUOUS
10
5.30781
20
-3.57603
11
5.28518
21
-3.57603
0
LINE
8
BLACK
6
CONTINUOUS
10
5.28518
20
-3.57603
11
5.28335
21
-3.57585
0
LINE
8
BLACK
6
CONTINUOUS
10
5.28335
20
-3.57585
11
5.2816
21
-3.57532
0
LINE
8
BLACK
6
CONTINUOUS
10
5.2816
20
-3.57532
11
5.27998
21
-3.57445
0
LINE
8
BLACK
6
CONTINUOUS
10
5.27998
20
-3.57445
11
5.27856
21
-3.57329
0
LINE
8
BLACK
6
CONTINUOUS
10
5.27856
20
-3.57329
11
5.2774
21
-3.57187
0
LINE
8
BLACK
6
CONTINUOUS
10
5.2774
20
-3.57187
11
5.27654
21
-3.57026
0
LINE
8
BLACK
6
CONTINUOUS
10
5.27654
20
-3.57026
11
5.276
21
-3.5685
0
LINE
8
BLACK
6
CONTINUOUS
10
5.276
20
-3.5685
11
5.27582
21
-3.56668
0
LINE
8
BLACK
6
CONTINUOUS
10
5.27582
20
-3.56668
11
5.27582
21
-3.54798
0
LINE
8
BLACK
6
CONTINUOUS
10
5.27582
20
-3.54798
11
5.276
21
-3.54615
0
LINE
8
BLACK
6
CONTINUOUS
10
5.276
20
-3.54615
11
5.27654
21
-3.5444
0
LINE
8
BLACK
6
CONTINUOUS
10
5.27654
20
-3.5444
11
5.2774
21
-3.54278
0
LINE
8
BLACK
6
CONTINUOUS
10
5.2774
20
-3.54278
11
5.27856
21
-3.54137
0
LINE
8
BLACK
6
CONTINUOUS
10
5.27856
20
-3.54137
11
5.27998
21
-3.5402
0
LINE
8
BLACK
6
CONTINUOUS
10
5.27998
20
-3.5402
11
5.2816
21
-3.53934
0
LINE
8
BLACK
6
CONTINUOUS
10
5.2816
20
-3.53934
11
5.28335
21
-3.53881
0
LINE
8
BLACK
6
CONTINUOUS
10
5.28335
20
-3.53881
11
5.28518
21
-3.53863
0
LINE
8
BLACK
6
CONTINUOUS
10
5.28518
20
-3.53863
11
5.30781
21
-3.53863
0
LINE
8
BLACK
6
CONTINUOUS
10
5.30781
20
-3.53863
11
5.30964
21
-3.53881
0
LINE
8
BLACK
6
CONTINUOUS
10
5.37853
20
-3.53881
11
5.38029
21
-3.53934
0
LINE
8
BLACK
6
CONTINUOUS
10
5.38029
20
-3.53934
11
5.38191
21
-3.5402
0
LINE
8
BLACK
6
CONTINUOUS
10
5.38191
20
-3.5402
11
5.38332
21
-3.54137
0
LINE
8
BLACK
6
CONTINUOUS
10
5.38332
20
-3.54137
11
5.38449
21
-3.54278
0
LINE
8
BLACK
6
CONTINUOUS
10
5.38449
20
-3.54278
11
5.38535
21
-3.5444
0
LINE
8
BLACK
6
CONTINUOUS
10
5.38535
20
-3.5444
11
5.38588
21
-3.54615
0
LINE
8
BLACK
6
CONTINUOUS
10
5.38588
20
-3.54615
11
5.38606
21
-3.54798
0
LINE
8
BLACK
6
CONTINUOUS
10
5.38606
20
-3.54798
11
5.38606
21
-3.56668
0
LINE
8
BLACK
6
CONTINUOUS
10
5.38606
20
-3.56668
11
5.38588
21
-3.5685
0
LINE
8
BLACK
6
CONTINUOUS
10
5.38588
20
-3.5685
11
5.38535
21
-3.57026
0
LINE
8
BLACK
6
CONTINUOUS
10
5.38535
20
-3.57026
11
5.38449
21
-3.57187
0
LINE
8
BLACK
6
CONTINUOUS
10
5.38449
20
-3.57187
11
5.38332
21
-3.57329
0
LINE
8
BLACK
6
CONTINUOUS
10
5.38332
20
-3.57329
11
5.38191
21
-3.57445
0
LINE
8
BLACK
6
CONTINUOUS
10
5.38191
20
-3.57445
11
5.38029
21
-3.57532
0
LINE
8
BLACK
6
CONTINUOUS
10
5.38029
20
-3.57532
11
5.37853
21
-3.57585
0
LINE
8
BLACK
6
CONTINUOUS
10
5.37853
20
-3.57585
11
5.37671
21
-3.57603
0
LINE
8
BLACK
6
CONTINUOUS
10
5.37671
20
-3.57603
11
5.35407
21
-3.57603
0
LINE
8
BLACK
6
CONTINUOUS
10
5.35407
20
-3.57603
11
5.35225
21
-3.57585
0
LINE
8
BLACK
6
CONTINUOUS
10
5.35225
20
-3.57585
11
5.35049
21
-3.57532
0
LINE
8
BLACK
6
CONTINUOUS
10
5.35049
20
-3.57532
11
5.34888
21
-3.57445
0
LINE
8
BLACK
6
CONTINUOUS
10
5.34888
20
-3.57445
11
5.34746
21
-3.57329
0
LINE
8
BLACK
6
CONTINUOUS
10
5.34746
20
-3.57329
11
5.3463
21
-3.57187
0
LINE
8
BLACK
6
CONTINUOUS
10
5.3463
20
-3.57187
11
5.34543
21
-3.57026
0
LINE
8
BLACK
6
CONTINUOUS
10
5.34543
20
-3.57026
11
5.3449
21
-3.5685
0
LINE
8
BLACK
6
CONTINUOUS
10
5.3449
20
-3.5685
11
5.34472
21
-3.56668
0
LINE
8
BLACK
6
CONTINUOUS
10
5.34472
20
-3.56668
11
5.34472
21
-3.54798
0
LINE
8
BLACK
6
CONTINUOUS
10
5.34472
20
-3.54798
11
5.3449
21
-3.54615
0
LINE
8
BLACK
6
CONTINUOUS
10
5.3449
20
-3.54615
11
5.34543
21
-3.5444
0
LINE
8
BLACK
6
CONTINUOUS
10
5.34543
20
-3.5444
11
5.3463
21
-3.54278
0
LINE
8
BLACK
6
CONTINUOUS
10
5.3463
20
-3.54278
11
5.34746
21
-3.54137
0
LINE
8
BLACK
6
CONTINUOUS
10
5.34746
20
-3.54137
11
5.34888
21
-3.5402
0
LINE
8
BLACK
6
CONTINUOUS
10
5.34888
20
-3.5402
11
5.35049
21
-3.53934
0
LINE
8
BLACK
6
CONTINUOUS
10
5.35049
20
-3.53934
11
5.35225
21
-3.53881
0
LINE
8
BLACK
6
CONTINUOUS
10
5.35225
20
-3.53881
11
5.35407
21
-3.53863
0
LINE
8
BLACK
6
CONTINUOUS
10
5.35407
20
-3.53863
11
5.37671
21
-3.53863
0
LINE
8
BLACK
6
CONTINUOUS
10
5.37671
20
-3.53863
11
5.37853
21
-3.53881
0
LINE
8
BLACK
6
CONTINUOUS
10
2.37873
20
-3.53881
11
2.38048
21
-3.53934
0
LINE
8
BLACK
6
CONTINUOUS
10
2.38048
20
-3.53934
11
2.3821
21
-3.5402
0
LINE
8
BLACK
6
CONTINUOUS
10
2.3821
20
-3.5402
11
2.38352
21
-3.54137
0
LINE
8
BLACK
6
CONTINUOUS
10
2.38352
20
-3.54137
11
2.38468
21
-3.54278
0
LINE
8
BLACK
6
CONTINUOUS
10
2.38468
20
-3.54278
11
2.38554
21
-3.5444
0
LINE
8
BLACK
6
CONTINUOUS
10
2.38554
20
-3.5444
11
2.38607
21
-3.54615
0
LINE
8
BLACK
6
CONTINUOUS
10
2.38607
20
-3.54615
11
2.38625
21
-3.54798
0
LINE
8
BLACK
6
CONTINUOUS
10
2.38625
20
-3.54798
11
2.38625
21
-3.56668
0
LINE
8
BLACK
6
CONTINUOUS
10
2.38625
20
-3.56668
11
2.38607
21
-3.5685
0
LINE
8
BLACK
6
CONTINUOUS
10
2.38607
20
-3.5685
11
2.38554
21
-3.57026
0
LINE
8
BLACK
6
CONTINUOUS
10
2.38554
20
-3.57026
11
2.38468
21
-3.57187
0
LINE
8
BLACK
6
CONTINUOUS
10
2.38468
20
-3.57187
11
2.38352
21
-3.57329
0
LINE
8
BLACK
6
CONTINUOUS
10
2.38352
20
-3.57329
11
2.3821
21
-3.57445
0
LINE
8
BLACK
6
CONTINUOUS
10
2.3821
20
-3.57445
11
2.38048
21
-3.57532
0
LINE
8
BLACK
6
CONTINUOUS
10
2.38048
20
-3.57532
11
2.37873
21
-3.57585
0
LINE
8
BLACK
6
CONTINUOUS
10
2.37873
20
-3.57585
11
2.3769
21
-3.57603
0
LINE
8
BLACK
6
CONTINUOUS
10
2.3769
20
-3.57603
11
2.35427
21
-3.57603
0
LINE
8
BLACK
6
CONTINUOUS
10
2.35427
20
-3.57603
11
2.35244
21
-3.57585
0
LINE
8
BLACK
6
CONTINUOUS
10
2.35244
20
-3.57585
11
2.35069
21
-3.57532
0
LINE
8
BLACK
6
CONTINUOUS
10
2.35069
20
-3.57532
11
2.34907
21
-3.57445
0
LINE
8
BLACK
6
CONTINUOUS
10
2.34907
20
-3.57445
11
2.34765
21
-3.57329
0
LINE
8
BLACK
6
CONTINUOUS
10
2.34765
20
-3.57329
11
2.34649
21
-3.57187
0
LINE
8
BLACK
6
CONTINUOUS
10
2.34649
20
-3.57187
11
2.34563
21
-3.57026
0
LINE
8
BLACK
6
CONTINUOUS
10
2.34563
20
-3.57026
11
2.34509
21
-3.5685
0
LINE
8
BLACK
6
CONTINUOUS
10
2.34509
20
-3.5685
11
2.34492
21
-3.56668
0
LINE
8
BLACK
6
CONTINUOUS
10
2.34492
20
-3.56668
11
2.34492
21
-3.54798
0
LINE
8
BLACK
6
CONTINUOUS
10
2.34492
20
-3.54798
11
2.34509
21
-3.54615
0
LINE
8
BLACK
6
CONTINUOUS
10
2.34509
20
-3.54615
11
2.34563
21
-3.5444
0
LINE
8
BLACK
6
CONTINUOUS
10
2.34563
20
-3.5444
11
2.34649
21
-3.54278
0
LINE
8
BLACK
6
CONTINUOUS
10
2.34649
20
-3.54278
11
2.34765
21
-3.54137
0
LINE
8
BLACK
6
CONTINUOUS
10
2.34765
20
-3.54137
11
2.34907
21
-3.5402
0
LINE
8
BLACK
6
CONTINUOUS
10
2.34907
20
-3.5402
11
2.35069
21
-3.53934
0
LINE
8
BLACK
6
CONTINUOUS
10
2.35069
20
-3.53934
11
2.35244
21
-3.53881
0
LINE
8
BLACK
6
CONTINUOUS
10
2.35244
20
-3.53881
11
2.35427
21
-3.53863
0
LINE
8
BLACK
6
CONTINUOUS
10
2.35427
20
-3.53863
11
2.3769
21
-3.53863
0
LINE
8
BLACK
6
CONTINUOUS
10
2.3769
20
-3.53863
11
2.37873
21
-3.53881
0
LINE
8
BLACK
6
CONTINUOUS
10
2.30983
20
-3.53881
11
2.31158
21
-3.53934
0
LINE
8
BLACK
6
CONTINUOUS
10
2.31158
20
-3.53934
11
2.3132
21
-3.5402
0
LINE
8
BLACK
6
CONTINUOUS
10
2.3132
20
-3.5402
11
2.31462
21
-3.54137
0
LINE
8
BLACK
6
CONTINUOUS
10
2.31462
20
-3.54137
11
2.31578
21
-3.54278
0
LINE
8
BLACK
6
CONTINUOUS
10
2.31578
20
-3.54278
11
2.31664
21
-3.5444
0
LINE
8
BLACK
6
CONTINUOUS
10
2.31664
20
-3.5444
11
2.31718
21
-3.54615
0
LINE
8
BLACK
6
CONTINUOUS
10
2.31718
20
-3.54615
11
2.31736
21
-3.54798
0
LINE
8
BLACK
6
CONTINUOUS
10
2.31736
20
-3.54798
11
2.31736
21
-3.56668
0
LINE
8
BLACK
6
CONTINUOUS
10
2.31736
20
-3.56668
11
2.31718
21
-3.5685
0
LINE
8
BLACK
6
CONTINUOUS
10
2.31718
20
-3.5685
11
2.31664
21
-3.57026
0
LINE
8
BLACK
6
CONTINUOUS
10
2.31664
20
-3.57026
11
2.31578
21
-3.57187
0
LINE
8
BLACK
6
CONTINUOUS
10
2.31578
20
-3.57187
11
2.31462
21
-3.57329
0
LINE
8
BLACK
6
CONTINUOUS
10
2.31462
20
-3.57329
11
2.3132
21
-3.57445
0
LINE
8
BLACK
6
CONTINUOUS
10
2.3132
20
-3.57445
11
2.31158
21
-3.57532
0
LINE
8
BLACK
6
CONTINUOUS
10
2.31158
20
-3.57532
11
2.30983
21
-3.57585
0
LINE
8
BLACK
6
CONTINUOUS
10
2.30983
20
-3.57585
11
2.30801
21
-3.57603
0
LINE
8
BLACK
6
CONTINUOUS
10
2.30801
20
-3.57603
11
2.28537
21
-3.57603
0
LINE
8
BLACK
6
CONTINUOUS
10
2.28537
20
-3.57603
11
2.28354
21
-3.57585
0
LINE
8
BLACK
6
CONTINUOUS
10
2.28354
20
-3.57585
11
2.28179
21
-3.57532
0
LINE
8
BLACK
6
CONTINUOUS
10
2.28179
20
-3.57532
11
2.28017
21
-3.57445
0
LINE
8
BLACK
6
CONTINUOUS
10
2.28017
20
-3.57445
11
2.27876
21
-3.57329
0
LINE
8
BLACK
6
CONTINUOUS
10
2.27876
20
-3.57329
11
2.27759
21
-3.57187
0
LINE
8
BLACK
6
CONTINUOUS
10
2.27759
20
-3.57187
11
2.27673
21
-3.57026
0
LINE
8
BLACK
6
CONTINUOUS
10
2.27673
20
-3.57026
11
2.2762
21
-3.5685
0
LINE
8
BLACK
6
CONTINUOUS
10
2.2762
20
-3.5685
11
2.27602
21
-3.56668
0
LINE
8
BLACK
6
CONTINUOUS
10
2.27602
20
-3.56668
11
2.27602
21
-3.54798
0
LINE
8
BLACK
6
CONTINUOUS
10
2.27602
20
-3.54798
11
2.2762
21
-3.54615
0
LINE
8
BLACK
6
CONTINUOUS
10
2.2762
20
-3.54615
11
2.27673
21
-3.5444
0
LINE
8
BLACK
6
CONTINUOUS
10
2.27673
20
-3.5444
11
2.27759
21
-3.54278
0
LINE
8
BLACK
6
CONTINUOUS
10
2.27759
20
-3.54278
11
2.27876
21
-3.54137
0
LINE
8
BLACK
6
CONTINUOUS
10
2.27876
20
-3.54137
11
2.28017
21
-3.5402
0
LINE
8
BLACK
6
CONTINUOUS
10
2.28017
20
-3.5402
11
2.28179
21
-3.53934
0
LINE
8
BLACK
6
CONTINUOUS
10
2.28179
20
-3.53934
11
2.28354
21
-3.53881
0
LINE
8
BLACK
6
CONTINUOUS
10
2.28354
20
-3.53881
11
2.28537
21
-3.53863
0
LINE
8
BLACK
6
CONTINUOUS
10
2.28537
20
-3.53863
11
2.30801
21
-3.53863
0
LINE
8
BLACK
6
CONTINUOUS
10
2.30801
20
-3.53863
11
2.30983
21
-3.53881
0
LINE
8
BLACK
6
CONTINUOUS
10
4.55969
20
-3.41381
11
4.56144
21
-3.41435
0
LINE
8
BLACK
6
CONTINUOUS
10
4.56144
20
-3.41435
11
4.56306
21
-3.41521
0
LINE
8
BLACK
6
CONTINUOUS
10
4.56306
20
-3.41521
11
4.56447
21
-3.41637
0
LINE
8
BLACK
6
CONTINUOUS
10
4.56447
20
-3.41637
11
4.56564
21
-3.41779
0
LINE
8
BLACK
6
CONTINUOUS
10
4.56564
20
-3.41779
11
4.5665
21
-3.41941
0
LINE
8
BLACK
6
CONTINUOUS
10
4.5665
20
-3.41941
11
4.56703
21
-3.42116
0
LINE
8
BLACK
6
CONTINUOUS
10
4.56703
20
-3.42116
11
4.56721
21
-3.42298
0
LINE
8
BLACK
6
CONTINUOUS
10
4.56721
20
-3.42298
11
4.56721
21
-3.44169
0
LINE
8
BLACK
6
CONTINUOUS
10
4.56721
20
-3.44169
11
4.56703
21
-3.44351
0
LINE
8
BLACK
6
CONTINUOUS
10
4.56703
20
-3.44351
11
4.5665
21
-3.44526
0
LINE
8
BLACK
6
CONTINUOUS
10
4.5665
20
-3.44526
11
4.56564
21
-3.44688
0
LINE
8
BLACK
6
CONTINUOUS
10
4.56564
20
-3.44688
11
4.56447
21
-3.4483
0
LINE
8
BLACK
6
CONTINUOUS
10
4.56447
20
-3.4483
11
4.56306
21
-3.44946
0
LINE
8
BLACK
6
CONTINUOUS
10
4.56306
20
-3.44946
11
4.56144
21
-3.45032
0
LINE
8
BLACK
6
CONTINUOUS
10
4.56144
20
-3.45032
11
4.55969
21
-3.45086
0
LINE
8
BLACK
6
CONTINUOUS
10
4.55969
20
-3.45086
11
4.55786
21
-3.45104
0
LINE
8
BLACK
6
CONTINUOUS
10
4.55786
20
-3.45104
11
4.53522
21
-3.45104
0
LINE
8
BLACK
6
CONTINUOUS
10
4.53522
20
-3.45104
11
4.5334
21
-3.45086
0
LINE
8
BLACK
6
CONTINUOUS
10
4.5334
20
-3.45086
11
4.53165
21
-3.45032
0
LINE
8
BLACK
6
CONTINUOUS
10
4.53165
20
-3.45032
11
4.53003
21
-3.44946
0
LINE
8
BLACK
6
CONTINUOUS
10
4.53003
20
-3.44946
11
4.52861
21
-3.4483
0
LINE
8
BLACK
6
CONTINUOUS
10
4.52861
20
-3.4483
11
4.52745
21
-3.44688
0
LINE
8
BLACK
6
CONTINUOUS
10
4.52745
20
-3.44688
11
4.52658
21
-3.44526
0
LINE
8
BLACK
6
CONTINUOUS
10
4.52658
20
-3.44526
11
4.52605
21
-3.44351
0
LINE
8
BLACK
6
CONTINUOUS
10
4.52605
20
-3.44351
11
4.52587
21
-3.44169
0
LINE
8
BLACK
6
CONTINUOUS
10
4.52587
20
-3.44169
11
4.52587
21
-3.42298
0
LINE
8
BLACK
6
CONTINUOUS
10
4.52587
20
-3.42298
11
4.52605
21
-3.42116
0
LINE
8
BLACK
6
CONTINUOUS
10
4.52605
20
-3.42116
11
4.52658
21
-3.41941
0
LINE
8
BLACK
6
CONTINUOUS
10
4.52658
20
-3.41941
11
4.52745
21
-3.41779
0
LINE
8
BLACK
6
CONTINUOUS
10
4.52745
20
-3.41779
11
4.52861
21
-3.41637
0
LINE
8
BLACK
6
CONTINUOUS
10
4.52861
20
-3.41637
11
4.53003
21
-3.41521
0
LINE
8
BLACK
6
CONTINUOUS
10
4.53003
20
-3.41521
11
4.53165
21
-3.41435
0
LINE
8
BLACK
6
CONTINUOUS
10
4.53165
20
-3.41435
11
4.5334
21
-3.41381
0
LINE
8
BLACK
6
CONTINUOUS
10
4.5334
20
-3.41381
11
4.53522
21
-3.41363
0
LINE
8
BLACK
6
CONTINUOUS
10
4.53522
20
-3.41363
11
4.55786
21
-3.41363
0
LINE
8
BLACK
6
CONTINUOUS
10
4.55786
20
-3.41363
11
4.55969
21
-3.41381
0
LINE
8
BLACK
6
CONTINUOUS
10
4.62858
20
-3.41381
11
4.63034
21
-3.41435
0
LINE
8
BLACK
6
CONTINUOUS
10
4.63034
20
-3.41435
11
4.63195
21
-3.41521
0
LINE
8
BLACK
6
CONTINUOUS
10
4.63195
20
-3.41521
11
4.63337
21
-3.41637
0
LINE
8
BLACK
6
CONTINUOUS
10
4.63337
20
-3.41637
11
4.63453
21
-3.41779
0
LINE
8
BLACK
6
CONTINUOUS
10
4.63453
20
-3.41779
11
4.6354
21
-3.41941
0
LINE
8
BLACK
6
CONTINUOUS
10
4.6354
20
-3.41941
11
4.63593
21
-3.42116
0
LINE
8
BLACK
6
CONTINUOUS
10
4.63593
20
-3.42116
11
4.63611
21
-3.42298
0
LINE
8
BLACK
6
CONTINUOUS
10
4.63611
20
-3.42298
11
4.63611
21
-3.44169
0
LINE
8
BLACK
6
CONTINUOUS
10
4.63611
20
-3.44169
11
4.63593
21
-3.44351
0
LINE
8
BLACK
6
CONTINUOUS
10
4.63593
20
-3.44351
11
4.6354
21
-3.44526
0
LINE
8
BLACK
6
CONTINUOUS
10
4.6354
20
-3.44526
11
4.63453
21
-3.44688
0
LINE
8
BLACK
6
CONTINUOUS
10
4.63453
20
-3.44688
11
4.63337
21
-3.4483
0
LINE
8
BLACK
6
CONTINUOUS
10
4.63337
20
-3.4483
11
4.63195
21
-3.44946
0
LINE
8
BLACK
6
CONTINUOUS
10
4.63195
20
-3.44946
11
4.63034
21
-3.45032
0
LINE
8
BLACK
6
CONTINUOUS
10
4.63034
20
-3.45032
11
4.62858
21
-3.45086
0
LINE
8
BLACK
6
CONTINUOUS
10
4.62858
20
-3.45086
11
4.62676
21
-3.45104
0
LINE
8
BLACK
6
CONTINUOUS
10
4.62676
20
-3.45104
11
4.60412
21
-3.45104
0
LINE
8
BLACK
6
CONTINUOUS
10
4.60412
20
-3.45104
11
4.6023
21
-3.45086
0
LINE
8
BLACK
6
CONTINUOUS
10
4.6023
20
-3.45086
11
4.60054
21
-3.45032
0
LINE
8
BLACK
6
CONTINUOUS
10
4.60054
20
-3.45032
11
4.59893
21
-3.44946
0
LINE
8
BLACK
6
CONTINUOUS
10
4.59893
20
-3.44946
11
4.59751
21
-3.4483
0
LINE
8
BLACK
6
CONTINUOUS
10
4.59751
20
-3.4483
11
4.59635
21
-3.44688
0
LINE
8
BLACK
6
CONTINUOUS
10
4.59635
20
-3.44688
11
4.59548
21
-3.44526
0
LINE
8
BLACK
6
CONTINUOUS
10
4.59548
20
-3.44526
11
4.59495
21
-3.44351
0
LINE
8
BLACK
6
CONTINUOUS
10
4.59495
20
-3.44351
11
4.59477
21
-3.44169
0
LINE
8
BLACK
6
CONTINUOUS
10
4.59477
20
-3.44169
11
4.59477
21
-3.42298
0
LINE
8
BLACK
6
CONTINUOUS
10
4.59477
20
-3.42298
11
4.59495
21
-3.42116
0
LINE
8
BLACK
6
CONTINUOUS
10
4.59495
20
-3.42116
11
4.59548
21
-3.41941
0
LINE
8
BLACK
6
CONTINUOUS
10
4.59548
20
-3.41941
11
4.59635
21
-3.41779
0
LINE
8
BLACK
6
CONTINUOUS
10
4.59635
20
-3.41779
11
4.59751
21
-3.41637
0
LINE
8
BLACK
6
CONTINUOUS
10
4.59751
20
-3.41637
11
4.59893
21
-3.41521
0
LINE
8
BLACK
6
CONTINUOUS
10
4.59893
20
-3.41521
11
4.60054
21
-3.41435
0
LINE
8
BLACK
6
CONTINUOUS
10
4.60054
20
-3.41435
11
4.6023
21
-3.41381
0
LINE
8
BLACK
6
CONTINUOUS
10
4.6023
20
-3.41381
11
4.60412
21
-3.41363
0
LINE
8
BLACK
6
CONTINUOUS
10
4.60412
20
-3.41363
11
4.62676
21
-3.41363
0
LINE
8
BLACK
6
CONTINUOUS
10
4.62676
20
-3.41363
11
4.62858
21
-3.41381
0
LINE
8
BLACK
6
CONTINUOUS
10
3.12868
20
-3.41381
11
3.13043
21
-3.41435
0
LINE
8
BLACK
6
CONTINUOUS
10
3.13043
20
-3.41435
11
3.13205
21
-3.41521
0
LINE
8
BLACK
6
CONTINUOUS
10
3.13205
20
-3.41521
11
3.13347
21
-3.41637
0
LINE
8
BLACK
6
CONTINUOUS
10
3.13347
20
-3.41637
11
3.13463
21
-3.41779
0
LINE
8
BLACK
6
CONTINUOUS
10
3.13463
20
-3.41779
11
3.13549
21
-3.41941
0
LINE
8
BLACK
6
CONTINUOUS
10
3.13549
20
-3.41941
11
3.13603
21
-3.42116
0
LINE
8
BLACK
6
CONTINUOUS
10
3.13603
20
-3.42116
11
3.13621
21
-3.42298
0
LINE
8
BLACK
6
CONTINUOUS
10
3.13621
20
-3.42298
11
3.13621
21
-3.44169
0
LINE
8
BLACK
6
CONTINUOUS
10
3.13621
20
-3.44169
11
3.13603
21
-3.44351
0
LINE
8
BLACK
6
CONTINUOUS
10
3.13603
20
-3.44351
11
3.13549
21
-3.44526
0
LINE
8
BLACK
6
CONTINUOUS
10
3.13549
20
-3.44526
11
3.13463
21
-3.44688
0
LINE
8
BLACK
6
CONTINUOUS
10
3.13463
20
-3.44688
11
3.13347
21
-3.4483
0
LINE
8
BLACK
6
CONTINUOUS
10
3.13347
20
-3.4483
11
3.13205
21
-3.44946
0
LINE
8
BLACK
6
CONTINUOUS
10
3.13205
20
-3.44946
11
3.13043
21
-3.45032
0
LINE
8
BLACK
6
CONTINUOUS
10
3.13043
20
-3.45032
11
3.12868
21
-3.45086
0
LINE
8
BLACK
6
CONTINUOUS
10
3.12868
20
-3.45086
11
3.12686
21
-3.45104
0
LINE
8
BLACK
6
CONTINUOUS
10
3.12686
20
-3.45104
11
3.10422
21
-3.45104
0
LINE
8
BLACK
6
CONTINUOUS
10
3.10422
20
-3.45104
11
3.10239
21
-3.45086
0
LINE
8
BLACK
6
CONTINUOUS
10
3.10239
20
-3.45086
11
3.10064
21
-3.45032
0
LINE
8
BLACK
6
CONTINUOUS
10
3.10064
20
-3.45032
11
3.09902
21
-3.44946
0
LINE
8
BLACK
6
CONTINUOUS
10
3.09902
20
-3.44946
11
3.09761
21
-3.4483
0
LINE
8
BLACK
6
CONTINUOUS
10
3.09761
20
-3.4483
11
3.09644
21
-3.44688
0
LINE
8
BLACK
6
CONTINUOUS
10
3.09644
20
-3.44688
11
3.09558
21
-3.44526
0
LINE
8
BLACK
6
CONTINUOUS
10
3.09558
20
-3.44526
11
3.09505
21
-3.44351
0
LINE
8
BLACK
6
CONTINUOUS
10
3.09505
20
-3.44351
11
3.09487
21
-3.44169
0
LINE
8
BLACK
6
CONTINUOUS
10
3.09487
20
-3.44169
11
3.09487
21
-3.42298
0
LINE
8
BLACK
6
CONTINUOUS
10
3.09487
20
-3.42298
11
3.09505
21
-3.42116
0
LINE
8
BLACK
6
CONTINUOUS
10
3.09505
20
-3.42116
11
3.09558
21
-3.41941
0
LINE
8
BLACK
6
CONTINUOUS
10
3.09558
20
-3.41941
11
3.09644
21
-3.41779
0
LINE
8
BLACK
6
CONTINUOUS
10
3.09644
20
-3.41779
11
3.09761
21
-3.41637
0
LINE
8
BLACK
6
CONTINUOUS
10
3.09761
20
-3.41637
11
3.09902
21
-3.41521
0
LINE
8
BLACK
6
CONTINUOUS
10
3.09902
20
-3.41521
11
3.10064
21
-3.41435
0
LINE
8
BLACK
6
CONTINUOUS
10
3.10064
20
-3.41435
11
3.10239
21
-3.41381
0
LINE
8
BLACK
6
CONTINUOUS
10
3.10239
20
-3.41381
11
3.10422
21
-3.41363
0
LINE
8
BLACK
6
CONTINUOUS
10
3.10422
20
-3.41363
11
3.12686
21
-3.41363
0
LINE
8
BLACK
6
CONTINUOUS
10
3.12686
20
-3.41363
11
3.12868
21
-3.41381
0
LINE
8
BLACK
6
CONTINUOUS
10
3.05978
20
-3.41381
11
3.06154
21
-3.41435
0
LINE
8
BLACK
6
CONTINUOUS
10
3.06154
20
-3.41435
11
3.06315
21
-3.41521
0
LINE
8
BLACK
6
CONTINUOUS
10
3.06315
20
-3.41521
11
3.06457
21
-3.41637
0
LINE
8
BLACK
6
CONTINUOUS
10
3.06457
20
-3.41637
11
3.06573
21
-3.41779
0
LINE
8
BLACK
6
CONTINUOUS
10
3.06573
20
-3.41779
11
3.0666
21
-3.41941
0
LINE
8
BLACK
6
CONTINUOUS
10
3.0666
20
-3.41941
11
3.06713
21
-3.42116
0
LINE
8
BLACK
6
CONTINUOUS
10
3.06713
20
-3.42116
11
3.06731
21
-3.42298
0
LINE
8
BLACK
6
CONTINUOUS
10
3.06731
20
-3.42298
11
3.06731
21
-3.44169
0
LINE
8
BLACK
6
CONTINUOUS
10
3.06731
20
-3.44169
11
3.06713
21
-3.44351
0
LINE
8
BLACK
6
CONTINUOUS
10
3.06713
20
-3.44351
11
3.0666
21
-3.44526
0
LINE
8
BLACK
6
CONTINUOUS
10
3.0666
20
-3.44526
11
3.06573
21
-3.44688
0
LINE
8
BLACK
6
CONTINUOUS
10
3.06573
20
-3.44688
11
3.06457
21
-3.4483
0
LINE
8
BLACK
6
CONTINUOUS
10
3.06457
20
-3.4483
11
3.06315
21
-3.44946
0
LINE
8
BLACK
6
CONTINUOUS
10
3.06315
20
-3.44946
11
3.06154
21
-3.45032
0
LINE
8
BLACK
6
CONTINUOUS
10
3.06154
20
-3.45032
11
3.05978
21
-3.45086
0
LINE
8
BLACK
6
CONTINUOUS
10
3.05978
20
-3.45086
11
3.05796
21
-3.45104
0
LINE
8
BLACK
6
CONTINUOUS
10
3.05796
20
-3.45104
11
3.03532
21
-3.45104
0
LINE
8
BLACK
6
CONTINUOUS
10
3.03532
20
-3.45104
11
3.0335
21
-3.45086
0
LINE
8
BLACK
6
CONTINUOUS
10
3.0335
20
-3.45086
11
3.03174
21
-3.45032
0
LINE
8
BLACK
6
CONTINUOUS
10
3.03174
20
-3.45032
11
3.03012
21
-3.44946
0
LINE
8
BLACK
6
CONTINUOUS
10
3.03012
20
-3.44946
11
3.02871
21
-3.4483
0
LINE
8
BLACK
6
CONTINUOUS
10
3.02871
20
-3.4483
11
3.02755
21
-3.44688
0
LINE
8
BLACK
6
CONTINUOUS
10
3.02755
20
-3.44688
11
3.02668
21
-3.44526
0
LINE
8
BLACK
6
CONTINUOUS
10
3.02668
20
-3.44526
11
3.02615
21
-3.44351
0
LINE
8
BLACK
6
CONTINUOUS
10
3.02615
20
-3.44351
11
3.02597
21
-3.44169
0
LINE
8
BLACK
6
CONTINUOUS
10
3.02597
20
-3.44169
11
3.02597
21
-3.42298
0
LINE
8
BLACK
6
CONTINUOUS
10
3.02597
20
-3.42298
11
3.02615
21
-3.42116
0
LINE
8
BLACK
6
CONTINUOUS
10
3.02615
20
-3.42116
11
3.02668
21
-3.41941
0
LINE
8
BLACK
6
CONTINUOUS
10
3.02668
20
-3.41941
11
3.02755
21
-3.41779
0
LINE
8
BLACK
6
CONTINUOUS
10
3.02755
20
-3.41779
11
3.02871
21
-3.41637
0
LINE
8
BLACK
6
CONTINUOUS
10
3.02871
20
-3.41637
11
3.03012
21
-3.41521
0
LINE
8
BLACK
6
CONTINUOUS
10
3.03012
20
-3.41521
11
3.03174
21
-3.41435
0
LINE
8
BLACK
6
CONTINUOUS
10
3.03174
20
-3.41435
11
3.0335
21
-3.41381
0
LINE
8
BLACK
6
CONTINUOUS
10
3.0335
20
-3.41381
11
3.03532
21
-3.41363
0
LINE
8
BLACK
6
CONTINUOUS
10
3.03532
20
-3.41363
11
3.05796
21
-3.41363
0
LINE
8
BLACK
6
CONTINUOUS
10
3.05796
20
-3.41363
11
3.05978
21
-3.41381
0
LINE
8
BLACK
6
CONTINUOUS
10
3.87863
20
-3.28882
11
3.88039
21
-3.28935
0
LINE
8
BLACK
6
CONTINUOUS
10
3.88039
20
-3.28935
11
3.882
21
-3.29022
0
LINE
8
BLACK
6
CONTINUOUS
10
3.882
20
-3.29022
11
3.88342
21
-3.29138
0
LINE
8
BLACK
6
CONTINUOUS
10
3.88342
20
-3.29138
11
3.88458
21
-3.2928
0
LINE
8
BLACK
6
CONTINUOUS
10
3.88458
20
-3.2928
11
3.88545
21
-3.29441
0
LINE
8
BLACK
6
CONTINUOUS
10
3.88545
20
-3.29441
11
3.88598
21
-3.29617
0
LINE
8
BLACK
6
CONTINUOUS
10
3.88598
20
-3.29617
11
3.88616
21
-3.29799
0
LINE
8
BLACK
6
CONTINUOUS
10
3.88616
20
-3.29799
11
3.88616
21
-3.31669
0
LINE
8
BLACK
6
CONTINUOUS
10
3.88616
20
-3.31669
11
3.88598
21
-3.31852
0
LINE
8
BLACK
6
CONTINUOUS
10
3.88598
20
-3.31852
11
3.88545
21
-3.32027
0
LINE
8
BLACK
6
CONTINUOUS
10
3.88545
20
-3.32027
11
3.88458
21
-3.32189
0
LINE
8
BLACK
6
CONTINUOUS
10
3.88458
20
-3.32189
11
3.88342
21
-3.32331
0
LINE
8
BLACK
6
CONTINUOUS
10
3.88342
20
-3.32331
11
3.882
21
-3.32447
0
LINE
8
BLACK
6
CONTINUOUS
10
3.882
20
-3.32447
11
3.88039
21
-3.32533
0
LINE
8
BLACK
6
CONTINUOUS
10
3.88039
20
-3.32533
11
3.87863
21
-3.32586
0
LINE
8
BLACK
6
CONTINUOUS
10
3.87863
20
-3.32586
11
3.87681
21
-3.32604
0
LINE
8
BLACK
6
CONTINUOUS
10
3.87681
20
-3.32604
11
3.85417
21
-3.32604
0
LINE
8
BLACK
6
CONTINUOUS
10
3.85417
20
-3.32604
11
3.85234
21
-3.32586
0
LINE
8
BLACK
6
CONTINUOUS
10
3.85234
20
-3.32586
11
3.85059
21
-3.32533
0
LINE
8
BLACK
6
CONTINUOUS
10
3.85059
20
-3.32533
11
3.84897
21
-3.32447
0
LINE
8
BLACK
6
CONTINUOUS
10
3.84897
20
-3.32447
11
3.84756
21
-3.32331
0
LINE
8
BLACK
6
CONTINUOUS
10
3.84756
20
-3.32331
11
3.84639
21
-3.32189
0
LINE
8
BLACK
6
CONTINUOUS
10
3.84639
20
-3.32189
11
3.84553
21
-3.32027
0
LINE
8
BLACK
6
CONTINUOUS
10
3.84553
20
-3.32027
11
3.845
21
-3.31852
0
LINE
8
BLACK
6
CONTINUOUS
10
3.845
20
-3.31852
11
3.84482
21
-3.31669
0
LINE
8
BLACK
6
CONTINUOUS
10
3.84482
20
-3.31669
11
3.84482
21
-3.29799
0
LINE
8
BLACK
6
CONTINUOUS
10
3.84482
20
-3.29799
11
3.845
21
-3.29617
0
LINE
8
BLACK
6
CONTINUOUS
10
3.845
20
-3.29617
11
3.84553
21
-3.29441
0
LINE
8
BLACK
6
CONTINUOUS
10
3.84553
20
-3.29441
11
3.84639
21
-3.2928
0
LINE
8
BLACK
6
CONTINUOUS
10
3.84639
20
-3.2928
11
3.84756
21
-3.29138
0
LINE
8
BLACK
6
CONTINUOUS
10
3.84756
20
-3.29138
11
3.84897
21
-3.29022
0
LINE
8
BLACK
6
CONTINUOUS
10
3.84897
20
-3.29022
11
3.85059
21
-3.28935
0
LINE
8
BLACK
6
CONTINUOUS
10
3.85059
20
-3.28935
11
3.85234
21
-3.28882
0
LINE
8
BLACK
6
CONTINUOUS
10
3.85234
20
-3.28882
11
3.85417
21
-3.28864
0
LINE
8
BLACK
6
CONTINUOUS
10
3.85417
20
-3.28864
11
3.87681
21
-3.28864
0
LINE
8
BLACK
6
CONTINUOUS
10
3.87681
20
-3.28864
11
3.87863
21
-3.28882
0
LINE
8
BLACK
6
CONTINUOUS
10
3.80973
20
-3.28882
11
3.81149
21
-3.28935
0
LINE
8
BLACK
6
CONTINUOUS
10
3.81149
20
-3.28935
11
3.8131
21
-3.29022
0
LINE
8
BLACK
6
CONTINUOUS
10
3.8131
20
-3.29022
11
3.81452
21
-3.29138
0
LINE
8
BLACK
6
CONTINUOUS
10
3.81452
20
-3.29138
11
3.81568
21
-3.2928
0
LINE
8
BLACK
6
CONTINUOUS
10
3.81568
20
-3.2928
11
3.81655
21
-3.29441
0
LINE
8
BLACK
6
CONTINUOUS
10
3.81655
20
-3.29441
11
3.81708
21
-3.29617
0
LINE
8
BLACK
6
CONTINUOUS
10
3.81708
20
-3.29617
11
3.81726
21
-3.29799
0
LINE
8
BLACK
6
CONTINUOUS
10
3.81726
20
-3.29799
11
3.81726
21
-3.31669
0
LINE
8
BLACK
6
CONTINUOUS
10
3.81726
20
-3.31669
11
3.81708
21
-3.31852
0
LINE
8
BLACK
6
CONTINUOUS
10
3.81708
20
-3.31852
11
3.81655
21
-3.32027
0
LINE
8
BLACK
6
CONTINUOUS
10
3.81655
20
-3.32027
11
3.81568
21
-3.32189
0
LINE
8
BLACK
6
CONTINUOUS
10
3.81568
20
-3.32189
11
3.81452
21
-3.32331
0
LINE
8
BLACK
6
CONTINUOUS
10
3.81452
20
-3.32331
11
3.8131
21
-3.32447
0
LINE
8
BLACK
6
CONTINUOUS
10
3.8131
20
-3.32447
11
3.81149
21
-3.32533
0
LINE
8
BLACK
6
CONTINUOUS
10
3.81149
20
-3.32533
11
3.80973
21
-3.32586
0
LINE
8
BLACK
6
CONTINUOUS
10
3.80973
20
-3.32586
11
3.80791
21
-3.32604
0
LINE
8
BLACK
6
CONTINUOUS
10
3.80791
20
-3.32604
11
3.78527
21
-3.32604
0
LINE
8
BLACK
6
CONTINUOUS
10
3.78527
20
-3.32604
11
3.78345
21
-3.32586
0
LINE
8
BLACK
6
CONTINUOUS
10
3.78345
20
-3.32586
11
3.78169
21
-3.32533
0
LINE
8
BLACK
6
CONTINUOUS
10
3.78169
20
-3.32533
11
3.78008
21
-3.32447
0
LINE
8
BLACK
6
CONTINUOUS
10
3.78008
20
-3.32447
11
3.77866
21
-3.32331
0
LINE
8
BLACK
6
CONTINUOUS
10
3.77866
20
-3.32331
11
3.7775
21
-3.32189
0
LINE
8
BLACK
6
CONTINUOUS
10
3.7775
20
-3.32189
11
3.77663
21
-3.32027
0
LINE
8
BLACK
6
CONTINUOUS
10
3.77663
20
-3.32027
11
3.7761
21
-3.31852
0
LINE
8
BLACK
6
CONTINUOUS
10
3.7761
20
-3.31852
11
3.77592
21
-3.31669
0
LINE
8
BLACK
6
CONTINUOUS
10
3.77592
20
-3.31669
11
3.77592
21
-3.29799
0
LINE
8
BLACK
6
CONTINUOUS
10
3.77592
20
-3.29799
11
3.7761
21
-3.29617
0
LINE
8
BLACK
6
CONTINUOUS
10
3.7761
20
-3.29617
11
3.77663
21
-3.29441
0
LINE
8
BLACK
6
CONTINUOUS
10
3.77663
20
-3.29441
11
3.7775
21
-3.2928
0
LINE
8
BLACK
6
CONTINUOUS
10
3.7775
20
-3.2928
11
3.77866
21
-3.29138
0
LINE
8
BLACK
6
CONTINUOUS
10
3.77866
20
-3.29138
11
3.78008
21
-3.29022
0
LINE
8
BLACK
6
CONTINUOUS
10
3.78008
20
-3.29022
11
3.78169
21
-3.28935
0
LINE
8
BLACK
6
CONTINUOUS
10
3.78169
20
-3.28935
11
3.78345
21
-3.28882
0
LINE
8
BLACK
6
CONTINUOUS
10
3.78345
20
-3.28882
11
3.78527
21
-3.28864
0
LINE
8
BLACK
6
CONTINUOUS
10
3.78527
20
-3.28864
11
3.80791
21
-3.28864
0
LINE
8
BLACK
6
CONTINUOUS
10
3.80791
20
-3.28864
11
3.80973
21
-3.28882
0
LINE
8
BLACK
6
CONTINUOUS
10
1.62878
20
-2.91385
11
1.63053
21
-2.91438
0
LINE
8
BLACK
6
CONTINUOUS
10
1.63053
20
-2.91438
11
1.63215
21
-2.91524
0
LINE
8
BLACK
6
CONTINUOUS
10
1.63215
20
-2.91524
11
1.63356
21
-2.91641
0
LINE
8
BLACK
6
CONTINUOUS
10
1.63356
20
-2.91641
11
1.63473
21
-2.91782
0
LINE
8
BLACK
6
CONTINUOUS
10
1.63473
20
-2.91782
11
1.63559
21
-2.91944
0
LINE
8
BLACK
6
CONTINUOUS
10
1.63559
20
-2.91944
11
1.63612
21
-2.92119
0
LINE
8
BLACK
6
CONTINUOUS
10
1.63612
20
-2.92119
11
1.6363
21
-2.92302
0
LINE
8
BLACK
6
CONTINUOUS
10
1.6363
20
-2.92302
11
1.6363
21
-2.94172
0
LINE
8
BLACK
6
CONTINUOUS
10
1.6363
20
-2.94172
11
1.63612
21
-2.94354
0
LINE
8
BLACK
6
CONTINUOUS
10
1.63612
20
-2.94354
11
1.63559
21
-2.9453
0
LINE
8
BLACK
6
CONTINUOUS
10
1.63559
20
-2.9453
11
1.63473
21
-2.94691
0
LINE
8
BLACK
6
CONTINUOUS
10
1.63473
20
-2.94691
11
1.63356
21
-2.94833
0
LINE
8
BLACK
6
CONTINUOUS
10
1.63356
20
-2.94833
11
1.63215
21
-2.94949
0
LINE
8
BLACK
6
CONTINUOUS
10
1.63215
20
-2.94949
11
1.63053
21
-2.95036
0
LINE
8
BLACK
6
CONTINUOUS
10
1.63053
20
-2.95036
11
1.62878
21
-2.95089
0
LINE
8
BLACK
6
CONTINUOUS
10
1.62878
20
-2.95089
11
1.62695
21
-2.95107
0
LINE
8
BLACK
6
CONTINUOUS
10
1.62695
20
-2.95107
11
1.60431
21
-2.95107
0
LINE
8
BLACK
6
CONTINUOUS
10
1.60431
20
-2.95107
11
1.60249
21
-2.95089
0
LINE
8
BLACK
6
CONTINUOUS
10
1.60249
20
-2.95089
11
1.60074
21
-2.95036
0
LINE
8
BLACK
6
CONTINUOUS
10
1.60074
20
-2.95036
11
1.59912
21
-2.94949
0
LINE
8
BLACK
6
CONTINUOUS
10
1.59912
20
-2.94949
11
1.5977
21
-2.94833
0
LINE
8
BLACK
6
CONTINUOUS
10
1.5977
20
-2.94833
11
1.59654
21
-2.94691
0
LINE
8
BLACK
6
CONTINUOUS
10
1.59654
20
-2.94691
11
1.59568
21
-2.9453
0
LINE
8
BLACK
6
CONTINUOUS
10
1.59568
20
-2.9453
11
1.59514
21
-2.94354
0
LINE
8
BLACK
6
CONTINUOUS
10
1.59514
20
-2.94354
11
1.59496
21
-2.94172
0
LINE
8
BLACK
6
CONTINUOUS
10
1.59496
20
-2.94172
11
1.59496
21
-2.92302
0
LINE
8
BLACK
6
CONTINUOUS
10
1.59496
20
-2.92302
11
1.59514
21
-2.92119
0
LINE
8
BLACK
6
CONTINUOUS
10
1.59514
20
-2.92119
11
1.59568
21
-2.91944
0
LINE
8
BLACK
6
CONTINUOUS
10
1.59568
20
-2.91944
11
1.59654
21
-2.91782
0
LINE
8
BLACK
6
CONTINUOUS
10
1.59654
20
-2.91782
11
1.5977
21
-2.91641
0
LINE
8
BLACK
6
CONTINUOUS
10
1.5977
20
-2.91641
11
1.59912
21
-2.91524
0
LINE
8
BLACK
6
CONTINUOUS
10
1.59912
20
-2.91524
11
1.60074
21
-2.91438
0
LINE
8
BLACK
6
CONTINUOUS
10
1.60074
20
-2.91438
11
1.60249
21
-2.91385
0
LINE
8
BLACK
6
CONTINUOUS
10
1.60249
20
-2.91385
11
1.60431
21
-2.91367
0
LINE
8
BLACK
6
CONTINUOUS
10
1.60431
20
-2.91367
11
1.62695
21
-2.91367
0
LINE
8
BLACK
6
CONTINUOUS
10
1.62695
20
-2.91367
11
1.62878
21
-2.91385
0
LINE
8
BLACK
6
CONTINUOUS
10
1.55988
20
-2.91385
11
1.56163
21
-2.91438
0
LINE
8
BLACK
6
CONTINUOUS
10
1.56163
20
-2.91438
11
1.56325
21
-2.91524
0
LINE
8
BLACK
6
CONTINUOUS
10
1.56325
20
-2.91524
11
1.56467
21
-2.91641
0
LINE
8
BLACK
6
CONTINUOUS
10
1.56467
20
-2.91641
11
1.56583
21
-2.91782
0
LINE
8
BLACK
6
CONTINUOUS
10
1.56583
20
-2.91782
11
1.56669
21
-2.91944
0
LINE
8
BLACK
6
CONTINUOUS
10
1.56669
20
-2.91944
11
1.56722
21
-2.92119
0
LINE
8
BLACK
6
CONTINUOUS
10
1.56722
20
-2.92119
11
1.5674
21
-2.92302
0
LINE
8
BLACK
6
CONTINUOUS
10
1.5674
20
-2.92302
11
1.5674
21
-2.94172
0
LINE
8
BLACK
6
CONTINUOUS
10
1.5674
20
-2.94172
11
1.56722
21
-2.94354
0
LINE
8
BLACK
6
CONTINUOUS
10
1.56722
20
-2.94354
11
1.56669
21
-2.9453
0
LINE
8
BLACK
6
CONTINUOUS
10
1.56669
20
-2.9453
11
1.56583
21
-2.94691
0
LINE
8
BLACK
6
CONTINUOUS
10
1.56583
20
-2.94691
11
1.56467
21
-2.94833
0
LINE
8
BLACK
6
CONTINUOUS
10
1.56467
20
-2.94833
11
1.56325
21
-2.94949
0
LINE
8
BLACK
6
CONTINUOUS
10
1.56325
20
-2.94949
11
1.56163
21
-2.95036
0
LINE
8
BLACK
6
CONTINUOUS
10
1.56163
20
-2.95036
11
1.55988
21
-2.95089
0
LINE
8
BLACK
6
CONTINUOUS
10
1.55988
20
-2.95089
11
1.55805
21
-2.95107
0
LINE
8
BLACK
6
CONTINUOUS
10
1.55805
20
-2.95107
11
1.53542
21
-2.95107
0
LINE
8
BLACK
6
CONTINUOUS
10
1.53542
20
-2.95107
11
1.53359
21
-2.95089
0
LINE
8
BLACK
6
CONTINUOUS
10
1.53359
20
-2.95089
11
1.53184
21
-2.95036
0
LINE
8
BLACK
6
CONTINUOUS
10
1.53184
20
-2.95036
11
1.53022
21
-2.94949
0
LINE
8
BLACK
6
CONTINUOUS
10
1.53022
20
-2.94949
11
1.5288
21
-2.94833
0
LINE
8
BLACK
6
CONTINUOUS
10
1.5288
20
-2.94833
11
1.52764
21
-2.94691
0
LINE
8
BLACK
6
CONTINUOUS
10
1.52764
20
-2.94691
11
1.52678
21
-2.9453
0
LINE
8
BLACK
6
CONTINUOUS
10
1.52678
20
-2.9453
11
1.52625
21
-2.94354
0
LINE
8
BLACK
6
CONTINUOUS
10
1.52625
20
-2.94354
11
1.52607
21
-2.94172
0
LINE
8
BLACK
6
CONTINUOUS
10
1.52607
20
-2.94172
11
1.52607
21
-2.92302
0
LINE
8
BLACK
6
CONTINUOUS
10
1.52607
20
-2.92302
11
1.52625
21
-2.92119
0
LINE
8
BLACK
6
CONTINUOUS
10
1.52625
20
-2.92119
11
1.52678
21
-2.91944
0
LINE
8
BLACK
6
CONTINUOUS
10
1.52678
20
-2.91944
11
1.52764
21
-2.91782
0
LINE
8
BLACK
6
CONTINUOUS
10
1.52764
20
-2.91782
11
1.5288
21
-2.91641
0
LINE
8
BLACK
6
CONTINUOUS
10
1.5288
20
-2.91641
11
1.53022
21
-2.91524
0
LINE
8
BLACK
6
CONTINUOUS
10
1.53022
20
-2.91524
11
1.53184
21
-2.91438
0
LINE
8
BLACK
6
CONTINUOUS
10
1.53184
20
-2.91438
11
1.53359
21
-2.91385
0
LINE
8
BLACK
6
CONTINUOUS
10
1.53359
20
-2.91385
11
1.53542
21
-2.91367
0
LINE
8
BLACK
6
CONTINUOUS
10
1.53542
20
-2.91367
11
1.55805
21
-2.91367
0
LINE
8
BLACK
6
CONTINUOUS
10
1.55805
20
-2.91367
11
1.55988
21
-2.91385
0
LINE
8
BLACK
6
CONTINUOUS
10
2.30983
20
-2.78885
11
2.31158
21
-2.78939
0
LINE
8
BLACK
6
CONTINUOUS
10
2.31158
20
-2.78939
11
2.3132
21
-2.79025
0
LINE
8
BLACK
6
CONTINUOUS
10
2.3132
20
-2.79025
11
2.31462
21
-2.79141
0
LINE
8
BLACK
6
CONTINUOUS
10
2.31462
20
-2.79141
11
2.31578
21
-2.79283
0
LINE
8
BLACK
6
CONTINUOUS
10
2.31578
20
-2.79283
11
2.31664
21
-2.79445
0
LINE
8
BLACK
6
CONTINUOUS
10
2.31664
20
-2.79445
11
2.31718
21
-2.7962
0
LINE
8
BLACK
6
CONTINUOUS
10
2.31718
20
-2.7962
11
2.31736
21
-2.79803
0
LINE
8
BLACK
6
CONTINUOUS
10
2.31736
20
-2.79803
11
2.31736
21
-2.81673
0
LINE
8
BLACK
6
CONTINUOUS
10
2.31736
20
-2.81673
11
2.31718
21
-2.81855
0
LINE
8
BLACK
6
CONTINUOUS
10
2.31718
20
-2.81855
11
2.31664
21
-2.8203
0
LINE
8
BLACK
6
CONTINUOUS
10
2.31664
20
-2.8203
11
2.31578
21
-2.82192
0
LINE
8
BLACK
6
CONTINUOUS
10
2.31578
20
-2.82192
11
2.31462
21
-2.82334
0
LINE
8
BLACK
6
CONTINUOUS
10
2.31462
20
-2.82334
11
2.3132
21
-2.8245
0
LINE
8
BLACK
6
CONTINUOUS
10
2.3132
20
-2.8245
11
2.31158
21
-2.82536
0
LINE
8
BLACK
6
CONTINUOUS
10
2.31158
20
-2.82536
11
2.30983
21
-2.8259
0
LINE
8
BLACK
6
CONTINUOUS
10
2.30983
20
-2.8259
11
2.30801
21
-2.82608
0
LINE
8
BLACK
6
CONTINUOUS
10
2.30801
20
-2.82608
11
2.28537
21
-2.82608
0
LINE
8
BLACK
6
CONTINUOUS
10
2.28537
20
-2.82608
11
2.28354
21
-2.8259
0
LINE
8
BLACK
6
CONTINUOUS
10
2.28354
20
-2.8259
11
2.28179
21
-2.82536
0
LINE
8
BLACK
6
CONTINUOUS
10
2.28179
20
-2.82536
11
2.28017
21
-2.8245
0
LINE
8
BLACK
6
CONTINUOUS
10
2.28017
20
-2.8245
11
2.27876
21
-2.82334
0
LINE
8
BLACK
6
CONTINUOUS
10
2.27876
20
-2.82334
11
2.27759
21
-2.82192
0
LINE
8
BLACK
6
CONTINUOUS
10
2.27759
20
-2.82192
11
2.27673
21
-2.8203
0
LINE
8
BLACK
6
CONTINUOUS
10
2.27673
20
-2.8203
11
2.2762
21
-2.81855
0
LINE
8
BLACK
6
CONTINUOUS
10
2.2762
20
-2.81855
11
2.27602
21
-2.81673
0
LINE
8
BLACK
6
CONTINUOUS
10
2.27602
20
-2.81673
11
2.27602
21
-2.79803
0
LINE
8
BLACK
6
CONTINUOUS
10
2.27602
20
-2.79803
11
2.2762
21
-2.7962
0
LINE
8
BLACK
6
CONTINUOUS
10
2.2762
20
-2.7962
11
2.27673
21
-2.79445
0
LINE
8
BLACK
6
CONTINUOUS
10
2.27673
20
-2.79445
11
2.27759
21
-2.79283
0
LINE
8
BLACK
6
CONTINUOUS
10
2.27759
20
-2.79283
11
2.27876
21
-2.79141
0
LINE
8
BLACK
6
CONTINUOUS
10
2.27876
20
-2.79141
11
2.28017
21
-2.79025
0
LINE
8
BLACK
6
CONTINUOUS
10
2.28017
20
-2.79025
11
2.28179
21
-2.78939
0
LINE
8
BLACK
6
CONTINUOUS
10
2.28179
20
-2.78939
11
2.28354
21
-2.78885
0
LINE
8
BLACK
6
CONTINUOUS
10
2.28354
20
-2.78885
11
2.28537
21
-2.78867
0
LINE
8
BLACK
6
CONTINUOUS
10
2.28537
20
-2.78867
11
2.30801
21
-2.78867
0
LINE
8
BLACK
6
CONTINUOUS
10
2.30801
20
-2.78867
11
2.30983
21
-2.78885
0
LINE
8
BLACK
6
CONTINUOUS
10
2.37873
20
-2.78885
11
2.38048
21
-2.78939
0
LINE
8
BLACK
6
CONTINUOUS
10
2.38048
20
-2.78939
11
2.3821
21
-2.79025
0
LINE
8
BLACK
6
CONTINUOUS
10
2.3821
20
-2.79025
11
2.38352
21
-2.79141
0
LINE
8
BLACK
6
CONTINUOUS
10
2.38352
20
-2.79141
11
2.38468
21
-2.79283
0
LINE
8
BLACK
6
CONTINUOUS
10
2.38468
20
-2.79283
11
2.38554
21
-2.79445
0
LINE
8
BLACK
6
CONTINUOUS
10
2.38554
20
-2.79445
11
2.38607
21
-2.7962
0
LINE
8
BLACK
6
CONTINUOUS
10
2.38607
20
-2.7962
11
2.38625
21
-2.79803
0
LINE
8
BLACK
6
CONTINUOUS
10
2.38625
20
-2.79803
11
2.38625
21
-2.81673
0
LINE
8
BLACK
6
CONTINUOUS
10
2.38625
20
-2.81673
11
2.38607
21
-2.81855
0
LINE
8
BLACK
6
CONTINUOUS
10
2.38607
20
-2.81855
11
2.38554
21
-2.8203
0
LINE
8
BLACK
6
CONTINUOUS
10
2.38554
20
-2.8203
11
2.38468
21
-2.82192
0
LINE
8
BLACK
6
CONTINUOUS
10
2.38468
20
-2.82192
11
2.38352
21
-2.82334
0
LINE
8
BLACK
6
CONTINUOUS
10
2.38352
20
-2.82334
11
2.3821
21
-2.8245
0
LINE
8
BLACK
6
CONTINUOUS
10
2.3821
20
-2.8245
11
2.38048
21
-2.82536
0
LINE
8
BLACK
6
CONTINUOUS
10
2.38048
20
-2.82536
11
2.37873
21
-2.8259
0
LINE
8
BLACK
6
CONTINUOUS
10
2.37873
20
-2.8259
11
2.3769
21
-2.82608
0
LINE
8
BLACK
6
CONTINUOUS
10
2.3769
20
-2.82608
11
2.35427
21
-2.82608
0
LINE
8
BLACK
6
CONTINUOUS
10
2.35427
20
-2.82608
11
2.35244
21
-2.8259
0
LINE
8
BLACK
6
CONTINUOUS
10
2.35244
20
-2.8259
11
2.35069
21
-2.82536
0
LINE
8
BLACK
6
CONTINUOUS
10
2.35069
20
-2.82536
11
2.34907
21
-2.8245
0
LINE
8
BLACK
6
CONTINUOUS
10
2.34907
20
-2.8245
11
2.34765
21
-2.82334
0
LINE
8
BLACK
6
CONTINUOUS
10
2.34765
20
-2.82334
11
2.34649
21
-2.82192
0
LINE
8
BLACK
6
CONTINUOUS
10
2.34649
20
-2.82192
11
2.34563
21
-2.8203
0
LINE
8
BLACK
6
CONTINUOUS
10
2.34563
20
-2.8203
11
2.34509
21
-2.81855
0
LINE
8
BLACK
6
CONTINUOUS
10
2.34509
20
-2.81855
11
2.34492
21
-2.81673
0
LINE
8
BLACK
6
CONTINUOUS
10
2.34492
20
-2.81673
11
2.34492
21
-2.79803
0
LINE
8
BLACK
6
CONTINUOUS
10
2.34492
20
-2.79803
11
2.34509
21
-2.7962
0
LINE
8
BLACK
6
CONTINUOUS
10
2.34509
20
-2.7962
11
2.34563
21
-2.79445
0
LINE
8
BLACK
6
CONTINUOUS
10
2.34563
20
-2.79445
11
2.34649
21
-2.79283
0
LINE
8
BLACK
6
CONTINUOUS
10
2.34649
20
-2.79283
11
2.34765
21
-2.79141
0
LINE
8
BLACK
6
CONTINUOUS
10
2.34765
20
-2.79141
11
2.34907
21
-2.79025
0
LINE
8
BLACK
6
CONTINUOUS
10
2.34907
20
-2.79025
11
2.35069
21
-2.78939
0
LINE
8
BLACK
6
CONTINUOUS
10
2.35069
20
-2.78939
11
2.35244
21
-2.78885
0
LINE
8
BLACK
6
CONTINUOUS
10
2.35244
20
-2.78885
11
2.35427
21
-2.78867
0
LINE
8
BLACK
6
CONTINUOUS
10
2.35427
20
-2.78867
11
2.3769
21
-2.78867
0
LINE
8
BLACK
6
CONTINUOUS
10
2.3769
20
-2.78867
11
2.37873
21
-2.78885
0
LINE
8
BLACK
6
CONTINUOUS
10
3.12868
20
-2.66386
11
3.13043
21
-2.66439
0
LINE
8
BLACK
6
CONTINUOUS
10
3.13043
20
-2.66439
11
3.13205
21
-2.66526
0
LINE
8
BLACK
6
CONTINUOUS
10
3.13205
20
-2.66526
11
3.13347
21
-2.66642
0
LINE
8
BLACK
6
CONTINUOUS
10
3.13347
20
-2.66642
11
3.13463
21
-2.66784
0
LINE
8
BLACK
6
CONTINUOUS
10
3.13463
20
-2.66784
11
3.13549
21
-2.66945
0
LINE
8
BLACK
6
CONTINUOUS
10
3.13549
20
-2.66945
11
3.13603
21
-2.67121
0
LINE
8
BLACK
6
CONTINUOUS
10
3.13603
20
-2.67121
11
3.13621
21
-2.67303
0
LINE
8
BLACK
6
CONTINUOUS
10
3.13621
20
-2.67303
11
3.13621
21
-2.69173
0
LINE
8
BLACK
6
CONTINUOUS
10
3.13621
20
-2.69173
11
3.13603
21
-2.69356
0
LINE
8
BLACK
6
CONTINUOUS
10
3.13603
20
-2.69356
11
3.13549
21
-2.69531
0
LINE
8
BLACK
6
CONTINUOUS
10
3.13549
20
-2.69531
11
3.13463
21
-2.69693
0
LINE
8
BLACK
6
CONTINUOUS
10
3.13463
20
-2.69693
11
3.13347
21
-2.69835
0
LINE
8
BLACK
6
CONTINUOUS
10
3.13347
20
-2.69835
11
3.13205
21
-2.69951
0
LINE
8
BLACK
6
CONTINUOUS
10
3.13205
20
-2.69951
11
3.13043
21
-2.70037
0
LINE
8
BLACK
6
CONTINUOUS
10
3.13043
20
-2.70037
11
3.12868
21
-2.7009
0
LINE
8
BLACK
6
CONTINUOUS
10
3.12868
20
-2.7009
11
3.12686
21
-2.70108
0
LINE
8
BLACK
6
CONTINUOUS
10
3.12686
20
-2.70108
11
3.10422
21
-2.70108
0
LINE
8
BLACK
6
CONTINUOUS
10
3.10422
20
-2.70108
11
3.10239
21
-2.7009
0
LINE
8
BLACK
6
CONTINUOUS
10
3.10239
20
-2.7009
11
3.10064
21
-2.70037
0
LINE
8
BLACK
6
CONTINUOUS
10
3.10064
20
-2.70037
11
3.09902
21
-2.69951
0
LINE
8
BLACK
6
CONTINUOUS
10
3.09902
20
-2.69951
11
3.09761
21
-2.69835
0
LINE
8
BLACK
6
CONTINUOUS
10
3.09761
20
-2.69835
11
3.09644
21
-2.69693
0
LINE
8
BLACK
6
CONTINUOUS
10
3.09644
20
-2.69693
11
3.09558
21
-2.69531
0
LINE
8
BLACK
6
CONTINUOUS
10
3.09558
20
-2.69531
11
3.09505
21
-2.69356
0
LINE
8
BLACK
6
CONTINUOUS
10
3.09505
20
-2.69356
11
3.09487
21
-2.69173
0
LINE
8
BLACK
6
CONTINUOUS
10
3.09487
20
-2.69173
11
3.09487
21
-2.67303
0
LINE
8
BLACK
6
CONTINUOUS
10
3.09487
20
-2.67303
11
3.09505
21
-2.67121
0
LINE
8
BLACK
6
CONTINUOUS
10
3.09505
20
-2.67121
11
3.09558
21
-2.66945
0
LINE
8
BLACK
6
CONTINUOUS
10
3.09558
20
-2.66945
11
3.09644
21
-2.66784
0
LINE
8
BLACK
6
CONTINUOUS
10
3.09644
20
-2.66784
11
3.09761
21
-2.66642
0
LINE
8
BLACK
6
CONTINUOUS
10
3.09761
20
-2.66642
11
3.09902
21
-2.66526
0
LINE
8
BLACK
6
CONTINUOUS
10
3.09902
20
-2.66526
11
3.10064
21
-2.66439
0
LINE
8
BLACK
6
CONTINUOUS
10
3.10064
20
-2.66439
11
3.10239
21
-2.66386
0
LINE
8
BLACK
6
CONTINUOUS
10
3.10239
20
-2.66386
11
3.10422
21
-2.66368
0
LINE
8
BLACK
6
CONTINUOUS
10
3.10422
20
-2.66368
11
3.12686
21
-2.66368
0
LINE
8
BLACK
6
CONTINUOUS
10
3.12686
20
-2.66368
11
3.12868
21
-2.66386
0
LINE
8
BLACK
6
CONTINUOUS
10
3.05978
20
-2.66386
11
3.06154
21
-2.66439
0
LINE
8
BLACK
6
CONTINUOUS
10
3.06154
20
-2.66439
11
3.06315
21
-2.66526
0
LINE
8
BLACK
6
CONTINUOUS
10
3.06315
20
-2.66526
11
3.06457
21
-2.66642
0
LINE
8
BLACK
6
CONTINUOUS
10
3.06457
20
-2.66642
11
3.06573
21
-2.66784
0
LINE
8
BLACK
6
CONTINUOUS
10
3.06573
20
-2.66784
11
3.0666
21
-2.66945
0
LINE
8
BLACK
6
CONTINUOUS
10
3.0666
20
-2.66945
11
3.06713
21
-2.67121
0
LINE
8
BLACK
6
CONTINUOUS
10
3.06713
20
-2.67121
11
3.06731
21
-2.67303
0
LINE
8
BLACK
6
CONTINUOUS
10
3.06731
20
-2.67303
11
3.06731
21
-2.69173
0
LINE
8
BLACK
6
CONTINUOUS
10
3.06731
20
-2.69173
11
3.06713
21
-2.69356
0
LINE
8
BLACK
6
CONTINUOUS
10
3.06713
20
-2.69356
11
3.0666
21
-2.69531
0
LINE
8
BLACK
6
CONTINUOUS
10
3.0666
20
-2.69531
11
3.06573
21
-2.69693
0
LINE
8
BLACK
6
CONTINUOUS
10
3.06573
20
-2.69693
11
3.06457
21
-2.69835
0
LINE
8
BLACK
6
CONTINUOUS
10
3.06457
20
-2.69835
11
3.06315
21
-2.69951
0
LINE
8
BLACK
6
CONTINUOUS
10
3.06315
20
-2.69951
11
3.06154
21
-2.70037
0
LINE
8
BLACK
6
CONTINUOUS
10
3.06154
20
-2.70037
11
3.05978
21
-2.7009
0
LINE
8
BLACK
6
CONTINUOUS
10
3.05978
20
-2.7009
11
3.05796
21
-2.70108
0
LINE
8
BLACK
6
CONTINUOUS
10
3.05796
20
-2.70108
11
3.03532
21
-2.70108
0
LINE
8
BLACK
6
CONTINUOUS
10
3.03532
20
-2.70108
11
3.0335
21
-2.7009
0
LINE
8
BLACK
6
CONTINUOUS
10
3.0335
20
-2.7009
11
3.03174
21
-2.70037
0
LINE
8
BLACK
6
CONTINUOUS
10
3.03174
20
-2.70037
11
3.03012
21
-2.69951
0
LINE
8
BLACK
6
CONTINUOUS
10
3.03012
20
-2.69951
11
3.02871
21
-2.69835
0
LINE
8
BLACK
6
CONTINUOUS
10
3.02871
20
-2.69835
11
3.02755
21
-2.69693
0
LINE
8
BLACK
6
CONTINUOUS
10
3.02755
20
-2.69693
11
3.02668
21
-2.69531
0
LINE
8
BLACK
6
CONTINUOUS
10
3.02668
20
-2.69531
11
3.02615
21
-2.69356
0
LINE
8
BLACK
6
CONTINUOUS
10
3.02615
20
-2.69356
11
3.02597
21
-2.69173
0
LINE
8
BLACK
6
CONTINUOUS
10
3.02597
20
-2.69173
11
3.02597
21
-2.67303
0
LINE
8
BLACK
6
CONTINUOUS
10
3.02597
20
-2.67303
11
3.02615
21
-2.67121
0
LINE
8
BLACK
6
CONTINUOUS
10
3.02615
20
-2.67121
11
3.02668
21
-2.66945
0
LINE
8
BLACK
6
CONTINUOUS
10
3.02668
20
-2.66945
11
3.02755
21
-2.66784
0
LINE
8
BLACK
6
CONTINUOUS
10
3.02755
20
-2.66784
11
3.02871
21
-2.66642
0
LINE
8
BLACK
6
CONTINUOUS
10
3.02871
20
-2.66642
11
3.03012
21
-2.66526
0
LINE
8
BLACK
6
CONTINUOUS
10
3.03012
20
-2.66526
11
3.03174
21
-2.66439
0
LINE
8
BLACK
6
CONTINUOUS
10
3.03174
20
-2.66439
11
3.0335
21
-2.66386
0
LINE
8
BLACK
6
CONTINUOUS
10
3.0335
20
-2.66386
11
3.03532
21
-2.66368
0
LINE
8
BLACK
6
CONTINUOUS
10
3.03532
20
-2.66368
11
3.05796
21
-2.66368
0
LINE
8
BLACK
6
CONTINUOUS
10
3.05796
20
-2.66368
11
3.05978
21
-2.66386
0
LINE
8
BLACK
6
CONTINUOUS
10
4.55969
20
-2.66386
11
4.56144
21
-2.66439
0
LINE
8
BLACK
6
CONTINUOUS
10
4.56144
20
-2.66439
11
4.56306
21
-2.66526
0
LINE
8
BLACK
6
CONTINUOUS
10
4.56306
20
-2.66526
11
4.56447
21
-2.66642
0
LINE
8
BLACK
6
CONTINUOUS
10
4.56447
20
-2.66642
11
4.56564
21
-2.66784
0
LINE
8
BLACK
6
CONTINUOUS
10
4.56564
20
-2.66784
11
4.5665
21
-2.66945
0
LINE
8
BLACK
6
CONTINUOUS
10
4.5665
20
-2.66945
11
4.56703
21
-2.67121
0
LINE
8
BLACK
6
CONTINUOUS
10
4.56703
20
-2.67121
11
4.56721
21
-2.67303
0
LINE
8
BLACK
6
CONTINUOUS
10
4.56721
20
-2.67303
11
4.56721
21
-2.69173
0
LINE
8
BLACK
6
CONTINUOUS
10
4.56721
20
-2.69173
11
4.56703
21
-2.69356
0
LINE
8
BLACK
6
CONTINUOUS
10
4.56703
20
-2.69356
11
4.5665
21
-2.69531
0
LINE
8
BLACK
6
CONTINUOUS
10
4.5665
20
-2.69531
11
4.56564
21
-2.69693
0
LINE
8
BLACK
6
CONTINUOUS
10
4.56564
20
-2.69693
11
4.56447
21
-2.69835
0
LINE
8
BLACK
6
CONTINUOUS
10
4.56447
20
-2.69835
11
4.56306
21
-2.69951
0
LINE
8
BLACK
6
CONTINUOUS
10
4.56306
20
-2.69951
11
4.56144
21
-2.70037
0
LINE
8
BLACK
6
CONTINUOUS
10
4.56144
20
-2.70037
11
4.55969
21
-2.7009
0
LINE
8
BLACK
6
CONTINUOUS
10
4.55969
20
-2.7009
11
4.55786
21
-2.70108
0
LINE
8
BLACK
6
CONTINUOUS
10
4.55786
20
-2.70108
11
4.53522
21
-2.70108
0
LINE
8
BLACK
6
CONTINUOUS
10
4.53522
20
-2.70108
11
4.5334
21
-2.7009
0
LINE
8
BLACK
6
CONTINUOUS
10
4.5334
20
-2.7009
11
4.53165
21
-2.70037
0
LINE
8
BLACK
6
CONTINUOUS
10
4.53165
20
-2.70037
11
4.53003
21
-2.69951
0
LINE
8
BLACK
6
CONTINUOUS
10
4.53003
20
-2.69951
11
4.52861
21
-2.69835
0
LINE
8
BLACK
6
CONTINUOUS
10
4.52861
20
-2.69835
11
4.52745
21
-2.69693
0
LINE
8
BLACK
6
CONTINUOUS
10
4.52745
20
-2.69693
11
4.52658
21
-2.69531
0
LINE
8
BLACK
6
CONTINUOUS
10
4.52658
20
-2.69531
11
4.52605
21
-2.69356
0
LINE
8
BLACK
6
CONTINUOUS
10
4.52605
20
-2.69356
11
4.52587
21
-2.69173
0
LINE
8
BLACK
6
CONTINUOUS
10
4.52587
20
-2.69173
11
4.52587
21
-2.67303
0
LINE
8
BLACK
6
CONTINUOUS
10
4.52587
20
-2.67303
11
4.52605
21
-2.67121
0
LINE
8
BLACK
6
CONTINUOUS
10
4.52605
20
-2.67121
11
4.52658
21
-2.66945
0
LINE
8
BLACK
6
CONTINUOUS
10
4.52658
20
-2.66945
11
4.52745
21
-2.66784
0
LINE
8
BLACK
6
CONTINUOUS
10
4.52745
20
-2.66784
11
4.52861
21
-2.66642
0
LINE
8
BLACK
6
CONTINUOUS
10
4.52861
20
-2.66642
11
4.53003
21
-2.66526
0
LINE
8
BLACK
6
CONTINUOUS
10
4.53003
20
-2.66526
11
4.53165
21
-2.66439
0
LINE
8
BLACK
6
CONTINUOUS
10
4.53165
20
-2.66439
11
4.5334
21
-2.66386
0
LINE
8
BLACK
6
CONTINUOUS
10
4.5334
20
-2.66386
11
4.53522
21
-2.66368
0
LINE
8
BLACK
6
CONTINUOUS
10
4.53522
20
-2.66368
11
4.55786
21
-2.66368
0
LINE
8
BLACK
6
CONTINUOUS
10
4.55786
20
-2.66368
11
4.55969
21
-2.66386
0
LINE
8
BLACK
6
CONTINUOUS
10
4.62858
20
-2.66386
11
4.63034
21
-2.66439
0
LINE
8
BLACK
6
CONTINUOUS
10
4.63034
20
-2.66439
11
4.63195
21
-2.66526
0
LINE
8
BLACK
6
CONTINUOUS
10
4.63195
20
-2.66526
11
4.63337
21
-2.66642
0
LINE
8
BLACK
6
CONTINUOUS
10
4.63337
20
-2.66642
11
4.63453
21
-2.66784
0
LINE
8
BLACK
6
CONTINUOUS
10
4.63453
20
-2.66784
11
4.6354
21
-2.66945
0
LINE
8
BLACK
6
CONTINUOUS
10
4.6354
20
-2.66945
11
4.63593
21
-2.67121
0
LINE
8
BLACK
6
CONTINUOUS
10
4.63593
20
-2.67121
11
4.63611
21
-2.67303
0
LINE
8
BLACK
6
CONTINUOUS
10
4.63611
20
-2.67303
11
4.63611
21
-2.69173
0
LINE
8
BLACK
6
CONTINUOUS
10
4.63611
20
-2.69173
11
4.63593
21
-2.69356
0
LINE
8
BLACK
6
CONTINUOUS
10
4.63593
20
-2.69356
11
4.6354
21
-2.69531
0
LINE
8
BLACK
6
CONTINUOUS
10
4.6354
20
-2.69531
11
4.63453
21
-2.69693
0
LINE
8
BLACK
6
CONTINUOUS
10
4.63453
20
-2.69693
11
4.63337
21
-2.69835
0
LINE
8
BLACK
6
CONTINUOUS
10
4.63337
20
-2.69835
11
4.63195
21
-2.69951
0
LINE
8
BLACK
6
CONTINUOUS
10
4.63195
20
-2.69951
11
4.63034
21
-2.70037
0
LINE
8
BLACK
6
CONTINUOUS
10
4.63034
20
-2.70037
11
4.62858
21
-2.7009
0
LINE
8
BLACK
6
CONTINUOUS
10
4.62858
20
-2.7009
11
4.62676
21
-2.70108
0
LINE
8
BLACK
6
CONTINUOUS
10
4.62676
20
-2.70108
11
4.60412
21
-2.70108
0
LINE
8
BLACK
6
CONTINUOUS
10
4.60412
20
-2.70108
11
4.6023
21
-2.7009
0
LINE
8
BLACK
6
CONTINUOUS
10
4.6023
20
-2.7009
11
4.60054
21
-2.70037
0
LINE
8
BLACK
6
CONTINUOUS
10
4.60054
20
-2.70037
11
4.59893
21
-2.69951
0
LINE
8
BLACK
6
CONTINUOUS
10
4.59893
20
-2.69951
11
4.59751
21
-2.69835
0
LINE
8
BLACK
6
CONTINUOUS
10
4.59751
20
-2.69835
11
4.59635
21
-2.69693
0
LINE
8
BLACK
6
CONTINUOUS
10
4.59635
20
-2.69693
11
4.59548
21
-2.69531
0
LINE
8
BLACK
6
CONTINUOUS
10
4.59548
20
-2.69531
11
4.59495
21
-2.69356
0
LINE
8
BLACK
6
CONTINUOUS
10
4.59495
20
-2.69356
11
4.59477
21
-2.69173
0
LINE
8
BLACK
6
CONTINUOUS
10
4.59477
20
-2.69173
11
4.59477
21
-2.67303
0
LINE
8
BLACK
6
CONTINUOUS
10
4.59477
20
-2.67303
11
4.59495
21
-2.67121
0
LINE
8
BLACK
6
CONTINUOUS
10
4.59495
20
-2.67121
11
4.59548
21
-2.66945
0
LINE
8
BLACK
6
CONTINUOUS
10
4.59548
20
-2.66945
11
4.59635
21
-2.66784
0
LINE
8
BLACK
6
CONTINUOUS
10
4.59635
20
-2.66784
11
4.59751
21
-2.66642
0
LINE
8
BLACK
6
CONTINUOUS
10
4.59751
20
-2.66642
11
4.59893
21
-2.66526
0
LINE
8
BLACK
6
CONTINUOUS
10
4.59893
20
-2.66526
11
4.60054
21
-2.66439
0
LINE
8
BLACK
6
CONTINUOUS
10
4.60054
20
-2.66439
11
4.6023
21
-2.66386
0
LINE
8
BLACK
6
CONTINUOUS
10
4.6023
20
-2.66386
11
4.60412
21
-2.66368
0
LINE
8
BLACK
6
CONTINUOUS
10
4.60412
20
-2.66368
11
4.62676
21
-2.66368
0
LINE
8
BLACK
6
CONTINUOUS
10
4.62676
20
-2.66368
11
4.62858
21
-2.66386
0
LINE
8
BLACK
6
CONTINUOUS
10
3.80973
20
-2.53887
11
3.81149
21
-2.5394
0
LINE
8
BLACK
6
CONTINUOUS
10
3.81149
20
-2.5394
11
3.8131
21
-2.54027
0
LINE
8
BLACK
6
CONTINUOUS
10
3.8131
20
-2.54027
11
3.81452
21
-2.54143
0
LINE
8
BLACK
6
CONTINUOUS
10
3.81452
20
-2.54143
11
3.81568
21
-2.54285
0
LINE
8
BLACK
6
CONTINUOUS
10
3.81568
20
-2.54285
11
3.81655
21
-2.54446
0
LINE
8
BLACK
6
CONTINUOUS
10
3.81655
20
-2.54446
11
3.81708
21
-2.54622
0
LINE
8
BLACK
6
CONTINUOUS
10
3.81708
20
-2.54622
11
3.81726
21
-2.54804
0
LINE
8
BLACK
6
CONTINUOUS
10
3.81726
20
-2.54804
11
3.81726
21
-2.56674
0
LINE
8
BLACK
6
CONTINUOUS
10
3.81726
20
-2.56674
11
3.81708
21
-2.56857
0
LINE
8
BLACK
6
CONTINUOUS
10
3.81708
20
-2.56857
11
3.81655
21
-2.57032
0
LINE
8
BLACK
6
CONTINUOUS
10
3.81655
20
-2.57032
11
3.81568
21
-2.57194
0
LINE
8
BLACK
6
CONTINUOUS
10
3.81568
20
-2.57194
11
3.81452
21
-2.57335
0
LINE
8
BLACK
6
CONTINUOUS
10
3.81452
20
-2.57335
11
3.8131
21
-2.57452
0
LINE
8
BLACK
6
CONTINUOUS
10
3.8131
20
-2.57452
11
3.81149
21
-2.57538
0
LINE
8
BLACK
6
CONTINUOUS
10
3.81149
20
-2.57538
11
3.80973
21
-2.57591
0
LINE
8
BLACK
6
CONTINUOUS
10
3.80973
20
-2.57591
11
3.80791
21
-2.57609
0
LINE
8
BLACK
6
CONTINUOUS
10
3.80791
20
-2.57609
11
3.78527
21
-2.57609
0
LINE
8
BLACK
6
CONTINUOUS
10
3.78527
20
-2.57609
11
3.78345
21
-2.57591
0
LINE
8
BLACK
6
CONTINUOUS
10
3.78345
20
-2.57591
11
3.78169
21
-2.57538
0
LINE
8
BLACK
6
CONTINUOUS
10
3.78169
20
-2.57538
11
3.78008
21
-2.57452
0
LINE
8
BLACK
6
CONTINUOUS
10
3.78008
20
-2.57452
11
3.77866
21
-2.57335
0
LINE
8
BLACK
6
CONTINUOUS
10
3.77866
20
-2.57335
11
3.7775
21
-2.57194
0
LINE
8
BLACK
6
CONTINUOUS
10
3.7775
20
-2.57194
11
3.77663
21
-2.57032
0
LINE
8
BLACK
6
CONTINUOUS
10
3.77663
20
-2.57032
11
3.7761
21
-2.56857
0
LINE
8
BLACK
6
CONTINUOUS
10
3.7761
20
-2.56857
11
3.77592
21
-2.56674
0
LINE
8
BLACK
6
CONTINUOUS
10
3.77592
20
-2.56674
11
3.77592
21
-2.54804
0
LINE
8
BLACK
6
CONTINUOUS
10
3.77592
20
-2.54804
11
3.7761
21
-2.54622
0
LINE
8
BLACK
6
CONTINUOUS
10
3.7761
20
-2.54622
11
3.77663
21
-2.54446
0
LINE
8
BLACK
6
CONTINUOUS
10
3.77663
20
-2.54446
11
3.7775
21
-2.54285
0
LINE
8
BLACK
6
CONTINUOUS
10
3.7775
20
-2.54285
11
3.77866
21
-2.54143
0
LINE
8
BLACK
6
CONTINUOUS
10
3.77866
20
-2.54143
11
3.78008
21
-2.54027
0
LINE
8
BLACK
6
CONTINUOUS
10
3.78008
20
-2.54027
11
3.78169
21
-2.5394
0
LINE
8
BLACK
6
CONTINUOUS
10
3.78169
20
-2.5394
11
3.78345
21
-2.53887
0
LINE
8
BLACK
6
CONTINUOUS
10
3.78345
20
-2.53887
11
3.78527
21
-2.53869
0
LINE
8
BLACK
6
CONTINUOUS
10
3.78527
20
-2.53869
11
3.80791
21
-2.53869
0
LINE
8
BLACK
6
CONTINUOUS
10
3.80791
20
-2.53869
11
3.80973
21
-2.53887
0
LINE
8
BLACK
6
CONTINUOUS
10
3.87863
20
-2.53887
11
3.88039
21
-2.5394
0
LINE
8
BLACK
6
CONTINUOUS
10
3.88039
20
-2.5394
11
3.882
21
-2.54027
0
LINE
8
BLACK
6
CONTINUOUS
10
3.882
20
-2.54027
11
3.88342
21
-2.54143
0
LINE
8
BLACK
6
CONTINUOUS
10
3.88342
20
-2.54143
11
3.88458
21
-2.54285
0
LINE
8
BLACK
6
CONTINUOUS
10
3.88458
20
-2.54285
11
3.88545
21
-2.54446
0
LINE
8
BLACK
6
CONTINUOUS
10
3.88545
20
-2.54446
11
3.88598
21
-2.54622
0
LINE
8
BLACK
6
CONTINUOUS
10
3.88598
20
-2.54622
11
3.88616
21
-2.54804
0
LINE
8
BLACK
6
CONTINUOUS
10
3.88616
20
-2.54804
11
3.88616
21
-2.56674
0
LINE
8
BLACK
6
CONTINUOUS
10
3.88616
20
-2.56674
11
3.88598
21
-2.56857
0
LINE
8
BLACK
6
CONTINUOUS
10
3.88598
20
-2.56857
11
3.88545
21
-2.57032
0
LINE
8
BLACK
6
CONTINUOUS
10
3.88545
20
-2.57032
11
3.88458
21
-2.57194
0
LINE
8
BLACK
6
CONTINUOUS
10
3.88458
20
-2.57194
11
3.88342
21
-2.57335
0
LINE
8
BLACK
6
CONTINUOUS
10
3.88342
20
-2.57335
11
3.882
21
-2.57452
0
LINE
8
BLACK
6
CONTINUOUS
10
3.882
20
-2.57452
11
3.88039
21
-2.57538
0
LINE
8
BLACK
6
CONTINUOUS
10
3.88039
20
-2.57538
11
3.87863
21
-2.57591
0
LINE
8
BLACK
6
CONTINUOUS
10
3.87863
20
-2.57591
11
3.87681
21
-2.57609
0
LINE
8
BLACK
6
CONTINUOUS
10
3.87681
20
-2.57609
11
3.85417
21
-2.57609
0
LINE
8
BLACK
6
CONTINUOUS
10
3.85417
20
-2.57609
11
3.85234
21
-2.57591
0
LINE
8
BLACK
6
CONTINUOUS
10
3.85234
20
-2.57591
11
3.85059
21
-2.57538
0
LINE
8
BLACK
6
CONTINUOUS
10
3.85059
20
-2.57538
11
3.84897
21
-2.57452
0
LINE
8
BLACK
6
CONTINUOUS
10
3.84897
20
-2.57452
11
3.84756
21
-2.57335
0
LINE
8
BLACK
6
CONTINUOUS
10
3.84756
20
-2.57335
11
3.84639
21
-2.57194
0
LINE
8
BLACK
6
CONTINUOUS
10
3.84639
20
-2.57194
11
3.84553
21
-2.57032
0
LINE
8
BLACK
6
CONTINUOUS
10
3.84553
20
-2.57032
11
3.845
21
-2.56857
0
LINE
8
BLACK
6
CONTINUOUS
10
3.845
20
-2.56857
11
3.84482
21
-2.56674
0
LINE
8
BLACK
6
CONTINUOUS
10
3.84482
20
-2.56674
11
3.84482
21
-2.54804
0
LINE
8
BLACK
6
CONTINUOUS
10
3.84482
20
-2.54804
11
3.845
21
-2.54622
0
LINE
8
BLACK
6
CONTINUOUS
10
3.845
20
-2.54622
11
3.84553
21
-2.54446
0
LINE
8
BLACK
6
CONTINUOUS
10
3.84553
20
-2.54446
11
3.84639
21
-2.54285
0
LINE
8
BLACK
6
CONTINUOUS
10
3.84639
20
-2.54285
11
3.84756
21
-2.54143
0
LINE
8
BLACK
6
CONTINUOUS
10
3.84756
20
-2.54143
11
3.84897
21
-2.54027
0
LINE
8
BLACK
6
CONTINUOUS
10
3.84897
20
-2.54027
11
3.85059
21
-2.5394
0
LINE
8
BLACK
6
CONTINUOUS
10
3.85059
20
-2.5394
11
3.85234
21
-2.53887
0
LINE
8
BLACK
6
CONTINUOUS
10
3.85234
20
-2.53887
11
3.85417
21
-2.53869
0
LINE
8
BLACK
6
CONTINUOUS
10
3.85417
20
-2.53869
11
3.87681
21
-2.53869
0
LINE
8
BLACK
6
CONTINUOUS
10
3.87681
20
-2.53869
11
3.87863
21
-2.53887
0
LINE
8
BLACK
6
CONTINUOUS
10
1.62878
20
-2.16389
11
1.63053
21
-2.16443
0
LINE
8
BLACK
6
CONTINUOUS
10
1.63053
20
-2.16443
11
1.63215
21
-2.16529
0
LINE
8
BLACK
6
CONTINUOUS
10
1.63215
20
-2.16529
11
1.63356
21
-2.16645
0
LINE
8
BLACK
6
CONTINUOUS
10
1.63356
20
-2.16645
11
1.63473
21
-2.16787
0
LINE
8
BLACK
6
CONTINUOUS
10
1.63473
20
-2.16787
11
1.63559
21
-2.16949
0
LINE
8
BLACK
6
CONTINUOUS
10
1.63559
20
-2.16949
11
1.63612
21
-2.17124
0
LINE
8
BLACK
6
CONTINUOUS
10
1.63612
20
-2.17124
11
1.6363
21
-2.17307
0
LINE
8
BLACK
6
CONTINUOUS
10
1.6363
20
-2.17307
11
1.6363
21
-2.19177
0
LINE
8
BLACK
6
CONTINUOUS
10
1.6363
20
-2.19177
11
1.63612
21
-2.19359
0
LINE
8
BLACK
6
CONTINUOUS
10
1.63612
20
-2.19359
11
1.63559
21
-2.19534
0
LINE
8
BLACK
6
CONTINUOUS
10
1.63559
20
-2.19534
11
1.63473
21
-2.19696
0
LINE
8
BLACK
6
CONTINUOUS
10
1.63473
20
-2.19696
11
1.63356
21
-2.19838
0
LINE
8
BLACK
6
CONTINUOUS
10
1.63356
20
-2.19838
11
1.63215
21
-2.19954
0
LINE
8
BLACK
6
CONTINUOUS
10
1.63215
20
-2.19954
11
1.63053
21
-2.2004
0
LINE
8
BLACK
6
CONTINUOUS
10
1.63053
20
-2.2004
11
1.62878
21
-2.20094
0
LINE
8
BLACK
6
CONTINUOUS
10
1.62878
20
-2.20094
11
1.62695
21
-2.20112
0
LINE
8
BLACK
6
CONTINUOUS
10
1.62695
20
-2.20112
11
1.60431
21
-2.20112
0
LINE
8
BLACK
6
CONTINUOUS
10
1.60431
20
-2.20112
11
1.60249
21
-2.20094
0
LINE
8
BLACK
6
CONTINUOUS
10
1.60249
20
-2.20094
11
1.60074
21
-2.2004
0
LINE
8
BLACK
6
CONTINUOUS
10
1.60074
20
-2.2004
11
1.59912
21
-2.19954
0
LINE
8
BLACK
6
CONTINUOUS
10
1.59912
20
-2.19954
11
1.5977
21
-2.19838
0
LINE
8
BLACK
6
CONTINUOUS
10
1.5977
20
-2.19838
11
1.59654
21
-2.19696
0
LINE
8
BLACK
6
CONTINUOUS
10
1.59654
20
-2.19696
11
1.59568
21
-2.19534
0
LINE
8
BLACK
6
CONTINUOUS
10
1.59568
20
-2.19534
11
1.59514
21
-2.19359
0
LINE
8
BLACK
6
CONTINUOUS
10
1.59514
20
-2.19359
11
1.59496
21
-2.19177
0
LINE
8
BLACK
6
CONTINUOUS
10
1.59496
20
-2.19177
11
1.59496
21
-2.17307
0
LINE
8
BLACK
6
CONTINUOUS
10
1.59496
20
-2.17307
11
1.59514
21
-2.17124
0
LINE
8
BLACK
6
CONTINUOUS
10
1.59514
20
-2.17124
11
1.59568
21
-2.16949
0
LINE
8
BLACK
6
CONTINUOUS
10
1.59568
20
-2.16949
11
1.59654
21
-2.16787
0
LINE
8
BLACK
6
CONTINUOUS
10
1.59654
20
-2.16787
11
1.5977
21
-2.16645
0
LINE
8
BLACK
6
CONTINUOUS
10
1.5977
20
-2.16645
11
1.59912
21
-2.16529
0
LINE
8
BLACK
6
CONTINUOUS
10
1.59912
20
-2.16529
11
1.60074
21
-2.16443
0
LINE
8
BLACK
6
CONTINUOUS
10
1.60074
20
-2.16443
11
1.60249
21
-2.16389
0
LINE
8
BLACK
6
CONTINUOUS
10
1.60249
20
-2.16389
11
1.60431
21
-2.16371
0
LINE
8
BLACK
6
CONTINUOUS
10
1.60431
20
-2.16371
11
1.62695
21
-2.16371
0
LINE
8
BLACK
6
CONTINUOUS
10
1.62695
20
-2.16371
11
1.62878
21
-2.16389
0
LINE
8
BLACK
6
CONTINUOUS
10
1.55988
20
-2.16389
11
1.56163
21
-2.16443
0
LINE
8
BLACK
6
CONTINUOUS
10
1.56163
20
-2.16443
11
1.56325
21
-2.16529
0
LINE
8
BLACK
6
CONTINUOUS
10
1.56325
20
-2.16529
11
1.56467
21
-2.16645
0
LINE
8
BLACK
6
CONTINUOUS
10
1.56467
20
-2.16645
11
1.56583
21
-2.16787
0
LINE
8
BLACK
6
CONTINUOUS
10
1.56583
20
-2.16787
11
1.56669
21
-2.16949
0
LINE
8
BLACK
6
CONTINUOUS
10
1.56669
20
-2.16949
11
1.56722
21
-2.17124
0
LINE
8
BLACK
6
CONTINUOUS
10
1.56722
20
-2.17124
11
1.5674
21
-2.17307
0
LINE
8
BLACK
6
CONTINUOUS
10
1.5674
20
-2.17307
11
1.5674
21
-2.19177
0
LINE
8
BLACK
6
CONTINUOUS
10
1.5674
20
-2.19177
11
1.56722
21
-2.19359
0
LINE
8
BLACK
6
CONTINUOUS
10
1.56722
20
-2.19359
11
1.56669
21
-2.19534
0
LINE
8
BLACK
6
CONTINUOUS
10
1.56669
20
-2.19534
11
1.56583
21
-2.19696
0
LINE
8
BLACK
6
CONTINUOUS
10
1.56583
20
-2.19696
11
1.56467
21
-2.19838
0
LINE
8
BLACK
6
CONTINUOUS
10
1.56467
20
-2.19838
11
1.56325
21
-2.19954
0
LINE
8
BLACK
6
CONTINUOUS
10
1.56325
20
-2.19954
11
1.56163
21
-2.2004
0
LINE
8
BLACK
6
CONTINUOUS
10
1.56163
20
-2.2004
11
1.55988
21
-2.20094
0
LINE
8
BLACK
6
CONTINUOUS
10
1.55988
20
-2.20094
11
1.55805
21
-2.20112
0
LINE
8
BLACK
6
CONTINUOUS
10
1.55805
20
-2.20112
11
1.53542
21
-2.20112
0
LINE
8
BLACK
6
CONTINUOUS
10
1.53542
20
-2.20112
11
1.53359
21
-2.20094
0
LINE
8
BLACK
6
CONTINUOUS
10
1.53359
20
-2.20094
11
1.53184
21
-2.2004
0
LINE
8
BLACK
6
CONTINUOUS
10
1.53184
20
-2.2004
11
1.53022
21
-2.19954
0
LINE
8
BLACK
6
CONTINUOUS
10
1.53022
20
-2.19954
11
1.5288
21
-2.19838
0
LINE
8
BLACK
6
CONTINUOUS
10
1.5288
20
-2.19838
11
1.52764
21
-2.19696
0
LINE
8
BLACK
6
CONTINUOUS
10
1.52764
20
-2.19696
11
1.52678
21
-2.19534
0
LINE
8
BLACK
6
CONTINUOUS
10
1.52678
20
-2.19534
11
1.52625
21
-2.19359
0
LINE
8
BLACK
6
CONTINUOUS
10
1.52625
20
-2.19359
11
1.52607
21
-2.19177
0
LINE
8
BLACK
6
CONTINUOUS
10
1.52607
20
-2.19177
11
1.52607
21
-2.17307
0
LINE
8
BLACK
6
CONTINUOUS
10
1.52607
20
-2.17307
11
1.52625
21
-2.17124
0
LINE
8
BLACK
6
CONTINUOUS
10
1.52625
20
-2.17124
11
1.52678
21
-2.16949
0
LINE
8
BLACK
6
CONTINUOUS
10
1.52678
20
-2.16949
11
1.52764
21
-2.16787
0
LINE
8
BLACK
6
CONTINUOUS
10
1.52764
20
-2.16787
11
1.5288
21
-2.16645
0
LINE
8
BLACK
6
CONTINUOUS
10
1.5288
20
-2.16645
11
1.53022
21
-2.16529
0
LINE
8
BLACK
6
CONTINUOUS
10
1.53022
20
-2.16529
11
1.53184
21
-2.16443
0
LINE
8
BLACK
6
CONTINUOUS
10
1.53184
20
-2.16443
11
1.53359
21
-2.16389
0
LINE
8
BLACK
6
CONTINUOUS
10
1.53359
20
-2.16389
11
1.53542
21
-2.16371
0
LINE
8
BLACK
6
CONTINUOUS
10
1.53542
20
-2.16371
11
1.55805
21
-2.16371
0
LINE
8
BLACK
6
CONTINUOUS
10
1.55805
20
-2.16371
11
1.55988
21
-2.16389
0
LINE
8
BLACK
6
CONTINUOUS
10
2.37873
20
-2.0389
11
2.38048
21
-2.03943
0
LINE
8
BLACK
6
CONTINUOUS
10
2.38048
20
-2.03943
11
2.3821
21
-2.0403
0
LINE
8
BLACK
6
CONTINUOUS
10
2.3821
20
-2.0403
11
2.38352
21
-2.04146
0
LINE
8
BLACK
6
CONTINUOUS
10
2.38352
20
-2.04146
11
2.38468
21
-2.04288
0
LINE
8
BLACK
6
CONTINUOUS
10
2.38468
20
-2.04288
11
2.38554
21
-2.0445
0
LINE
8
BLACK
6
CONTINUOUS
10
2.38554
20
-2.0445
11
2.38607
21
-2.04625
0
LINE
8
BLACK
6
CONTINUOUS
10
2.38607
20
-2.04625
11
2.38625
21
-2.04807
0
LINE
8
BLACK
6
CONTINUOUS
10
2.38625
20
-2.04807
11
2.38625
21
-2.06677
0
LINE
8
BLACK
6
CONTINUOUS
10
2.38625
20
-2.06677
11
2.38607
21
-2.0686
0
LINE
8
BLACK
6
CONTINUOUS
10
2.38607
20
-2.0686
11
2.38554
21
-2.07035
0
LINE
8
BLACK
6
CONTINUOUS
10
2.38554
20
-2.07035
11
2.38468
21
-2.07197
0
LINE
8
BLACK
6
CONTINUOUS
10
2.38468
20
-2.07197
11
2.38352
21
-2.07339
0
LINE
8
BLACK
6
CONTINUOUS
10
2.38352
20
-2.07339
11
2.3821
21
-2.07455
0
LINE
8
BLACK
6
CONTINUOUS
10
2.3821
20
-2.07455
11
2.38048
21
-2.07541
0
LINE
8
BLACK
6
CONTINUOUS
10
2.38048
20
-2.07541
11
2.37873
21
-2.07594
0
LINE
8
BLACK
6
CONTINUOUS
10
2.37873
20
-2.07594
11
2.3769
21
-2.07612
0
LINE
8
BLACK
6
CONTINUOUS
10
2.3769
20
-2.07612
11
2.35427
21
-2.07612
0
LINE
8
BLACK
6
CONTINUOUS
10
2.35427
20
-2.07612
11
2.35244
21
-2.07594
0
LINE
8
BLACK
6
CONTINUOUS
10
2.35244
20
-2.07594
11
2.35069
21
-2.07541
0
LINE
8
BLACK
6
CONTINUOUS
10
2.35069
20
-2.07541
11
2.34907
21
-2.07455
0
LINE
8
BLACK
6
CONTINUOUS
10
2.34907
20
-2.07455
11
2.34765
21
-2.07339
0
LINE
8
BLACK
6
CONTINUOUS
10
2.34765
20
-2.07339
11
2.34649
21
-2.07197
0
LINE
8
BLACK
6
CONTINUOUS
10
2.34649
20
-2.07197
11
2.34563
21
-2.07035
0
LINE
8
BLACK
6
CONTINUOUS
10
2.34563
20
-2.07035
11
2.34509
21
-2.0686
0
LINE
8
BLACK
6
CONTINUOUS
10
2.34509
20
-2.0686
11
2.34492
21
-2.06677
0
LINE
8
BLACK
6
CONTINUOUS
10
2.34492
20
-2.06677
11
2.34492
21
-2.04807
0
LINE
8
BLACK
6
CONTINUOUS
10
2.34492
20
-2.04807
11
2.34509
21
-2.04625
0
LINE
8
BLACK
6
CONTINUOUS
10
2.34509
20
-2.04625
11
2.34563
21
-2.0445
0
LINE
8
BLACK
6
CONTINUOUS
10
2.34563
20
-2.0445
11
2.34649
21
-2.04288
0
LINE
8
BLACK
6
CONTINUOUS
10
2.34649
20
-2.04288
11
2.34765
21
-2.04146
0
LINE
8
BLACK
6
CONTINUOUS
10
2.34765
20
-2.04146
11
2.34907
21
-2.0403
0
LINE
8
BLACK
6
CONTINUOUS
10
2.34907
20
-2.0403
11
2.35069
21
-2.03943
0
LINE
8
BLACK
6
CONTINUOUS
10
2.35069
20
-2.03943
11
2.35244
21
-2.0389
0
LINE
8
BLACK
6
CONTINUOUS
10
2.35244
20
-2.0389
11
2.35427
21
-2.03872
0
LINE
8
BLACK
6
CONTINUOUS
10
2.35427
20
-2.03872
11
2.3769
21
-2.03872
0
LINE
8
BLACK
6
CONTINUOUS
10
2.3769
20
-2.03872
11
2.37873
21
-2.0389
0
LINE
8
BLACK
6
CONTINUOUS
10
2.30983
20
-2.0389
11
2.31158
21
-2.03943
0
LINE
8
BLACK
6
CONTINUOUS
10
2.31158
20
-2.03943
11
2.3132
21
-2.0403
0
LINE
8
BLACK
6
CONTINUOUS
10
2.3132
20
-2.0403
11
2.31462
21
-2.04146
0
LINE
8
BLACK
6
CONTINUOUS
10
2.31462
20
-2.04146
11
2.31578
21
-2.04288
0
LINE
8
BLACK
6
CONTINUOUS
10
2.31578
20
-2.04288
11
2.31664
21
-2.0445
0
LINE
8
BLACK
6
CONTINUOUS
10
2.31664
20
-2.0445
11
2.31718
21
-2.04625
0
LINE
8
BLACK
6
CONTINUOUS
10
2.31718
20
-2.04625
11
2.31736
21
-2.04807
0
LINE
8
BLACK
6
CONTINUOUS
10
2.31736
20
-2.04807
11
2.31736
21
-2.06677
0
LINE
8
BLACK
6
CONTINUOUS
10
2.31736
20
-2.06677
11
2.31718
21
-2.0686
0
LINE
8
BLACK
6
CONTINUOUS
10
2.31718
20
-2.0686
11
2.31664
21
-2.07035
0
LINE
8
BLACK
6
CONTINUOUS
10
2.31664
20
-2.07035
11
2.31578
21
-2.07197
0
LINE
8
BLACK
6
CONTINUOUS
10
2.31578
20
-2.07197
11
2.31462
21
-2.07339
0
LINE
8
BLACK
6
CONTINUOUS
10
2.31462
20
-2.07339
11
2.3132
21
-2.07455
0
LINE
8
BLACK
6
CONTINUOUS
10
2.3132
20
-2.07455
11
2.31158
21
-2.07541
0
LINE
8
BLACK
6
CONTINUOUS
10
2.31158
20
-2.07541
11
2.30983
21
-2.07594
0
LINE
8
BLACK
6
CONTINUOUS
10
2.30983
20
-2.07594
11
2.30801
21
-2.07612
0
LINE
8
BLACK
6
CONTINUOUS
10
2.30801
20
-2.07612
11
2.28537
21
-2.07612
0
LINE
8
BLACK
6
CONTINUOUS
10
2.28537
20
-2.07612
11
2.28354
21
-2.07594
0
LINE
8
BLACK
6
CONTINUOUS
10
2.28354
20
-2.07594
11
2.28179
21
-2.07541
0
LINE
8
BLACK
6
CONTINUOUS
10
2.28179
20
-2.07541
11
2.28017
21
-2.07455
0
LINE
8
BLACK
6
CONTINUOUS
10
2.28017
20
-2.07455
11
2.27876
21
-2.07339
0
LINE
8
BLACK
6
CONTINUOUS
10
2.27876
20
-2.07339
11
2.27759
21
-2.07197
0
LINE
8
BLACK
6
CONTINUOUS
10
2.27759
20
-2.07197
11
2.27673
21
-2.07035
0
LINE
8
BLACK
6
CONTINUOUS
10
2.27673
20
-2.07035
11
2.2762
21
-2.0686
0
LINE
8
BLACK
6
CONTINUOUS
10
2.2762
20
-2.0686
11
2.27602
21
-2.06677
0
LINE
8
BLACK
6
CONTINUOUS
10
2.27602
20
-2.06677
11
2.27602
21
-2.04807
0
LINE
8
BLACK
6
CONTINUOUS
10
2.27602
20
-2.04807
11
2.2762
21
-2.04625
0
LINE
8
BLACK
6
CONTINUOUS
10
2.2762
20
-2.04625
11
2.27673
21
-2.0445
0
LINE
8
BLACK
6
CONTINUOUS
10
2.27673
20
-2.0445
11
2.27759
21
-2.04288
0
LINE
8
BLACK
6
CONTINUOUS
10
2.27759
20
-2.04288
11
2.27876
21
-2.04146
0
LINE
8
BLACK
6
CONTINUOUS
10
2.27876
20
-2.04146
11
2.28017
21
-2.0403
0
LINE
8
BLACK
6
CONTINUOUS
10
2.28017
20
-2.0403
11
2.28179
21
-2.03943
0
LINE
8
BLACK
6
CONTINUOUS
10
2.28179
20
-2.03943
11
2.28354
21
-2.0389
0
LINE
8
BLACK
6
CONTINUOUS
10
2.28354
20
-2.0389
11
2.28537
21
-2.03872
0
LINE
8
BLACK
6
CONTINUOUS
10
2.28537
20
-2.03872
11
2.30801
21
-2.03872
0
LINE
8
BLACK
6
CONTINUOUS
10
2.30801
20
-2.03872
11
2.30983
21
-2.0389
0
LINE
8
BLACK
6
CONTINUOUS
10
3.12868
20
-1.91391
11
3.13043
21
-1.91444
0
LINE
8
BLACK
6
CONTINUOUS
10
3.13043
20
-1.91444
11
3.13205
21
-1.91531
0
LINE
8
BLACK
6
CONTINUOUS
10
3.13205
20
-1.91531
11
3.13347
21
-1.91647
0
LINE
8
BLACK
6
CONTINUOUS
10
3.13347
20
-1.91647
11
3.13463
21
-1.91789
0
LINE
8
BLACK
6
CONTINUOUS
10
3.13463
20
-1.91789
11
3.13549
21
-1.9195
0
LINE
8
BLACK
6
CONTINUOUS
10
3.13549
20
-1.9195
11
3.13603
21
-1.92126
0
LINE
8
BLACK
6
CONTINUOUS
10
3.13603
20
-1.92126
11
3.13621
21
-1.92308
0
LINE
8
BLACK
6
CONTINUOUS
10
3.13621
20
-1.92308
11
3.13621
21
-1.94178
0
LINE
8
BLACK
6
CONTINUOUS
10
3.13621
20
-1.94178
11
3.13603
21
-1.94361
0
LINE
8
BLACK
6
CONTINUOUS
10
3.13603
20
-1.94361
11
3.13549
21
-1.94536
0
LINE
8
BLACK
6
CONTINUOUS
10
3.13549
20
-1.94536
11
3.13463
21
-1.94698
0
LINE
8
BLACK
6
CONTINUOUS
10
3.13463
20
-1.94698
11
3.13347
21
-1.94839
0
LINE
8
BLACK
6
CONTINUOUS
10
3.13347
20
-1.94839
11
3.13205
21
-1.94956
0
LINE
8
BLACK
6
CONTINUOUS
10
3.13205
20
-1.94956
11
3.13043
21
-1.95042
0
LINE
8
BLACK
6
CONTINUOUS
10
3.13043
20
-1.95042
11
3.12868
21
-1.95095
0
LINE
8
BLACK
6
CONTINUOUS
10
3.12868
20
-1.95095
11
3.12686
21
-1.95113
0
LINE
8
BLACK
6
CONTINUOUS
10
3.12686
20
-1.95113
11
3.10422
21
-1.95113
0
LINE
8
BLACK
6
CONTINUOUS
10
3.10422
20
-1.95113
11
3.10239
21
-1.95095
0
LINE
8
BLACK
6
CONTINUOUS
10
3.10239
20
-1.95095
11
3.10064
21
-1.95042
0
LINE
8
BLACK
6
CONTINUOUS
10
3.10064
20
-1.95042
11
3.09902
21
-1.94956
0
LINE
8
BLACK
6
CONTINUOUS
10
3.09902
20
-1.94956
11
3.09761
21
-1.94839
0
LINE
8
BLACK
6
CONTINUOUS
10
3.09761
20
-1.94839
11
3.09644
21
-1.94698
0
LINE
8
BLACK
6
CONTINUOUS
10
3.09644
20
-1.94698
11
3.09558
21
-1.94536
0
LINE
8
BLACK
6
CONTINUOUS
10
3.09558
20
-1.94536
11
3.09505
21
-1.94361
0
LINE
8
BLACK
6
CONTINUOUS
10
3.09505
20
-1.94361
11
3.09487
21
-1.94178
0
LINE
8
BLACK
6
CONTINUOUS
10
3.09487
20
-1.94178
11
3.09487
21
-1.92308
0
LINE
8
BLACK
6
CONTINUOUS
10
3.09487
20
-1.92308
11
3.09505
21
-1.92126
0
LINE
8
BLACK
6
CONTINUOUS
10
3.09505
20
-1.92126
11
3.09558
21
-1.9195
0
LINE
8
BLACK
6
CONTINUOUS
10
3.09558
20
-1.9195
11
3.09644
21
-1.91789
0
LINE
8
BLACK
6
CONTINUOUS
10
3.09644
20
-1.91789
11
3.09761
21
-1.91647
0
LINE
8
BLACK
6
CONTINUOUS
10
3.09761
20
-1.91647
11
3.09902
21
-1.91531
0
LINE
8
BLACK
6
CONTINUOUS
10
3.09902
20
-1.91531
11
3.10064
21
-1.91444
0
LINE
8
BLACK
6
CONTINUOUS
10
3.10064
20
-1.91444
11
3.10239
21
-1.91391
0
LINE
8
BLACK
6
CONTINUOUS
10
3.10239
20
-1.91391
11
3.10422
21
-1.91373
0
LINE
8
BLACK
6
CONTINUOUS
10
3.10422
20
-1.91373
11
3.12686
21
-1.91373
0
LINE
8
BLACK
6
CONTINUOUS
10
3.12686
20
-1.91373
11
3.12868
21
-1.91391
0
LINE
8
BLACK
6
CONTINUOUS
10
3.05978
20
-1.91391
11
3.06154
21
-1.91444
0
LINE
8
BLACK
6
CONTINUOUS
10
3.06154
20
-1.91444
11
3.06315
21
-1.91531
0
LINE
8
BLACK
6
CONTINUOUS
10
3.06315
20
-1.91531
11
3.06457
21
-1.91647
0
LINE
8
BLACK
6
CONTINUOUS
10
3.06457
20
-1.91647
11
3.06573
21
-1.91789
0
LINE
8
BLACK
6
CONTINUOUS
10
3.06573
20
-1.91789
11
3.0666
21
-1.9195
0
LINE
8
BLACK
6
CONTINUOUS
10
3.0666
20
-1.9195
11
3.06713
21
-1.92126
0
LINE
8
BLACK
6
CONTINUOUS
10
3.06713
20
-1.92126
11
3.06731
21
-1.92308
0
LINE
8
BLACK
6
CONTINUOUS
10
3.06731
20
-1.92308
11
3.06731
21
-1.94178
0
LINE
8
BLACK
6
CONTINUOUS
10
3.06731
20
-1.94178
11
3.06713
21
-1.94361
0
LINE
8
BLACK
6
CONTINUOUS
10
3.06713
20
-1.94361
11
3.0666
21
-1.94536
0
LINE
8
BLACK
6
CONTINUOUS
10
3.0666
20
-1.94536
11
3.06573
21
-1.94698
0
LINE
8
BLACK
6
CONTINUOUS
10
3.06573
20
-1.94698
11
3.06457
21
-1.94839
0
LINE
8
BLACK
6
CONTINUOUS
10
3.06457
20
-1.94839
11
3.06315
21
-1.94956
0
LINE
8
BLACK
6
CONTINUOUS
10
3.06315
20
-1.94956
11
3.06154
21
-1.95042
0
LINE
8
BLACK
6
CONTINUOUS
10
3.06154
20
-1.95042
11
3.05978
21
-1.95095
0
LINE
8
BLACK
6
CONTINUOUS
10
3.05978
20
-1.95095
11
3.05796
21
-1.95113
0
LINE
8
BLACK
6
CONTINUOUS
10
3.05796
20
-1.95113
11
3.03532
21
-1.95113
0
LINE
8
BLACK
6
CONTINUOUS
10
3.03532
20
-1.95113
11
3.0335
21
-1.95095
0
LINE
8
BLACK
6
CONTINUOUS
10
3.0335
20
-1.95095
11
3.03174
21
-1.95042
0
LINE
8
BLACK
6
CONTINUOUS
10
3.03174
20
-1.95042
11
3.03012
21
-1.94956
0
LINE
8
BLACK
6
CONTINUOUS
10
3.03012
20
-1.94956
11
3.02871
21
-1.94839
0
LINE
8
BLACK
6
CONTINUOUS
10
3.02871
20
-1.94839
11
3.02755
21
-1.94698
0
LINE
8
BLACK
6
CONTINUOUS
10
3.02755
20
-1.94698
11
3.02668
21
-1.94536
0
LINE
8
BLACK
6
CONTINUOUS
10
3.02668
20
-1.94536
11
3.02615
21
-1.94361
0
LINE
8
BLACK
6
CONTINUOUS
10
3.02615
20
-1.94361
11
3.02597
21
-1.94178
0
LINE
8
BLACK
6
CONTINUOUS
10
3.02597
20
-1.94178
11
3.02597
21
-1.92308
0
LINE
8
BLACK
6
CONTINUOUS
10
3.02597
20
-1.92308
11
3.02615
21
-1.92126
0
LINE
8
BLACK
6
CONTINUOUS
10
3.02615
20
-1.92126
11
3.02668
21
-1.9195
0
LINE
8
BLACK
6
CONTINUOUS
10
3.02668
20
-1.9195
11
3.02755
21
-1.91789
0
LINE
8
BLACK
6
CONTINUOUS
10
3.02755
20
-1.91789
11
3.02871
21
-1.91647
0
LINE
8
BLACK
6
CONTINUOUS
10
3.02871
20
-1.91647
11
3.03012
21
-1.91531
0
LINE
8
BLACK
6
CONTINUOUS
10
3.03012
20
-1.91531
11
3.03174
21
-1.91444
0
LINE
8
BLACK
6
CONTINUOUS
10
3.03174
20
-1.91444
11
3.0335
21
-1.91391
0
LINE
8
BLACK
6
CONTINUOUS
10
3.0335
20
-1.91391
11
3.03532
21
-1.91373
0
LINE
8
BLACK
6
CONTINUOUS
10
3.03532
20
-1.91373
11
3.05796
21
-1.91373
0
LINE
8
BLACK
6
CONTINUOUS
10
3.05796
20
-1.91373
11
3.05978
21
-1.91391
0
LINE
8
BLACK
6
CONTINUOUS
10
4.55969
20
-1.91391
11
4.56144
21
-1.91444
0
LINE
8
BLACK
6
CONTINUOUS
10
4.56144
20
-1.91444
11
4.56306
21
-1.91531
0
LINE
8
BLACK
6
CONTINUOUS
10
4.56306
20
-1.91531
11
4.56447
21
-1.91647
0
LINE
8
BLACK
6
CONTINUOUS
10
4.56447
20
-1.91647
11
4.56564
21
-1.91789
0
LINE
8
BLACK
6
CONTINUOUS
10
4.56564
20
-1.91789
11
4.5665
21
-1.9195
0
LINE
8
BLACK
6
CONTINUOUS
10
4.5665
20
-1.9195
11
4.56703
21
-1.92126
0
LINE
8
BLACK
6
CONTINUOUS
10
4.56703
20
-1.92126
11
4.56721
21
-1.92308
0
LINE
8
BLACK
6
CONTINUOUS
10
4.56721
20
-1.92308
11
4.56721
21
-1.94178
0
LINE
8
BLACK
6
CONTINUOUS
10
4.56721
20
-1.94178
11
4.56703
21
-1.94361
0
LINE
8
BLACK
6
CONTINUOUS
10
4.56703
20
-1.94361
11
4.5665
21
-1.94536
0
LINE
8
BLACK
6
CONTINUOUS
10
4.5665
20
-1.94536
11
4.56564
21
-1.94698
0
LINE
8
BLACK
6
CONTINUOUS
10
4.56564
20
-1.94698
11
4.56447
21
-1.94839
0
LINE
8
BLACK
6
CONTINUOUS
10
4.56447
20
-1.94839
11
4.56306
21
-1.94956
0
LINE
8
BLACK
6
CONTINUOUS
10
4.56306
20
-1.94956
11
4.56144
21
-1.95042
0
LINE
8
BLACK
6
CONTINUOUS
10
4.56144
20
-1.95042
11
4.55969
21
-1.95095
0
LINE
8
BLACK
6
CONTINUOUS
10
4.55969
20
-1.95095
11
4.55786
21
-1.95113
0
LINE
8
BLACK
6
CONTINUOUS
10
4.55786
20
-1.95113
11
4.53522
21
-1.95113
0
LINE
8
BLACK
6
CONTINUOUS
10
4.53522
20
-1.95113
11
4.5334
21
-1.95095
0
LINE
8
BLACK
6
CONTINUOUS
10
4.5334
20
-1.95095
11
4.53165
21
-1.95042
0
LINE
8
BLACK
6
CONTINUOUS
10
4.53165
20
-1.95042
11
4.53003
21
-1.94956
0
LINE
8
BLACK
6
CONTINUOUS
10
4.53003
20
-1.94956
11
4.52861
21
-1.94839
0
LINE
8
BLACK
6
CONTINUOUS
10
4.52861
20
-1.94839
11
4.52745
21
-1.94698
0
LINE
8
BLACK
6
CONTINUOUS
10
4.52745
20
-1.94698
11
4.52658
21
-1.94536
0
LINE
8
BLACK
6
CONTINUOUS
10
4.52658
20
-1.94536
11
4.52605
21
-1.94361
0
LINE
8
BLACK
6
CONTINUOUS
10
4.52605
20
-1.94361
11
4.52587
21
-1.94178
0
LINE
8
BLACK
6
CONTINUOUS
10
4.52587
20
-1.94178
11
4.52587
21
-1.92308
0
LINE
8
BLACK
6
CONTINUOUS
10
4.52587
20
-1.92308
11
4.52605
21
-1.92126
0
LINE
8
BLACK
6
CONTINUOUS
10
4.52605
20
-1.92126
11
4.52658
21
-1.9195
0
LINE
8
BLACK
6
CONTINUOUS
10
4.52658
20
-1.9195
11
4.52745
21
-1.91789
0
LINE
8
BLACK
6
CONTINUOUS
10
4.52745
20
-1.91789
11
4.52861
21
-1.91647
0
LINE
8
BLACK
6
CONTINUOUS
10
4.52861
20
-1.91647
11
4.53003
21
-1.91531
0
LINE
8
BLACK
6
CONTINUOUS
10
4.53003
20
-1.91531
11
4.53165
21
-1.91444
0
LINE
8
BLACK
6
CONTINUOUS
10
4.53165
20
-1.91444
11
4.5334
21
-1.91391
0
LINE
8
BLACK
6
CONTINUOUS
10
4.5334
20
-1.91391
11
4.53522
21
-1.91373
0
LINE
8
BLACK
6
CONTINUOUS
10
4.53522
20
-1.91373
11
4.55786
21
-1.91373
0
LINE
8
BLACK
6
CONTINUOUS
10
4.55786
20
-1.91373
11
4.55969
21
-1.91391
0
LINE
8
BLACK
6
CONTINUOUS
10
4.62858
20
-1.91391
11
4.63034
21
-1.91444
0
LINE
8
BLACK
6
CONTINUOUS
10
4.63034
20
-1.91444
11
4.63195
21
-1.91531
0
LINE
8
BLACK
6
CONTINUOUS
10
4.63195
20
-1.91531
11
4.63337
21
-1.91647
0
LINE
8
BLACK
6
CONTINUOUS
10
4.63337
20
-1.91647
11
4.63453
21
-1.91789
0
LINE
8
BLACK
6
CONTINUOUS
10
4.63453
20
-1.91789
11
4.6354
21
-1.9195
0
LINE
8
BLACK
6
CONTINUOUS
10
4.6354
20
-1.9195
11
4.63593
21
-1.92126
0
LINE
8
BLACK
6
CONTINUOUS
10
4.63593
20
-1.92126
11
4.63611
21
-1.92308
0
LINE
8
BLACK
6
CONTINUOUS
10
4.63611
20
-1.92308
11
4.63611
21
-1.94178
0
LINE
8
BLACK
6
CONTINUOUS
10
4.63611
20
-1.94178
11
4.63593
21
-1.94361
0
LINE
8
BLACK
6
CONTINUOUS
10
4.63593
20
-1.94361
11
4.6354
21
-1.94536
0
LINE
8
BLACK
6
CONTINUOUS
10
4.6354
20
-1.94536
11
4.63453
21
-1.94698
0
LINE
8
BLACK
6
CONTINUOUS
10
4.63453
20
-1.94698
11
4.63337
21
-1.94839
0
LINE
8
BLACK
6
CONTINUOUS
10
4.63337
20
-1.94839
11
4.63195
21
-1.94956
0
LINE
8
BLACK
6
CONTINUOUS
10
4.63195
20
-1.94956
11
4.63034
21
-1.95042
0
LINE
8
BLACK
6
CONTINUOUS
10
4.63034
20
-1.95042
11
4.62858
21
-1.95095
0
LINE
8
BLACK
6
CONTINUOUS
10
4.62858
20
-1.95095
11
4.62676
21
-1.95113
0
LINE
8
BLACK
6
CONTINUOUS
10
4.62676
20
-1.95113
11
4.60412
21
-1.95113
0
LINE
8
BLACK
6
CONTINUOUS
10
4.60412
20
-1.95113
11
4.6023
21
-1.95095
0
LINE
8
BLACK
6
CONTINUOUS
10
4.6023
20
-1.95095
11
4.60054
21
-1.95042
0
LINE
8
BLACK
6
CONTINUOUS
10
4.60054
20
-1.95042
11
4.59893
21
-1.94956
0
LINE
8
BLACK
6
CONTINUOUS
10
4.59893
20
-1.94956
11
4.59751
21
-1.94839
0
LINE
8
BLACK
6
CONTINUOUS
10
4.59751
20
-1.94839
11
4.59635
21
-1.94698
0
LINE
8
BLACK
6
CONTINUOUS
10
4.59635
20
-1.94698
11
4.59548
21
-1.94536
0
LINE
8
BLACK
6
CONTINUOUS
10
4.59548
20
-1.94536
11
4.59495
21
-1.94361
0
LINE
8
BLACK
6
CONTINUOUS
10
4.59495
20
-1.94361
11
4.59477
21
-1.94178
0
LINE
8
BLACK
6
CONTINUOUS
10
4.59477
20
-1.94178
11
4.59477
21
-1.92308
0
LINE
8
BLACK
6
CONTINUOUS
10
4.59477
20
-1.92308
11
4.59495
21
-1.92126
0
LINE
8
BLACK
6
CONTINUOUS
10
4.59495
20
-1.92126
11
4.59548
21
-1.9195
0
LINE
8
BLACK
6
CONTINUOUS
10
4.59548
20
-1.9195
11
4.59635
21
-1.91789
0
LINE
8
BLACK
6
CONTINUOUS
10
4.59635
20
-1.91789
11
4.59751
21
-1.91647
0
LINE
8
BLACK
6
CONTINUOUS
10
4.59751
20
-1.91647
11
4.59893
21
-1.91531
0
LINE
8
BLACK
6
CONTINUOUS
10
4.59893
20
-1.91531
11
4.60054
21
-1.91444
0
LINE
8
BLACK
6
CONTINUOUS
10
4.60054
20
-1.91444
11
4.6023
21
-1.91391
0
LINE
8
BLACK
6
CONTINUOUS
10
4.6023
20
-1.91391
11
4.60412
21
-1.91373
0
LINE
8
BLACK
6
CONTINUOUS
10
4.60412
20
-1.91373
11
4.62676
21
-1.91373
0
LINE
8
BLACK
6
CONTINUOUS
10
4.62676
20
-1.91373
11
4.62858
21
-1.91391
0
LINE
8
BLACK
6
CONTINUOUS
10
3.80973
20
-1.78892
11
3.81149
21
-1.78945
0
LINE
8
BLACK
6
CONTINUOUS
10
3.81149
20
-1.78945
11
3.8131
21
-1.79031
0
LINE
8
BLACK
6
CONTINUOUS
10
3.8131
20
-1.79031
11
3.81452
21
-1.79148
0
LINE
8
BLACK
6
CONTINUOUS
10
3.81452
20
-1.79148
11
3.81568
21
-1.79289
0
LINE
8
BLACK
6
CONTINUOUS
10
3.81568
20
-1.79289
11
3.81655
21
-1.79451
0
LINE
8
BLACK
6
CONTINUOUS
10
3.81655
20
-1.79451
11
3.81708
21
-1.79627
0
LINE
8
BLACK
6
CONTINUOUS
10
3.81708
20
-1.79627
11
3.81726
21
-1.79809
0
LINE
8
BLACK
6
CONTINUOUS
10
3.81726
20
-1.79809
11
3.81726
21
-1.81679
0
LINE
8
BLACK
6
CONTINUOUS
10
3.81726
20
-1.81679
11
3.81708
21
-1.81861
0
LINE
8
BLACK
6
CONTINUOUS
10
3.81708
20
-1.81861
11
3.81655
21
-1.82037
0
LINE
8
BLACK
6
CONTINUOUS
10
3.81655
20
-1.82037
11
3.81568
21
-1.82198
0
LINE
8
BLACK
6
CONTINUOUS
10
3.81568
20
-1.82198
11
3.81452
21
-1.8234
0
LINE
8
BLACK
6
CONTINUOUS
10
3.81452
20
-1.8234
11
3.8131
21
-1.82456
0
LINE
8
BLACK
6
CONTINUOUS
10
3.8131
20
-1.82456
11
3.81149
21
-1.82543
0
LINE
8
BLACK
6
CONTINUOUS
10
3.81149
20
-1.82543
11
3.80973
21
-1.82596
0
LINE
8
BLACK
6
CONTINUOUS
10
3.80973
20
-1.82596
11
3.80791
21
-1.82614
0
LINE
8
BLACK
6
CONTINUOUS
10
3.80791
20
-1.82614
11
3.78527
21
-1.82614
0
LINE
8
BLACK
6
CONTINUOUS
10
3.78527
20
-1.82614
11
3.78345
21
-1.82596
0
LINE
8
BLACK
6
CONTINUOUS
10
3.78345
20
-1.82596
11
3.78169
21
-1.82543
0
LINE
8
BLACK
6
CONTINUOUS
10
3.78169
20
-1.82543
11
3.78008
21
-1.82456
0
LINE
8
BLACK
6
CONTINUOUS
10
3.78008
20
-1.82456
11
3.77866
21
-1.8234
0
LINE
8
BLACK
6
CONTINUOUS
10
3.77866
20
-1.8234
11
3.7775
21
-1.82198
0
LINE
8
BLACK
6
CONTINUOUS
10
3.7775
20
-1.82198
11
3.77663
21
-1.82037
0
LINE
8
BLACK
6
CONTINUOUS
10
3.77663
20
-1.82037
11
3.7761
21
-1.81861
0
LINE
8
BLACK
6
CONTINUOUS
10
3.7761
20
-1.81861
11
3.77592
21
-1.81679
0
LINE
8
BLACK
6
CONTINUOUS
10
3.77592
20
-1.81679
11
3.77592
21
-1.79809
0
LINE
8
BLACK
6
CONTINUOUS
10
3.77592
20
-1.79809
11
3.7761
21
-1.79627
0
LINE
8
BLACK
6
CONTINUOUS
10
3.7761
20
-1.79627
11
3.77663
21
-1.79451
0
LINE
8
BLACK
6
CONTINUOUS
10
3.77663
20
-1.79451
11
3.7775
21
-1.79289
0
LINE
8
BLACK
6
CONTINUOUS
10
3.7775
20
-1.79289
11
3.77866
21
-1.79148
0
LINE
8
BLACK
6
CONTINUOUS
10
3.77866
20
-1.79148
11
3.78008
21
-1.79031
0
LINE
8
BLACK
6
CONTINUOUS
10
3.78008
20
-1.79031
11
3.78169
21
-1.78945
0
LINE
8
BLACK
6
CONTINUOUS
10
3.78169
20
-1.78945
11
3.78345
21
-1.78892
0
LINE
8
BLACK
6
CONTINUOUS
10
3.78345
20
-1.78892
11
3.78527
21
-1.78874
0
LINE
8
BLACK
6
CONTINUOUS
10
3.78527
20
-1.78874
11
3.80791
21
-1.78874
0
LINE
8
BLACK
6
CONTINUOUS
10
3.80791
20
-1.78874
11
3.80973
21
-1.78892
0
LINE
8
BLACK
6
CONTINUOUS
10
3.87863
20
-1.78892
11
3.88039
21
-1.78945
0
LINE
8
BLACK
6
CONTINUOUS
10
3.88039
20
-1.78945
11
3.882
21
-1.79031
0
LINE
8
BLACK
6
CONTINUOUS
10
3.882
20
-1.79031
11
3.88342
21
-1.79148
0
LINE
8
BLACK
6
CONTINUOUS
10
3.88342
20
-1.79148
11
3.88458
21
-1.79289
0
LINE
8
BLACK
6
CONTINUOUS
10
3.88458
20
-1.79289
11
3.88545
21
-1.79451
0
LINE
8
BLACK
6
CONTINUOUS
10
3.88545
20
-1.79451
11
3.88598
21
-1.79627
0
LINE
8
BLACK
6
CONTINUOUS
10
3.88598
20
-1.79627
11
3.88616
21
-1.79809
0
LINE
8
BLACK
6
CONTINUOUS
10
3.88616
20
-1.79809
11
3.88616
21
-1.81679
0
LINE
8
BLACK
6
CONTINUOUS
10
3.88616
20
-1.81679
11
3.88598
21
-1.81861
0
LINE
8
BLACK
6
CONTINUOUS
10
3.88598
20
-1.81861
11
3.88545
21
-1.82037
0
LINE
8
BLACK
6
CONTINUOUS
10
3.88545
20
-1.82037
11
3.88458
21
-1.82198
0
LINE
8
BLACK
6
CONTINUOUS
10
3.88458
20
-1.82198
11
3.88342
21
-1.8234
0
LINE
8
BLACK
6
CONTINUOUS
10
3.88342
20
-1.8234
11
3.882
21
-1.82456
0
LINE
8
BLACK
6
CONTINUOUS
10
3.882
20
-1.82456
11
3.88039
21
-1.82543
0
LINE
8
BLACK
6
CONTINUOUS
10
3.88039
20
-1.82543
11
3.87863
21
-1.82596
0
LINE
8
BLACK
6
CONTINUOUS
10
3.87863
20
-1.82596
11
3.87681
21
-1.82614
0
LINE
8
BLACK
6
CONTINUOUS
10
3.87681
20
-1.82614
11
3.85417
21
-1.82614
0
LINE
8
BLACK
6
CONTINUOUS
10
3.85417
20
-1.82614
11
3.85234
21
-1.82596
0
LINE
8
BLACK
6
CONTINUOUS
10
3.85234
20
-1.82596
11
3.85059
21
-1.82543
0
LINE
8
BLACK
6
CONTINUOUS
10
3.85059
20
-1.82543
11
3.84897
21
-1.82456
0
LINE
8
BLACK
6
CONTINUOUS
10
3.84897
20
-1.82456
11
3.84756
21
-1.8234
0
LINE
8
BLACK
6
CONTINUOUS
10
3.84756
20
-1.8234
11
3.84639
21
-1.82198
0
LINE
8
BLACK
6
CONTINUOUS
10
3.84639
20
-1.82198
11
3.84553
21
-1.82037
0
LINE
8
BLACK
6
CONTINUOUS
10
3.84553
20
-1.82037
11
3.845
21
-1.81861
0
LINE
8
BLACK
6
CONTINUOUS
10
3.845
20
-1.81861
11
3.84482
21
-1.81679
0
LINE
8
BLACK
6
CONTINUOUS
10
3.84482
20
-1.81679
11
3.84482
21
-1.79809
0
LINE
8
BLACK
6
CONTINUOUS
10
3.84482
20
-1.79809
11
3.845
21
-1.79627
0
LINE
8
BLACK
6
CONTINUOUS
10
3.845
20
-1.79627
11
3.84553
21
-1.79451
0
LINE
8
BLACK
6
CONTINUOUS
10
3.84553
20
-1.79451
11
3.84639
21
-1.79289
0
LINE
8
BLACK
6
CONTINUOUS
10
3.84639
20
-1.79289
11
3.84756
21
-1.79148
0
LINE
8
BLACK
6
CONTINUOUS
10
3.84756
20
-1.79148
11
3.84897
21
-1.79031
0
LINE
8
BLACK
6
CONTINUOUS
10
3.84897
20
-1.79031
11
3.85059
21
-1.78945
0
LINE
8
BLACK
6
CONTINUOUS
10
3.85059
20
-1.78945
11
3.85234
21
-1.78892
0
LINE
8
BLACK
6
CONTINUOUS
10
3.85234
20
-1.78892
11
3.85417
21
-1.78874
0
LINE
8
BLACK
6
CONTINUOUS
10
3.85417
20
-1.78874
11
3.87681
21
-1.78874
0
LINE
8
BLACK
6
CONTINUOUS
10
3.87681
20
-1.78874
11
3.87863
21
-1.78892
  0
ENDSEC
  0
EOF
