  0
SECTION
  2
HEADER
  9
$ANGBASE
  50
0.0
  9
$ANGDIR
  70
1
  9
$MEASUREMENT
  70
0
  0
ENDSEC
  0
SECTION
  2
TABLES
  0
TABLE
  2
LTYPE
  70
4
  0
LTYPE
  5
40F
  2
CONTINUOUS
  70
0
  3
Solid line
  72
65
  73
0
  40
0.0
  0
LTYPE
  5
410
  2
DASHDOT
 70
0
  3
Dash Dot ____ _ ____ _
 72
65
 73
4
 40
2.0
 49
1.25
 49
-0.25
 49
0.25
 49
-0.25
  0
LTYPE
  5
411
  2
DASHED
 70
0
  3
Dashed __ __ __ __ __
 72
65
 73
2
 40
0.75
 49
0.5
 49
-0.25
  0
LTYPE
  5
43B
  2
DOTTED
 70
0
  3
Dotted .  .  .  .
 72
65
 73
2
 40
0.2
 49
0.0
 49
-0.2
  0
ENDTAB
  0
TABLE
  2
STYLE
  70
4
  0
STYLE
  2
KICAD
  70
0
  40
0
  41
1
  42
1
  50
0
  71
0
  3
isocp.shx
  0
STYLE
  2
KICADB
  70
0
  40
0
  41
1
  42
1
  50
0
  71
0
  3
isocp.shx
  0
STYLE
  2
KICADI
  70
0
  40
0
  41
1
  42
1
  50
15
  71
0
  3
isocp.shx
  0
STYLE
  2
KICADBI
  70
0
  40
0
  41
1
  42
1
  50
15
  71
0
  3
isocp.shx
  0
ENDTAB
  0
TABLE
  2
LAYER
  70
1
  0
LAYER
  2
BLACK
  70
0
  62
7
  6
CONTINUOUS
  0
ENDTAB
  0
ENDSEC
  0
SECTION
  2
ENTITIES
0
LINE
8
BLACK
6
CONTINUOUS
10
5.73968
20
-1.27545
11
5.73977
21
-1.27547
0
LINE
8
BLACK
6
CONTINUOUS
10
5.73977
20
-1.27547
11
5.73985
21
-1.27549
0
LINE
8
BLACK
6
CONTINUOUS
10
5.73985
20
-1.27549
11
5.75386
21
-1.27972
0
LINE
8
BLACK
6
CONTINUOUS
10
5.75386
20
-1.27972
11
5.75386
21
-1.27972
0
LINE
8
BLACK
6
CONTINUOUS
10
5.75386
20
-1.27972
11
5.75388
21
-1.27972
0
LINE
8
BLACK
6
CONTINUOUS
10
5.75388
20
-1.27972
11
5.75396
21
-1.27976
0
LINE
8
BLACK
6
CONTINUOUS
10
5.75396
20
-1.27976
11
5.75404
21
-1.27979
0
LINE
8
BLACK
6
CONTINUOUS
10
5.75404
20
-1.27979
11
5.76697
21
-1.28666
0
LINE
8
BLACK
6
CONTINUOUS
10
5.76697
20
-1.28666
11
5.76698
21
-1.28667
0
LINE
8
BLACK
6
CONTINUOUS
10
5.76698
20
-1.28667
11
5.76705
21
-1.28672
0
LINE
8
BLACK
6
CONTINUOUS
10
5.76705
20
-1.28672
11
5.76713
21
-1.28677
0
LINE
8
BLACK
6
CONTINUOUS
10
5.76713
20
-1.28677
11
5.77847
21
-1.29602
0
LINE
8
BLACK
6
CONTINUOUS
10
5.77847
20
-1.29602
11
5.77847
21
-1.29602
0
LINE
8
BLACK
6
CONTINUOUS
10
5.77847
20
-1.29602
11
5.77847
21
-1.29602
0
LINE
8
BLACK
6
CONTINUOUS
10
5.77847
20
-1.29602
11
5.77848
21
-1.29603
0
LINE
8
BLACK
6
CONTINUOUS
10
5.77848
20
-1.29603
11
5.77854
21
-1.29609
0
LINE
8
BLACK
6
CONTINUOUS
10
5.77854
20
-1.29609
11
5.77861
21
-1.29615
0
LINE
8
BLACK
6
CONTINUOUS
10
5.77861
20
-1.29615
11
5.78794
21
-1.30743
0
LINE
8
BLACK
6
CONTINUOUS
10
5.78794
20
-1.30743
11
5.78794
21
-1.30744
0
LINE
8
BLACK
6
CONTINUOUS
10
5.78794
20
-1.30744
11
5.78799
21
-1.30752
0
LINE
8
BLACK
6
CONTINUOUS
10
5.78799
20
-1.30752
11
5.78804
21
-1.30759
0
LINE
8
BLACK
6
CONTINUOUS
10
5.78804
20
-1.30759
11
5.79501
21
-1.32047
0
LINE
8
BLACK
6
CONTINUOUS
10
5.79501
20
-1.32047
11
5.79501
21
-1.32048
0
LINE
8
BLACK
6
CONTINUOUS
10
5.79501
20
-1.32048
11
5.79505
21
-1.32056
0
LINE
8
BLACK
6
CONTINUOUS
10
5.79505
20
-1.32056
11
5.79508
21
-1.32065
0
LINE
8
BLACK
6
CONTINUOUS
10
5.79508
20
-1.32065
11
5.79941
21
-1.33463
0
LINE
8
BLACK
6
CONTINUOUS
10
5.79941
20
-1.33463
11
5.79941
21
-1.33464
0
LINE
8
BLACK
6
CONTINUOUS
10
5.79941
20
-1.33464
11
5.79943
21
-1.33473
0
LINE
8
BLACK
6
CONTINUOUS
10
5.79943
20
-1.33473
11
5.79945
21
-1.33482
0
LINE
8
BLACK
6
CONTINUOUS
10
5.79945
20
-1.33482
11
5.80098
21
-1.34937
0
LINE
8
BLACK
6
CONTINUOUS
10
5.80098
20
-1.34937
11
5.80098
21
-1.34939
0
LINE
8
BLACK
6
CONTINUOUS
10
5.80098
20
-1.34939
11
5.80098
21
-1.34943
0
LINE
8
BLACK
6
CONTINUOUS
10
5.80098
20
-1.34943
11
5.80098
21
-1.34947
0
LINE
8
BLACK
6
CONTINUOUS
10
5.80098
20
-1.34947
11
5.80098
21
-1.34995
0
LINE
8
BLACK
6
CONTINUOUS
10
5.80098
20
-1.34995
11
5.80098
21
-1.34995
0
LINE
8
BLACK
6
CONTINUOUS
10
5.80098
20
-1.34995
11
5.80098
21
-4.20005
0
LINE
8
BLACK
6
CONTINUOUS
10
5.80098
20
-4.20005
11
5.80098
21
-4.2001
0
LINE
8
BLACK
6
CONTINUOUS
10
5.80098
20
-4.2001
11
5.80098
21
-4.2001
0
LINE
8
BLACK
6
CONTINUOUS
10
5.80098
20
-4.2001
11
5.79955
21
-4.21466
0
LINE
8
BLACK
6
CONTINUOUS
10
5.79955
20
-4.21466
11
5.79955
21
-4.21468
0
LINE
8
BLACK
6
CONTINUOUS
10
5.79955
20
-4.21468
11
5.79953
21
-4.21477
0
LINE
8
BLACK
6
CONTINUOUS
10
5.79953
20
-4.21477
11
5.79951
21
-4.21485
0
LINE
8
BLACK
6
CONTINUOUS
10
5.79951
20
-4.21485
11
5.79528
21
-4.22886
0
LINE
8
BLACK
6
CONTINUOUS
10
5.79528
20
-4.22886
11
5.79528
21
-4.22888
0
LINE
8
BLACK
6
CONTINUOUS
10
5.79528
20
-4.22888
11
5.79524
21
-4.22896
0
LINE
8
BLACK
6
CONTINUOUS
10
5.79524
20
-4.22896
11
5.79521
21
-4.22904
0
LINE
8
BLACK
6
CONTINUOUS
10
5.79521
20
-4.22904
11
5.78834
21
-4.24197
0
LINE
8
BLACK
6
CONTINUOUS
10
5.78834
20
-4.24197
11
5.78833
21
-4.24198
0
LINE
8
BLACK
6
CONTINUOUS
10
5.78833
20
-4.24198
11
5.78828
21
-4.24205
0
LINE
8
BLACK
6
CONTINUOUS
10
5.78828
20
-4.24205
11
5.78823
21
-4.24213
0
LINE
8
BLACK
6
CONTINUOUS
10
5.78823
20
-4.24213
11
5.77898
21
-4.25347
0
LINE
8
BLACK
6
CONTINUOUS
10
5.77898
20
-4.25347
11
5.77897
21
-4.25348
0
LINE
8
BLACK
6
CONTINUOUS
10
5.77897
20
-4.25348
11
5.77891
21
-4.25354
0
LINE
8
BLACK
6
CONTINUOUS
10
5.77891
20
-4.25354
11
5.77885
21
-4.25361
0
LINE
8
BLACK
6
CONTINUOUS
10
5.77885
20
-4.25361
11
5.76757
21
-4.26294
0
LINE
8
BLACK
6
CONTINUOUS
10
5.76757
20
-4.26294
11
5.76756
21
-4.26294
0
LINE
8
BLACK
6
CONTINUOUS
10
5.76756
20
-4.26294
11
5.76748
21
-4.26299
0
LINE
8
BLACK
6
CONTINUOUS
10
5.76748
20
-4.26299
11
5.76741
21
-4.26304
0
LINE
8
BLACK
6
CONTINUOUS
10
5.76741
20
-4.26304
11
5.75453
21
-4.27001
0
LINE
8
BLACK
6
CONTINUOUS
10
5.75453
20
-4.27001
11
5.75452
21
-4.27001
0
LINE
8
BLACK
6
CONTINUOUS
10
5.75452
20
-4.27001
11
5.75444
21
-4.27005
0
LINE
8
BLACK
6
CONTINUOUS
10
5.75444
20
-4.27005
11
5.75435
21
-4.27008
0
LINE
8
BLACK
6
CONTINUOUS
10
5.75435
20
-4.27008
11
5.74037
21
-4.27441
0
LINE
8
BLACK
6
CONTINUOUS
10
5.74037
20
-4.27441
11
5.74036
21
-4.27441
0
LINE
8
BLACK
6
CONTINUOUS
10
5.74036
20
-4.27441
11
5.74027
21
-4.27443
0
LINE
8
BLACK
6
CONTINUOUS
10
5.74027
20
-4.27443
11
5.74018
21
-4.27445
0
LINE
8
BLACK
6
CONTINUOUS
10
5.74018
20
-4.27445
11
5.72563
21
-4.27598
0
LINE
8
BLACK
6
CONTINUOUS
10
5.72563
20
-4.27598
11
5.72561
21
-4.27598
0
LINE
8
BLACK
6
CONTINUOUS
10
5.72561
20
-4.27598
11
5.72557
21
-4.27598
0
LINE
8
BLACK
6
CONTINUOUS
10
5.72557
20
-4.27598
11
5.72553
21
-4.27598
0
LINE
8
BLACK
6
CONTINUOUS
10
5.72553
20
-4.27598
11
5.72505
21
-4.27598
0
LINE
8
BLACK
6
CONTINUOUS
10
5.72505
20
-4.27598
11
5.72505
21
-4.27598
0
LINE
8
BLACK
6
CONTINUOUS
10
5.72505
20
-4.27598
11
1.22495
21
-4.27598
0
LINE
8
BLACK
6
CONTINUOUS
10
1.22495
20
-4.27598
11
1.2249
21
-4.27598
0
LINE
8
BLACK
6
CONTINUOUS
10
1.2249
20
-4.27598
11
1.2249
21
-4.27598
0
LINE
8
BLACK
6
CONTINUOUS
10
1.2249
20
-4.27598
11
1.21034
21
-4.27455
0
LINE
8
BLACK
6
CONTINUOUS
10
1.21034
20
-4.27455
11
1.21032
21
-4.27455
0
LINE
8
BLACK
6
CONTINUOUS
10
1.21032
20
-4.27455
11
1.21023
21
-4.27453
0
LINE
8
BLACK
6
CONTINUOUS
10
1.21023
20
-4.27453
11
1.21015
21
-4.27451
0
LINE
8
BLACK
6
CONTINUOUS
10
1.21015
20
-4.27451
11
1.19614
21
-4.27028
0
LINE
8
BLACK
6
CONTINUOUS
10
1.19614
20
-4.27028
11
1.19612
21
-4.27028
0
LINE
8
BLACK
6
CONTINUOUS
10
1.19612
20
-4.27028
11
1.19604
21
-4.27024
0
LINE
8
BLACK
6
CONTINUOUS
10
1.19604
20
-4.27024
11
1.19596
21
-4.27021
0
LINE
8
BLACK
6
CONTINUOUS
10
1.19596
20
-4.27021
11
1.18303
21
-4.26334
0
LINE
8
BLACK
6
CONTINUOUS
10
1.18303
20
-4.26334
11
1.18302
21
-4.26333
0
LINE
8
BLACK
6
CONTINUOUS
10
1.18302
20
-4.26333
11
1.18295
21
-4.26328
0
LINE
8
BLACK
6
CONTINUOUS
10
1.18295
20
-4.26328
11
1.18287
21
-4.26323
0
LINE
8
BLACK
6
CONTINUOUS
10
1.18287
20
-4.26323
11
1.17153
21
-4.25398
0
LINE
8
BLACK
6
CONTINUOUS
10
1.17153
20
-4.25398
11
1.17152
21
-4.25397
0
LINE
8
BLACK
6
CONTINUOUS
10
1.17152
20
-4.25397
11
1.17146
21
-4.25391
0
LINE
8
BLACK
6
CONTINUOUS
10
1.17146
20
-4.25391
11
1.17139
21
-4.25385
0
LINE
8
BLACK
6
CONTINUOUS
10
1.17139
20
-4.25385
11
1.16206
21
-4.24257
0
LINE
8
BLACK
6
CONTINUOUS
10
1.16206
20
-4.24257
11
1.16206
21
-4.24256
0
LINE
8
BLACK
6
CONTINUOUS
10
1.16206
20
-4.24256
11
1.16201
21
-4.24248
0
LINE
8
BLACK
6
CONTINUOUS
10
1.16201
20
-4.24248
11
1.16196
21
-4.24241
0
LINE
8
BLACK
6
CONTINUOUS
10
1.16196
20
-4.24241
11
1.15499
21
-4.22953
0
LINE
8
BLACK
6
CONTINUOUS
10
1.15499
20
-4.22953
11
1.15499
21
-4.22952
0
LINE
8
BLACK
6
CONTINUOUS
10
1.15499
20
-4.22952
11
1.15495
21
-4.22944
0
LINE
8
BLACK
6
CONTINUOUS
10
1.15495
20
-4.22944
11
1.15492
21
-4.22935
0
LINE
8
BLACK
6
CONTINUOUS
10
1.15492
20
-4.22935
11
1.15059
21
-4.21537
0
LINE
8
BLACK
6
CONTINUOUS
10
1.15059
20
-4.21537
11
1.15059
21
-4.21536
0
LINE
8
BLACK
6
CONTINUOUS
10
1.15059
20
-4.21536
11
1.15057
21
-4.21527
0
LINE
8
BLACK
6
CONTINUOUS
10
1.15057
20
-4.21527
11
1.15055
21
-4.21518
0
LINE
8
BLACK
6
CONTINUOUS
10
1.15055
20
-4.21518
11
1.14902
21
-4.20063
0
LINE
8
BLACK
6
CONTINUOUS
10
1.14902
20
-4.20063
11
1.14902
21
-4.20061
0
LINE
8
BLACK
6
CONTINUOUS
10
1.14902
20
-4.20061
11
1.14902
21
-4.20057
0
LINE
8
BLACK
6
CONTINUOUS
10
1.14902
20
-4.20057
11
1.14902
21
-4.20053
0
LINE
8
BLACK
6
CONTINUOUS
10
1.14902
20
-4.20053
11
1.14902
21
-4.20005
0
LINE
8
BLACK
6
CONTINUOUS
10
1.14902
20
-4.20005
11
1.14902
21
-4.20005
0
LINE
8
BLACK
6
CONTINUOUS
10
1.14902
20
-4.20005
11
1.14902
21
-4.20001
0
LINE
8
BLACK
6
CONTINUOUS
10
1.14902
20
-4.20001
11
1.14902
21
-4.2
0
LINE
8
BLACK
6
CONTINUOUS
10
1.14902
20
-4.2
11
1.14902
21
-4.19999
0
LINE
8
BLACK
6
CONTINUOUS
10
1.14902
20
-4.19999
11
1.14902
21
-1.84995
0
LINE
8
BLACK
6
CONTINUOUS
10
1.14902
20
-1.84995
11
1.14902
21
-1.84995
0
LINE
8
BLACK
6
CONTINUOUS
10
1.14902
20
-1.84995
11
1.14902
21
-1.77495
0
LINE
8
BLACK
6
CONTINUOUS
10
1.14902
20
-1.77495
11
1.14902
21
-1.7749
0
LINE
8
BLACK
6
CONTINUOUS
10
1.14902
20
-1.7749
11
1.14902
21
-1.7749
0
LINE
8
BLACK
6
CONTINUOUS
10
1.14902
20
-1.7749
11
1.15053
21
-1.75955
0
LINE
8
BLACK
6
CONTINUOUS
10
1.15053
20
-1.75955
11
1.15053
21
-1.75953
0
LINE
8
BLACK
6
CONTINUOUS
10
1.15053
20
-1.75953
11
1.15055
21
-1.75945
0
LINE
8
BLACK
6
CONTINUOUS
10
1.15055
20
-1.75945
11
1.15056
21
-1.75936
0
LINE
8
BLACK
6
CONTINUOUS
10
1.15056
20
-1.75936
11
1.15502
21
-1.74459
0
LINE
8
BLACK
6
CONTINUOUS
10
1.15502
20
-1.74459
11
1.15503
21
-1.74458
0
LINE
8
BLACK
6
CONTINUOUS
10
1.15503
20
-1.74458
11
1.15506
21
-1.74449
0
LINE
8
BLACK
6
CONTINUOUS
10
1.15506
20
-1.74449
11
1.1551
21
-1.74441
0
LINE
8
BLACK
6
CONTINUOUS
10
1.1551
20
-1.74441
11
1.16234
21
-1.73079
0
LINE
8
BLACK
6
CONTINUOUS
10
1.16234
20
-1.73079
11
1.16235
21
-1.73078
0
LINE
8
BLACK
6
CONTINUOUS
10
1.16235
20
-1.73078
11
1.1624
21
-1.7307
0
LINE
8
BLACK
6
CONTINUOUS
10
1.1624
20
-1.7307
11
1.16245
21
-1.73063
0
LINE
8
BLACK
6
CONTINUOUS
10
1.16245
20
-1.73063
11
1.1722
21
-1.71867
0
LINE
8
BLACK
6
CONTINUOUS
10
1.1722
20
-1.71867
11
1.1722
21
-1.71867
0
LINE
8
BLACK
6
CONTINUOUS
10
1.1722
20
-1.71867
11
1.1722
21
-1.71867
0
LINE
8
BLACK
6
CONTINUOUS
10
1.1722
20
-1.71867
11
1.17221
21
-1.71866
0
LINE
8
BLACK
6
CONTINUOUS
10
1.17221
20
-1.71866
11
1.17227
21
-1.7186
0
LINE
8
BLACK
6
CONTINUOUS
10
1.17227
20
-1.7186
11
1.17233
21
-1.71854
0
LINE
8
BLACK
6
CONTINUOUS
10
1.17233
20
-1.71854
11
1.18422
21
-1.7087
0
LINE
8
BLACK
6
CONTINUOUS
10
1.18422
20
-1.7087
11
1.18423
21
-1.70869
0
LINE
8
BLACK
6
CONTINUOUS
10
1.18423
20
-1.70869
11
1.18431
21
-1.70864
0
LINE
8
BLACK
6
CONTINUOUS
10
1.18431
20
-1.70864
11
1.18438
21
-1.70859
0
LINE
8
BLACK
6
CONTINUOUS
10
1.18438
20
-1.70859
11
1.19795
21
-1.70125
0
LINE
8
BLACK
6
CONTINUOUS
10
1.19795
20
-1.70125
11
1.19797
21
-1.70125
0
LINE
8
BLACK
6
CONTINUOUS
10
1.19797
20
-1.70125
11
1.19802
21
-1.70123
0
LINE
8
BLACK
6
CONTINUOUS
10
1.19802
20
-1.70123
11
1.19807
21
-1.7012
0
LINE
8
BLACK
6
CONTINUOUS
10
1.19807
20
-1.7012
11
1.20363
21
-1.69911
0
LINE
8
BLACK
6
CONTINUOUS
10
1.20363
20
-1.69911
11
1.20363
21
-1.69911
0
LINE
8
BLACK
6
CONTINUOUS
10
1.20363
20
-1.69911
11
1.20371
21
-1.69908
0
LINE
8
BLACK
6
CONTINUOUS
10
1.20371
20
-1.69908
11
1.20372
21
-1.69907
0
LINE
8
BLACK
6
CONTINUOUS
10
1.20372
20
-1.69907
11
1.20372
21
-1.69907
0
LINE
8
BLACK
6
CONTINUOUS
10
1.20372
20
-1.69907
11
1.20377
21
-1.69906
0
LINE
8
BLACK
6
CONTINUOUS
10
1.20377
20
-1.69906
11
2.85109
21
-1.27788
0
LINE
8
BLACK
6
CONTINUOUS
10
2.85109
20
-1.27788
11
2.8511
21
-1.27788
0
LINE
8
BLACK
6
CONTINUOUS
10
2.8511
20
-1.27788
11
2.86534
21
-1.27464
0
LINE
8
BLACK
6
CONTINUOUS
10
2.86534
20
-1.27464
11
2.86535
21
-1.27463
0
LINE
8
BLACK
6
CONTINUOUS
10
2.86535
20
-1.27463
11
2.86542
21
-1.27463
0
LINE
8
BLACK
6
CONTINUOUS
10
2.86542
20
-1.27463
11
2.86549
21
-1.27461
0
LINE
8
BLACK
6
CONTINUOUS
10
2.86549
20
-1.27461
11
2.87492
21
-1.27402
0
LINE
8
BLACK
6
CONTINUOUS
10
2.87492
20
-1.27402
11
2.87495
21
-1.27402
0
LINE
8
BLACK
6
CONTINUOUS
10
2.87495
20
-1.27402
11
5.72505
21
-1.27402
0
LINE
8
BLACK
6
CONTINUOUS
10
5.72505
20
-1.27402
11
5.7251
21
-1.27402
0
LINE
8
BLACK
6
CONTINUOUS
10
5.7251
20
-1.27402
11
5.7251
21
-1.27402
0
LINE
8
BLACK
6
CONTINUOUS
10
5.7251
20
-1.27402
11
5.73966
21
-1.27545
0
LINE
8
BLACK
6
CONTINUOUS
10
5.73966
20
-1.27545
11
5.73966
21
-1.27545
0
LINE
8
BLACK
6
CONTINUOUS
10
5.73966
20
-1.27545
11
5.73968
21
-1.27545
0
LINE
8
BLACK
6
CONTINUOUS
10
1.15099
20
-4.20047
11
1.1525
21
-4.21488
0
LINE
8
BLACK
6
CONTINUOUS
10
1.1525
20
-4.21488
11
1.15677
21
-4.22868
0
LINE
8
BLACK
6
CONTINUOUS
10
1.15677
20
-4.22868
11
1.16364
21
-4.24139
0
LINE
8
BLACK
6
CONTINUOUS
10
1.16364
20
-4.24139
11
1.17285
21
-4.25252
0
LINE
8
BLACK
6
CONTINUOUS
10
1.17285
20
-4.25252
11
1.18404
21
-4.26165
0
LINE
8
BLACK
6
CONTINUOUS
10
1.18404
20
-4.26165
11
1.1968
21
-4.26843
0
LINE
8
BLACK
6
CONTINUOUS
10
1.1968
20
-4.26843
11
1.21062
21
-4.2726
0
LINE
8
BLACK
6
CONTINUOUS
10
1.21062
20
-4.2726
11
1.22505
21
-4.27402
0
LINE
8
BLACK
6
CONTINUOUS
10
1.22505
20
-4.27402
11
5.725
21
-4.27402
0
LINE
8
BLACK
6
CONTINUOUS
10
5.725
20
-4.27402
11
5.72547
21
-4.27401
0
LINE
8
BLACK
6
CONTINUOUS
10
5.72547
20
-4.27401
11
5.73988
21
-4.2725
0
LINE
8
BLACK
6
CONTINUOUS
10
5.73988
20
-4.2725
11
5.75368
21
-4.26823
0
LINE
8
BLACK
6
CONTINUOUS
10
5.75368
20
-4.26823
11
5.76639
21
-4.26136
0
LINE
8
BLACK
6
CONTINUOUS
10
5.76639
20
-4.26136
11
5.77752
21
-4.25215
0
LINE
8
BLACK
6
CONTINUOUS
10
5.77752
20
-4.25215
11
5.78665
21
-4.24096
0
LINE
8
BLACK
6
CONTINUOUS
10
5.78665
20
-4.24096
11
5.79343
21
-4.2282
0
LINE
8
BLACK
6
CONTINUOUS
10
5.79343
20
-4.2282
11
5.7976
21
-4.21438
0
LINE
8
BLACK
6
CONTINUOUS
10
5.7976
20
-4.21438
11
5.79902
21
-4.19995
0
LINE
8
BLACK
6
CONTINUOUS
10
5.79902
20
-4.19995
11
5.79902
21
-1.35
0
LINE
8
BLACK
6
CONTINUOUS
10
5.79902
20
-1.35
11
5.79902
21
-1.35
0
LINE
8
BLACK
6
CONTINUOUS
10
5.79902
20
-1.35
11
5.79901
21
-1.34953
0
LINE
8
BLACK
6
CONTINUOUS
10
5.79901
20
-1.34953
11
5.7975
21
-1.33512
0
LINE
8
BLACK
6
CONTINUOUS
10
5.7975
20
-1.33512
11
5.79323
21
-1.32132
0
LINE
8
BLACK
6
CONTINUOUS
10
5.79323
20
-1.32132
11
5.78636
21
-1.30861
0
LINE
8
BLACK
6
CONTINUOUS
10
5.78636
20
-1.30861
11
5.77715
21
-1.29748
0
LINE
8
BLACK
6
CONTINUOUS
10
5.77715
20
-1.29748
11
5.76596
21
-1.28835
0
LINE
8
BLACK
6
CONTINUOUS
10
5.76596
20
-1.28835
11
5.7532
21
-1.28157
0
LINE
8
BLACK
6
CONTINUOUS
10
5.7532
20
-1.28157
11
5.73938
21
-1.2774
0
LINE
8
BLACK
6
CONTINUOUS
10
5.73938
20
-1.2774
11
5.72495
21
-1.27598
0
LINE
8
BLACK
6
CONTINUOUS
10
5.72495
20
-1.27598
11
2.87503
21
-1.27598
0
LINE
8
BLACK
6
CONTINUOUS
10
2.87503
20
-1.27598
11
2.8657
21
-1.27657
0
LINE
8
BLACK
6
CONTINUOUS
10
2.8657
20
-1.27657
11
2.85152
21
-1.27981
0
LINE
8
BLACK
6
CONTINUOUS
10
2.85152
20
-1.27981
11
1.20435
21
-1.70094
0
LINE
8
BLACK
6
CONTINUOUS
10
1.20435
20
-1.70094
11
1.19883
21
-1.70302
0
LINE
8
BLACK
6
CONTINUOUS
10
1.19883
20
-1.70302
11
1.1854
21
-1.71028
0
LINE
8
BLACK
6
CONTINUOUS
10
1.1854
20
-1.71028
11
1.17366
21
-1.71999
0
LINE
8
BLACK
6
CONTINUOUS
10
1.17366
20
-1.71999
11
1.16403
21
-1.7318
0
LINE
8
BLACK
6
CONTINUOUS
10
1.16403
20
-1.7318
11
1.15688
21
-1.74525
0
LINE
8
BLACK
6
CONTINUOUS
10
1.15688
20
-1.74525
11
1.15248
21
-1.75984
0
LINE
8
BLACK
6
CONTINUOUS
10
1.15248
20
-1.75984
11
1.15098
21
-1.77505
0
LINE
8
BLACK
6
CONTINUOUS
10
1.15098
20
-1.77505
11
1.15098
21
-4.2
0
LINE
8
BLACK
6
CONTINUOUS
10
1.15098
20
-4.2
11
1.15099
21
-4.20047
  0
ENDSEC
  0
EOF
