  0
SECTION
  2
HEADER
  9
$ANGBASE
  50
0.0
  9
$ANGDIR
  70
1
  9
$MEASUREMENT
  70
0
  0
ENDSEC
  0
SECTION
  2
TABLES
  0
TABLE
  2
LTYPE
  70
4
  0
LTYPE
  5
40F
  2
CONTINUOUS
  70
0
  3
Solid line
  72
65
  73
0
  40
0.0
  0
LTYPE
  5
410
  2
DASHDOT
 70
0
  3
Dash Dot ____ _ ____ _
 72
65
 73
4
 40
2.0
 49
1.25
 49
-0.25
 49
0.25
 49
-0.25
  0
LTYPE
  5
411
  2
DASHED
 70
0
  3
Dashed __ __ __ __ __
 72
65
 73
2
 40
0.75
 49
0.5
 49
-0.25
  0
LTYPE
  5
43B
  2
DOTTED
 70
0
  3
Dotted .  .  .  .
 72
65
 73
2
 40
0.2
 49
0.0
 49
-0.2
  0
ENDTAB
  0
TABLE
  2
STYLE
  70
4
  0
STYLE
  2
KICAD
  70
0
  40
0
  41
1
  42
1
  50
0
  71
0
  3
isocp.shx
  0
STYLE
  2
KICADB
  70
0
  40
0
  41
1
  42
1
  50
0
  71
0
  3
isocp.shx
  0
STYLE
  2
KICADI
  70
0
  40
0
  41
1
  42
1
  50
15
  71
0
  3
isocp.shx
  0
STYLE
  2
KICADBI
  70
0
  40
0
  41
1
  42
1
  50
15
  71
0
  3
isocp.shx
  0
ENDTAB
  0
TABLE
  2
LAYER
  70
1
  0
LAYER
  2
BLACK
  70
0
  62
7
  6
CONTINUOUS
  0
ENDTAB
  0
ENDSEC
  0
SECTION
  2
ENTITIES
0
LINE
8
BLACK
6
CONTINUOUS
10
1.64619
20
-3.65259
11
1.64619
21
-3.65259
0
LINE
8
BLACK
6
CONTINUOUS
10
1.64619
20
-3.65259
11
1.64634
21
-3.65261
0
LINE
8
BLACK
6
CONTINUOUS
10
1.64634
20
-3.65261
11
1.64652
21
-3.65267
0
LINE
8
BLACK
6
CONTINUOUS
10
1.64652
20
-3.65267
11
1.64669
21
-3.65276
0
LINE
8
BLACK
6
CONTINUOUS
10
1.64669
20
-3.65276
11
1.64684
21
-3.65288
0
LINE
8
BLACK
6
CONTINUOUS
10
1.64684
20
-3.65288
11
1.64697
21
-3.65303
0
LINE
8
BLACK
6
CONTINUOUS
10
1.64697
20
-3.65303
11
1.64706
21
-3.6532
0
LINE
8
BLACK
6
CONTINUOUS
10
1.64706
20
-3.6532
11
1.64711
21
-3.65339
0
LINE
8
BLACK
6
CONTINUOUS
10
1.64711
20
-3.65339
11
1.64713
21
-3.65358
0
LINE
8
BLACK
6
CONTINUOUS
10
1.64713
20
-3.65358
11
1.64713
21
-3.65363
0
LINE
8
BLACK
6
CONTINUOUS
10
1.64713
20
-3.65363
11
1.64713
21
-3.71101
0
LINE
8
BLACK
6
CONTINUOUS
10
1.64713
20
-3.71101
11
1.64713
21
-3.71106
0
LINE
8
BLACK
6
CONTINUOUS
10
1.64713
20
-3.71106
11
1.64713
21
-3.71111
0
LINE
8
BLACK
6
CONTINUOUS
10
1.64713
20
-3.71111
11
1.64713
21
-3.71111
0
LINE
8
BLACK
6
CONTINUOUS
10
1.64713
20
-3.71111
11
1.64711
21
-3.71125
0
LINE
8
BLACK
6
CONTINUOUS
10
1.64711
20
-3.71125
11
1.64706
21
-3.71144
0
LINE
8
BLACK
6
CONTINUOUS
10
1.64706
20
-3.71144
11
1.64697
21
-3.71161
0
LINE
8
BLACK
6
CONTINUOUS
10
1.64697
20
-3.71161
11
1.64684
21
-3.71176
0
LINE
8
BLACK
6
CONTINUOUS
10
1.64684
20
-3.71176
11
1.64669
21
-3.71188
0
LINE
8
BLACK
6
CONTINUOUS
10
1.64669
20
-3.71188
11
1.64652
21
-3.71197
0
LINE
8
BLACK
6
CONTINUOUS
10
1.64652
20
-3.71197
11
1.64634
21
-3.71203
0
LINE
8
BLACK
6
CONTINUOUS
10
1.64634
20
-3.71203
11
1.64614
21
-3.71205
0
LINE
8
BLACK
6
CONTINUOUS
10
1.64614
20
-3.71205
11
1.6461
21
-3.71204
0
LINE
8
BLACK
6
CONTINUOUS
10
1.6461
20
-3.71204
11
1.51627
21
-3.71204
0
LINE
8
BLACK
6
CONTINUOUS
10
1.51627
20
-3.71204
11
1.51622
21
-3.71205
0
LINE
8
BLACK
6
CONTINUOUS
10
1.51622
20
-3.71205
11
1.51603
21
-3.71203
0
LINE
8
BLACK
6
CONTINUOUS
10
1.51603
20
-3.71203
11
1.51584
21
-3.71197
0
LINE
8
BLACK
6
CONTINUOUS
10
1.51584
20
-3.71197
11
1.51567
21
-3.71188
0
LINE
8
BLACK
6
CONTINUOUS
10
1.51567
20
-3.71188
11
1.51552
21
-3.71176
0
LINE
8
BLACK
6
CONTINUOUS
10
1.51552
20
-3.71176
11
1.5154
21
-3.71161
0
LINE
8
BLACK
6
CONTINUOUS
10
1.5154
20
-3.71161
11
1.51531
21
-3.71144
0
LINE
8
BLACK
6
CONTINUOUS
10
1.51531
20
-3.71144
11
1.51525
21
-3.71125
0
LINE
8
BLACK
6
CONTINUOUS
10
1.51525
20
-3.71125
11
1.51523
21
-3.71106
0
LINE
8
BLACK
6
CONTINUOUS
10
1.51523
20
-3.71106
11
1.51524
21
-3.71101
0
LINE
8
BLACK
6
CONTINUOUS
10
1.51524
20
-3.71101
11
1.51524
21
-3.65363
0
LINE
8
BLACK
6
CONTINUOUS
10
1.51524
20
-3.65363
11
1.51523
21
-3.65358
0
LINE
8
BLACK
6
CONTINUOUS
10
1.51523
20
-3.65358
11
1.51525
21
-3.65339
0
LINE
8
BLACK
6
CONTINUOUS
10
1.51525
20
-3.65339
11
1.51531
21
-3.6532
0
LINE
8
BLACK
6
CONTINUOUS
10
1.51531
20
-3.6532
11
1.5154
21
-3.65303
0
LINE
8
BLACK
6
CONTINUOUS
10
1.5154
20
-3.65303
11
1.51552
21
-3.65288
0
LINE
8
BLACK
6
CONTINUOUS
10
1.51552
20
-3.65288
11
1.51567
21
-3.65276
0
LINE
8
BLACK
6
CONTINUOUS
10
1.51567
20
-3.65276
11
1.51584
21
-3.65267
0
LINE
8
BLACK
6
CONTINUOUS
10
1.51584
20
-3.65267
11
1.51603
21
-3.65261
0
LINE
8
BLACK
6
CONTINUOUS
10
1.51603
20
-3.65261
11
1.51618
21
-3.65259
0
LINE
8
BLACK
6
CONTINUOUS
10
1.51618
20
-3.65259
11
1.51618
21
-3.65259
0
LINE
8
BLACK
6
CONTINUOUS
10
1.51618
20
-3.65259
11
1.51622
21
-3.65259
0
LINE
8
BLACK
6
CONTINUOUS
10
1.51622
20
-3.65259
11
1.51627
21
-3.65259
0
LINE
8
BLACK
6
CONTINUOUS
10
1.51627
20
-3.65259
11
1.6461
21
-3.65259
0
LINE
8
BLACK
6
CONTINUOUS
10
1.6461
20
-3.65259
11
1.64614
21
-3.65259
0
LINE
8
BLACK
6
CONTINUOUS
10
1.64614
20
-3.65259
11
1.64619
21
-3.65259
0
LINE
8
BLACK
6
CONTINUOUS
10
1.51721
20
-3.65456
11
1.51721
21
-3.71008
0
LINE
8
BLACK
6
CONTINUOUS
10
1.51721
20
-3.71008
11
1.64516
21
-3.71008
0
LINE
8
BLACK
6
CONTINUOUS
10
1.64516
20
-3.71008
11
1.64516
21
-3.65456
0
LINE
8
BLACK
6
CONTINUOUS
10
1.64516
20
-3.65456
11
1.51721
21
-3.65456
0
LINE
8
BLACK
6
CONTINUOUS
10
5.39595
20
-3.5276
11
5.39595
21
-3.5276
0
LINE
8
BLACK
6
CONTINUOUS
10
5.39595
20
-3.5276
11
5.3961
21
-3.52762
0
LINE
8
BLACK
6
CONTINUOUS
10
5.3961
20
-3.52762
11
5.39628
21
-3.52767
0
LINE
8
BLACK
6
CONTINUOUS
10
5.39628
20
-3.52767
11
5.39645
21
-3.52776
0
LINE
8
BLACK
6
CONTINUOUS
10
5.39645
20
-3.52776
11
5.3966
21
-3.52789
0
LINE
8
BLACK
6
CONTINUOUS
10
5.3966
20
-3.52789
11
5.39673
21
-3.52804
0
LINE
8
BLACK
6
CONTINUOUS
10
5.39673
20
-3.52804
11
5.39682
21
-3.52821
0
LINE
8
BLACK
6
CONTINUOUS
10
5.39682
20
-3.52821
11
5.39687
21
-3.52839
0
LINE
8
BLACK
6
CONTINUOUS
10
5.39687
20
-3.52839
11
5.39689
21
-3.52859
0
LINE
8
BLACK
6
CONTINUOUS
10
5.39689
20
-3.52859
11
5.39689
21
-3.52864
0
LINE
8
BLACK
6
CONTINUOUS
10
5.39689
20
-3.52864
11
5.39689
21
-3.58602
0
LINE
8
BLACK
6
CONTINUOUS
10
5.39689
20
-3.58602
11
5.39689
21
-3.58607
0
LINE
8
BLACK
6
CONTINUOUS
10
5.39689
20
-3.58607
11
5.39689
21
-3.58612
0
LINE
8
BLACK
6
CONTINUOUS
10
5.39689
20
-3.58612
11
5.39689
21
-3.58612
0
LINE
8
BLACK
6
CONTINUOUS
10
5.39689
20
-3.58612
11
5.39687
21
-3.58626
0
LINE
8
BLACK
6
CONTINUOUS
10
5.39687
20
-3.58626
11
5.39682
21
-3.58645
0
LINE
8
BLACK
6
CONTINUOUS
10
5.39682
20
-3.58645
11
5.39673
21
-3.58662
0
LINE
8
BLACK
6
CONTINUOUS
10
5.39673
20
-3.58662
11
5.3966
21
-3.58677
0
LINE
8
BLACK
6
CONTINUOUS
10
5.3966
20
-3.58677
11
5.39645
21
-3.58689
0
LINE
8
BLACK
6
CONTINUOUS
10
5.39645
20
-3.58689
11
5.39628
21
-3.58698
0
LINE
8
BLACK
6
CONTINUOUS
10
5.39628
20
-3.58698
11
5.3961
21
-3.58704
0
LINE
8
BLACK
6
CONTINUOUS
10
5.3961
20
-3.58704
11
5.3959
21
-3.58706
0
LINE
8
BLACK
6
CONTINUOUS
10
5.3959
20
-3.58706
11
5.39586
21
-3.58705
0
LINE
8
BLACK
6
CONTINUOUS
10
5.39586
20
-3.58705
11
5.26603
21
-3.58705
0
LINE
8
BLACK
6
CONTINUOUS
10
5.26603
20
-3.58705
11
5.26598
21
-3.58706
0
LINE
8
BLACK
6
CONTINUOUS
10
5.26598
20
-3.58706
11
5.26579
21
-3.58704
0
LINE
8
BLACK
6
CONTINUOUS
10
5.26579
20
-3.58704
11
5.2656
21
-3.58698
0
LINE
8
BLACK
6
CONTINUOUS
10
5.2656
20
-3.58698
11
5.26543
21
-3.58689
0
LINE
8
BLACK
6
CONTINUOUS
10
5.26543
20
-3.58689
11
5.26528
21
-3.58677
0
LINE
8
BLACK
6
CONTINUOUS
10
5.26528
20
-3.58677
11
5.26516
21
-3.58662
0
LINE
8
BLACK
6
CONTINUOUS
10
5.26516
20
-3.58662
11
5.26507
21
-3.58645
0
LINE
8
BLACK
6
CONTINUOUS
10
5.26507
20
-3.58645
11
5.26501
21
-3.58626
0
LINE
8
BLACK
6
CONTINUOUS
10
5.26501
20
-3.58626
11
5.26499
21
-3.58607
0
LINE
8
BLACK
6
CONTINUOUS
10
5.26499
20
-3.58607
11
5.265
21
-3.58602
0
LINE
8
BLACK
6
CONTINUOUS
10
5.265
20
-3.58602
11
5.265
21
-3.52864
0
LINE
8
BLACK
6
CONTINUOUS
10
5.265
20
-3.52864
11
5.26499
21
-3.52859
0
LINE
8
BLACK
6
CONTINUOUS
10
5.26499
20
-3.52859
11
5.26501
21
-3.52839
0
LINE
8
BLACK
6
CONTINUOUS
10
5.26501
20
-3.52839
11
5.26507
21
-3.52821
0
LINE
8
BLACK
6
CONTINUOUS
10
5.26507
20
-3.52821
11
5.26516
21
-3.52804
0
LINE
8
BLACK
6
CONTINUOUS
10
5.26516
20
-3.52804
11
5.26528
21
-3.52789
0
LINE
8
BLACK
6
CONTINUOUS
10
5.26528
20
-3.52789
11
5.26543
21
-3.52776
0
LINE
8
BLACK
6
CONTINUOUS
10
5.26543
20
-3.52776
11
5.2656
21
-3.52767
0
LINE
8
BLACK
6
CONTINUOUS
10
5.2656
20
-3.52767
11
5.26579
21
-3.52762
0
LINE
8
BLACK
6
CONTINUOUS
10
5.26579
20
-3.52762
11
5.26593
21
-3.5276
0
LINE
8
BLACK
6
CONTINUOUS
10
5.26593
20
-3.5276
11
5.26593
21
-3.5276
0
LINE
8
BLACK
6
CONTINUOUS
10
5.26593
20
-3.5276
11
5.26598
21
-3.5276
0
LINE
8
BLACK
6
CONTINUOUS
10
5.26598
20
-3.5276
11
5.26603
21
-3.5276
0
LINE
8
BLACK
6
CONTINUOUS
10
5.26603
20
-3.5276
11
5.39586
21
-3.5276
0
LINE
8
BLACK
6
CONTINUOUS
10
5.39586
20
-3.5276
11
5.3959
21
-3.5276
0
LINE
8
BLACK
6
CONTINUOUS
10
5.3959
20
-3.5276
11
5.39595
21
-3.5276
0
LINE
8
BLACK
6
CONTINUOUS
10
5.26697
20
-3.52957
11
5.26697
21
-3.58508
0
LINE
8
BLACK
6
CONTINUOUS
10
5.26697
20
-3.58508
11
5.39492
21
-3.58508
0
LINE
8
BLACK
6
CONTINUOUS
10
5.39492
20
-3.58508
11
5.39492
21
-3.52957
0
LINE
8
BLACK
6
CONTINUOUS
10
5.39492
20
-3.52957
11
5.26697
21
-3.52957
0
LINE
8
BLACK
6
CONTINUOUS
10
2.39614
20
-3.5276
11
2.39614
21
-3.5276
0
LINE
8
BLACK
6
CONTINUOUS
10
2.39614
20
-3.5276
11
2.39629
21
-3.52762
0
LINE
8
BLACK
6
CONTINUOUS
10
2.39629
20
-3.52762
11
2.39647
21
-3.52767
0
LINE
8
BLACK
6
CONTINUOUS
10
2.39647
20
-3.52767
11
2.39665
21
-3.52776
0
LINE
8
BLACK
6
CONTINUOUS
10
2.39665
20
-3.52776
11
2.3968
21
-3.52789
0
LINE
8
BLACK
6
CONTINUOUS
10
2.3968
20
-3.52789
11
2.39692
21
-3.52804
0
LINE
8
BLACK
6
CONTINUOUS
10
2.39692
20
-3.52804
11
2.39701
21
-3.52821
0
LINE
8
BLACK
6
CONTINUOUS
10
2.39701
20
-3.52821
11
2.39707
21
-3.52839
0
LINE
8
BLACK
6
CONTINUOUS
10
2.39707
20
-3.52839
11
2.39709
21
-3.52859
0
LINE
8
BLACK
6
CONTINUOUS
10
2.39709
20
-3.52859
11
2.39708
21
-3.52864
0
LINE
8
BLACK
6
CONTINUOUS
10
2.39708
20
-3.52864
11
2.39708
21
-3.58602
0
LINE
8
BLACK
6
CONTINUOUS
10
2.39708
20
-3.58602
11
2.39709
21
-3.58607
0
LINE
8
BLACK
6
CONTINUOUS
10
2.39709
20
-3.58607
11
2.39708
21
-3.58612
0
LINE
8
BLACK
6
CONTINUOUS
10
2.39708
20
-3.58612
11
2.39708
21
-3.58612
0
LINE
8
BLACK
6
CONTINUOUS
10
2.39708
20
-3.58612
11
2.39707
21
-3.58626
0
LINE
8
BLACK
6
CONTINUOUS
10
2.39707
20
-3.58626
11
2.39701
21
-3.58645
0
LINE
8
BLACK
6
CONTINUOUS
10
2.39701
20
-3.58645
11
2.39692
21
-3.58662
0
LINE
8
BLACK
6
CONTINUOUS
10
2.39692
20
-3.58662
11
2.3968
21
-3.58677
0
LINE
8
BLACK
6
CONTINUOUS
10
2.3968
20
-3.58677
11
2.39665
21
-3.58689
0
LINE
8
BLACK
6
CONTINUOUS
10
2.39665
20
-3.58689
11
2.39647
21
-3.58698
0
LINE
8
BLACK
6
CONTINUOUS
10
2.39647
20
-3.58698
11
2.39629
21
-3.58704
0
LINE
8
BLACK
6
CONTINUOUS
10
2.39629
20
-3.58704
11
2.3961
21
-3.58706
0
LINE
8
BLACK
6
CONTINUOUS
10
2.3961
20
-3.58706
11
2.39605
21
-3.58705
0
LINE
8
BLACK
6
CONTINUOUS
10
2.39605
20
-3.58705
11
2.26622
21
-3.58705
0
LINE
8
BLACK
6
CONTINUOUS
10
2.26622
20
-3.58705
11
2.26617
21
-3.58706
0
LINE
8
BLACK
6
CONTINUOUS
10
2.26617
20
-3.58706
11
2.26598
21
-3.58704
0
LINE
8
BLACK
6
CONTINUOUS
10
2.26598
20
-3.58704
11
2.2658
21
-3.58698
0
LINE
8
BLACK
6
CONTINUOUS
10
2.2658
20
-3.58698
11
2.26563
21
-3.58689
0
LINE
8
BLACK
6
CONTINUOUS
10
2.26563
20
-3.58689
11
2.26548
21
-3.58677
0
LINE
8
BLACK
6
CONTINUOUS
10
2.26548
20
-3.58677
11
2.26535
21
-3.58662
0
LINE
8
BLACK
6
CONTINUOUS
10
2.26535
20
-3.58662
11
2.26526
21
-3.58645
0
LINE
8
BLACK
6
CONTINUOUS
10
2.26526
20
-3.58645
11
2.2652
21
-3.58626
0
LINE
8
BLACK
6
CONTINUOUS
10
2.2652
20
-3.58626
11
2.26519
21
-3.58607
0
LINE
8
BLACK
6
CONTINUOUS
10
2.26519
20
-3.58607
11
2.26519
21
-3.58602
0
LINE
8
BLACK
6
CONTINUOUS
10
2.26519
20
-3.58602
11
2.26519
21
-3.52864
0
LINE
8
BLACK
6
CONTINUOUS
10
2.26519
20
-3.52864
11
2.26519
21
-3.52859
0
LINE
8
BLACK
6
CONTINUOUS
10
2.26519
20
-3.52859
11
2.2652
21
-3.52839
0
LINE
8
BLACK
6
CONTINUOUS
10
2.2652
20
-3.52839
11
2.26526
21
-3.52821
0
LINE
8
BLACK
6
CONTINUOUS
10
2.26526
20
-3.52821
11
2.26535
21
-3.52804
0
LINE
8
BLACK
6
CONTINUOUS
10
2.26535
20
-3.52804
11
2.26548
21
-3.52789
0
LINE
8
BLACK
6
CONTINUOUS
10
2.26548
20
-3.52789
11
2.26563
21
-3.52776
0
LINE
8
BLACK
6
CONTINUOUS
10
2.26563
20
-3.52776
11
2.2658
21
-3.52767
0
LINE
8
BLACK
6
CONTINUOUS
10
2.2658
20
-3.52767
11
2.26598
21
-3.52762
0
LINE
8
BLACK
6
CONTINUOUS
10
2.26598
20
-3.52762
11
2.26613
21
-3.5276
0
LINE
8
BLACK
6
CONTINUOUS
10
2.26613
20
-3.5276
11
2.26613
21
-3.5276
0
LINE
8
BLACK
6
CONTINUOUS
10
2.26613
20
-3.5276
11
2.26617
21
-3.5276
0
LINE
8
BLACK
6
CONTINUOUS
10
2.26617
20
-3.5276
11
2.26622
21
-3.5276
0
LINE
8
BLACK
6
CONTINUOUS
10
2.26622
20
-3.5276
11
2.39605
21
-3.5276
0
LINE
8
BLACK
6
CONTINUOUS
10
2.39605
20
-3.5276
11
2.3961
21
-3.5276
0
LINE
8
BLACK
6
CONTINUOUS
10
2.3961
20
-3.5276
11
2.39614
21
-3.5276
0
LINE
8
BLACK
6
CONTINUOUS
10
2.26716
20
-3.52957
11
2.26716
21
-3.58508
0
LINE
8
BLACK
6
CONTINUOUS
10
2.26716
20
-3.58508
11
2.39511
21
-3.58508
0
LINE
8
BLACK
6
CONTINUOUS
10
2.39511
20
-3.58508
11
2.39511
21
-3.52957
0
LINE
8
BLACK
6
CONTINUOUS
10
2.39511
20
-3.52957
11
2.26716
21
-3.52957
0
LINE
8
BLACK
6
CONTINUOUS
10
3.1461
20
-3.40261
11
3.1461
21
-3.40261
0
LINE
8
BLACK
6
CONTINUOUS
10
3.1461
20
-3.40261
11
3.14624
21
-3.40263
0
LINE
8
BLACK
6
CONTINUOUS
10
3.14624
20
-3.40263
11
3.14643
21
-3.40268
0
LINE
8
BLACK
6
CONTINUOUS
10
3.14643
20
-3.40268
11
3.1466
21
-3.40277
0
LINE
8
BLACK
6
CONTINUOUS
10
3.1466
20
-3.40277
11
3.14675
21
-3.4029
0
LINE
8
BLACK
6
CONTINUOUS
10
3.14675
20
-3.4029
11
3.14687
21
-3.40305
0
LINE
8
BLACK
6
CONTINUOUS
10
3.14687
20
-3.40305
11
3.14696
21
-3.40322
0
LINE
8
BLACK
6
CONTINUOUS
10
3.14696
20
-3.40322
11
3.14702
21
-3.4034
0
LINE
8
BLACK
6
CONTINUOUS
10
3.14702
20
-3.4034
11
3.14704
21
-3.4036
0
LINE
8
BLACK
6
CONTINUOUS
10
3.14704
20
-3.4036
11
3.14703
21
-3.40364
0
LINE
8
BLACK
6
CONTINUOUS
10
3.14703
20
-3.40364
11
3.14703
21
-3.46103
0
LINE
8
BLACK
6
CONTINUOUS
10
3.14703
20
-3.46103
11
3.14704
21
-3.46108
0
LINE
8
BLACK
6
CONTINUOUS
10
3.14704
20
-3.46108
11
3.14703
21
-3.46112
0
LINE
8
BLACK
6
CONTINUOUS
10
3.14703
20
-3.46112
11
3.14703
21
-3.46112
0
LINE
8
BLACK
6
CONTINUOUS
10
3.14703
20
-3.46112
11
3.14702
21
-3.46127
0
LINE
8
BLACK
6
CONTINUOUS
10
3.14702
20
-3.46127
11
3.14696
21
-3.46145
0
LINE
8
BLACK
6
CONTINUOUS
10
3.14696
20
-3.46145
11
3.14687
21
-3.46162
0
LINE
8
BLACK
6
CONTINUOUS
10
3.14687
20
-3.46162
11
3.14675
21
-3.46177
0
LINE
8
BLACK
6
CONTINUOUS
10
3.14675
20
-3.46177
11
3.1466
21
-3.4619
0
LINE
8
BLACK
6
CONTINUOUS
10
3.1466
20
-3.4619
11
3.14643
21
-3.46199
0
LINE
8
BLACK
6
CONTINUOUS
10
3.14643
20
-3.46199
11
3.14624
21
-3.46205
0
LINE
8
BLACK
6
CONTINUOUS
10
3.14624
20
-3.46205
11
3.14605
21
-3.46206
0
LINE
8
BLACK
6
CONTINUOUS
10
3.14605
20
-3.46206
11
3.146
21
-3.46206
0
LINE
8
BLACK
6
CONTINUOUS
10
3.146
20
-3.46206
11
3.01617
21
-3.46206
0
LINE
8
BLACK
6
CONTINUOUS
10
3.01617
20
-3.46206
11
3.01613
21
-3.46206
0
LINE
8
BLACK
6
CONTINUOUS
10
3.01613
20
-3.46206
11
3.01593
21
-3.46205
0
LINE
8
BLACK
6
CONTINUOUS
10
3.01593
20
-3.46205
11
3.01575
21
-3.46199
0
LINE
8
BLACK
6
CONTINUOUS
10
3.01575
20
-3.46199
11
3.01558
21
-3.4619
0
LINE
8
BLACK
6
CONTINUOUS
10
3.01558
20
-3.4619
11
3.01543
21
-3.46177
0
LINE
8
BLACK
6
CONTINUOUS
10
3.01543
20
-3.46177
11
3.0153
21
-3.46162
0
LINE
8
BLACK
6
CONTINUOUS
10
3.0153
20
-3.46162
11
3.01521
21
-3.46145
0
LINE
8
BLACK
6
CONTINUOUS
10
3.01521
20
-3.46145
11
3.01516
21
-3.46127
0
LINE
8
BLACK
6
CONTINUOUS
10
3.01516
20
-3.46127
11
3.01514
21
-3.46108
0
LINE
8
BLACK
6
CONTINUOUS
10
3.01514
20
-3.46108
11
3.01514
21
-3.46103
0
LINE
8
BLACK
6
CONTINUOUS
10
3.01514
20
-3.46103
11
3.01514
21
-3.40364
0
LINE
8
BLACK
6
CONTINUOUS
10
3.01514
20
-3.40364
11
3.01514
21
-3.4036
0
LINE
8
BLACK
6
CONTINUOUS
10
3.01514
20
-3.4036
11
3.01516
21
-3.4034
0
LINE
8
BLACK
6
CONTINUOUS
10
3.01516
20
-3.4034
11
3.01521
21
-3.40322
0
LINE
8
BLACK
6
CONTINUOUS
10
3.01521
20
-3.40322
11
3.0153
21
-3.40305
0
LINE
8
BLACK
6
CONTINUOUS
10
3.0153
20
-3.40305
11
3.01543
21
-3.4029
0
LINE
8
BLACK
6
CONTINUOUS
10
3.01543
20
-3.4029
11
3.01558
21
-3.40277
0
LINE
8
BLACK
6
CONTINUOUS
10
3.01558
20
-3.40277
11
3.01575
21
-3.40268
0
LINE
8
BLACK
6
CONTINUOUS
10
3.01575
20
-3.40268
11
3.01593
21
-3.40263
0
LINE
8
BLACK
6
CONTINUOUS
10
3.01593
20
-3.40263
11
3.01608
21
-3.40261
0
LINE
8
BLACK
6
CONTINUOUS
10
3.01608
20
-3.40261
11
3.01608
21
-3.40261
0
LINE
8
BLACK
6
CONTINUOUS
10
3.01608
20
-3.40261
11
3.01613
21
-3.40261
0
LINE
8
BLACK
6
CONTINUOUS
10
3.01613
20
-3.40261
11
3.01617
21
-3.40261
0
LINE
8
BLACK
6
CONTINUOUS
10
3.01617
20
-3.40261
11
3.146
21
-3.40261
0
LINE
8
BLACK
6
CONTINUOUS
10
3.146
20
-3.40261
11
3.14605
21
-3.40261
0
LINE
8
BLACK
6
CONTINUOUS
10
3.14605
20
-3.40261
11
3.1461
21
-3.40261
0
LINE
8
BLACK
6
CONTINUOUS
10
3.01711
20
-3.40458
11
3.01711
21
-3.46009
0
LINE
8
BLACK
6
CONTINUOUS
10
3.01711
20
-3.46009
11
3.14506
21
-3.46009
0
LINE
8
BLACK
6
CONTINUOUS
10
3.14506
20
-3.46009
11
3.14506
21
-3.40458
0
LINE
8
BLACK
6
CONTINUOUS
10
3.14506
20
-3.40458
11
3.01711
21
-3.40458
0
LINE
8
BLACK
6
CONTINUOUS
10
4.646
20
-3.40261
11
4.646
21
-3.40261
0
LINE
8
BLACK
6
CONTINUOUS
10
4.646
20
-3.40261
11
4.64614
21
-3.40263
0
LINE
8
BLACK
6
CONTINUOUS
10
4.64614
20
-3.40263
11
4.64633
21
-3.40268
0
LINE
8
BLACK
6
CONTINUOUS
10
4.64633
20
-3.40268
11
4.6465
21
-3.40277
0
LINE
8
BLACK
6
CONTINUOUS
10
4.6465
20
-3.40277
11
4.64665
21
-3.4029
0
LINE
8
BLACK
6
CONTINUOUS
10
4.64665
20
-3.4029
11
4.64677
21
-3.40305
0
LINE
8
BLACK
6
CONTINUOUS
10
4.64677
20
-3.40305
11
4.64687
21
-3.40322
0
LINE
8
BLACK
6
CONTINUOUS
10
4.64687
20
-3.40322
11
4.64692
21
-3.4034
0
LINE
8
BLACK
6
CONTINUOUS
10
4.64692
20
-3.4034
11
4.64694
21
-3.4036
0
LINE
8
BLACK
6
CONTINUOUS
10
4.64694
20
-3.4036
11
4.64694
21
-3.40364
0
LINE
8
BLACK
6
CONTINUOUS
10
4.64694
20
-3.40364
11
4.64694
21
-3.46103
0
LINE
8
BLACK
6
CONTINUOUS
10
4.64694
20
-3.46103
11
4.64694
21
-3.46108
0
LINE
8
BLACK
6
CONTINUOUS
10
4.64694
20
-3.46108
11
4.64694
21
-3.46112
0
LINE
8
BLACK
6
CONTINUOUS
10
4.64694
20
-3.46112
11
4.64694
21
-3.46112
0
LINE
8
BLACK
6
CONTINUOUS
10
4.64694
20
-3.46112
11
4.64692
21
-3.46127
0
LINE
8
BLACK
6
CONTINUOUS
10
4.64692
20
-3.46127
11
4.64687
21
-3.46145
0
LINE
8
BLACK
6
CONTINUOUS
10
4.64687
20
-3.46145
11
4.64677
21
-3.46162
0
LINE
8
BLACK
6
CONTINUOUS
10
4.64677
20
-3.46162
11
4.64665
21
-3.46177
0
LINE
8
BLACK
6
CONTINUOUS
10
4.64665
20
-3.46177
11
4.6465
21
-3.4619
0
LINE
8
BLACK
6
CONTINUOUS
10
4.6465
20
-3.4619
11
4.64633
21
-3.46199
0
LINE
8
BLACK
6
CONTINUOUS
10
4.64633
20
-3.46199
11
4.64614
21
-3.46205
0
LINE
8
BLACK
6
CONTINUOUS
10
4.64614
20
-3.46205
11
4.64595
21
-3.46206
0
LINE
8
BLACK
6
CONTINUOUS
10
4.64595
20
-3.46206
11
4.6459
21
-3.46206
0
LINE
8
BLACK
6
CONTINUOUS
10
4.6459
20
-3.46206
11
4.51608
21
-3.46206
0
LINE
8
BLACK
6
CONTINUOUS
10
4.51608
20
-3.46206
11
4.51603
21
-3.46206
0
LINE
8
BLACK
6
CONTINUOUS
10
4.51603
20
-3.46206
11
4.51584
21
-3.46205
0
LINE
8
BLACK
6
CONTINUOUS
10
4.51584
20
-3.46205
11
4.51565
21
-3.46199
0
LINE
8
BLACK
6
CONTINUOUS
10
4.51565
20
-3.46199
11
4.51548
21
-3.4619
0
LINE
8
BLACK
6
CONTINUOUS
10
4.51548
20
-3.4619
11
4.51533
21
-3.46177
0
LINE
8
BLACK
6
CONTINUOUS
10
4.51533
20
-3.46177
11
4.51521
21
-3.46162
0
LINE
8
BLACK
6
CONTINUOUS
10
4.51521
20
-3.46162
11
4.51512
21
-3.46145
0
LINE
8
BLACK
6
CONTINUOUS
10
4.51512
20
-3.46145
11
4.51506
21
-3.46127
0
LINE
8
BLACK
6
CONTINUOUS
10
4.51506
20
-3.46127
11
4.51504
21
-3.46108
0
LINE
8
BLACK
6
CONTINUOUS
10
4.51504
20
-3.46108
11
4.51505
21
-3.46103
0
LINE
8
BLACK
6
CONTINUOUS
10
4.51505
20
-3.46103
11
4.51505
21
-3.40364
0
LINE
8
BLACK
6
CONTINUOUS
10
4.51505
20
-3.40364
11
4.51504
21
-3.4036
0
LINE
8
BLACK
6
CONTINUOUS
10
4.51504
20
-3.4036
11
4.51506
21
-3.4034
0
LINE
8
BLACK
6
CONTINUOUS
10
4.51506
20
-3.4034
11
4.51512
21
-3.40322
0
LINE
8
BLACK
6
CONTINUOUS
10
4.51512
20
-3.40322
11
4.51521
21
-3.40305
0
LINE
8
BLACK
6
CONTINUOUS
10
4.51521
20
-3.40305
11
4.51533
21
-3.4029
0
LINE
8
BLACK
6
CONTINUOUS
10
4.51533
20
-3.4029
11
4.51548
21
-3.40277
0
LINE
8
BLACK
6
CONTINUOUS
10
4.51548
20
-3.40277
11
4.51565
21
-3.40268
0
LINE
8
BLACK
6
CONTINUOUS
10
4.51565
20
-3.40268
11
4.51584
21
-3.40263
0
LINE
8
BLACK
6
CONTINUOUS
10
4.51584
20
-3.40263
11
4.51598
21
-3.40261
0
LINE
8
BLACK
6
CONTINUOUS
10
4.51598
20
-3.40261
11
4.51598
21
-3.40261
0
LINE
8
BLACK
6
CONTINUOUS
10
4.51598
20
-3.40261
11
4.51603
21
-3.40261
0
LINE
8
BLACK
6
CONTINUOUS
10
4.51603
20
-3.40261
11
4.51608
21
-3.40261
0
LINE
8
BLACK
6
CONTINUOUS
10
4.51608
20
-3.40261
11
4.6459
21
-3.40261
0
LINE
8
BLACK
6
CONTINUOUS
10
4.6459
20
-3.40261
11
4.64595
21
-3.40261
0
LINE
8
BLACK
6
CONTINUOUS
10
4.64595
20
-3.40261
11
4.646
21
-3.40261
0
LINE
8
BLACK
6
CONTINUOUS
10
4.51701
20
-3.40458
11
4.51701
21
-3.46009
0
LINE
8
BLACK
6
CONTINUOUS
10
4.51701
20
-3.46009
11
4.64497
21
-3.46009
0
LINE
8
BLACK
6
CONTINUOUS
10
4.64497
20
-3.46009
11
4.64497
21
-3.40458
0
LINE
8
BLACK
6
CONTINUOUS
10
4.64497
20
-3.40458
11
4.51701
21
-3.40458
0
LINE
8
BLACK
6
CONTINUOUS
10
3.89605
20
-3.27762
11
3.89605
21
-3.27762
0
LINE
8
BLACK
6
CONTINUOUS
10
3.89605
20
-3.27762
11
3.89619
21
-3.27763
0
LINE
8
BLACK
6
CONTINUOUS
10
3.89619
20
-3.27763
11
3.89638
21
-3.27769
0
LINE
8
BLACK
6
CONTINUOUS
10
3.89638
20
-3.27769
11
3.89655
21
-3.27778
0
LINE
8
BLACK
6
CONTINUOUS
10
3.89655
20
-3.27778
11
3.8967
21
-3.2779
0
LINE
8
BLACK
6
CONTINUOUS
10
3.8967
20
-3.2779
11
3.89682
21
-3.27805
0
LINE
8
BLACK
6
CONTINUOUS
10
3.89682
20
-3.27805
11
3.89691
21
-3.27822
0
LINE
8
BLACK
6
CONTINUOUS
10
3.89691
20
-3.27822
11
3.89697
21
-3.27841
0
LINE
8
BLACK
6
CONTINUOUS
10
3.89697
20
-3.27841
11
3.89699
21
-3.2786
0
LINE
8
BLACK
6
CONTINUOUS
10
3.89699
20
-3.2786
11
3.89698
21
-3.27865
0
LINE
8
BLACK
6
CONTINUOUS
10
3.89698
20
-3.27865
11
3.89698
21
-3.33604
0
LINE
8
BLACK
6
CONTINUOUS
10
3.89698
20
-3.33604
11
3.89699
21
-3.33608
0
LINE
8
BLACK
6
CONTINUOUS
10
3.89699
20
-3.33608
11
3.89698
21
-3.33613
0
LINE
8
BLACK
6
CONTINUOUS
10
3.89698
20
-3.33613
11
3.89698
21
-3.33613
0
LINE
8
BLACK
6
CONTINUOUS
10
3.89698
20
-3.33613
11
3.89697
21
-3.33628
0
LINE
8
BLACK
6
CONTINUOUS
10
3.89697
20
-3.33628
11
3.89691
21
-3.33646
0
LINE
8
BLACK
6
CONTINUOUS
10
3.89691
20
-3.33646
11
3.89682
21
-3.33663
0
LINE
8
BLACK
6
CONTINUOUS
10
3.89682
20
-3.33663
11
3.8967
21
-3.33678
0
LINE
8
BLACK
6
CONTINUOUS
10
3.8967
20
-3.33678
11
3.89655
21
-3.33691
0
LINE
8
BLACK
6
CONTINUOUS
10
3.89655
20
-3.33691
11
3.89638
21
-3.337
0
LINE
8
BLACK
6
CONTINUOUS
10
3.89638
20
-3.337
11
3.89619
21
-3.33705
0
LINE
8
BLACK
6
CONTINUOUS
10
3.89619
20
-3.33705
11
3.896
21
-3.33707
0
LINE
8
BLACK
6
CONTINUOUS
10
3.896
20
-3.33707
11
3.89595
21
-3.33707
0
LINE
8
BLACK
6
CONTINUOUS
10
3.89595
20
-3.33707
11
3.76613
21
-3.33707
0
LINE
8
BLACK
6
CONTINUOUS
10
3.76613
20
-3.33707
11
3.76608
21
-3.33707
0
LINE
8
BLACK
6
CONTINUOUS
10
3.76608
20
-3.33707
11
3.76589
21
-3.33705
0
LINE
8
BLACK
6
CONTINUOUS
10
3.76589
20
-3.33705
11
3.7657
21
-3.337
0
LINE
8
BLACK
6
CONTINUOUS
10
3.7657
20
-3.337
11
3.76553
21
-3.33691
0
LINE
8
BLACK
6
CONTINUOUS
10
3.76553
20
-3.33691
11
3.76538
21
-3.33678
0
LINE
8
BLACK
6
CONTINUOUS
10
3.76538
20
-3.33678
11
3.76526
21
-3.33663
0
LINE
8
BLACK
6
CONTINUOUS
10
3.76526
20
-3.33663
11
3.76516
21
-3.33646
0
LINE
8
BLACK
6
CONTINUOUS
10
3.76516
20
-3.33646
11
3.76511
21
-3.33628
0
LINE
8
BLACK
6
CONTINUOUS
10
3.76511
20
-3.33628
11
3.76509
21
-3.33608
0
LINE
8
BLACK
6
CONTINUOUS
10
3.76509
20
-3.33608
11
3.76509
21
-3.33604
0
LINE
8
BLACK
6
CONTINUOUS
10
3.76509
20
-3.33604
11
3.76509
21
-3.27865
0
LINE
8
BLACK
6
CONTINUOUS
10
3.76509
20
-3.27865
11
3.76509
21
-3.2786
0
LINE
8
BLACK
6
CONTINUOUS
10
3.76509
20
-3.2786
11
3.76511
21
-3.27841
0
LINE
8
BLACK
6
CONTINUOUS
10
3.76511
20
-3.27841
11
3.76516
21
-3.27822
0
LINE
8
BLACK
6
CONTINUOUS
10
3.76516
20
-3.27822
11
3.76526
21
-3.27805
0
LINE
8
BLACK
6
CONTINUOUS
10
3.76526
20
-3.27805
11
3.76538
21
-3.2779
0
LINE
8
BLACK
6
CONTINUOUS
10
3.76538
20
-3.2779
11
3.76553
21
-3.27778
0
LINE
8
BLACK
6
CONTINUOUS
10
3.76553
20
-3.27778
11
3.7657
21
-3.27769
0
LINE
8
BLACK
6
CONTINUOUS
10
3.7657
20
-3.27769
11
3.76589
21
-3.27763
0
LINE
8
BLACK
6
CONTINUOUS
10
3.76589
20
-3.27763
11
3.76603
21
-3.27762
0
LINE
8
BLACK
6
CONTINUOUS
10
3.76603
20
-3.27762
11
3.76603
21
-3.27762
0
LINE
8
BLACK
6
CONTINUOUS
10
3.76603
20
-3.27762
11
3.76608
21
-3.27761
0
LINE
8
BLACK
6
CONTINUOUS
10
3.76608
20
-3.27761
11
3.76613
21
-3.27762
0
LINE
8
BLACK
6
CONTINUOUS
10
3.76613
20
-3.27762
11
3.89595
21
-3.27762
0
LINE
8
BLACK
6
CONTINUOUS
10
3.89595
20
-3.27762
11
3.896
21
-3.27761
0
LINE
8
BLACK
6
CONTINUOUS
10
3.896
20
-3.27761
11
3.89605
21
-3.27762
0
LINE
8
BLACK
6
CONTINUOUS
10
3.76706
20
-3.27959
11
3.76706
21
-3.3351
0
LINE
8
BLACK
6
CONTINUOUS
10
3.76706
20
-3.3351
11
3.89502
21
-3.3351
0
LINE
8
BLACK
6
CONTINUOUS
10
3.89502
20
-3.3351
11
3.89502
21
-3.27959
0
LINE
8
BLACK
6
CONTINUOUS
10
3.89502
20
-3.27959
11
3.76706
21
-3.27959
0
LINE
8
BLACK
6
CONTINUOUS
10
1.64619
20
-2.90264
11
1.64619
21
-2.90264
0
LINE
8
BLACK
6
CONTINUOUS
10
1.64619
20
-2.90264
11
1.64634
21
-2.90266
0
LINE
8
BLACK
6
CONTINUOUS
10
1.64634
20
-2.90266
11
1.64652
21
-2.90271
0
LINE
8
BLACK
6
CONTINUOUS
10
1.64652
20
-2.90271
11
1.64669
21
-2.9028
0
LINE
8
BLACK
6
CONTINUOUS
10
1.64669
20
-2.9028
11
1.64684
21
-2.90293
0
LINE
8
BLACK
6
CONTINUOUS
10
1.64684
20
-2.90293
11
1.64697
21
-2.90308
0
LINE
8
BLACK
6
CONTINUOUS
10
1.64697
20
-2.90308
11
1.64706
21
-2.90325
0
LINE
8
BLACK
6
CONTINUOUS
10
1.64706
20
-2.90325
11
1.64711
21
-2.90343
0
LINE
8
BLACK
6
CONTINUOUS
10
1.64711
20
-2.90343
11
1.64713
21
-2.90363
0
LINE
8
BLACK
6
CONTINUOUS
10
1.64713
20
-2.90363
11
1.64713
21
-2.90368
0
LINE
8
BLACK
6
CONTINUOUS
10
1.64713
20
-2.90368
11
1.64713
21
-2.96106
0
LINE
8
BLACK
6
CONTINUOUS
10
1.64713
20
-2.96106
11
1.64713
21
-2.96111
0
LINE
8
BLACK
6
CONTINUOUS
10
1.64713
20
-2.96111
11
1.64713
21
-2.96116
0
LINE
8
BLACK
6
CONTINUOUS
10
1.64713
20
-2.96116
11
1.64713
21
-2.96116
0
LINE
8
BLACK
6
CONTINUOUS
10
1.64713
20
-2.96116
11
1.64711
21
-2.9613
0
LINE
8
BLACK
6
CONTINUOUS
10
1.64711
20
-2.9613
11
1.64706
21
-2.96149
0
LINE
8
BLACK
6
CONTINUOUS
10
1.64706
20
-2.96149
11
1.64697
21
-2.96166
0
LINE
8
BLACK
6
CONTINUOUS
10
1.64697
20
-2.96166
11
1.64684
21
-2.96181
0
LINE
8
BLACK
6
CONTINUOUS
10
1.64684
20
-2.96181
11
1.64669
21
-2.96193
0
LINE
8
BLACK
6
CONTINUOUS
10
1.64669
20
-2.96193
11
1.64652
21
-2.96202
0
LINE
8
BLACK
6
CONTINUOUS
10
1.64652
20
-2.96202
11
1.64634
21
-2.96208
0
LINE
8
BLACK
6
CONTINUOUS
10
1.64634
20
-2.96208
11
1.64614
21
-2.9621
0
LINE
8
BLACK
6
CONTINUOUS
10
1.64614
20
-2.9621
11
1.6461
21
-2.96209
0
LINE
8
BLACK
6
CONTINUOUS
10
1.6461
20
-2.96209
11
1.51627
21
-2.96209
0
LINE
8
BLACK
6
CONTINUOUS
10
1.51627
20
-2.96209
11
1.51622
21
-2.9621
0
LINE
8
BLACK
6
CONTINUOUS
10
1.51622
20
-2.9621
11
1.51603
21
-2.96208
0
LINE
8
BLACK
6
CONTINUOUS
10
1.51603
20
-2.96208
11
1.51584
21
-2.96202
0
LINE
8
BLACK
6
CONTINUOUS
10
1.51584
20
-2.96202
11
1.51567
21
-2.96193
0
LINE
8
BLACK
6
CONTINUOUS
10
1.51567
20
-2.96193
11
1.51552
21
-2.96181
0
LINE
8
BLACK
6
CONTINUOUS
10
1.51552
20
-2.96181
11
1.5154
21
-2.96166
0
LINE
8
BLACK
6
CONTINUOUS
10
1.5154
20
-2.96166
11
1.51531
21
-2.96149
0
LINE
8
BLACK
6
CONTINUOUS
10
1.51531
20
-2.96149
11
1.51525
21
-2.9613
0
LINE
8
BLACK
6
CONTINUOUS
10
1.51525
20
-2.9613
11
1.51523
21
-2.96111
0
LINE
8
BLACK
6
CONTINUOUS
10
1.51523
20
-2.96111
11
1.51524
21
-2.96106
0
LINE
8
BLACK
6
CONTINUOUS
10
1.51524
20
-2.96106
11
1.51524
21
-2.90368
0
LINE
8
BLACK
6
CONTINUOUS
10
1.51524
20
-2.90368
11
1.51523
21
-2.90363
0
LINE
8
BLACK
6
CONTINUOUS
10
1.51523
20
-2.90363
11
1.51525
21
-2.90343
0
LINE
8
BLACK
6
CONTINUOUS
10
1.51525
20
-2.90343
11
1.51531
21
-2.90325
0
LINE
8
BLACK
6
CONTINUOUS
10
1.51531
20
-2.90325
11
1.5154
21
-2.90308
0
LINE
8
BLACK
6
CONTINUOUS
10
1.5154
20
-2.90308
11
1.51552
21
-2.90293
0
LINE
8
BLACK
6
CONTINUOUS
10
1.51552
20
-2.90293
11
1.51567
21
-2.9028
0
LINE
8
BLACK
6
CONTINUOUS
10
1.51567
20
-2.9028
11
1.51584
21
-2.90271
0
LINE
8
BLACK
6
CONTINUOUS
10
1.51584
20
-2.90271
11
1.51603
21
-2.90266
0
LINE
8
BLACK
6
CONTINUOUS
10
1.51603
20
-2.90266
11
1.51618
21
-2.90264
0
LINE
8
BLACK
6
CONTINUOUS
10
1.51618
20
-2.90264
11
1.51618
21
-2.90264
0
LINE
8
BLACK
6
CONTINUOUS
10
1.51618
20
-2.90264
11
1.51622
21
-2.90264
0
LINE
8
BLACK
6
CONTINUOUS
10
1.51622
20
-2.90264
11
1.51627
21
-2.90264
0
LINE
8
BLACK
6
CONTINUOUS
10
1.51627
20
-2.90264
11
1.6461
21
-2.90264
0
LINE
8
BLACK
6
CONTINUOUS
10
1.6461
20
-2.90264
11
1.64614
21
-2.90264
0
LINE
8
BLACK
6
CONTINUOUS
10
1.64614
20
-2.90264
11
1.64619
21
-2.90264
0
LINE
8
BLACK
6
CONTINUOUS
10
1.51721
20
-2.90461
11
1.51721
21
-2.96012
0
LINE
8
BLACK
6
CONTINUOUS
10
1.51721
20
-2.96012
11
1.64516
21
-2.96012
0
LINE
8
BLACK
6
CONTINUOUS
10
1.64516
20
-2.96012
11
1.64516
21
-2.90461
0
LINE
8
BLACK
6
CONTINUOUS
10
1.64516
20
-2.90461
11
1.51721
21
-2.90461
0
LINE
8
BLACK
6
CONTINUOUS
10
2.39614
20
-2.77765
11
2.39614
21
-2.77765
0
LINE
8
BLACK
6
CONTINUOUS
10
2.39614
20
-2.77765
11
2.39629
21
-2.77767
0
LINE
8
BLACK
6
CONTINUOUS
10
2.39629
20
-2.77767
11
2.39647
21
-2.77772
0
LINE
8
BLACK
6
CONTINUOUS
10
2.39647
20
-2.77772
11
2.39665
21
-2.77781
0
LINE
8
BLACK
6
CONTINUOUS
10
2.39665
20
-2.77781
11
2.3968
21
-2.77794
0
LINE
8
BLACK
6
CONTINUOUS
10
2.3968
20
-2.77794
11
2.39692
21
-2.77809
0
LINE
8
BLACK
6
CONTINUOUS
10
2.39692
20
-2.77809
11
2.39701
21
-2.77826
0
LINE
8
BLACK
6
CONTINUOUS
10
2.39701
20
-2.77826
11
2.39707
21
-2.77844
0
LINE
8
BLACK
6
CONTINUOUS
10
2.39707
20
-2.77844
11
2.39709
21
-2.77864
0
LINE
8
BLACK
6
CONTINUOUS
10
2.39709
20
-2.77864
11
2.39708
21
-2.77868
0
LINE
8
BLACK
6
CONTINUOUS
10
2.39708
20
-2.77868
11
2.39708
21
-2.83607
0
LINE
8
BLACK
6
CONTINUOUS
10
2.39708
20
-2.83607
11
2.39709
21
-2.83612
0
LINE
8
BLACK
6
CONTINUOUS
10
2.39709
20
-2.83612
11
2.39708
21
-2.83616
0
LINE
8
BLACK
6
CONTINUOUS
10
2.39708
20
-2.83616
11
2.39708
21
-2.83616
0
LINE
8
BLACK
6
CONTINUOUS
10
2.39708
20
-2.83616
11
2.39707
21
-2.83631
0
LINE
8
BLACK
6
CONTINUOUS
10
2.39707
20
-2.83631
11
2.39701
21
-2.83649
0
LINE
8
BLACK
6
CONTINUOUS
10
2.39701
20
-2.83649
11
2.39692
21
-2.83667
0
LINE
8
BLACK
6
CONTINUOUS
10
2.39692
20
-2.83667
11
2.3968
21
-2.83682
0
LINE
8
BLACK
6
CONTINUOUS
10
2.3968
20
-2.83682
11
2.39665
21
-2.83694
0
LINE
8
BLACK
6
CONTINUOUS
10
2.39665
20
-2.83694
11
2.39647
21
-2.83703
0
LINE
8
BLACK
6
CONTINUOUS
10
2.39647
20
-2.83703
11
2.39629
21
-2.83709
0
LINE
8
BLACK
6
CONTINUOUS
10
2.39629
20
-2.83709
11
2.3961
21
-2.8371
0
LINE
8
BLACK
6
CONTINUOUS
10
2.3961
20
-2.8371
11
2.39605
21
-2.8371
0
LINE
8
BLACK
6
CONTINUOUS
10
2.39605
20
-2.8371
11
2.26622
21
-2.8371
0
LINE
8
BLACK
6
CONTINUOUS
10
2.26622
20
-2.8371
11
2.26617
21
-2.8371
0
LINE
8
BLACK
6
CONTINUOUS
10
2.26617
20
-2.8371
11
2.26598
21
-2.83709
0
LINE
8
BLACK
6
CONTINUOUS
10
2.26598
20
-2.83709
11
2.2658
21
-2.83703
0
LINE
8
BLACK
6
CONTINUOUS
10
2.2658
20
-2.83703
11
2.26563
21
-2.83694
0
LINE
8
BLACK
6
CONTINUOUS
10
2.26563
20
-2.83694
11
2.26548
21
-2.83682
0
LINE
8
BLACK
6
CONTINUOUS
10
2.26548
20
-2.83682
11
2.26535
21
-2.83667
0
LINE
8
BLACK
6
CONTINUOUS
10
2.26535
20
-2.83667
11
2.26526
21
-2.83649
0
LINE
8
BLACK
6
CONTINUOUS
10
2.26526
20
-2.83649
11
2.2652
21
-2.83631
0
LINE
8
BLACK
6
CONTINUOUS
10
2.2652
20
-2.83631
11
2.26519
21
-2.83612
0
LINE
8
BLACK
6
CONTINUOUS
10
2.26519
20
-2.83612
11
2.26519
21
-2.83607
0
LINE
8
BLACK
6
CONTINUOUS
10
2.26519
20
-2.83607
11
2.26519
21
-2.77868
0
LINE
8
BLACK
6
CONTINUOUS
10
2.26519
20
-2.77868
11
2.26519
21
-2.77864
0
LINE
8
BLACK
6
CONTINUOUS
10
2.26519
20
-2.77864
11
2.2652
21
-2.77844
0
LINE
8
BLACK
6
CONTINUOUS
10
2.2652
20
-2.77844
11
2.26526
21
-2.77826
0
LINE
8
BLACK
6
CONTINUOUS
10
2.26526
20
-2.77826
11
2.26535
21
-2.77809
0
LINE
8
BLACK
6
CONTINUOUS
10
2.26535
20
-2.77809
11
2.26548
21
-2.77794
0
LINE
8
BLACK
6
CONTINUOUS
10
2.26548
20
-2.77794
11
2.26563
21
-2.77781
0
LINE
8
BLACK
6
CONTINUOUS
10
2.26563
20
-2.77781
11
2.2658
21
-2.77772
0
LINE
8
BLACK
6
CONTINUOUS
10
2.2658
20
-2.77772
11
2.26598
21
-2.77767
0
LINE
8
BLACK
6
CONTINUOUS
10
2.26598
20
-2.77767
11
2.26613
21
-2.77765
0
LINE
8
BLACK
6
CONTINUOUS
10
2.26613
20
-2.77765
11
2.26613
21
-2.77765
0
LINE
8
BLACK
6
CONTINUOUS
10
2.26613
20
-2.77765
11
2.26617
21
-2.77765
0
LINE
8
BLACK
6
CONTINUOUS
10
2.26617
20
-2.77765
11
2.26622
21
-2.77765
0
LINE
8
BLACK
6
CONTINUOUS
10
2.26622
20
-2.77765
11
2.39605
21
-2.77765
0
LINE
8
BLACK
6
CONTINUOUS
10
2.39605
20
-2.77765
11
2.3961
21
-2.77765
0
LINE
8
BLACK
6
CONTINUOUS
10
2.3961
20
-2.77765
11
2.39614
21
-2.77765
0
LINE
8
BLACK
6
CONTINUOUS
10
2.26716
20
-2.77962
11
2.26716
21
-2.83513
0
LINE
8
BLACK
6
CONTINUOUS
10
2.26716
20
-2.83513
11
2.39511
21
-2.83513
0
LINE
8
BLACK
6
CONTINUOUS
10
2.39511
20
-2.83513
11
2.39511
21
-2.77962
0
LINE
8
BLACK
6
CONTINUOUS
10
2.39511
20
-2.77962
11
2.26716
21
-2.77962
0
LINE
8
BLACK
6
CONTINUOUS
10
4.646
20
-2.65266
11
4.646
21
-2.65266
0
LINE
8
BLACK
6
CONTINUOUS
10
4.646
20
-2.65266
11
4.64614
21
-2.65267
0
LINE
8
BLACK
6
CONTINUOUS
10
4.64614
20
-2.65267
11
4.64633
21
-2.65273
0
LINE
8
BLACK
6
CONTINUOUS
10
4.64633
20
-2.65273
11
4.6465
21
-2.65282
0
LINE
8
BLACK
6
CONTINUOUS
10
4.6465
20
-2.65282
11
4.64665
21
-2.65294
0
LINE
8
BLACK
6
CONTINUOUS
10
4.64665
20
-2.65294
11
4.64677
21
-2.65309
0
LINE
8
BLACK
6
CONTINUOUS
10
4.64677
20
-2.65309
11
4.64687
21
-2.65326
0
LINE
8
BLACK
6
CONTINUOUS
10
4.64687
20
-2.65326
11
4.64692
21
-2.65345
0
LINE
8
BLACK
6
CONTINUOUS
10
4.64692
20
-2.65345
11
4.64694
21
-2.65364
0
LINE
8
BLACK
6
CONTINUOUS
10
4.64694
20
-2.65364
11
4.64694
21
-2.65369
0
LINE
8
BLACK
6
CONTINUOUS
10
4.64694
20
-2.65369
11
4.64694
21
-2.71108
0
LINE
8
BLACK
6
CONTINUOUS
10
4.64694
20
-2.71108
11
4.64694
21
-2.71112
0
LINE
8
BLACK
6
CONTINUOUS
10
4.64694
20
-2.71112
11
4.64694
21
-2.71117
0
LINE
8
BLACK
6
CONTINUOUS
10
4.64694
20
-2.71117
11
4.64694
21
-2.71117
0
LINE
8
BLACK
6
CONTINUOUS
10
4.64694
20
-2.71117
11
4.64692
21
-2.71132
0
LINE
8
BLACK
6
CONTINUOUS
10
4.64692
20
-2.71132
11
4.64687
21
-2.7115
0
LINE
8
BLACK
6
CONTINUOUS
10
4.64687
20
-2.7115
11
4.64677
21
-2.71167
0
LINE
8
BLACK
6
CONTINUOUS
10
4.64677
20
-2.71167
11
4.64665
21
-2.71182
0
LINE
8
BLACK
6
CONTINUOUS
10
4.64665
20
-2.71182
11
4.6465
21
-2.71195
0
LINE
8
BLACK
6
CONTINUOUS
10
4.6465
20
-2.71195
11
4.64633
21
-2.71204
0
LINE
8
BLACK
6
CONTINUOUS
10
4.64633
20
-2.71204
11
4.64614
21
-2.71209
0
LINE
8
BLACK
6
CONTINUOUS
10
4.64614
20
-2.71209
11
4.64595
21
-2.71211
0
LINE
8
BLACK
6
CONTINUOUS
10
4.64595
20
-2.71211
11
4.6459
21
-2.71211
0
LINE
8
BLACK
6
CONTINUOUS
10
4.6459
20
-2.71211
11
4.51608
21
-2.71211
0
LINE
8
BLACK
6
CONTINUOUS
10
4.51608
20
-2.71211
11
4.51603
21
-2.71211
0
LINE
8
BLACK
6
CONTINUOUS
10
4.51603
20
-2.71211
11
4.51584
21
-2.71209
0
LINE
8
BLACK
6
CONTINUOUS
10
4.51584
20
-2.71209
11
4.51565
21
-2.71204
0
LINE
8
BLACK
6
CONTINUOUS
10
4.51565
20
-2.71204
11
4.51548
21
-2.71195
0
LINE
8
BLACK
6
CONTINUOUS
10
4.51548
20
-2.71195
11
4.51533
21
-2.71182
0
LINE
8
BLACK
6
CONTINUOUS
10
4.51533
20
-2.71182
11
4.51521
21
-2.71167
0
LINE
8
BLACK
6
CONTINUOUS
10
4.51521
20
-2.71167
11
4.51512
21
-2.7115
0
LINE
8
BLACK
6
CONTINUOUS
10
4.51512
20
-2.7115
11
4.51506
21
-2.71132
0
LINE
8
BLACK
6
CONTINUOUS
10
4.51506
20
-2.71132
11
4.51504
21
-2.71112
0
LINE
8
BLACK
6
CONTINUOUS
10
4.51504
20
-2.71112
11
4.51505
21
-2.71108
0
LINE
8
BLACK
6
CONTINUOUS
10
4.51505
20
-2.71108
11
4.51505
21
-2.65369
0
LINE
8
BLACK
6
CONTINUOUS
10
4.51505
20
-2.65369
11
4.51504
21
-2.65364
0
LINE
8
BLACK
6
CONTINUOUS
10
4.51504
20
-2.65364
11
4.51506
21
-2.65345
0
LINE
8
BLACK
6
CONTINUOUS
10
4.51506
20
-2.65345
11
4.51512
21
-2.65326
0
LINE
8
BLACK
6
CONTINUOUS
10
4.51512
20
-2.65326
11
4.51521
21
-2.65309
0
LINE
8
BLACK
6
CONTINUOUS
10
4.51521
20
-2.65309
11
4.51533
21
-2.65294
0
LINE
8
BLACK
6
CONTINUOUS
10
4.51533
20
-2.65294
11
4.51548
21
-2.65282
0
LINE
8
BLACK
6
CONTINUOUS
10
4.51548
20
-2.65282
11
4.51565
21
-2.65273
0
LINE
8
BLACK
6
CONTINUOUS
10
4.51565
20
-2.65273
11
4.51584
21
-2.65267
0
LINE
8
BLACK
6
CONTINUOUS
10
4.51584
20
-2.65267
11
4.51598
21
-2.65266
0
LINE
8
BLACK
6
CONTINUOUS
10
4.51598
20
-2.65266
11
4.51598
21
-2.65266
0
LINE
8
BLACK
6
CONTINUOUS
10
4.51598
20
-2.65266
11
4.51603
21
-2.65265
0
LINE
8
BLACK
6
CONTINUOUS
10
4.51603
20
-2.65265
11
4.51608
21
-2.65266
0
LINE
8
BLACK
6
CONTINUOUS
10
4.51608
20
-2.65266
11
4.6459
21
-2.65266
0
LINE
8
BLACK
6
CONTINUOUS
10
4.6459
20
-2.65266
11
4.64595
21
-2.65265
0
LINE
8
BLACK
6
CONTINUOUS
10
4.64595
20
-2.65265
11
4.646
21
-2.65266
0
LINE
8
BLACK
6
CONTINUOUS
10
4.51701
20
-2.65463
11
4.51701
21
-2.71014
0
LINE
8
BLACK
6
CONTINUOUS
10
4.51701
20
-2.71014
11
4.64497
21
-2.71014
0
LINE
8
BLACK
6
CONTINUOUS
10
4.64497
20
-2.71014
11
4.64497
21
-2.65463
0
LINE
8
BLACK
6
CONTINUOUS
10
4.64497
20
-2.65463
11
4.51701
21
-2.65463
0
LINE
8
BLACK
6
CONTINUOUS
10
3.1461
20
-2.65266
11
3.1461
21
-2.65266
0
LINE
8
BLACK
6
CONTINUOUS
10
3.1461
20
-2.65266
11
3.14624
21
-2.65267
0
LINE
8
BLACK
6
CONTINUOUS
10
3.14624
20
-2.65267
11
3.14643
21
-2.65273
0
LINE
8
BLACK
6
CONTINUOUS
10
3.14643
20
-2.65273
11
3.1466
21
-2.65282
0
LINE
8
BLACK
6
CONTINUOUS
10
3.1466
20
-2.65282
11
3.14675
21
-2.65294
0
LINE
8
BLACK
6
CONTINUOUS
10
3.14675
20
-2.65294
11
3.14687
21
-2.65309
0
LINE
8
BLACK
6
CONTINUOUS
10
3.14687
20
-2.65309
11
3.14696
21
-2.65326
0
LINE
8
BLACK
6
CONTINUOUS
10
3.14696
20
-2.65326
11
3.14702
21
-2.65345
0
LINE
8
BLACK
6
CONTINUOUS
10
3.14702
20
-2.65345
11
3.14704
21
-2.65364
0
LINE
8
BLACK
6
CONTINUOUS
10
3.14704
20
-2.65364
11
3.14703
21
-2.65369
0
LINE
8
BLACK
6
CONTINUOUS
10
3.14703
20
-2.65369
11
3.14703
21
-2.71108
0
LINE
8
BLACK
6
CONTINUOUS
10
3.14703
20
-2.71108
11
3.14704
21
-2.71112
0
LINE
8
BLACK
6
CONTINUOUS
10
3.14704
20
-2.71112
11
3.14703
21
-2.71117
0
LINE
8
BLACK
6
CONTINUOUS
10
3.14703
20
-2.71117
11
3.14703
21
-2.71117
0
LINE
8
BLACK
6
CONTINUOUS
10
3.14703
20
-2.71117
11
3.14702
21
-2.71132
0
LINE
8
BLACK
6
CONTINUOUS
10
3.14702
20
-2.71132
11
3.14696
21
-2.7115
0
LINE
8
BLACK
6
CONTINUOUS
10
3.14696
20
-2.7115
11
3.14687
21
-2.71167
0
LINE
8
BLACK
6
CONTINUOUS
10
3.14687
20
-2.71167
11
3.14675
21
-2.71182
0
LINE
8
BLACK
6
CONTINUOUS
10
3.14675
20
-2.71182
11
3.1466
21
-2.71195
0
LINE
8
BLACK
6
CONTINUOUS
10
3.1466
20
-2.71195
11
3.14643
21
-2.71204
0
LINE
8
BLACK
6
CONTINUOUS
10
3.14643
20
-2.71204
11
3.14624
21
-2.71209
0
LINE
8
BLACK
6
CONTINUOUS
10
3.14624
20
-2.71209
11
3.14605
21
-2.71211
0
LINE
8
BLACK
6
CONTINUOUS
10
3.14605
20
-2.71211
11
3.146
21
-2.71211
0
LINE
8
BLACK
6
CONTINUOUS
10
3.146
20
-2.71211
11
3.01617
21
-2.71211
0
LINE
8
BLACK
6
CONTINUOUS
10
3.01617
20
-2.71211
11
3.01613
21
-2.71211
0
LINE
8
BLACK
6
CONTINUOUS
10
3.01613
20
-2.71211
11
3.01593
21
-2.71209
0
LINE
8
BLACK
6
CONTINUOUS
10
3.01593
20
-2.71209
11
3.01575
21
-2.71204
0
LINE
8
BLACK
6
CONTINUOUS
10
3.01575
20
-2.71204
11
3.01558
21
-2.71195
0
LINE
8
BLACK
6
CONTINUOUS
10
3.01558
20
-2.71195
11
3.01543
21
-2.71182
0
LINE
8
BLACK
6
CONTINUOUS
10
3.01543
20
-2.71182
11
3.0153
21
-2.71167
0
LINE
8
BLACK
6
CONTINUOUS
10
3.0153
20
-2.71167
11
3.01521
21
-2.7115
0
LINE
8
BLACK
6
CONTINUOUS
10
3.01521
20
-2.7115
11
3.01516
21
-2.71132
0
LINE
8
BLACK
6
CONTINUOUS
10
3.01516
20
-2.71132
11
3.01514
21
-2.71112
0
LINE
8
BLACK
6
CONTINUOUS
10
3.01514
20
-2.71112
11
3.01514
21
-2.71108
0
LINE
8
BLACK
6
CONTINUOUS
10
3.01514
20
-2.71108
11
3.01514
21
-2.65369
0
LINE
8
BLACK
6
CONTINUOUS
10
3.01514
20
-2.65369
11
3.01514
21
-2.65364
0
LINE
8
BLACK
6
CONTINUOUS
10
3.01514
20
-2.65364
11
3.01516
21
-2.65345
0
LINE
8
BLACK
6
CONTINUOUS
10
3.01516
20
-2.65345
11
3.01521
21
-2.65326
0
LINE
8
BLACK
6
CONTINUOUS
10
3.01521
20
-2.65326
11
3.0153
21
-2.65309
0
LINE
8
BLACK
6
CONTINUOUS
10
3.0153
20
-2.65309
11
3.01543
21
-2.65294
0
LINE
8
BLACK
6
CONTINUOUS
10
3.01543
20
-2.65294
11
3.01558
21
-2.65282
0
LINE
8
BLACK
6
CONTINUOUS
10
3.01558
20
-2.65282
11
3.01575
21
-2.65273
0
LINE
8
BLACK
6
CONTINUOUS
10
3.01575
20
-2.65273
11
3.01593
21
-2.65267
0
LINE
8
BLACK
6
CONTINUOUS
10
3.01593
20
-2.65267
11
3.01608
21
-2.65266
0
LINE
8
BLACK
6
CONTINUOUS
10
3.01608
20
-2.65266
11
3.01608
21
-2.65266
0
LINE
8
BLACK
6
CONTINUOUS
10
3.01608
20
-2.65266
11
3.01613
21
-2.65265
0
LINE
8
BLACK
6
CONTINUOUS
10
3.01613
20
-2.65265
11
3.01617
21
-2.65266
0
LINE
8
BLACK
6
CONTINUOUS
10
3.01617
20
-2.65266
11
3.146
21
-2.65266
0
LINE
8
BLACK
6
CONTINUOUS
10
3.146
20
-2.65266
11
3.14605
21
-2.65265
0
LINE
8
BLACK
6
CONTINUOUS
10
3.14605
20
-2.65265
11
3.1461
21
-2.65266
0
LINE
8
BLACK
6
CONTINUOUS
10
3.01711
20
-2.65463
11
3.01711
21
-2.71014
0
LINE
8
BLACK
6
CONTINUOUS
10
3.01711
20
-2.71014
11
3.14506
21
-2.71014
0
LINE
8
BLACK
6
CONTINUOUS
10
3.14506
20
-2.71014
11
3.14506
21
-2.65463
0
LINE
8
BLACK
6
CONTINUOUS
10
3.14506
20
-2.65463
11
3.01711
21
-2.65463
0
LINE
8
BLACK
6
CONTINUOUS
10
3.89605
20
-2.52767
11
3.89605
21
-2.52767
0
LINE
8
BLACK
6
CONTINUOUS
10
3.89605
20
-2.52767
11
3.89619
21
-2.52768
0
LINE
8
BLACK
6
CONTINUOUS
10
3.89619
20
-2.52768
11
3.89638
21
-2.52774
0
LINE
8
BLACK
6
CONTINUOUS
10
3.89638
20
-2.52774
11
3.89655
21
-2.52783
0
LINE
8
BLACK
6
CONTINUOUS
10
3.89655
20
-2.52783
11
3.8967
21
-2.52795
0
LINE
8
BLACK
6
CONTINUOUS
10
3.8967
20
-2.52795
11
3.89682
21
-2.5281
0
LINE
8
BLACK
6
CONTINUOUS
10
3.89682
20
-2.5281
11
3.89691
21
-2.52827
0
LINE
8
BLACK
6
CONTINUOUS
10
3.89691
20
-2.52827
11
3.89697
21
-2.52846
0
LINE
8
BLACK
6
CONTINUOUS
10
3.89697
20
-2.52846
11
3.89699
21
-2.52865
0
LINE
8
BLACK
6
CONTINUOUS
10
3.89699
20
-2.52865
11
3.89698
21
-2.5287
0
LINE
8
BLACK
6
CONTINUOUS
10
3.89698
20
-2.5287
11
3.89698
21
-2.58608
0
LINE
8
BLACK
6
CONTINUOUS
10
3.89698
20
-2.58608
11
3.89699
21
-2.58613
0
LINE
8
BLACK
6
CONTINUOUS
10
3.89699
20
-2.58613
11
3.89698
21
-2.58618
0
LINE
8
BLACK
6
CONTINUOUS
10
3.89698
20
-2.58618
11
3.89698
21
-2.58618
0
LINE
8
BLACK
6
CONTINUOUS
10
3.89698
20
-2.58618
11
3.89697
21
-2.58632
0
LINE
8
BLACK
6
CONTINUOUS
10
3.89697
20
-2.58632
11
3.89691
21
-2.58651
0
LINE
8
BLACK
6
CONTINUOUS
10
3.89691
20
-2.58651
11
3.89682
21
-2.58668
0
LINE
8
BLACK
6
CONTINUOUS
10
3.89682
20
-2.58668
11
3.8967
21
-2.58683
0
LINE
8
BLACK
6
CONTINUOUS
10
3.8967
20
-2.58683
11
3.89655
21
-2.58695
0
LINE
8
BLACK
6
CONTINUOUS
10
3.89655
20
-2.58695
11
3.89638
21
-2.58705
0
LINE
8
BLACK
6
CONTINUOUS
10
3.89638
20
-2.58705
11
3.89619
21
-2.5871
0
LINE
8
BLACK
6
CONTINUOUS
10
3.89619
20
-2.5871
11
3.896
21
-2.58712
0
LINE
8
BLACK
6
CONTINUOUS
10
3.896
20
-2.58712
11
3.89595
21
-2.58712
0
LINE
8
BLACK
6
CONTINUOUS
10
3.89595
20
-2.58712
11
3.76613
21
-2.58712
0
LINE
8
BLACK
6
CONTINUOUS
10
3.76613
20
-2.58712
11
3.76608
21
-2.58712
0
LINE
8
BLACK
6
CONTINUOUS
10
3.76608
20
-2.58712
11
3.76589
21
-2.5871
0
LINE
8
BLACK
6
CONTINUOUS
10
3.76589
20
-2.5871
11
3.7657
21
-2.58705
0
LINE
8
BLACK
6
CONTINUOUS
10
3.7657
20
-2.58705
11
3.76553
21
-2.58695
0
LINE
8
BLACK
6
CONTINUOUS
10
3.76553
20
-2.58695
11
3.76538
21
-2.58683
0
LINE
8
BLACK
6
CONTINUOUS
10
3.76538
20
-2.58683
11
3.76526
21
-2.58668
0
LINE
8
BLACK
6
CONTINUOUS
10
3.76526
20
-2.58668
11
3.76516
21
-2.58651
0
LINE
8
BLACK
6
CONTINUOUS
10
3.76516
20
-2.58651
11
3.76511
21
-2.58632
0
LINE
8
BLACK
6
CONTINUOUS
10
3.76511
20
-2.58632
11
3.76509
21
-2.58613
0
LINE
8
BLACK
6
CONTINUOUS
10
3.76509
20
-2.58613
11
3.76509
21
-2.58608
0
LINE
8
BLACK
6
CONTINUOUS
10
3.76509
20
-2.58608
11
3.76509
21
-2.5287
0
LINE
8
BLACK
6
CONTINUOUS
10
3.76509
20
-2.5287
11
3.76509
21
-2.52865
0
LINE
8
BLACK
6
CONTINUOUS
10
3.76509
20
-2.52865
11
3.76511
21
-2.52846
0
LINE
8
BLACK
6
CONTINUOUS
10
3.76511
20
-2.52846
11
3.76516
21
-2.52827
0
LINE
8
BLACK
6
CONTINUOUS
10
3.76516
20
-2.52827
11
3.76526
21
-2.5281
0
LINE
8
BLACK
6
CONTINUOUS
10
3.76526
20
-2.5281
11
3.76538
21
-2.52795
0
LINE
8
BLACK
6
CONTINUOUS
10
3.76538
20
-2.52795
11
3.76553
21
-2.52783
0
LINE
8
BLACK
6
CONTINUOUS
10
3.76553
20
-2.52783
11
3.7657
21
-2.52774
0
LINE
8
BLACK
6
CONTINUOUS
10
3.7657
20
-2.52774
11
3.76589
21
-2.52768
0
LINE
8
BLACK
6
CONTINUOUS
10
3.76589
20
-2.52768
11
3.76603
21
-2.52767
0
LINE
8
BLACK
6
CONTINUOUS
10
3.76603
20
-2.52767
11
3.76603
21
-2.52767
0
LINE
8
BLACK
6
CONTINUOUS
10
3.76603
20
-2.52767
11
3.76608
21
-2.52766
0
LINE
8
BLACK
6
CONTINUOUS
10
3.76608
20
-2.52766
11
3.76613
21
-2.52767
0
LINE
8
BLACK
6
CONTINUOUS
10
3.76613
20
-2.52767
11
3.89595
21
-2.52767
0
LINE
8
BLACK
6
CONTINUOUS
10
3.89595
20
-2.52767
11
3.896
21
-2.52766
0
LINE
8
BLACK
6
CONTINUOUS
10
3.896
20
-2.52766
11
3.89605
21
-2.52767
0
LINE
8
BLACK
6
CONTINUOUS
10
3.76706
20
-2.52964
11
3.76706
21
-2.58515
0
LINE
8
BLACK
6
CONTINUOUS
10
3.76706
20
-2.58515
11
3.89502
21
-2.58515
0
LINE
8
BLACK
6
CONTINUOUS
10
3.89502
20
-2.58515
11
3.89502
21
-2.52964
0
LINE
8
BLACK
6
CONTINUOUS
10
3.89502
20
-2.52964
11
3.76706
21
-2.52964
0
LINE
8
BLACK
6
CONTINUOUS
10
1.64619
20
-2.15269
11
1.64619
21
-2.15269
0
LINE
8
BLACK
6
CONTINUOUS
10
1.64619
20
-2.15269
11
1.64634
21
-2.15271
0
LINE
8
BLACK
6
CONTINUOUS
10
1.64634
20
-2.15271
11
1.64652
21
-2.15276
0
LINE
8
BLACK
6
CONTINUOUS
10
1.64652
20
-2.15276
11
1.64669
21
-2.15285
0
LINE
8
BLACK
6
CONTINUOUS
10
1.64669
20
-2.15285
11
1.64684
21
-2.15298
0
LINE
8
BLACK
6
CONTINUOUS
10
1.64684
20
-2.15298
11
1.64697
21
-2.15313
0
LINE
8
BLACK
6
CONTINUOUS
10
1.64697
20
-2.15313
11
1.64706
21
-2.1533
0
LINE
8
BLACK
6
CONTINUOUS
10
1.64706
20
-2.1533
11
1.64711
21
-2.15348
0
LINE
8
BLACK
6
CONTINUOUS
10
1.64711
20
-2.15348
11
1.64713
21
-2.15368
0
LINE
8
BLACK
6
CONTINUOUS
10
1.64713
20
-2.15368
11
1.64713
21
-2.15372
0
LINE
8
BLACK
6
CONTINUOUS
10
1.64713
20
-2.15372
11
1.64713
21
-2.21111
0
LINE
8
BLACK
6
CONTINUOUS
10
1.64713
20
-2.21111
11
1.64713
21
-2.21116
0
LINE
8
BLACK
6
CONTINUOUS
10
1.64713
20
-2.21116
11
1.64713
21
-2.2112
0
LINE
8
BLACK
6
CONTINUOUS
10
1.64713
20
-2.2112
11
1.64713
21
-2.2112
0
LINE
8
BLACK
6
CONTINUOUS
10
1.64713
20
-2.2112
11
1.64711
21
-2.21135
0
LINE
8
BLACK
6
CONTINUOUS
10
1.64711
20
-2.21135
11
1.64706
21
-2.21153
0
LINE
8
BLACK
6
CONTINUOUS
10
1.64706
20
-2.21153
11
1.64697
21
-2.21171
0
LINE
8
BLACK
6
CONTINUOUS
10
1.64697
20
-2.21171
11
1.64684
21
-2.21186
0
LINE
8
BLACK
6
CONTINUOUS
10
1.64684
20
-2.21186
11
1.64669
21
-2.21198
0
LINE
8
BLACK
6
CONTINUOUS
10
1.64669
20
-2.21198
11
1.64652
21
-2.21207
0
LINE
8
BLACK
6
CONTINUOUS
10
1.64652
20
-2.21207
11
1.64634
21
-2.21213
0
LINE
8
BLACK
6
CONTINUOUS
10
1.64634
20
-2.21213
11
1.64614
21
-2.21214
0
LINE
8
BLACK
6
CONTINUOUS
10
1.64614
20
-2.21214
11
1.6461
21
-2.21214
0
LINE
8
BLACK
6
CONTINUOUS
10
1.6461
20
-2.21214
11
1.51627
21
-2.21214
0
LINE
8
BLACK
6
CONTINUOUS
10
1.51627
20
-2.21214
11
1.51622
21
-2.21214
0
LINE
8
BLACK
6
CONTINUOUS
10
1.51622
20
-2.21214
11
1.51603
21
-2.21213
0
LINE
8
BLACK
6
CONTINUOUS
10
1.51603
20
-2.21213
11
1.51584
21
-2.21207
0
LINE
8
BLACK
6
CONTINUOUS
10
1.51584
20
-2.21207
11
1.51567
21
-2.21198
0
LINE
8
BLACK
6
CONTINUOUS
10
1.51567
20
-2.21198
11
1.51552
21
-2.21186
0
LINE
8
BLACK
6
CONTINUOUS
10
1.51552
20
-2.21186
11
1.5154
21
-2.21171
0
LINE
8
BLACK
6
CONTINUOUS
10
1.5154
20
-2.21171
11
1.51531
21
-2.21153
0
LINE
8
BLACK
6
CONTINUOUS
10
1.51531
20
-2.21153
11
1.51525
21
-2.21135
0
LINE
8
BLACK
6
CONTINUOUS
10
1.51525
20
-2.21135
11
1.51523
21
-2.21116
0
LINE
8
BLACK
6
CONTINUOUS
10
1.51523
20
-2.21116
11
1.51524
21
-2.21111
0
LINE
8
BLACK
6
CONTINUOUS
10
1.51524
20
-2.21111
11
1.51524
21
-2.15372
0
LINE
8
BLACK
6
CONTINUOUS
10
1.51524
20
-2.15372
11
1.51523
21
-2.15368
0
LINE
8
BLACK
6
CONTINUOUS
10
1.51523
20
-2.15368
11
1.51525
21
-2.15348
0
LINE
8
BLACK
6
CONTINUOUS
10
1.51525
20
-2.15348
11
1.51531
21
-2.1533
0
LINE
8
BLACK
6
CONTINUOUS
10
1.51531
20
-2.1533
11
1.5154
21
-2.15313
0
LINE
8
BLACK
6
CONTINUOUS
10
1.5154
20
-2.15313
11
1.51552
21
-2.15298
0
LINE
8
BLACK
6
CONTINUOUS
10
1.51552
20
-2.15298
11
1.51567
21
-2.15285
0
LINE
8
BLACK
6
CONTINUOUS
10
1.51567
20
-2.15285
11
1.51584
21
-2.15276
0
LINE
8
BLACK
6
CONTINUOUS
10
1.51584
20
-2.15276
11
1.51603
21
-2.15271
0
LINE
8
BLACK
6
CONTINUOUS
10
1.51603
20
-2.15271
11
1.51618
21
-2.15269
0
LINE
8
BLACK
6
CONTINUOUS
10
1.51618
20
-2.15269
11
1.51618
21
-2.15269
0
LINE
8
BLACK
6
CONTINUOUS
10
1.51618
20
-2.15269
11
1.51622
21
-2.15269
0
LINE
8
BLACK
6
CONTINUOUS
10
1.51622
20
-2.15269
11
1.51627
21
-2.15269
0
LINE
8
BLACK
6
CONTINUOUS
10
1.51627
20
-2.15269
11
1.6461
21
-2.15269
0
LINE
8
BLACK
6
CONTINUOUS
10
1.6461
20
-2.15269
11
1.64614
21
-2.15269
0
LINE
8
BLACK
6
CONTINUOUS
10
1.64614
20
-2.15269
11
1.64619
21
-2.15269
0
LINE
8
BLACK
6
CONTINUOUS
10
1.51721
20
-2.15466
11
1.51721
21
-2.21017
0
LINE
8
BLACK
6
CONTINUOUS
10
1.51721
20
-2.21017
11
1.64516
21
-2.21017
0
LINE
8
BLACK
6
CONTINUOUS
10
1.64516
20
-2.21017
11
1.64516
21
-2.15466
0
LINE
8
BLACK
6
CONTINUOUS
10
1.64516
20
-2.15466
11
1.51721
21
-2.15466
0
LINE
8
BLACK
6
CONTINUOUS
10
2.39614
20
-2.0277
11
2.39614
21
-2.0277
0
LINE
8
BLACK
6
CONTINUOUS
10
2.39614
20
-2.0277
11
2.39629
21
-2.02771
0
LINE
8
BLACK
6
CONTINUOUS
10
2.39629
20
-2.02771
11
2.39647
21
-2.02777
0
LINE
8
BLACK
6
CONTINUOUS
10
2.39647
20
-2.02777
11
2.39665
21
-2.02786
0
LINE
8
BLACK
6
CONTINUOUS
10
2.39665
20
-2.02786
11
2.3968
21
-2.02798
0
LINE
8
BLACK
6
CONTINUOUS
10
2.3968
20
-2.02798
11
2.39692
21
-2.02813
0
LINE
8
BLACK
6
CONTINUOUS
10
2.39692
20
-2.02813
11
2.39701
21
-2.02831
0
LINE
8
BLACK
6
CONTINUOUS
10
2.39701
20
-2.02831
11
2.39707
21
-2.02849
0
LINE
8
BLACK
6
CONTINUOUS
10
2.39707
20
-2.02849
11
2.39709
21
-2.02868
0
LINE
8
BLACK
6
CONTINUOUS
10
2.39709
20
-2.02868
11
2.39708
21
-2.02873
0
LINE
8
BLACK
6
CONTINUOUS
10
2.39708
20
-2.02873
11
2.39708
21
-2.08612
0
LINE
8
BLACK
6
CONTINUOUS
10
2.39708
20
-2.08612
11
2.39709
21
-2.08616
0
LINE
8
BLACK
6
CONTINUOUS
10
2.39709
20
-2.08616
11
2.39708
21
-2.08621
0
LINE
8
BLACK
6
CONTINUOUS
10
2.39708
20
-2.08621
11
2.39708
21
-2.08621
0
LINE
8
BLACK
6
CONTINUOUS
10
2.39708
20
-2.08621
11
2.39707
21
-2.08636
0
LINE
8
BLACK
6
CONTINUOUS
10
2.39707
20
-2.08636
11
2.39701
21
-2.08654
0
LINE
8
BLACK
6
CONTINUOUS
10
2.39701
20
-2.08654
11
2.39692
21
-2.08671
0
LINE
8
BLACK
6
CONTINUOUS
10
2.39692
20
-2.08671
11
2.3968
21
-2.08686
0
LINE
8
BLACK
6
CONTINUOUS
10
2.3968
20
-2.08686
11
2.39665
21
-2.08699
0
LINE
8
BLACK
6
CONTINUOUS
10
2.39665
20
-2.08699
11
2.39647
21
-2.08708
0
LINE
8
BLACK
6
CONTINUOUS
10
2.39647
20
-2.08708
11
2.39629
21
-2.08713
0
LINE
8
BLACK
6
CONTINUOUS
10
2.39629
20
-2.08713
11
2.3961
21
-2.08715
0
LINE
8
BLACK
6
CONTINUOUS
10
2.3961
20
-2.08715
11
2.39605
21
-2.08715
0
LINE
8
BLACK
6
CONTINUOUS
10
2.39605
20
-2.08715
11
2.26622
21
-2.08715
0
LINE
8
BLACK
6
CONTINUOUS
10
2.26622
20
-2.08715
11
2.26617
21
-2.08715
0
LINE
8
BLACK
6
CONTINUOUS
10
2.26617
20
-2.08715
11
2.26598
21
-2.08713
0
LINE
8
BLACK
6
CONTINUOUS
10
2.26598
20
-2.08713
11
2.2658
21
-2.08708
0
LINE
8
BLACK
6
CONTINUOUS
10
2.2658
20
-2.08708
11
2.26563
21
-2.08699
0
LINE
8
BLACK
6
CONTINUOUS
10
2.26563
20
-2.08699
11
2.26548
21
-2.08686
0
LINE
8
BLACK
6
CONTINUOUS
10
2.26548
20
-2.08686
11
2.26535
21
-2.08671
0
LINE
8
BLACK
6
CONTINUOUS
10
2.26535
20
-2.08671
11
2.26526
21
-2.08654
0
LINE
8
BLACK
6
CONTINUOUS
10
2.26526
20
-2.08654
11
2.2652
21
-2.08636
0
LINE
8
BLACK
6
CONTINUOUS
10
2.2652
20
-2.08636
11
2.26519
21
-2.08616
0
LINE
8
BLACK
6
CONTINUOUS
10
2.26519
20
-2.08616
11
2.26519
21
-2.08612
0
LINE
8
BLACK
6
CONTINUOUS
10
2.26519
20
-2.08612
11
2.26519
21
-2.02873
0
LINE
8
BLACK
6
CONTINUOUS
10
2.26519
20
-2.02873
11
2.26519
21
-2.02868
0
LINE
8
BLACK
6
CONTINUOUS
10
2.26519
20
-2.02868
11
2.2652
21
-2.02849
0
LINE
8
BLACK
6
CONTINUOUS
10
2.2652
20
-2.02849
11
2.26526
21
-2.02831
0
LINE
8
BLACK
6
CONTINUOUS
10
2.26526
20
-2.02831
11
2.26535
21
-2.02813
0
LINE
8
BLACK
6
CONTINUOUS
10
2.26535
20
-2.02813
11
2.26548
21
-2.02798
0
LINE
8
BLACK
6
CONTINUOUS
10
2.26548
20
-2.02798
11
2.26563
21
-2.02786
0
LINE
8
BLACK
6
CONTINUOUS
10
2.26563
20
-2.02786
11
2.2658
21
-2.02777
0
LINE
8
BLACK
6
CONTINUOUS
10
2.2658
20
-2.02777
11
2.26598
21
-2.02771
0
LINE
8
BLACK
6
CONTINUOUS
10
2.26598
20
-2.02771
11
2.26613
21
-2.0277
0
LINE
8
BLACK
6
CONTINUOUS
10
2.26613
20
-2.0277
11
2.26613
21
-2.0277
0
LINE
8
BLACK
6
CONTINUOUS
10
2.26613
20
-2.0277
11
2.26617
21
-2.02769
0
LINE
8
BLACK
6
CONTINUOUS
10
2.26617
20
-2.02769
11
2.26622
21
-2.0277
0
LINE
8
BLACK
6
CONTINUOUS
10
2.26622
20
-2.0277
11
2.39605
21
-2.0277
0
LINE
8
BLACK
6
CONTINUOUS
10
2.39605
20
-2.0277
11
2.3961
21
-2.02769
0
LINE
8
BLACK
6
CONTINUOUS
10
2.3961
20
-2.02769
11
2.39614
21
-2.0277
0
LINE
8
BLACK
6
CONTINUOUS
10
2.26716
20
-2.02967
11
2.26716
21
-2.08518
0
LINE
8
BLACK
6
CONTINUOUS
10
2.26716
20
-2.08518
11
2.39511
21
-2.08518
0
LINE
8
BLACK
6
CONTINUOUS
10
2.39511
20
-2.08518
11
2.39511
21
-2.02967
0
LINE
8
BLACK
6
CONTINUOUS
10
2.39511
20
-2.02967
11
2.26716
21
-2.02967
0
LINE
8
BLACK
6
CONTINUOUS
10
3.1461
20
-1.90271
11
3.1461
21
-1.90271
0
LINE
8
BLACK
6
CONTINUOUS
10
3.1461
20
-1.90271
11
3.14624
21
-1.90272
0
LINE
8
BLACK
6
CONTINUOUS
10
3.14624
20
-1.90272
11
3.14643
21
-1.90278
0
LINE
8
BLACK
6
CONTINUOUS
10
3.14643
20
-1.90278
11
3.1466
21
-1.90287
0
LINE
8
BLACK
6
CONTINUOUS
10
3.1466
20
-1.90287
11
3.14675
21
-1.90299
0
LINE
8
BLACK
6
CONTINUOUS
10
3.14675
20
-1.90299
11
3.14687
21
-1.90314
0
LINE
8
BLACK
6
CONTINUOUS
10
3.14687
20
-1.90314
11
3.14696
21
-1.90331
0
LINE
8
BLACK
6
CONTINUOUS
10
3.14696
20
-1.90331
11
3.14702
21
-1.9035
0
LINE
8
BLACK
6
CONTINUOUS
10
3.14702
20
-1.9035
11
3.14704
21
-1.90369
0
LINE
8
BLACK
6
CONTINUOUS
10
3.14704
20
-1.90369
11
3.14703
21
-1.90374
0
LINE
8
BLACK
6
CONTINUOUS
10
3.14703
20
-1.90374
11
3.14703
21
-1.96112
0
LINE
8
BLACK
6
CONTINUOUS
10
3.14703
20
-1.96112
11
3.14704
21
-1.96117
0
LINE
8
BLACK
6
CONTINUOUS
10
3.14704
20
-1.96117
11
3.14703
21
-1.96122
0
LINE
8
BLACK
6
CONTINUOUS
10
3.14703
20
-1.96122
11
3.14703
21
-1.96122
0
LINE
8
BLACK
6
CONTINUOUS
10
3.14703
20
-1.96122
11
3.14702
21
-1.96136
0
LINE
8
BLACK
6
CONTINUOUS
10
3.14702
20
-1.96136
11
3.14696
21
-1.96155
0
LINE
8
BLACK
6
CONTINUOUS
10
3.14696
20
-1.96155
11
3.14687
21
-1.96172
0
LINE
8
BLACK
6
CONTINUOUS
10
3.14687
20
-1.96172
11
3.14675
21
-1.96187
0
LINE
8
BLACK
6
CONTINUOUS
10
3.14675
20
-1.96187
11
3.1466
21
-1.96199
0
LINE
8
BLACK
6
CONTINUOUS
10
3.1466
20
-1.96199
11
3.14643
21
-1.96209
0
LINE
8
BLACK
6
CONTINUOUS
10
3.14643
20
-1.96209
11
3.14624
21
-1.96214
0
LINE
8
BLACK
6
CONTINUOUS
10
3.14624
20
-1.96214
11
3.14605
21
-1.96216
0
LINE
8
BLACK
6
CONTINUOUS
10
3.14605
20
-1.96216
11
3.146
21
-1.96216
0
LINE
8
BLACK
6
CONTINUOUS
10
3.146
20
-1.96216
11
3.01617
21
-1.96216
0
LINE
8
BLACK
6
CONTINUOUS
10
3.01617
20
-1.96216
11
3.01613
21
-1.96216
0
LINE
8
BLACK
6
CONTINUOUS
10
3.01613
20
-1.96216
11
3.01593
21
-1.96214
0
LINE
8
BLACK
6
CONTINUOUS
10
3.01593
20
-1.96214
11
3.01575
21
-1.96209
0
LINE
8
BLACK
6
CONTINUOUS
10
3.01575
20
-1.96209
11
3.01558
21
-1.96199
0
LINE
8
BLACK
6
CONTINUOUS
10
3.01558
20
-1.96199
11
3.01543
21
-1.96187
0
LINE
8
BLACK
6
CONTINUOUS
10
3.01543
20
-1.96187
11
3.0153
21
-1.96172
0
LINE
8
BLACK
6
CONTINUOUS
10
3.0153
20
-1.96172
11
3.01521
21
-1.96155
0
LINE
8
BLACK
6
CONTINUOUS
10
3.01521
20
-1.96155
11
3.01516
21
-1.96136
0
LINE
8
BLACK
6
CONTINUOUS
10
3.01516
20
-1.96136
11
3.01514
21
-1.96117
0
LINE
8
BLACK
6
CONTINUOUS
10
3.01514
20
-1.96117
11
3.01514
21
-1.96112
0
LINE
8
BLACK
6
CONTINUOUS
10
3.01514
20
-1.96112
11
3.01514
21
-1.90374
0
LINE
8
BLACK
6
CONTINUOUS
10
3.01514
20
-1.90374
11
3.01514
21
-1.90369
0
LINE
8
BLACK
6
CONTINUOUS
10
3.01514
20
-1.90369
11
3.01516
21
-1.9035
0
LINE
8
BLACK
6
CONTINUOUS
10
3.01516
20
-1.9035
11
3.01521
21
-1.90331
0
LINE
8
BLACK
6
CONTINUOUS
10
3.01521
20
-1.90331
11
3.0153
21
-1.90314
0
LINE
8
BLACK
6
CONTINUOUS
10
3.0153
20
-1.90314
11
3.01543
21
-1.90299
0
LINE
8
BLACK
6
CONTINUOUS
10
3.01543
20
-1.90299
11
3.01558
21
-1.90287
0
LINE
8
BLACK
6
CONTINUOUS
10
3.01558
20
-1.90287
11
3.01575
21
-1.90278
0
LINE
8
BLACK
6
CONTINUOUS
10
3.01575
20
-1.90278
11
3.01593
21
-1.90272
0
LINE
8
BLACK
6
CONTINUOUS
10
3.01593
20
-1.90272
11
3.01608
21
-1.90271
0
LINE
8
BLACK
6
CONTINUOUS
10
3.01608
20
-1.90271
11
3.01608
21
-1.90271
0
LINE
8
BLACK
6
CONTINUOUS
10
3.01608
20
-1.90271
11
3.01613
21
-1.9027
0
LINE
8
BLACK
6
CONTINUOUS
10
3.01613
20
-1.9027
11
3.01617
21
-1.90271
0
LINE
8
BLACK
6
CONTINUOUS
10
3.01617
20
-1.90271
11
3.146
21
-1.90271
0
LINE
8
BLACK
6
CONTINUOUS
10
3.146
20
-1.90271
11
3.14605
21
-1.9027
0
LINE
8
BLACK
6
CONTINUOUS
10
3.14605
20
-1.9027
11
3.1461
21
-1.90271
0
LINE
8
BLACK
6
CONTINUOUS
10
3.01711
20
-1.90468
11
3.01711
21
-1.96019
0
LINE
8
BLACK
6
CONTINUOUS
10
3.01711
20
-1.96019
11
3.14506
21
-1.96019
0
LINE
8
BLACK
6
CONTINUOUS
10
3.14506
20
-1.96019
11
3.14506
21
-1.90468
0
LINE
8
BLACK
6
CONTINUOUS
10
3.14506
20
-1.90468
11
3.01711
21
-1.90468
0
LINE
8
BLACK
6
CONTINUOUS
10
4.646
20
-1.90271
11
4.646
21
-1.90271
0
LINE
8
BLACK
6
CONTINUOUS
10
4.646
20
-1.90271
11
4.64614
21
-1.90272
0
LINE
8
BLACK
6
CONTINUOUS
10
4.64614
20
-1.90272
11
4.64633
21
-1.90278
0
LINE
8
BLACK
6
CONTINUOUS
10
4.64633
20
-1.90278
11
4.6465
21
-1.90287
0
LINE
8
BLACK
6
CONTINUOUS
10
4.6465
20
-1.90287
11
4.64665
21
-1.90299
0
LINE
8
BLACK
6
CONTINUOUS
10
4.64665
20
-1.90299
11
4.64677
21
-1.90314
0
LINE
8
BLACK
6
CONTINUOUS
10
4.64677
20
-1.90314
11
4.64687
21
-1.90331
0
LINE
8
BLACK
6
CONTINUOUS
10
4.64687
20
-1.90331
11
4.64692
21
-1.9035
0
LINE
8
BLACK
6
CONTINUOUS
10
4.64692
20
-1.9035
11
4.64694
21
-1.90369
0
LINE
8
BLACK
6
CONTINUOUS
10
4.64694
20
-1.90369
11
4.64694
21
-1.90374
0
LINE
8
BLACK
6
CONTINUOUS
10
4.64694
20
-1.90374
11
4.64694
21
-1.96112
0
LINE
8
BLACK
6
CONTINUOUS
10
4.64694
20
-1.96112
11
4.64694
21
-1.96117
0
LINE
8
BLACK
6
CONTINUOUS
10
4.64694
20
-1.96117
11
4.64694
21
-1.96122
0
LINE
8
BLACK
6
CONTINUOUS
10
4.64694
20
-1.96122
11
4.64694
21
-1.96122
0
LINE
8
BLACK
6
CONTINUOUS
10
4.64694
20
-1.96122
11
4.64692
21
-1.96136
0
LINE
8
BLACK
6
CONTINUOUS
10
4.64692
20
-1.96136
11
4.64687
21
-1.96155
0
LINE
8
BLACK
6
CONTINUOUS
10
4.64687
20
-1.96155
11
4.64677
21
-1.96172
0
LINE
8
BLACK
6
CONTINUOUS
10
4.64677
20
-1.96172
11
4.64665
21
-1.96187
0
LINE
8
BLACK
6
CONTINUOUS
10
4.64665
20
-1.96187
11
4.6465
21
-1.96199
0
LINE
8
BLACK
6
CONTINUOUS
10
4.6465
20
-1.96199
11
4.64633
21
-1.96209
0
LINE
8
BLACK
6
CONTINUOUS
10
4.64633
20
-1.96209
11
4.64614
21
-1.96214
0
LINE
8
BLACK
6
CONTINUOUS
10
4.64614
20
-1.96214
11
4.64595
21
-1.96216
0
LINE
8
BLACK
6
CONTINUOUS
10
4.64595
20
-1.96216
11
4.6459
21
-1.96216
0
LINE
8
BLACK
6
CONTINUOUS
10
4.6459
20
-1.96216
11
4.51608
21
-1.96216
0
LINE
8
BLACK
6
CONTINUOUS
10
4.51608
20
-1.96216
11
4.51603
21
-1.96216
0
LINE
8
BLACK
6
CONTINUOUS
10
4.51603
20
-1.96216
11
4.51584
21
-1.96214
0
LINE
8
BLACK
6
CONTINUOUS
10
4.51584
20
-1.96214
11
4.51565
21
-1.96209
0
LINE
8
BLACK
6
CONTINUOUS
10
4.51565
20
-1.96209
11
4.51548
21
-1.96199
0
LINE
8
BLACK
6
CONTINUOUS
10
4.51548
20
-1.96199
11
4.51533
21
-1.96187
0
LINE
8
BLACK
6
CONTINUOUS
10
4.51533
20
-1.96187
11
4.51521
21
-1.96172
0
LINE
8
BLACK
6
CONTINUOUS
10
4.51521
20
-1.96172
11
4.51512
21
-1.96155
0
LINE
8
BLACK
6
CONTINUOUS
10
4.51512
20
-1.96155
11
4.51506
21
-1.96136
0
LINE
8
BLACK
6
CONTINUOUS
10
4.51506
20
-1.96136
11
4.51504
21
-1.96117
0
LINE
8
BLACK
6
CONTINUOUS
10
4.51504
20
-1.96117
11
4.51505
21
-1.96112
0
LINE
8
BLACK
6
CONTINUOUS
10
4.51505
20
-1.96112
11
4.51505
21
-1.90374
0
LINE
8
BLACK
6
CONTINUOUS
10
4.51505
20
-1.90374
11
4.51504
21
-1.90369
0
LINE
8
BLACK
6
CONTINUOUS
10
4.51504
20
-1.90369
11
4.51506
21
-1.9035
0
LINE
8
BLACK
6
CONTINUOUS
10
4.51506
20
-1.9035
11
4.51512
21
-1.90331
0
LINE
8
BLACK
6
CONTINUOUS
10
4.51512
20
-1.90331
11
4.51521
21
-1.90314
0
LINE
8
BLACK
6
CONTINUOUS
10
4.51521
20
-1.90314
11
4.51533
21
-1.90299
0
LINE
8
BLACK
6
CONTINUOUS
10
4.51533
20
-1.90299
11
4.51548
21
-1.90287
0
LINE
8
BLACK
6
CONTINUOUS
10
4.51548
20
-1.90287
11
4.51565
21
-1.90278
0
LINE
8
BLACK
6
CONTINUOUS
10
4.51565
20
-1.90278
11
4.51584
21
-1.90272
0
LINE
8
BLACK
6
CONTINUOUS
10
4.51584
20
-1.90272
11
4.51598
21
-1.90271
0
LINE
8
BLACK
6
CONTINUOUS
10
4.51598
20
-1.90271
11
4.51598
21
-1.90271
0
LINE
8
BLACK
6
CONTINUOUS
10
4.51598
20
-1.90271
11
4.51603
21
-1.9027
0
LINE
8
BLACK
6
CONTINUOUS
10
4.51603
20
-1.9027
11
4.51608
21
-1.90271
0
LINE
8
BLACK
6
CONTINUOUS
10
4.51608
20
-1.90271
11
4.6459
21
-1.90271
0
LINE
8
BLACK
6
CONTINUOUS
10
4.6459
20
-1.90271
11
4.64595
21
-1.9027
0
LINE
8
BLACK
6
CONTINUOUS
10
4.64595
20
-1.9027
11
4.646
21
-1.90271
0
LINE
8
BLACK
6
CONTINUOUS
10
4.51701
20
-1.90468
11
4.51701
21
-1.96019
0
LINE
8
BLACK
6
CONTINUOUS
10
4.51701
20
-1.96019
11
4.64497
21
-1.96019
0
LINE
8
BLACK
6
CONTINUOUS
10
4.64497
20
-1.96019
11
4.64497
21
-1.90468
0
LINE
8
BLACK
6
CONTINUOUS
10
4.64497
20
-1.90468
11
4.51701
21
-1.90468
0
LINE
8
BLACK
6
CONTINUOUS
10
3.89605
20
-1.77772
11
3.89605
21
-1.77772
0
LINE
8
BLACK
6
CONTINUOUS
10
3.89605
20
-1.77772
11
3.89619
21
-1.77773
0
LINE
8
BLACK
6
CONTINUOUS
10
3.89619
20
-1.77773
11
3.89638
21
-1.77779
0
LINE
8
BLACK
6
CONTINUOUS
10
3.89638
20
-1.77779
11
3.89655
21
-1.77788
0
LINE
8
BLACK
6
CONTINUOUS
10
3.89655
20
-1.77788
11
3.8967
21
-1.778
0
LINE
8
BLACK
6
CONTINUOUS
10
3.8967
20
-1.778
11
3.89682
21
-1.77815
0
LINE
8
BLACK
6
CONTINUOUS
10
3.89682
20
-1.77815
11
3.89691
21
-1.77832
0
LINE
8
BLACK
6
CONTINUOUS
10
3.89691
20
-1.77832
11
3.89697
21
-1.77851
0
LINE
8
BLACK
6
CONTINUOUS
10
3.89697
20
-1.77851
11
3.89699
21
-1.7787
0
LINE
8
BLACK
6
CONTINUOUS
10
3.89699
20
-1.7787
11
3.89698
21
-1.77875
0
LINE
8
BLACK
6
CONTINUOUS
10
3.89698
20
-1.77875
11
3.89698
21
-1.83613
0
LINE
8
BLACK
6
CONTINUOUS
10
3.89698
20
-1.83613
11
3.89699
21
-1.83618
0
LINE
8
BLACK
6
CONTINUOUS
10
3.89699
20
-1.83618
11
3.89698
21
-1.83623
0
LINE
8
BLACK
6
CONTINUOUS
10
3.89698
20
-1.83623
11
3.89698
21
-1.83623
0
LINE
8
BLACK
6
CONTINUOUS
10
3.89698
20
-1.83623
11
3.89697
21
-1.83637
0
LINE
8
BLACK
6
CONTINUOUS
10
3.89697
20
-1.83637
11
3.89691
21
-1.83656
0
LINE
8
BLACK
6
CONTINUOUS
10
3.89691
20
-1.83656
11
3.89682
21
-1.83673
0
LINE
8
BLACK
6
CONTINUOUS
10
3.89682
20
-1.83673
11
3.8967
21
-1.83688
0
LINE
8
BLACK
6
CONTINUOUS
10
3.8967
20
-1.83688
11
3.89655
21
-1.837
0
LINE
8
BLACK
6
CONTINUOUS
10
3.89655
20
-1.837
11
3.89638
21
-1.83709
0
LINE
8
BLACK
6
CONTINUOUS
10
3.89638
20
-1.83709
11
3.89619
21
-1.83715
0
LINE
8
BLACK
6
CONTINUOUS
10
3.89619
20
-1.83715
11
3.896
21
-1.83717
0
LINE
8
BLACK
6
CONTINUOUS
10
3.896
20
-1.83717
11
3.89595
21
-1.83716
0
LINE
8
BLACK
6
CONTINUOUS
10
3.89595
20
-1.83716
11
3.76613
21
-1.83716
0
LINE
8
BLACK
6
CONTINUOUS
10
3.76613
20
-1.83716
11
3.76608
21
-1.83717
0
LINE
8
BLACK
6
CONTINUOUS
10
3.76608
20
-1.83717
11
3.76589
21
-1.83715
0
LINE
8
BLACK
6
CONTINUOUS
10
3.76589
20
-1.83715
11
3.7657
21
-1.83709
0
LINE
8
BLACK
6
CONTINUOUS
10
3.7657
20
-1.83709
11
3.76553
21
-1.837
0
LINE
8
BLACK
6
CONTINUOUS
10
3.76553
20
-1.837
11
3.76538
21
-1.83688
0
LINE
8
BLACK
6
CONTINUOUS
10
3.76538
20
-1.83688
11
3.76526
21
-1.83673
0
LINE
8
BLACK
6
CONTINUOUS
10
3.76526
20
-1.83673
11
3.76516
21
-1.83656
0
LINE
8
BLACK
6
CONTINUOUS
10
3.76516
20
-1.83656
11
3.76511
21
-1.83637
0
LINE
8
BLACK
6
CONTINUOUS
10
3.76511
20
-1.83637
11
3.76509
21
-1.83618
0
LINE
8
BLACK
6
CONTINUOUS
10
3.76509
20
-1.83618
11
3.76509
21
-1.83613
0
LINE
8
BLACK
6
CONTINUOUS
10
3.76509
20
-1.83613
11
3.76509
21
-1.77875
0
LINE
8
BLACK
6
CONTINUOUS
10
3.76509
20
-1.77875
11
3.76509
21
-1.7787
0
LINE
8
BLACK
6
CONTINUOUS
10
3.76509
20
-1.7787
11
3.76511
21
-1.77851
0
LINE
8
BLACK
6
CONTINUOUS
10
3.76511
20
-1.77851
11
3.76516
21
-1.77832
0
LINE
8
BLACK
6
CONTINUOUS
10
3.76516
20
-1.77832
11
3.76526
21
-1.77815
0
LINE
8
BLACK
6
CONTINUOUS
10
3.76526
20
-1.77815
11
3.76538
21
-1.778
0
LINE
8
BLACK
6
CONTINUOUS
10
3.76538
20
-1.778
11
3.76553
21
-1.77788
0
LINE
8
BLACK
6
CONTINUOUS
10
3.76553
20
-1.77788
11
3.7657
21
-1.77779
0
LINE
8
BLACK
6
CONTINUOUS
10
3.7657
20
-1.77779
11
3.76589
21
-1.77773
0
LINE
8
BLACK
6
CONTINUOUS
10
3.76589
20
-1.77773
11
3.76603
21
-1.77772
0
LINE
8
BLACK
6
CONTINUOUS
10
3.76603
20
-1.77772
11
3.76603
21
-1.77772
0
LINE
8
BLACK
6
CONTINUOUS
10
3.76603
20
-1.77772
11
3.76608
21
-1.77771
0
LINE
8
BLACK
6
CONTINUOUS
10
3.76608
20
-1.77771
11
3.76613
21
-1.77772
0
LINE
8
BLACK
6
CONTINUOUS
10
3.76613
20
-1.77772
11
3.89595
21
-1.77772
0
LINE
8
BLACK
6
CONTINUOUS
10
3.89595
20
-1.77772
11
3.896
21
-1.77771
0
LINE
8
BLACK
6
CONTINUOUS
10
3.896
20
-1.77771
11
3.89605
21
-1.77772
0
LINE
8
BLACK
6
CONTINUOUS
10
3.76706
20
-1.77968
11
3.76706
21
-1.8352
0
LINE
8
BLACK
6
CONTINUOUS
10
3.76706
20
-1.8352
11
3.89502
21
-1.8352
0
LINE
8
BLACK
6
CONTINUOUS
10
3.89502
20
-1.8352
11
3.89502
21
-1.77968
0
LINE
8
BLACK
6
CONTINUOUS
10
3.89502
20
-1.77968
11
3.76706
21
-1.77968
0
LINE
8
BLACK
6
CONTINUOUS
10
4.69591
20
-1.37815
11
4.69606
21
-1.37816
0
LINE
8
BLACK
6
CONTINUOUS
10
4.69606
20
-1.37816
11
4.69624
21
-1.37822
0
LINE
8
BLACK
6
CONTINUOUS
10
4.69624
20
-1.37822
11
4.69642
21
-1.37831
0
LINE
8
BLACK
6
CONTINUOUS
10
4.69642
20
-1.37831
11
4.69657
21
-1.37843
0
LINE
8
BLACK
6
CONTINUOUS
10
4.69657
20
-1.37843
11
4.69669
21
-1.37858
0
LINE
8
BLACK
6
CONTINUOUS
10
4.69669
20
-1.37858
11
4.69678
21
-1.37876
0
LINE
8
BLACK
6
CONTINUOUS
10
4.69678
20
-1.37876
11
4.69684
21
-1.37894
0
LINE
8
BLACK
6
CONTINUOUS
10
4.69684
20
-1.37894
11
4.69686
21
-1.37913
0
LINE
8
BLACK
6
CONTINUOUS
10
4.69686
20
-1.37913
11
4.69685
21
-1.37918
0
LINE
8
BLACK
6
CONTINUOUS
10
4.69685
20
-1.37918
11
4.69685
21
-1.52082
0
LINE
8
BLACK
6
CONTINUOUS
10
4.69685
20
-1.52082
11
4.69686
21
-1.52087
0
LINE
8
BLACK
6
CONTINUOUS
10
4.69686
20
-1.52087
11
4.69684
21
-1.52106
0
LINE
8
BLACK
6
CONTINUOUS
10
4.69684
20
-1.52106
11
4.69678
21
-1.52124
0
LINE
8
BLACK
6
CONTINUOUS
10
4.69678
20
-1.52124
11
4.69669
21
-1.52142
0
LINE
8
BLACK
6
CONTINUOUS
10
4.69669
20
-1.52142
11
4.69657
21
-1.52157
0
LINE
8
BLACK
6
CONTINUOUS
10
4.69657
20
-1.52157
11
4.69642
21
-1.52169
0
LINE
8
BLACK
6
CONTINUOUS
10
4.69642
20
-1.52169
11
4.69624
21
-1.52178
0
LINE
8
BLACK
6
CONTINUOUS
10
4.69624
20
-1.52178
11
4.69606
21
-1.52184
0
LINE
8
BLACK
6
CONTINUOUS
10
4.69606
20
-1.52184
11
4.69591
21
-1.52185
0
LINE
8
BLACK
6
CONTINUOUS
10
4.69591
20
-1.52185
11
4.69591
21
-1.52185
0
LINE
8
BLACK
6
CONTINUOUS
10
4.69591
20
-1.52185
11
4.69587
21
-1.52186
0
LINE
8
BLACK
6
CONTINUOUS
10
4.69587
20
-1.52186
11
4.69582
21
-1.52185
0
LINE
8
BLACK
6
CONTINUOUS
10
4.69582
20
-1.52185
11
4.45379
21
-1.52185
0
LINE
8
BLACK
6
CONTINUOUS
10
4.45379
20
-1.52185
11
4.45374
21
-1.52186
0
LINE
8
BLACK
6
CONTINUOUS
10
4.45374
20
-1.52186
11
4.45369
21
-1.52185
0
LINE
8
BLACK
6
CONTINUOUS
10
4.45369
20
-1.52185
11
4.45369
21
-1.52185
0
LINE
8
BLACK
6
CONTINUOUS
10
4.45369
20
-1.52185
11
4.45355
21
-1.52184
0
LINE
8
BLACK
6
CONTINUOUS
10
4.45355
20
-1.52184
11
4.45336
21
-1.52178
0
LINE
8
BLACK
6
CONTINUOUS
10
4.45336
20
-1.52178
11
4.45319
21
-1.52169
0
LINE
8
BLACK
6
CONTINUOUS
10
4.45319
20
-1.52169
11
4.45304
21
-1.52157
0
LINE
8
BLACK
6
CONTINUOUS
10
4.45304
20
-1.52157
11
4.45292
21
-1.52142
0
LINE
8
BLACK
6
CONTINUOUS
10
4.45292
20
-1.52142
11
4.45283
21
-1.52124
0
LINE
8
BLACK
6
CONTINUOUS
10
4.45283
20
-1.52124
11
4.45277
21
-1.52106
0
LINE
8
BLACK
6
CONTINUOUS
10
4.45277
20
-1.52106
11
4.45275
21
-1.52087
0
LINE
8
BLACK
6
CONTINUOUS
10
4.45275
20
-1.52087
11
4.45276
21
-1.52082
0
LINE
8
BLACK
6
CONTINUOUS
10
4.45276
20
-1.52082
11
4.45276
21
-1.37918
0
LINE
8
BLACK
6
CONTINUOUS
10
4.45276
20
-1.37918
11
4.45275
21
-1.37913
0
LINE
8
BLACK
6
CONTINUOUS
10
4.45275
20
-1.37913
11
4.45277
21
-1.37894
0
LINE
8
BLACK
6
CONTINUOUS
10
4.45277
20
-1.37894
11
4.45283
21
-1.37876
0
LINE
8
BLACK
6
CONTINUOUS
10
4.45283
20
-1.37876
11
4.45292
21
-1.37858
0
LINE
8
BLACK
6
CONTINUOUS
10
4.45292
20
-1.37858
11
4.45304
21
-1.37843
0
LINE
8
BLACK
6
CONTINUOUS
10
4.45304
20
-1.37843
11
4.45319
21
-1.37831
0
LINE
8
BLACK
6
CONTINUOUS
10
4.45319
20
-1.37831
11
4.45336
21
-1.37822
0
LINE
8
BLACK
6
CONTINUOUS
10
4.45336
20
-1.37822
11
4.45355
21
-1.37816
0
LINE
8
BLACK
6
CONTINUOUS
10
4.45355
20
-1.37816
11
4.45369
21
-1.37815
0
LINE
8
BLACK
6
CONTINUOUS
10
4.45369
20
-1.37815
11
4.45374
21
-1.37814
0
LINE
8
BLACK
6
CONTINUOUS
10
4.45374
20
-1.37814
11
4.45379
21
-1.37815
0
LINE
8
BLACK
6
CONTINUOUS
10
4.45379
20
-1.37815
11
4.69582
21
-1.37815
0
LINE
8
BLACK
6
CONTINUOUS
10
4.69582
20
-1.37815
11
4.69587
21
-1.37814
0
LINE
8
BLACK
6
CONTINUOUS
10
4.69587
20
-1.37814
11
4.69591
21
-1.37815
0
LINE
8
BLACK
6
CONTINUOUS
10
4.45472
20
-1.38012
11
4.45472
21
-1.51988
0
LINE
8
BLACK
6
CONTINUOUS
10
4.45472
20
-1.51988
11
4.69488
21
-1.51988
0
LINE
8
BLACK
6
CONTINUOUS
10
4.69488
20
-1.51988
11
4.69488
21
-1.38012
0
LINE
8
BLACK
6
CONTINUOUS
10
4.69488
20
-1.38012
11
4.45472
21
-1.38012
0
LINE
8
BLACK
6
CONTINUOUS
10
3.17073
20
-1.37813
11
3.17087
21
-1.37814
0
LINE
8
BLACK
6
CONTINUOUS
10
3.17087
20
-1.37814
11
3.17106
21
-1.3782
0
LINE
8
BLACK
6
CONTINUOUS
10
3.17106
20
-1.3782
11
3.17123
21
-1.37829
0
LINE
8
BLACK
6
CONTINUOUS
10
3.17123
20
-1.37829
11
3.17138
21
-1.37841
0
LINE
8
BLACK
6
CONTINUOUS
10
3.17138
20
-1.37841
11
3.1715
21
-1.37856
0
LINE
8
BLACK
6
CONTINUOUS
10
3.1715
20
-1.37856
11
3.1716
21
-1.37873
0
LINE
8
BLACK
6
CONTINUOUS
10
3.1716
20
-1.37873
11
3.17165
21
-1.37892
0
LINE
8
BLACK
6
CONTINUOUS
10
3.17165
20
-1.37892
11
3.17167
21
-1.37911
0
LINE
8
BLACK
6
CONTINUOUS
10
3.17167
20
-1.37911
11
3.17167
21
-1.37916
0
LINE
8
BLACK
6
CONTINUOUS
10
3.17167
20
-1.37916
11
3.17167
21
-1.52079
0
LINE
8
BLACK
6
CONTINUOUS
10
3.17167
20
-1.52079
11
3.17167
21
-1.52084
0
LINE
8
BLACK
6
CONTINUOUS
10
3.17167
20
-1.52084
11
3.17165
21
-1.52103
0
LINE
8
BLACK
6
CONTINUOUS
10
3.17165
20
-1.52103
11
3.1716
21
-1.52122
0
LINE
8
BLACK
6
CONTINUOUS
10
3.1716
20
-1.52122
11
3.1715
21
-1.52139
0
LINE
8
BLACK
6
CONTINUOUS
10
3.1715
20
-1.52139
11
3.17138
21
-1.52154
0
LINE
8
BLACK
6
CONTINUOUS
10
3.17138
20
-1.52154
11
3.17123
21
-1.52166
0
LINE
8
BLACK
6
CONTINUOUS
10
3.17123
20
-1.52166
11
3.17106
21
-1.52176
0
LINE
8
BLACK
6
CONTINUOUS
10
3.17106
20
-1.52176
11
3.17087
21
-1.52181
0
LINE
8
BLACK
6
CONTINUOUS
10
3.17087
20
-1.52181
11
3.17073
21
-1.52183
0
LINE
8
BLACK
6
CONTINUOUS
10
3.17073
20
-1.52183
11
3.17073
21
-1.52183
0
LINE
8
BLACK
6
CONTINUOUS
10
3.17073
20
-1.52183
11
3.17068
21
-1.52183
0
LINE
8
BLACK
6
CONTINUOUS
10
3.17068
20
-1.52183
11
3.17063
21
-1.52183
0
LINE
8
BLACK
6
CONTINUOUS
10
3.17063
20
-1.52183
11
2.9286
21
-1.52183
0
LINE
8
BLACK
6
CONTINUOUS
10
2.9286
20
-1.52183
11
2.92856
21
-1.52183
0
LINE
8
BLACK
6
CONTINUOUS
10
2.92856
20
-1.52183
11
2.92851
21
-1.52183
0
LINE
8
BLACK
6
CONTINUOUS
10
2.92851
20
-1.52183
11
2.92851
21
-1.52183
0
LINE
8
BLACK
6
CONTINUOUS
10
2.92851
20
-1.52183
11
2.92836
21
-1.52181
0
LINE
8
BLACK
6
CONTINUOUS
10
2.92836
20
-1.52181
11
2.92818
21
-1.52176
0
LINE
8
BLACK
6
CONTINUOUS
10
2.92818
20
-1.52176
11
2.92801
21
-1.52166
0
LINE
8
BLACK
6
CONTINUOUS
10
2.92801
20
-1.52166
11
2.92786
21
-1.52154
0
LINE
8
BLACK
6
CONTINUOUS
10
2.92786
20
-1.52154
11
2.92773
21
-1.52139
0
LINE
8
BLACK
6
CONTINUOUS
10
2.92773
20
-1.52139
11
2.92764
21
-1.52122
0
LINE
8
BLACK
6
CONTINUOUS
10
2.92764
20
-1.52122
11
2.92759
21
-1.52103
0
LINE
8
BLACK
6
CONTINUOUS
10
2.92759
20
-1.52103
11
2.92757
21
-1.52084
0
LINE
8
BLACK
6
CONTINUOUS
10
2.92757
20
-1.52084
11
2.92757
21
-1.52079
0
LINE
8
BLACK
6
CONTINUOUS
10
2.92757
20
-1.52079
11
2.92757
21
-1.37916
0
LINE
8
BLACK
6
CONTINUOUS
10
2.92757
20
-1.37916
11
2.92757
21
-1.37911
0
LINE
8
BLACK
6
CONTINUOUS
10
2.92757
20
-1.37911
11
2.92759
21
-1.37892
0
LINE
8
BLACK
6
CONTINUOUS
10
2.92759
20
-1.37892
11
2.92764
21
-1.37873
0
LINE
8
BLACK
6
CONTINUOUS
10
2.92764
20
-1.37873
11
2.92773
21
-1.37856
0
LINE
8
BLACK
6
CONTINUOUS
10
2.92773
20
-1.37856
11
2.92786
21
-1.37841
0
LINE
8
BLACK
6
CONTINUOUS
10
2.92786
20
-1.37841
11
2.92801
21
-1.37829
0
LINE
8
BLACK
6
CONTINUOUS
10
2.92801
20
-1.37829
11
2.92818
21
-1.3782
0
LINE
8
BLACK
6
CONTINUOUS
10
2.92818
20
-1.3782
11
2.92836
21
-1.37814
0
LINE
8
BLACK
6
CONTINUOUS
10
2.92836
20
-1.37814
11
2.92851
21
-1.37813
0
LINE
8
BLACK
6
CONTINUOUS
10
2.92851
20
-1.37813
11
2.92856
21
-1.37812
0
LINE
8
BLACK
6
CONTINUOUS
10
2.92856
20
-1.37812
11
2.9286
21
-1.37813
0
LINE
8
BLACK
6
CONTINUOUS
10
2.9286
20
-1.37813
11
3.17063
21
-1.37813
0
LINE
8
BLACK
6
CONTINUOUS
10
3.17063
20
-1.37813
11
3.17068
21
-1.37812
0
LINE
8
BLACK
6
CONTINUOUS
10
3.17068
20
-1.37812
11
3.17073
21
-1.37813
0
LINE
8
BLACK
6
CONTINUOUS
10
2.92954
20
-1.38009
11
2.92954
21
-1.51986
0
LINE
8
BLACK
6
CONTINUOUS
10
2.92954
20
-1.51986
11
3.1697
21
-1.51986
0
LINE
8
BLACK
6
CONTINUOUS
10
3.1697
20
-1.51986
11
3.1697
21
-1.38009
0
LINE
8
BLACK
6
CONTINUOUS
10
3.1697
20
-1.38009
11
2.92954
21
-1.38009
0
LINE
8
BLACK
6
CONTINUOUS
10
4.24452
20
-1.37813
11
4.24467
21
-1.37814
0
LINE
8
BLACK
6
CONTINUOUS
10
4.24467
20
-1.37814
11
4.24485
21
-1.3782
0
LINE
8
BLACK
6
CONTINUOUS
10
4.24485
20
-1.3782
11
4.24503
21
-1.37829
0
LINE
8
BLACK
6
CONTINUOUS
10
4.24503
20
-1.37829
11
4.24518
21
-1.37841
0
LINE
8
BLACK
6
CONTINUOUS
10
4.24518
20
-1.37841
11
4.2453
21
-1.37856
0
LINE
8
BLACK
6
CONTINUOUS
10
4.2453
20
-1.37856
11
4.24539
21
-1.37873
0
LINE
8
BLACK
6
CONTINUOUS
10
4.24539
20
-1.37873
11
4.24545
21
-1.37892
0
LINE
8
BLACK
6
CONTINUOUS
10
4.24545
20
-1.37892
11
4.24547
21
-1.37911
0
LINE
8
BLACK
6
CONTINUOUS
10
4.24547
20
-1.37911
11
4.24546
21
-1.37916
0
LINE
8
BLACK
6
CONTINUOUS
10
4.24546
20
-1.37916
11
4.24546
21
-1.52079
0
LINE
8
BLACK
6
CONTINUOUS
10
4.24546
20
-1.52079
11
4.24547
21
-1.52084
0
LINE
8
BLACK
6
CONTINUOUS
10
4.24547
20
-1.52084
11
4.24545
21
-1.52103
0
LINE
8
BLACK
6
CONTINUOUS
10
4.24545
20
-1.52103
11
4.24539
21
-1.52122
0
LINE
8
BLACK
6
CONTINUOUS
10
4.24539
20
-1.52122
11
4.2453
21
-1.52139
0
LINE
8
BLACK
6
CONTINUOUS
10
4.2453
20
-1.52139
11
4.24518
21
-1.52154
0
LINE
8
BLACK
6
CONTINUOUS
10
4.24518
20
-1.52154
11
4.24503
21
-1.52166
0
LINE
8
BLACK
6
CONTINUOUS
10
4.24503
20
-1.52166
11
4.24485
21
-1.52176
0
LINE
8
BLACK
6
CONTINUOUS
10
4.24485
20
-1.52176
11
4.24467
21
-1.52181
0
LINE
8
BLACK
6
CONTINUOUS
10
4.24467
20
-1.52181
11
4.24452
21
-1.52183
0
LINE
8
BLACK
6
CONTINUOUS
10
4.24452
20
-1.52183
11
4.24452
21
-1.52183
0
LINE
8
BLACK
6
CONTINUOUS
10
4.24452
20
-1.52183
11
4.24448
21
-1.52183
0
LINE
8
BLACK
6
CONTINUOUS
10
4.24448
20
-1.52183
11
4.24443
21
-1.52183
0
LINE
8
BLACK
6
CONTINUOUS
10
4.24443
20
-1.52183
11
3.40397
21
-1.52183
0
LINE
8
BLACK
6
CONTINUOUS
10
3.40397
20
-1.52183
11
3.40393
21
-1.52183
0
LINE
8
BLACK
6
CONTINUOUS
10
3.40393
20
-1.52183
11
3.40388
21
-1.52183
0
LINE
8
BLACK
6
CONTINUOUS
10
3.40388
20
-1.52183
11
3.40388
21
-1.52183
0
LINE
8
BLACK
6
CONTINUOUS
10
3.40388
20
-1.52183
11
3.40373
21
-1.52181
0
LINE
8
BLACK
6
CONTINUOUS
10
3.40373
20
-1.52181
11
3.40355
21
-1.52176
0
LINE
8
BLACK
6
CONTINUOUS
10
3.40355
20
-1.52176
11
3.40338
21
-1.52166
0
LINE
8
BLACK
6
CONTINUOUS
10
3.40338
20
-1.52166
11
3.40323
21
-1.52154
0
LINE
8
BLACK
6
CONTINUOUS
10
3.40323
20
-1.52154
11
3.4031
21
-1.52139
0
LINE
8
BLACK
6
CONTINUOUS
10
3.4031
20
-1.52139
11
3.40301
21
-1.52122
0
LINE
8
BLACK
6
CONTINUOUS
10
3.40301
20
-1.52122
11
3.40296
21
-1.52103
0
LINE
8
BLACK
6
CONTINUOUS
10
3.40296
20
-1.52103
11
3.40294
21
-1.52084
0
LINE
8
BLACK
6
CONTINUOUS
10
3.40294
20
-1.52084
11
3.40294
21
-1.52079
0
LINE
8
BLACK
6
CONTINUOUS
10
3.40294
20
-1.52079
11
3.40294
21
-1.37916
0
LINE
8
BLACK
6
CONTINUOUS
10
3.40294
20
-1.37916
11
3.40294
21
-1.37911
0
LINE
8
BLACK
6
CONTINUOUS
10
3.40294
20
-1.37911
11
3.40296
21
-1.37892
0
LINE
8
BLACK
6
CONTINUOUS
10
3.40296
20
-1.37892
11
3.40301
21
-1.37873
0
LINE
8
BLACK
6
CONTINUOUS
10
3.40301
20
-1.37873
11
3.4031
21
-1.37856
0
LINE
8
BLACK
6
CONTINUOUS
10
3.4031
20
-1.37856
11
3.40323
21
-1.37841
0
LINE
8
BLACK
6
CONTINUOUS
10
3.40323
20
-1.37841
11
3.40338
21
-1.37829
0
LINE
8
BLACK
6
CONTINUOUS
10
3.40338
20
-1.37829
11
3.40355
21
-1.3782
0
LINE
8
BLACK
6
CONTINUOUS
10
3.40355
20
-1.3782
11
3.40373
21
-1.37814
0
LINE
8
BLACK
6
CONTINUOUS
10
3.40373
20
-1.37814
11
3.40388
21
-1.37813
0
LINE
8
BLACK
6
CONTINUOUS
10
3.40388
20
-1.37813
11
3.40393
21
-1.37812
0
LINE
8
BLACK
6
CONTINUOUS
10
3.40393
20
-1.37812
11
3.40397
21
-1.37813
0
LINE
8
BLACK
6
CONTINUOUS
10
3.40397
20
-1.37813
11
4.24443
21
-1.37813
0
LINE
8
BLACK
6
CONTINUOUS
10
4.24443
20
-1.37813
11
4.24448
21
-1.37812
0
LINE
8
BLACK
6
CONTINUOUS
10
4.24448
20
-1.37812
11
4.24452
21
-1.37813
0
LINE
8
BLACK
6
CONTINUOUS
10
3.40491
20
-1.38009
11
3.40491
21
-1.51986
0
LINE
8
BLACK
6
CONTINUOUS
10
3.40491
20
-1.51986
11
4.24349
21
-1.51986
0
LINE
8
BLACK
6
CONTINUOUS
10
4.24349
20
-1.51986
11
4.24349
21
-1.38009
0
LINE
8
BLACK
6
CONTINUOUS
10
4.24349
20
-1.38009
11
3.40491
21
-1.38009
0
LINE
8
BLACK
6
CONTINUOUS
10
4.781
20
-4.14649
11
4.78837
21
-4.1287
0
LINE
8
BLACK
6
CONTINUOUS
10
4.78837
20
-4.1287
11
4.79907
21
-4.11268
0
LINE
8
BLACK
6
CONTINUOUS
10
4.79907
20
-4.11268
11
4.81268
21
-4.09907
0
LINE
8
BLACK
6
CONTINUOUS
10
4.81268
20
-4.09907
11
4.8287
21
-4.08837
0
LINE
8
BLACK
6
CONTINUOUS
10
4.8287
20
-4.08837
11
4.84649
21
-4.081
0
LINE
8
BLACK
6
CONTINUOUS
10
4.84649
20
-4.081
11
4.86537
21
-4.07724
0
LINE
8
BLACK
6
CONTINUOUS
10
4.86537
20
-4.07724
11
4.88463
21
-4.07724
0
LINE
8
BLACK
6
CONTINUOUS
10
4.88463
20
-4.07724
11
4.90351
21
-4.081
0
LINE
8
BLACK
6
CONTINUOUS
10
4.90351
20
-4.081
11
4.9213
21
-4.08837
0
LINE
8
BLACK
6
CONTINUOUS
10
4.9213
20
-4.08837
11
4.93732
21
-4.09907
0
LINE
8
BLACK
6
CONTINUOUS
10
4.93732
20
-4.09907
11
4.95093
21
-4.11268
0
LINE
8
BLACK
6
CONTINUOUS
10
4.95093
20
-4.11268
11
4.96163
21
-4.1287
0
LINE
8
BLACK
6
CONTINUOUS
10
4.96163
20
-4.1287
11
4.969
21
-4.14649
0
LINE
8
BLACK
6
CONTINUOUS
10
4.969
20
-4.14649
11
4.97276
21
-4.16537
0
LINE
8
BLACK
6
CONTINUOUS
10
4.97276
20
-4.16537
11
4.97276
21
-4.18463
0
LINE
8
BLACK
6
CONTINUOUS
10
4.97276
20
-4.18463
11
4.969
21
-4.20351
0
LINE
8
BLACK
6
CONTINUOUS
10
4.969
20
-4.20351
11
4.96163
21
-4.2213
0
LINE
8
BLACK
6
CONTINUOUS
10
4.96163
20
-4.2213
11
4.95093
21
-4.23732
0
LINE
8
BLACK
6
CONTINUOUS
10
4.95093
20
-4.23732
11
4.93732
21
-4.25093
0
LINE
8
BLACK
6
CONTINUOUS
10
4.93732
20
-4.25093
11
4.9213
21
-4.26163
0
LINE
8
BLACK
6
CONTINUOUS
10
4.9213
20
-4.26163
11
4.90351
21
-4.269
0
LINE
8
BLACK
6
CONTINUOUS
10
4.90351
20
-4.269
11
4.88463
21
-4.27276
0
LINE
8
BLACK
6
CONTINUOUS
10
4.88463
20
-4.27276
11
4.86537
21
-4.27276
0
LINE
8
BLACK
6
CONTINUOUS
10
4.86537
20
-4.27276
11
4.84649
21
-4.269
0
LINE
8
BLACK
6
CONTINUOUS
10
4.84649
20
-4.269
11
4.8287
21
-4.26163
0
LINE
8
BLACK
6
CONTINUOUS
10
4.8287
20
-4.26163
11
4.81268
21
-4.25093
0
LINE
8
BLACK
6
CONTINUOUS
10
4.81268
20
-4.25093
11
4.79907
21
-4.23732
0
LINE
8
BLACK
6
CONTINUOUS
10
4.79907
20
-4.23732
11
4.78837
21
-4.2213
0
LINE
8
BLACK
6
CONTINUOUS
10
4.78837
20
-4.2213
11
4.781
21
-4.20351
0
LINE
8
BLACK
6
CONTINUOUS
10
4.781
20
-4.20351
11
4.77724
21
-4.18463
0
LINE
8
BLACK
6
CONTINUOUS
10
4.77724
20
-4.18463
11
4.77724
21
-4.16537
0
LINE
8
BLACK
6
CONTINUOUS
10
4.77724
20
-4.16537
11
4.781
21
-4.14649
0
LINE
8
BLACK
6
CONTINUOUS
10
4.78364
20
-4.20271
11
4.7908
21
-4.22001
0
LINE
8
BLACK
6
CONTINUOUS
10
4.7908
20
-4.22001
11
4.8012
21
-4.23557
0
LINE
8
BLACK
6
CONTINUOUS
10
4.8012
20
-4.23557
11
4.81443
21
-4.2488
0
LINE
8
BLACK
6
CONTINUOUS
10
4.81443
20
-4.2488
11
4.82999
21
-4.2592
0
LINE
8
BLACK
6
CONTINUOUS
10
4.82999
20
-4.2592
11
4.84729
21
-4.26636
0
LINE
8
BLACK
6
CONTINUOUS
10
4.84729
20
-4.26636
11
4.86564
21
-4.27001
0
LINE
8
BLACK
6
CONTINUOUS
10
4.86564
20
-4.27001
11
4.88436
21
-4.27001
0
LINE
8
BLACK
6
CONTINUOUS
10
4.88436
20
-4.27001
11
4.90271
21
-4.26636
0
LINE
8
BLACK
6
CONTINUOUS
10
4.90271
20
-4.26636
11
4.92001
21
-4.2592
0
LINE
8
BLACK
6
CONTINUOUS
10
4.92001
20
-4.2592
11
4.93557
21
-4.2488
0
LINE
8
BLACK
6
CONTINUOUS
10
4.93557
20
-4.2488
11
4.9488
21
-4.23557
0
LINE
8
BLACK
6
CONTINUOUS
10
4.9488
20
-4.23557
11
4.9592
21
-4.22001
0
LINE
8
BLACK
6
CONTINUOUS
10
4.9592
20
-4.22001
11
4.96636
21
-4.20271
0
LINE
8
BLACK
6
CONTINUOUS
10
4.96636
20
-4.20271
11
4.97001
21
-4.18436
0
LINE
8
BLACK
6
CONTINUOUS
10
4.97001
20
-4.18436
11
4.97001
21
-4.16564
0
LINE
8
BLACK
6
CONTINUOUS
10
4.97001
20
-4.16564
11
4.96636
21
-4.14729
0
LINE
8
BLACK
6
CONTINUOUS
10
4.96636
20
-4.14729
11
4.9592
21
-4.12999
0
LINE
8
BLACK
6
CONTINUOUS
10
4.9592
20
-4.12999
11
4.9488
21
-4.11443
0
LINE
8
BLACK
6
CONTINUOUS
10
4.9488
20
-4.11443
11
4.93557
21
-4.1012
0
LINE
8
BLACK
6
CONTINUOUS
10
4.93557
20
-4.1012
11
4.92001
21
-4.0908
0
LINE
8
BLACK
6
CONTINUOUS
10
4.92001
20
-4.0908
11
4.90271
21
-4.08364
0
LINE
8
BLACK
6
CONTINUOUS
10
4.90271
20
-4.08364
11
4.88436
21
-4.07999
0
LINE
8
BLACK
6
CONTINUOUS
10
4.88436
20
-4.07999
11
4.86564
21
-4.07999
0
LINE
8
BLACK
6
CONTINUOUS
10
4.86564
20
-4.07999
11
4.84729
21
-4.08364
0
LINE
8
BLACK
6
CONTINUOUS
10
4.84729
20
-4.08364
11
4.82999
21
-4.0908
0
LINE
8
BLACK
6
CONTINUOUS
10
4.82999
20
-4.0908
11
4.81443
21
-4.1012
0
LINE
8
BLACK
6
CONTINUOUS
10
4.81443
20
-4.1012
11
4.8012
21
-4.11443
0
LINE
8
BLACK
6
CONTINUOUS
10
4.8012
20
-4.11443
11
4.7908
21
-4.12999
0
LINE
8
BLACK
6
CONTINUOUS
10
4.7908
20
-4.12999
11
4.78364
21
-4.14729
0
LINE
8
BLACK
6
CONTINUOUS
10
4.78364
20
-4.14729
11
4.77999
21
-4.16564
0
LINE
8
BLACK
6
CONTINUOUS
10
4.77999
20
-4.16564
11
4.77999
21
-4.18436
0
LINE
8
BLACK
6
CONTINUOUS
10
4.77999
20
-4.18436
11
4.78364
21
-4.20271
0
LINE
8
BLACK
6
CONTINUOUS
10
1.956
20
-4.14649
11
1.96337
21
-4.1287
0
LINE
8
BLACK
6
CONTINUOUS
10
1.96337
20
-4.1287
11
1.97407
21
-4.11268
0
LINE
8
BLACK
6
CONTINUOUS
10
1.97407
20
-4.11268
11
1.98768
21
-4.09907
0
LINE
8
BLACK
6
CONTINUOUS
10
1.98768
20
-4.09907
11
2.0037
21
-4.08837
0
LINE
8
BLACK
6
CONTINUOUS
10
2.0037
20
-4.08837
11
2.02149
21
-4.081
0
LINE
8
BLACK
6
CONTINUOUS
10
2.02149
20
-4.081
11
2.04037
21
-4.07724
0
LINE
8
BLACK
6
CONTINUOUS
10
2.04037
20
-4.07724
11
2.05963
21
-4.07724
0
LINE
8
BLACK
6
CONTINUOUS
10
2.05963
20
-4.07724
11
2.07851
21
-4.081
0
LINE
8
BLACK
6
CONTINUOUS
10
2.07851
20
-4.081
11
2.0963
21
-4.08837
0
LINE
8
BLACK
6
CONTINUOUS
10
2.0963
20
-4.08837
11
2.11232
21
-4.09907
0
LINE
8
BLACK
6
CONTINUOUS
10
2.11232
20
-4.09907
11
2.12593
21
-4.11268
0
LINE
8
BLACK
6
CONTINUOUS
10
2.12593
20
-4.11268
11
2.13663
21
-4.1287
0
LINE
8
BLACK
6
CONTINUOUS
10
2.13663
20
-4.1287
11
2.144
21
-4.14649
0
LINE
8
BLACK
6
CONTINUOUS
10
2.144
20
-4.14649
11
2.14776
21
-4.16537
0
LINE
8
BLACK
6
CONTINUOUS
10
2.14776
20
-4.16537
11
2.14776
21
-4.18463
0
LINE
8
BLACK
6
CONTINUOUS
10
2.14776
20
-4.18463
11
2.144
21
-4.20351
0
LINE
8
BLACK
6
CONTINUOUS
10
2.144
20
-4.20351
11
2.13663
21
-4.2213
0
LINE
8
BLACK
6
CONTINUOUS
10
2.13663
20
-4.2213
11
2.12593
21
-4.23732
0
LINE
8
BLACK
6
CONTINUOUS
10
2.12593
20
-4.23732
11
2.11232
21
-4.25093
0
LINE
8
BLACK
6
CONTINUOUS
10
2.11232
20
-4.25093
11
2.0963
21
-4.26163
0
LINE
8
BLACK
6
CONTINUOUS
10
2.0963
20
-4.26163
11
2.07851
21
-4.269
0
LINE
8
BLACK
6
CONTINUOUS
10
2.07851
20
-4.269
11
2.05963
21
-4.27276
0
LINE
8
BLACK
6
CONTINUOUS
10
2.05963
20
-4.27276
11
2.04037
21
-4.27276
0
LINE
8
BLACK
6
CONTINUOUS
10
2.04037
20
-4.27276
11
2.02149
21
-4.269
0
LINE
8
BLACK
6
CONTINUOUS
10
2.02149
20
-4.269
11
2.0037
21
-4.26163
0
LINE
8
BLACK
6
CONTINUOUS
10
2.0037
20
-4.26163
11
1.98768
21
-4.25093
0
LINE
8
BLACK
6
CONTINUOUS
10
1.98768
20
-4.25093
11
1.97407
21
-4.23732
0
LINE
8
BLACK
6
CONTINUOUS
10
1.97407
20
-4.23732
11
1.96337
21
-4.2213
0
LINE
8
BLACK
6
CONTINUOUS
10
1.96337
20
-4.2213
11
1.956
21
-4.20351
0
LINE
8
BLACK
6
CONTINUOUS
10
1.956
20
-4.20351
11
1.95224
21
-4.18463
0
LINE
8
BLACK
6
CONTINUOUS
10
1.95224
20
-4.18463
11
1.95224
21
-4.16537
0
LINE
8
BLACK
6
CONTINUOUS
10
1.95224
20
-4.16537
11
1.956
21
-4.14649
0
LINE
8
BLACK
6
CONTINUOUS
10
1.95864
20
-4.20271
11
1.9658
21
-4.22001
0
LINE
8
BLACK
6
CONTINUOUS
10
1.9658
20
-4.22001
11
1.9762
21
-4.23557
0
LINE
8
BLACK
6
CONTINUOUS
10
1.9762
20
-4.23557
11
1.98943
21
-4.2488
0
LINE
8
BLACK
6
CONTINUOUS
10
1.98943
20
-4.2488
11
2.00499
21
-4.2592
0
LINE
8
BLACK
6
CONTINUOUS
10
2.00499
20
-4.2592
11
2.02229
21
-4.26636
0
LINE
8
BLACK
6
CONTINUOUS
10
2.02229
20
-4.26636
11
2.04064
21
-4.27001
0
LINE
8
BLACK
6
CONTINUOUS
10
2.04064
20
-4.27001
11
2.05936
21
-4.27001
0
LINE
8
BLACK
6
CONTINUOUS
10
2.05936
20
-4.27001
11
2.07771
21
-4.26636
0
LINE
8
BLACK
6
CONTINUOUS
10
2.07771
20
-4.26636
11
2.09501
21
-4.2592
0
LINE
8
BLACK
6
CONTINUOUS
10
2.09501
20
-4.2592
11
2.11057
21
-4.2488
0
LINE
8
BLACK
6
CONTINUOUS
10
2.11057
20
-4.2488
11
2.1238
21
-4.23557
0
LINE
8
BLACK
6
CONTINUOUS
10
2.1238
20
-4.23557
11
2.1342
21
-4.22001
0
LINE
8
BLACK
6
CONTINUOUS
10
2.1342
20
-4.22001
11
2.14136
21
-4.20271
0
LINE
8
BLACK
6
CONTINUOUS
10
2.14136
20
-4.20271
11
2.14501
21
-4.18436
0
LINE
8
BLACK
6
CONTINUOUS
10
2.14501
20
-4.18436
11
2.14501
21
-4.16564
0
LINE
8
BLACK
6
CONTINUOUS
10
2.14501
20
-4.16564
11
2.14136
21
-4.14729
0
LINE
8
BLACK
6
CONTINUOUS
10
2.14136
20
-4.14729
11
2.1342
21
-4.12999
0
LINE
8
BLACK
6
CONTINUOUS
10
2.1342
20
-4.12999
11
2.1238
21
-4.11443
0
LINE
8
BLACK
6
CONTINUOUS
10
2.1238
20
-4.11443
11
2.11057
21
-4.1012
0
LINE
8
BLACK
6
CONTINUOUS
10
2.11057
20
-4.1012
11
2.09501
21
-4.0908
0
LINE
8
BLACK
6
CONTINUOUS
10
2.09501
20
-4.0908
11
2.07771
21
-4.08364
0
LINE
8
BLACK
6
CONTINUOUS
10
2.07771
20
-4.08364
11
2.05936
21
-4.07999
0
LINE
8
BLACK
6
CONTINUOUS
10
2.05936
20
-4.07999
11
2.04064
21
-4.07999
0
LINE
8
BLACK
6
CONTINUOUS
10
2.04064
20
-4.07999
11
2.02229
21
-4.08364
0
LINE
8
BLACK
6
CONTINUOUS
10
2.02229
20
-4.08364
11
2.00499
21
-4.0908
0
LINE
8
BLACK
6
CONTINUOUS
10
2.00499
20
-4.0908
11
1.98943
21
-4.1012
0
LINE
8
BLACK
6
CONTINUOUS
10
1.98943
20
-4.1012
11
1.9762
21
-4.11443
0
LINE
8
BLACK
6
CONTINUOUS
10
1.9762
20
-4.11443
11
1.9658
21
-4.12999
0
LINE
8
BLACK
6
CONTINUOUS
10
1.9658
20
-4.12999
11
1.95864
21
-4.14729
0
LINE
8
BLACK
6
CONTINUOUS
10
1.95864
20
-4.14729
11
1.95499
21
-4.16564
0
LINE
8
BLACK
6
CONTINUOUS
10
1.95499
20
-4.16564
11
1.95499
21
-4.18436
0
LINE
8
BLACK
6
CONTINUOUS
10
1.95499
20
-4.18436
11
1.95864
21
-4.20271
0
LINE
8
BLACK
6
CONTINUOUS
10
5.231
20
-3.07149
11
5.23837
21
-3.0537
0
LINE
8
BLACK
6
CONTINUOUS
10
5.23837
20
-3.0537
11
5.24907
21
-3.03768
0
LINE
8
BLACK
6
CONTINUOUS
10
5.24907
20
-3.03768
11
5.26268
21
-3.02407
0
LINE
8
BLACK
6
CONTINUOUS
10
5.26268
20
-3.02407
11
5.2787
21
-3.01337
0
LINE
8
BLACK
6
CONTINUOUS
10
5.2787
20
-3.01337
11
5.29649
21
-3.006
0
LINE
8
BLACK
6
CONTINUOUS
10
5.29649
20
-3.006
11
5.31537
21
-3.00224
0
LINE
8
BLACK
6
CONTINUOUS
10
5.31537
20
-3.00224
11
5.33463
21
-3.00224
0
LINE
8
BLACK
6
CONTINUOUS
10
5.33463
20
-3.00224
11
5.35351
21
-3.006
0
LINE
8
BLACK
6
CONTINUOUS
10
5.35351
20
-3.006
11
5.3713
21
-3.01337
0
LINE
8
BLACK
6
CONTINUOUS
10
5.3713
20
-3.01337
11
5.38732
21
-3.02407
0
LINE
8
BLACK
6
CONTINUOUS
10
5.38732
20
-3.02407
11
5.40093
21
-3.03768
0
LINE
8
BLACK
6
CONTINUOUS
10
5.40093
20
-3.03768
11
5.41163
21
-3.0537
0
LINE
8
BLACK
6
CONTINUOUS
10
5.41163
20
-3.0537
11
5.419
21
-3.07149
0
LINE
8
BLACK
6
CONTINUOUS
10
5.419
20
-3.07149
11
5.42276
21
-3.09037
0
LINE
8
BLACK
6
CONTINUOUS
10
5.42276
20
-3.09037
11
5.42276
21
-3.10963
0
LINE
8
BLACK
6
CONTINUOUS
10
5.42276
20
-3.10963
11
5.419
21
-3.12851
0
LINE
8
BLACK
6
CONTINUOUS
10
5.419
20
-3.12851
11
5.41163
21
-3.1463
0
LINE
8
BLACK
6
CONTINUOUS
10
5.41163
20
-3.1463
11
5.40093
21
-3.16232
0
LINE
8
BLACK
6
CONTINUOUS
10
5.40093
20
-3.16232
11
5.38732
21
-3.17593
0
LINE
8
BLACK
6
CONTINUOUS
10
5.38732
20
-3.17593
11
5.3713
21
-3.18663
0
LINE
8
BLACK
6
CONTINUOUS
10
5.3713
20
-3.18663
11
5.35351
21
-3.194
0
LINE
8
BLACK
6
CONTINUOUS
10
5.35351
20
-3.194
11
5.33463
21
-3.19776
0
LINE
8
BLACK
6
CONTINUOUS
10
5.33463
20
-3.19776
11
5.31537
21
-3.19776
0
LINE
8
BLACK
6
CONTINUOUS
10
5.31537
20
-3.19776
11
5.29649
21
-3.194
0
LINE
8
BLACK
6
CONTINUOUS
10
5.29649
20
-3.194
11
5.2787
21
-3.18663
0
LINE
8
BLACK
6
CONTINUOUS
10
5.2787
20
-3.18663
11
5.26268
21
-3.17593
0
LINE
8
BLACK
6
CONTINUOUS
10
5.26268
20
-3.17593
11
5.24907
21
-3.16232
0
LINE
8
BLACK
6
CONTINUOUS
10
5.24907
20
-3.16232
11
5.23837
21
-3.1463
0
LINE
8
BLACK
6
CONTINUOUS
10
5.23837
20
-3.1463
11
5.231
21
-3.12851
0
LINE
8
BLACK
6
CONTINUOUS
10
5.231
20
-3.12851
11
5.22724
21
-3.10963
0
LINE
8
BLACK
6
CONTINUOUS
10
5.22724
20
-3.10963
11
5.22724
21
-3.09037
0
LINE
8
BLACK
6
CONTINUOUS
10
5.22724
20
-3.09037
11
5.231
21
-3.07149
0
LINE
8
BLACK
6
CONTINUOUS
10
5.23364
20
-3.12771
11
5.2408
21
-3.14501
0
LINE
8
BLACK
6
CONTINUOUS
10
5.2408
20
-3.14501
11
5.2512
21
-3.16057
0
LINE
8
BLACK
6
CONTINUOUS
10
5.2512
20
-3.16057
11
5.26443
21
-3.1738
0
LINE
8
BLACK
6
CONTINUOUS
10
5.26443
20
-3.1738
11
5.27999
21
-3.1842
0
LINE
8
BLACK
6
CONTINUOUS
10
5.27999
20
-3.1842
11
5.29729
21
-3.19136
0
LINE
8
BLACK
6
CONTINUOUS
10
5.29729
20
-3.19136
11
5.31564
21
-3.19501
0
LINE
8
BLACK
6
CONTINUOUS
10
5.31564
20
-3.19501
11
5.33436
21
-3.19501
0
LINE
8
BLACK
6
CONTINUOUS
10
5.33436
20
-3.19501
11
5.35271
21
-3.19136
0
LINE
8
BLACK
6
CONTINUOUS
10
5.35271
20
-3.19136
11
5.37001
21
-3.1842
0
LINE
8
BLACK
6
CONTINUOUS
10
5.37001
20
-3.1842
11
5.38557
21
-3.1738
0
LINE
8
BLACK
6
CONTINUOUS
10
5.38557
20
-3.1738
11
5.3988
21
-3.16057
0
LINE
8
BLACK
6
CONTINUOUS
10
5.3988
20
-3.16057
11
5.4092
21
-3.14501
0
LINE
8
BLACK
6
CONTINUOUS
10
5.4092
20
-3.14501
11
5.41636
21
-3.12771
0
LINE
8
BLACK
6
CONTINUOUS
10
5.41636
20
-3.12771
11
5.42001
21
-3.10936
0
LINE
8
BLACK
6
CONTINUOUS
10
5.42001
20
-3.10936
11
5.42001
21
-3.09064
0
LINE
8
BLACK
6
CONTINUOUS
10
5.42001
20
-3.09064
11
5.41636
21
-3.07229
0
LINE
8
BLACK
6
CONTINUOUS
10
5.41636
20
-3.07229
11
5.4092
21
-3.05499
0
LINE
8
BLACK
6
CONTINUOUS
10
5.4092
20
-3.05499
11
5.3988
21
-3.03943
0
LINE
8
BLACK
6
CONTINUOUS
10
5.3988
20
-3.03943
11
5.38557
21
-3.0262
0
LINE
8
BLACK
6
CONTINUOUS
10
5.38557
20
-3.0262
11
5.37001
21
-3.0158
0
LINE
8
BLACK
6
CONTINUOUS
10
5.37001
20
-3.0158
11
5.35271
21
-3.00864
0
LINE
8
BLACK
6
CONTINUOUS
10
5.35271
20
-3.00864
11
5.33436
21
-3.00499
0
LINE
8
BLACK
6
CONTINUOUS
10
5.33436
20
-3.00499
11
5.31564
21
-3.00499
0
LINE
8
BLACK
6
CONTINUOUS
10
5.31564
20
-3.00499
11
5.29729
21
-3.00864
0
LINE
8
BLACK
6
CONTINUOUS
10
5.29729
20
-3.00864
11
5.27999
21
-3.0158
0
LINE
8
BLACK
6
CONTINUOUS
10
5.27999
20
-3.0158
11
5.26443
21
-3.0262
0
LINE
8
BLACK
6
CONTINUOUS
10
5.26443
20
-3.0262
11
5.2512
21
-3.03943
0
LINE
8
BLACK
6
CONTINUOUS
10
5.2512
20
-3.03943
11
5.2408
21
-3.05499
0
LINE
8
BLACK
6
CONTINUOUS
10
5.2408
20
-3.05499
11
5.23364
21
-3.07229
0
LINE
8
BLACK
6
CONTINUOUS
10
5.23364
20
-3.07229
11
5.22999
21
-3.09064
0
LINE
8
BLACK
6
CONTINUOUS
10
5.22999
20
-3.09064
11
5.22999
21
-3.10936
0
LINE
8
BLACK
6
CONTINUOUS
10
5.22999
20
-3.10936
11
5.23364
21
-3.12771
0
LINE
8
BLACK
6
CONTINUOUS
10
1.181
20
-1.87149
11
1.18837
21
-1.8537
0
LINE
8
BLACK
6
CONTINUOUS
10
1.18837
20
-1.8537
11
1.19907
21
-1.83768
0
LINE
8
BLACK
6
CONTINUOUS
10
1.19907
20
-1.83768
11
1.21268
21
-1.82407
0
LINE
8
BLACK
6
CONTINUOUS
10
1.21268
20
-1.82407
11
1.2287
21
-1.81337
0
LINE
8
BLACK
6
CONTINUOUS
10
1.2287
20
-1.81337
11
1.24649
21
-1.806
0
LINE
8
BLACK
6
CONTINUOUS
10
1.24649
20
-1.806
11
1.26537
21
-1.80224
0
LINE
8
BLACK
6
CONTINUOUS
10
1.26537
20
-1.80224
11
1.28463
21
-1.80224
0
LINE
8
BLACK
6
CONTINUOUS
10
1.28463
20
-1.80224
11
1.30351
21
-1.806
0
LINE
8
BLACK
6
CONTINUOUS
10
1.30351
20
-1.806
11
1.3213
21
-1.81337
0
LINE
8
BLACK
6
CONTINUOUS
10
1.3213
20
-1.81337
11
1.33732
21
-1.82407
0
LINE
8
BLACK
6
CONTINUOUS
10
1.33732
20
-1.82407
11
1.35093
21
-1.83768
0
LINE
8
BLACK
6
CONTINUOUS
10
1.35093
20
-1.83768
11
1.36163
21
-1.8537
0
LINE
8
BLACK
6
CONTINUOUS
10
1.36163
20
-1.8537
11
1.369
21
-1.87149
0
LINE
8
BLACK
6
CONTINUOUS
10
1.369
20
-1.87149
11
1.37276
21
-1.89037
0
LINE
8
BLACK
6
CONTINUOUS
10
1.37276
20
-1.89037
11
1.37276
21
-1.90963
0
LINE
8
BLACK
6
CONTINUOUS
10
1.37276
20
-1.90963
11
1.369
21
-1.92851
0
LINE
8
BLACK
6
CONTINUOUS
10
1.369
20
-1.92851
11
1.36163
21
-1.9463
0
LINE
8
BLACK
6
CONTINUOUS
10
1.36163
20
-1.9463
11
1.35093
21
-1.96232
0
LINE
8
BLACK
6
CONTINUOUS
10
1.35093
20
-1.96232
11
1.33732
21
-1.97593
0
LINE
8
BLACK
6
CONTINUOUS
10
1.33732
20
-1.97593
11
1.3213
21
-1.98663
0
LINE
8
BLACK
6
CONTINUOUS
10
1.3213
20
-1.98663
11
1.30351
21
-1.994
0
LINE
8
BLACK
6
CONTINUOUS
10
1.30351
20
-1.994
11
1.28463
21
-1.99776
0
LINE
8
BLACK
6
CONTINUOUS
10
1.28463
20
-1.99776
11
1.26537
21
-1.99776
0
LINE
8
BLACK
6
CONTINUOUS
10
1.26537
20
-1.99776
11
1.24649
21
-1.994
0
LINE
8
BLACK
6
CONTINUOUS
10
1.24649
20
-1.994
11
1.2287
21
-1.98663
0
LINE
8
BLACK
6
CONTINUOUS
10
1.2287
20
-1.98663
11
1.21268
21
-1.97593
0
LINE
8
BLACK
6
CONTINUOUS
10
1.21268
20
-1.97593
11
1.19907
21
-1.96232
0
LINE
8
BLACK
6
CONTINUOUS
10
1.19907
20
-1.96232
11
1.18837
21
-1.9463
0
LINE
8
BLACK
6
CONTINUOUS
10
1.18837
20
-1.9463
11
1.181
21
-1.92851
0
LINE
8
BLACK
6
CONTINUOUS
10
1.181
20
-1.92851
11
1.17724
21
-1.90963
0
LINE
8
BLACK
6
CONTINUOUS
10
1.17724
20
-1.90963
11
1.17724
21
-1.89037
0
LINE
8
BLACK
6
CONTINUOUS
10
1.17724
20
-1.89037
11
1.181
21
-1.87149
0
LINE
8
BLACK
6
CONTINUOUS
10
1.18364
20
-1.92771
11
1.1908
21
-1.94501
0
LINE
8
BLACK
6
CONTINUOUS
10
1.1908
20
-1.94501
11
1.2012
21
-1.96057
0
LINE
8
BLACK
6
CONTINUOUS
10
1.2012
20
-1.96057
11
1.21443
21
-1.9738
0
LINE
8
BLACK
6
CONTINUOUS
10
1.21443
20
-1.9738
11
1.22999
21
-1.9842
0
LINE
8
BLACK
6
CONTINUOUS
10
1.22999
20
-1.9842
11
1.24729
21
-1.99136
0
LINE
8
BLACK
6
CONTINUOUS
10
1.24729
20
-1.99136
11
1.26564
21
-1.99501
0
LINE
8
BLACK
6
CONTINUOUS
10
1.26564
20
-1.99501
11
1.28436
21
-1.99501
0
LINE
8
BLACK
6
CONTINUOUS
10
1.28436
20
-1.99501
11
1.30271
21
-1.99136
0
LINE
8
BLACK
6
CONTINUOUS
10
1.30271
20
-1.99136
11
1.32001
21
-1.9842
0
LINE
8
BLACK
6
CONTINUOUS
10
1.32001
20
-1.9842
11
1.33557
21
-1.9738
0
LINE
8
BLACK
6
CONTINUOUS
10
1.33557
20
-1.9738
11
1.3488
21
-1.96057
0
LINE
8
BLACK
6
CONTINUOUS
10
1.3488
20
-1.96057
11
1.3592
21
-1.94501
0
LINE
8
BLACK
6
CONTINUOUS
10
1.3592
20
-1.94501
11
1.36636
21
-1.92771
0
LINE
8
BLACK
6
CONTINUOUS
10
1.36636
20
-1.92771
11
1.37001
21
-1.90936
0
LINE
8
BLACK
6
CONTINUOUS
10
1.37001
20
-1.90936
11
1.37001
21
-1.89064
0
LINE
8
BLACK
6
CONTINUOUS
10
1.37001
20
-1.89064
11
1.36636
21
-1.87229
0
LINE
8
BLACK
6
CONTINUOUS
10
1.36636
20
-1.87229
11
1.3592
21
-1.85499
0
LINE
8
BLACK
6
CONTINUOUS
10
1.3592
20
-1.85499
11
1.3488
21
-1.83943
0
LINE
8
BLACK
6
CONTINUOUS
10
1.3488
20
-1.83943
11
1.33557
21
-1.8262
0
LINE
8
BLACK
6
CONTINUOUS
10
1.33557
20
-1.8262
11
1.32001
21
-1.8158
0
LINE
8
BLACK
6
CONTINUOUS
10
1.32001
20
-1.8158
11
1.30271
21
-1.80864
0
LINE
8
BLACK
6
CONTINUOUS
10
1.30271
20
-1.80864
11
1.28436
21
-1.80499
0
LINE
8
BLACK
6
CONTINUOUS
10
1.28436
20
-1.80499
11
1.26564
21
-1.80499
0
LINE
8
BLACK
6
CONTINUOUS
10
1.26564
20
-1.80499
11
1.24729
21
-1.80864
0
LINE
8
BLACK
6
CONTINUOUS
10
1.24729
20
-1.80864
11
1.22999
21
-1.8158
0
LINE
8
BLACK
6
CONTINUOUS
10
1.22999
20
-1.8158
11
1.21443
21
-1.8262
0
LINE
8
BLACK
6
CONTINUOUS
10
1.21443
20
-1.8262
11
1.2012
21
-1.83943
0
LINE
8
BLACK
6
CONTINUOUS
10
1.2012
20
-1.83943
11
1.1908
21
-1.85499
0
LINE
8
BLACK
6
CONTINUOUS
10
1.1908
20
-1.85499
11
1.18364
21
-1.87229
0
LINE
8
BLACK
6
CONTINUOUS
10
1.18364
20
-1.87229
11
1.17999
21
-1.89064
0
LINE
8
BLACK
6
CONTINUOUS
10
1.17999
20
-1.89064
11
1.17999
21
-1.90936
0
LINE
8
BLACK
6
CONTINUOUS
10
1.17999
20
-1.90936
11
1.18364
21
-1.92771
0
LINE
8
BLACK
6
CONTINUOUS
10
2.506
20
-1.72149
11
2.51337
21
-1.7037
0
LINE
8
BLACK
6
CONTINUOUS
10
2.51337
20
-1.7037
11
2.52407
21
-1.68768
0
LINE
8
BLACK
6
CONTINUOUS
10
2.52407
20
-1.68768
11
2.53768
21
-1.67407
0
LINE
8
BLACK
6
CONTINUOUS
10
2.53768
20
-1.67407
11
2.5537
21
-1.66337
0
LINE
8
BLACK
6
CONTINUOUS
10
2.5537
20
-1.66337
11
2.57149
21
-1.656
0
LINE
8
BLACK
6
CONTINUOUS
10
2.57149
20
-1.656
11
2.59037
21
-1.65224
0
LINE
8
BLACK
6
CONTINUOUS
10
2.59037
20
-1.65224
11
2.60963
21
-1.65224
0
LINE
8
BLACK
6
CONTINUOUS
10
2.60963
20
-1.65224
11
2.62851
21
-1.656
0
LINE
8
BLACK
6
CONTINUOUS
10
2.62851
20
-1.656
11
2.6463
21
-1.66337
0
LINE
8
BLACK
6
CONTINUOUS
10
2.6463
20
-1.66337
11
2.66232
21
-1.67407
0
LINE
8
BLACK
6
CONTINUOUS
10
2.66232
20
-1.67407
11
2.67593
21
-1.68768
0
LINE
8
BLACK
6
CONTINUOUS
10
2.67593
20
-1.68768
11
2.68663
21
-1.7037
0
LINE
8
BLACK
6
CONTINUOUS
10
2.68663
20
-1.7037
11
2.694
21
-1.72149
0
LINE
8
BLACK
6
CONTINUOUS
10
2.694
20
-1.72149
11
2.69776
21
-1.74037
0
LINE
8
BLACK
6
CONTINUOUS
10
2.69776
20
-1.74037
11
2.69776
21
-1.75963
0
LINE
8
BLACK
6
CONTINUOUS
10
2.69776
20
-1.75963
11
2.694
21
-1.77851
0
LINE
8
BLACK
6
CONTINUOUS
10
2.694
20
-1.77851
11
2.68663
21
-1.7963
0
LINE
8
BLACK
6
CONTINUOUS
10
2.68663
20
-1.7963
11
2.67593
21
-1.81232
0
LINE
8
BLACK
6
CONTINUOUS
10
2.67593
20
-1.81232
11
2.66232
21
-1.82593
0
LINE
8
BLACK
6
CONTINUOUS
10
2.66232
20
-1.82593
11
2.6463
21
-1.83663
0
LINE
8
BLACK
6
CONTINUOUS
10
2.6463
20
-1.83663
11
2.62851
21
-1.844
0
LINE
8
BLACK
6
CONTINUOUS
10
2.62851
20
-1.844
11
2.60963
21
-1.84776
0
LINE
8
BLACK
6
CONTINUOUS
10
2.60963
20
-1.84776
11
2.59037
21
-1.84776
0
LINE
8
BLACK
6
CONTINUOUS
10
2.59037
20
-1.84776
11
2.57149
21
-1.844
0
LINE
8
BLACK
6
CONTINUOUS
10
2.57149
20
-1.844
11
2.5537
21
-1.83663
0
LINE
8
BLACK
6
CONTINUOUS
10
2.5537
20
-1.83663
11
2.53768
21
-1.82593
0
LINE
8
BLACK
6
CONTINUOUS
10
2.53768
20
-1.82593
11
2.52407
21
-1.81232
0
LINE
8
BLACK
6
CONTINUOUS
10
2.52407
20
-1.81232
11
2.51337
21
-1.7963
0
LINE
8
BLACK
6
CONTINUOUS
10
2.51337
20
-1.7963
11
2.506
21
-1.77851
0
LINE
8
BLACK
6
CONTINUOUS
10
2.506
20
-1.77851
11
2.50224
21
-1.75963
0
LINE
8
BLACK
6
CONTINUOUS
10
2.50224
20
-1.75963
11
2.50224
21
-1.74037
0
LINE
8
BLACK
6
CONTINUOUS
10
2.50224
20
-1.74037
11
2.506
21
-1.72149
0
LINE
8
BLACK
6
CONTINUOUS
10
2.50864
20
-1.77771
11
2.5158
21
-1.79501
0
LINE
8
BLACK
6
CONTINUOUS
10
2.5158
20
-1.79501
11
2.5262
21
-1.81057
0
LINE
8
BLACK
6
CONTINUOUS
10
2.5262
20
-1.81057
11
2.53943
21
-1.8238
0
LINE
8
BLACK
6
CONTINUOUS
10
2.53943
20
-1.8238
11
2.55499
21
-1.8342
0
LINE
8
BLACK
6
CONTINUOUS
10
2.55499
20
-1.8342
11
2.57229
21
-1.84136
0
LINE
8
BLACK
6
CONTINUOUS
10
2.57229
20
-1.84136
11
2.59064
21
-1.84501
0
LINE
8
BLACK
6
CONTINUOUS
10
2.59064
20
-1.84501
11
2.60936
21
-1.84501
0
LINE
8
BLACK
6
CONTINUOUS
10
2.60936
20
-1.84501
11
2.62771
21
-1.84136
0
LINE
8
BLACK
6
CONTINUOUS
10
2.62771
20
-1.84136
11
2.64501
21
-1.8342
0
LINE
8
BLACK
6
CONTINUOUS
10
2.64501
20
-1.8342
11
2.66057
21
-1.8238
0
LINE
8
BLACK
6
CONTINUOUS
10
2.66057
20
-1.8238
11
2.6738
21
-1.81057
0
LINE
8
BLACK
6
CONTINUOUS
10
2.6738
20
-1.81057
11
2.6842
21
-1.79501
0
LINE
8
BLACK
6
CONTINUOUS
10
2.6842
20
-1.79501
11
2.69136
21
-1.77771
0
LINE
8
BLACK
6
CONTINUOUS
10
2.69136
20
-1.77771
11
2.69501
21
-1.75936
0
LINE
8
BLACK
6
CONTINUOUS
10
2.69501
20
-1.75936
11
2.69501
21
-1.74064
0
LINE
8
BLACK
6
CONTINUOUS
10
2.69501
20
-1.74064
11
2.69136
21
-1.72229
0
LINE
8
BLACK
6
CONTINUOUS
10
2.69136
20
-1.72229
11
2.6842
21
-1.70499
0
LINE
8
BLACK
6
CONTINUOUS
10
2.6842
20
-1.70499
11
2.6738
21
-1.68943
0
LINE
8
BLACK
6
CONTINUOUS
10
2.6738
20
-1.68943
11
2.66057
21
-1.6762
0
LINE
8
BLACK
6
CONTINUOUS
10
2.66057
20
-1.6762
11
2.64501
21
-1.6658
0
LINE
8
BLACK
6
CONTINUOUS
10
2.64501
20
-1.6658
11
2.62771
21
-1.65864
0
LINE
8
BLACK
6
CONTINUOUS
10
2.62771
20
-1.65864
11
2.60936
21
-1.65499
0
LINE
8
BLACK
6
CONTINUOUS
10
2.60936
20
-1.65499
11
2.59064
21
-1.65499
0
LINE
8
BLACK
6
CONTINUOUS
10
2.59064
20
-1.65499
11
2.57229
21
-1.65864
0
LINE
8
BLACK
6
CONTINUOUS
10
2.57229
20
-1.65864
11
2.55499
21
-1.6658
0
LINE
8
BLACK
6
CONTINUOUS
10
2.55499
20
-1.6658
11
2.53943
21
-1.6762
0
LINE
8
BLACK
6
CONTINUOUS
10
2.53943
20
-1.6762
11
2.5262
21
-1.68943
0
LINE
8
BLACK
6
CONTINUOUS
10
2.5262
20
-1.68943
11
2.5158
21
-1.70499
0
LINE
8
BLACK
6
CONTINUOUS
10
2.5158
20
-1.70499
11
2.50864
21
-1.72229
0
LINE
8
BLACK
6
CONTINUOUS
10
2.50864
20
-1.72229
11
2.50499
21
-1.74064
0
LINE
8
BLACK
6
CONTINUOUS
10
2.50499
20
-1.74064
11
2.50499
21
-1.75936
0
LINE
8
BLACK
6
CONTINUOUS
10
2.50499
20
-1.75936
11
2.50864
21
-1.77771
0
LINE
8
BLACK
6
CONTINUOUS
10
4.731
20
-1.67149
11
4.73837
21
-1.6537
0
LINE
8
BLACK
6
CONTINUOUS
10
4.73837
20
-1.6537
11
4.74907
21
-1.63768
0
LINE
8
BLACK
6
CONTINUOUS
10
4.74907
20
-1.63768
11
4.76268
21
-1.62407
0
LINE
8
BLACK
6
CONTINUOUS
10
4.76268
20
-1.62407
11
4.7787
21
-1.61337
0
LINE
8
BLACK
6
CONTINUOUS
10
4.7787
20
-1.61337
11
4.79649
21
-1.606
0
LINE
8
BLACK
6
CONTINUOUS
10
4.79649
20
-1.606
11
4.81537
21
-1.60224
0
LINE
8
BLACK
6
CONTINUOUS
10
4.81537
20
-1.60224
11
4.83463
21
-1.60224
0
LINE
8
BLACK
6
CONTINUOUS
10
4.83463
20
-1.60224
11
4.85351
21
-1.606
0
LINE
8
BLACK
6
CONTINUOUS
10
4.85351
20
-1.606
11
4.8713
21
-1.61337
0
LINE
8
BLACK
6
CONTINUOUS
10
4.8713
20
-1.61337
11
4.88732
21
-1.62407
0
LINE
8
BLACK
6
CONTINUOUS
10
4.88732
20
-1.62407
11
4.90093
21
-1.63768
0
LINE
8
BLACK
6
CONTINUOUS
10
4.90093
20
-1.63768
11
4.91163
21
-1.6537
0
LINE
8
BLACK
6
CONTINUOUS
10
4.91163
20
-1.6537
11
4.919
21
-1.67149
0
LINE
8
BLACK
6
CONTINUOUS
10
4.919
20
-1.67149
11
4.92276
21
-1.69037
0
LINE
8
BLACK
6
CONTINUOUS
10
4.92276
20
-1.69037
11
4.92276
21
-1.70963
0
LINE
8
BLACK
6
CONTINUOUS
10
4.92276
20
-1.70963
11
4.919
21
-1.72851
0
LINE
8
BLACK
6
CONTINUOUS
10
4.919
20
-1.72851
11
4.91163
21
-1.7463
0
LINE
8
BLACK
6
CONTINUOUS
10
4.91163
20
-1.7463
11
4.90093
21
-1.76232
0
LINE
8
BLACK
6
CONTINUOUS
10
4.90093
20
-1.76232
11
4.88732
21
-1.77593
0
LINE
8
BLACK
6
CONTINUOUS
10
4.88732
20
-1.77593
11
4.8713
21
-1.78663
0
LINE
8
BLACK
6
CONTINUOUS
10
4.8713
20
-1.78663
11
4.85351
21
-1.794
0
LINE
8
BLACK
6
CONTINUOUS
10
4.85351
20
-1.794
11
4.83463
21
-1.79776
0
LINE
8
BLACK
6
CONTINUOUS
10
4.83463
20
-1.79776
11
4.81537
21
-1.79776
0
LINE
8
BLACK
6
CONTINUOUS
10
4.81537
20
-1.79776
11
4.79649
21
-1.794
0
LINE
8
BLACK
6
CONTINUOUS
10
4.79649
20
-1.794
11
4.7787
21
-1.78663
0
LINE
8
BLACK
6
CONTINUOUS
10
4.7787
20
-1.78663
11
4.76268
21
-1.77593
0
LINE
8
BLACK
6
CONTINUOUS
10
4.76268
20
-1.77593
11
4.74907
21
-1.76232
0
LINE
8
BLACK
6
CONTINUOUS
10
4.74907
20
-1.76232
11
4.73837
21
-1.7463
0
LINE
8
BLACK
6
CONTINUOUS
10
4.73837
20
-1.7463
11
4.731
21
-1.72851
0
LINE
8
BLACK
6
CONTINUOUS
10
4.731
20
-1.72851
11
4.72724
21
-1.70963
0
LINE
8
BLACK
6
CONTINUOUS
10
4.72724
20
-1.70963
11
4.72724
21
-1.69037
0
LINE
8
BLACK
6
CONTINUOUS
10
4.72724
20
-1.69037
11
4.731
21
-1.67149
0
LINE
8
BLACK
6
CONTINUOUS
10
4.73364
20
-1.72771
11
4.7408
21
-1.74501
0
LINE
8
BLACK
6
CONTINUOUS
10
4.7408
20
-1.74501
11
4.7512
21
-1.76057
0
LINE
8
BLACK
6
CONTINUOUS
10
4.7512
20
-1.76057
11
4.76443
21
-1.7738
0
LINE
8
BLACK
6
CONTINUOUS
10
4.76443
20
-1.7738
11
4.77999
21
-1.7842
0
LINE
8
BLACK
6
CONTINUOUS
10
4.77999
20
-1.7842
11
4.79729
21
-1.79136
0
LINE
8
BLACK
6
CONTINUOUS
10
4.79729
20
-1.79136
11
4.81564
21
-1.79501
0
LINE
8
BLACK
6
CONTINUOUS
10
4.81564
20
-1.79501
11
4.83436
21
-1.79501
0
LINE
8
BLACK
6
CONTINUOUS
10
4.83436
20
-1.79501
11
4.85271
21
-1.79136
0
LINE
8
BLACK
6
CONTINUOUS
10
4.85271
20
-1.79136
11
4.87001
21
-1.7842
0
LINE
8
BLACK
6
CONTINUOUS
10
4.87001
20
-1.7842
11
4.88557
21
-1.7738
0
LINE
8
BLACK
6
CONTINUOUS
10
4.88557
20
-1.7738
11
4.8988
21
-1.76057
0
LINE
8
BLACK
6
CONTINUOUS
10
4.8988
20
-1.76057
11
4.9092
21
-1.74501
0
LINE
8
BLACK
6
CONTINUOUS
10
4.9092
20
-1.74501
11
4.91636
21
-1.72771
0
LINE
8
BLACK
6
CONTINUOUS
10
4.91636
20
-1.72771
11
4.92001
21
-1.70936
0
LINE
8
BLACK
6
CONTINUOUS
10
4.92001
20
-1.70936
11
4.92001
21
-1.69064
0
LINE
8
BLACK
6
CONTINUOUS
10
4.92001
20
-1.69064
11
4.91636
21
-1.67229
0
LINE
8
BLACK
6
CONTINUOUS
10
4.91636
20
-1.67229
11
4.9092
21
-1.65499
0
LINE
8
BLACK
6
CONTINUOUS
10
4.9092
20
-1.65499
11
4.8988
21
-1.63943
0
LINE
8
BLACK
6
CONTINUOUS
10
4.8988
20
-1.63943
11
4.88557
21
-1.6262
0
LINE
8
BLACK
6
CONTINUOUS
10
4.88557
20
-1.6262
11
4.87001
21
-1.6158
0
LINE
8
BLACK
6
CONTINUOUS
10
4.87001
20
-1.6158
11
4.85271
21
-1.60864
0
LINE
8
BLACK
6
CONTINUOUS
10
4.85271
20
-1.60864
11
4.83436
21
-1.60499
0
LINE
8
BLACK
6
CONTINUOUS
10
4.83436
20
-1.60499
11
4.81564
21
-1.60499
0
LINE
8
BLACK
6
CONTINUOUS
10
4.81564
20
-1.60499
11
4.79729
21
-1.60864
0
LINE
8
BLACK
6
CONTINUOUS
10
4.79729
20
-1.60864
11
4.77999
21
-1.6158
0
LINE
8
BLACK
6
CONTINUOUS
10
4.77999
20
-1.6158
11
4.76443
21
-1.6262
0
LINE
8
BLACK
6
CONTINUOUS
10
4.76443
20
-1.6262
11
4.7512
21
-1.63943
0
LINE
8
BLACK
6
CONTINUOUS
10
4.7512
20
-1.63943
11
4.7408
21
-1.65499
0
LINE
8
BLACK
6
CONTINUOUS
10
4.7408
20
-1.65499
11
4.73364
21
-1.67229
0
LINE
8
BLACK
6
CONTINUOUS
10
4.73364
20
-1.67229
11
4.72999
21
-1.69064
0
LINE
8
BLACK
6
CONTINUOUS
10
4.72999
20
-1.69064
11
4.72999
21
-1.70936
0
LINE
8
BLACK
6
CONTINUOUS
10
4.72999
20
-1.70936
11
4.73364
21
-1.72771
  0
ENDSEC
  0
EOF
