  0
SECTION
  2
HEADER
  9
$ANGBASE
  50
0.0
  9
$ANGDIR
  70
1
  9
$MEASUREMENT
  70
0
  0
ENDSEC
  0
SECTION
  2
TABLES
  0
TABLE
  2
LTYPE
  70
4
  0
LTYPE
  5
40F
  2
CONTINUOUS
  70
0
  3
Solid line
  72
65
  73
0
  40
0.0
  0
LTYPE
  5
410
  2
DASHDOT
 70
0
  3
Dash Dot ____ _ ____ _
 72
65
 73
4
 40
2.0
 49
1.25
 49
-0.25
 49
0.25
 49
-0.25
  0
LTYPE
  5
411
  2
DASHED
 70
0
  3
Dashed __ __ __ __ __
 72
65
 73
2
 40
0.75
 49
0.5
 49
-0.25
  0
LTYPE
  5
43B
  2
DOTTED
 70
0
  3
Dotted .  .  .  .
 72
65
 73
2
 40
0.2
 49
0.0
 49
-0.2
  0
ENDTAB
  0
TABLE
  2
STYLE
  70
4
  0
STYLE
  2
KICAD
  70
0
  40
0
  41
1
  42
1
  50
0
  71
0
  3
isocp.shx
  0
STYLE
  2
KICADB
  70
0
  40
0
  41
1
  42
1
  50
0
  71
0
  3
isocp.shx
  0
STYLE
  2
KICADI
  70
0
  40
0
  41
1
  42
1
  50
15
  71
0
  3
isocp.shx
  0
STYLE
  2
KICADBI
  70
0
  40
0
  41
1
  42
1
  50
15
  71
0
  3
isocp.shx
  0
ENDTAB
  0
TABLE
  2
LAYER
  70
1
  0
LAYER
  2
BLACK
  70
0
  62
7
  6
CONTINUOUS
  0
ENDTAB
  0
ENDSEC
  0
SECTION
  2
ENTITIES
0
LINE
8
BLACK
6
CONTINUOUS
10
1.74311
20
-4.09469
11
1.70374
21
-4.09469
0
LINE
8
BLACK
6
CONTINUOUS
10
1.70374
20
-4.09469
11
1.70374
21
-4.05531
0
LINE
8
BLACK
6
CONTINUOUS
10
1.70374
20
-4.05531
11
1.74311
21
-4.05531
0
LINE
8
BLACK
6
CONTINUOUS
10
1.74311
20
-4.05531
11
1.74311
21
-4.09469
0
LINE
8
BLACK
6
CONTINUOUS
10
1.64469
20
-4.09469
11
1.60531
21
-4.09469
0
LINE
8
BLACK
6
CONTINUOUS
10
1.60531
20
-4.09469
11
1.60531
21
-4.05531
0
LINE
8
BLACK
6
CONTINUOUS
10
1.60531
20
-4.05531
11
1.64469
21
-4.05531
0
LINE
8
BLACK
6
CONTINUOUS
10
1.64469
20
-4.05531
11
1.64469
21
-4.09469
0
LINE
8
BLACK
6
CONTINUOUS
10
5.49469
20
-3.96969
11
5.45531
21
-3.96969
0
LINE
8
BLACK
6
CONTINUOUS
10
5.45531
20
-3.96969
11
5.45531
21
-3.93031
0
LINE
8
BLACK
6
CONTINUOUS
10
5.45531
20
-3.93031
11
5.49469
21
-3.93031
0
LINE
8
BLACK
6
CONTINUOUS
10
5.49469
20
-3.93031
11
5.49469
21
-3.96969
0
LINE
8
BLACK
6
CONTINUOUS
10
5.39626
20
-3.96969
11
5.35689
21
-3.96969
0
LINE
8
BLACK
6
CONTINUOUS
10
5.35689
20
-3.96969
11
5.35689
21
-3.93031
0
LINE
8
BLACK
6
CONTINUOUS
10
5.35689
20
-3.93031
11
5.39626
21
-3.93031
0
LINE
8
BLACK
6
CONTINUOUS
10
5.39626
20
-3.93031
11
5.39626
21
-3.96969
0
LINE
8
BLACK
6
CONTINUOUS
10
2.49469
20
-3.96969
11
2.45531
21
-3.96969
0
LINE
8
BLACK
6
CONTINUOUS
10
2.45531
20
-3.96969
11
2.45531
21
-3.93031
0
LINE
8
BLACK
6
CONTINUOUS
10
2.45531
20
-3.93031
11
2.49469
21
-3.93031
0
LINE
8
BLACK
6
CONTINUOUS
10
2.49469
20
-3.93031
11
2.49469
21
-3.96969
0
LINE
8
BLACK
6
CONTINUOUS
10
2.39626
20
-3.96969
11
2.35689
21
-3.96969
0
LINE
8
BLACK
6
CONTINUOUS
10
2.35689
20
-3.96969
11
2.35689
21
-3.93031
0
LINE
8
BLACK
6
CONTINUOUS
10
2.35689
20
-3.93031
11
2.39626
21
-3.93031
0
LINE
8
BLACK
6
CONTINUOUS
10
2.39626
20
-3.93031
11
2.39626
21
-3.96969
0
LINE
8
BLACK
6
CONTINUOUS
10
4.64626
20
-3.84469
11
4.60689
21
-3.84469
0
LINE
8
BLACK
6
CONTINUOUS
10
4.60689
20
-3.84469
11
4.60689
21
-3.80531
0
LINE
8
BLACK
6
CONTINUOUS
10
4.60689
20
-3.80531
11
4.64626
21
-3.80531
0
LINE
8
BLACK
6
CONTINUOUS
10
4.64626
20
-3.80531
11
4.64626
21
-3.84469
0
LINE
8
BLACK
6
CONTINUOUS
10
4.74469
20
-3.84469
11
4.70531
21
-3.84469
0
LINE
8
BLACK
6
CONTINUOUS
10
4.70531
20
-3.84469
11
4.70531
21
-3.80531
0
LINE
8
BLACK
6
CONTINUOUS
10
4.70531
20
-3.80531
11
4.74469
21
-3.80531
0
LINE
8
BLACK
6
CONTINUOUS
10
4.74469
20
-3.80531
11
4.74469
21
-3.84469
0
LINE
8
BLACK
6
CONTINUOUS
10
3.14626
20
-3.84469
11
3.10689
21
-3.84469
0
LINE
8
BLACK
6
CONTINUOUS
10
3.10689
20
-3.84469
11
3.10689
21
-3.80531
0
LINE
8
BLACK
6
CONTINUOUS
10
3.10689
20
-3.80531
11
3.14626
21
-3.80531
0
LINE
8
BLACK
6
CONTINUOUS
10
3.14626
20
-3.80531
11
3.14626
21
-3.84469
0
LINE
8
BLACK
6
CONTINUOUS
10
3.24469
20
-3.84469
11
3.20531
21
-3.84469
0
LINE
8
BLACK
6
CONTINUOUS
10
3.20531
20
-3.84469
11
3.20531
21
-3.80531
0
LINE
8
BLACK
6
CONTINUOUS
10
3.20531
20
-3.80531
11
3.24469
21
-3.80531
0
LINE
8
BLACK
6
CONTINUOUS
10
3.24469
20
-3.80531
11
3.24469
21
-3.84469
0
LINE
8
BLACK
6
CONTINUOUS
10
3.89626
20
-3.71969
11
3.85689
21
-3.71969
0
LINE
8
BLACK
6
CONTINUOUS
10
3.85689
20
-3.71969
11
3.85689
21
-3.68031
0
LINE
8
BLACK
6
CONTINUOUS
10
3.85689
20
-3.68031
11
3.89626
21
-3.68031
0
LINE
8
BLACK
6
CONTINUOUS
10
3.89626
20
-3.68031
11
3.89626
21
-3.71969
0
LINE
8
BLACK
6
CONTINUOUS
10
3.99469
20
-3.71969
11
3.95531
21
-3.71969
0
LINE
8
BLACK
6
CONTINUOUS
10
3.95531
20
-3.71969
11
3.95531
21
-3.68031
0
LINE
8
BLACK
6
CONTINUOUS
10
3.95531
20
-3.68031
11
3.99469
21
-3.68031
0
LINE
8
BLACK
6
CONTINUOUS
10
3.99469
20
-3.68031
11
3.99469
21
-3.71969
0
LINE
8
BLACK
6
CONTINUOUS
10
1.74469
20
-3.34469
11
1.70531
21
-3.34469
0
LINE
8
BLACK
6
CONTINUOUS
10
1.70531
20
-3.34469
11
1.70531
21
-3.30531
0
LINE
8
BLACK
6
CONTINUOUS
10
1.70531
20
-3.30531
11
1.74469
21
-3.30531
0
LINE
8
BLACK
6
CONTINUOUS
10
1.74469
20
-3.30531
11
1.74469
21
-3.34469
0
LINE
8
BLACK
6
CONTINUOUS
10
1.64626
20
-3.34469
11
1.60689
21
-3.34469
0
LINE
8
BLACK
6
CONTINUOUS
10
1.60689
20
-3.34469
11
1.60689
21
-3.30531
0
LINE
8
BLACK
6
CONTINUOUS
10
1.60689
20
-3.30531
11
1.64626
21
-3.30531
0
LINE
8
BLACK
6
CONTINUOUS
10
1.64626
20
-3.30531
11
1.64626
21
-3.34469
0
LINE
8
BLACK
6
CONTINUOUS
10
2.39626
20
-3.21969
11
2.35689
21
-3.21969
0
LINE
8
BLACK
6
CONTINUOUS
10
2.35689
20
-3.21969
11
2.35689
21
-3.18031
0
LINE
8
BLACK
6
CONTINUOUS
10
2.35689
20
-3.18031
11
2.39626
21
-3.18031
0
LINE
8
BLACK
6
CONTINUOUS
10
2.39626
20
-3.18031
11
2.39626
21
-3.21969
0
LINE
8
BLACK
6
CONTINUOUS
10
2.49469
20
-3.21969
11
2.45531
21
-3.21969
0
LINE
8
BLACK
6
CONTINUOUS
10
2.45531
20
-3.21969
11
2.45531
21
-3.18031
0
LINE
8
BLACK
6
CONTINUOUS
10
2.45531
20
-3.18031
11
2.49469
21
-3.18031
0
LINE
8
BLACK
6
CONTINUOUS
10
2.49469
20
-3.18031
11
2.49469
21
-3.21969
0
LINE
8
BLACK
6
CONTINUOUS
10
3.24469
20
-3.09469
11
3.20531
21
-3.09469
0
LINE
8
BLACK
6
CONTINUOUS
10
3.20531
20
-3.09469
11
3.20531
21
-3.05531
0
LINE
8
BLACK
6
CONTINUOUS
10
3.20531
20
-3.05531
11
3.24469
21
-3.05531
0
LINE
8
BLACK
6
CONTINUOUS
10
3.24469
20
-3.05531
11
3.24469
21
-3.09469
0
LINE
8
BLACK
6
CONTINUOUS
10
3.14626
20
-3.09469
11
3.10689
21
-3.09469
0
LINE
8
BLACK
6
CONTINUOUS
10
3.10689
20
-3.09469
11
3.10689
21
-3.05531
0
LINE
8
BLACK
6
CONTINUOUS
10
3.10689
20
-3.05531
11
3.14626
21
-3.05531
0
LINE
8
BLACK
6
CONTINUOUS
10
3.14626
20
-3.05531
11
3.14626
21
-3.09469
0
LINE
8
BLACK
6
CONTINUOUS
10
4.64626
20
-3.09469
11
4.60689
21
-3.09469
0
LINE
8
BLACK
6
CONTINUOUS
10
4.60689
20
-3.09469
11
4.60689
21
-3.05531
0
LINE
8
BLACK
6
CONTINUOUS
10
4.60689
20
-3.05531
11
4.64626
21
-3.05531
0
LINE
8
BLACK
6
CONTINUOUS
10
4.64626
20
-3.05531
11
4.64626
21
-3.09469
0
LINE
8
BLACK
6
CONTINUOUS
10
4.74469
20
-3.09469
11
4.70531
21
-3.09469
0
LINE
8
BLACK
6
CONTINUOUS
10
4.70531
20
-3.09469
11
4.70531
21
-3.05531
0
LINE
8
BLACK
6
CONTINUOUS
10
4.70531
20
-3.05531
11
4.74469
21
-3.05531
0
LINE
8
BLACK
6
CONTINUOUS
10
4.74469
20
-3.05531
11
4.74469
21
-3.09469
0
LINE
8
BLACK
6
CONTINUOUS
10
3.99469
20
-2.96969
11
3.95531
21
-2.96969
0
LINE
8
BLACK
6
CONTINUOUS
10
3.95531
20
-2.96969
11
3.95531
21
-2.93031
0
LINE
8
BLACK
6
CONTINUOUS
10
3.95531
20
-2.93031
11
3.99469
21
-2.93031
0
LINE
8
BLACK
6
CONTINUOUS
10
3.99469
20
-2.93031
11
3.99469
21
-2.96969
0
LINE
8
BLACK
6
CONTINUOUS
10
3.89626
20
-2.96969
11
3.85689
21
-2.96969
0
LINE
8
BLACK
6
CONTINUOUS
10
3.85689
20
-2.96969
11
3.85689
21
-2.93031
0
LINE
8
BLACK
6
CONTINUOUS
10
3.85689
20
-2.93031
11
3.89626
21
-2.93031
0
LINE
8
BLACK
6
CONTINUOUS
10
3.89626
20
-2.93031
11
3.89626
21
-2.96969
0
LINE
8
BLACK
6
CONTINUOUS
10
5.30706
20
-2.86527
11
5.30817
21
-2.86561
0
LINE
8
BLACK
6
CONTINUOUS
10
5.30817
20
-2.86561
11
5.30919
21
-2.86615
0
LINE
8
BLACK
6
CONTINUOUS
10
5.30919
20
-2.86615
11
5.31008
21
-2.86689
0
LINE
8
BLACK
6
CONTINUOUS
10
5.31008
20
-2.86689
11
5.31082
21
-2.86778
0
LINE
8
BLACK
6
CONTINUOUS
10
5.31082
20
-2.86778
11
5.31136
21
-2.8688
0
LINE
8
BLACK
6
CONTINUOUS
10
5.31136
20
-2.8688
11
5.3117
21
-2.86991
0
LINE
8
BLACK
6
CONTINUOUS
10
5.3117
20
-2.86991
11
5.31181
21
-2.87106
0
LINE
8
BLACK
6
CONTINUOUS
10
5.31181
20
-2.87106
11
5.31181
21
-2.93602
0
LINE
8
BLACK
6
CONTINUOUS
10
5.31181
20
-2.93602
11
5.3117
21
-2.93718
0
LINE
8
BLACK
6
CONTINUOUS
10
5.3117
20
-2.93718
11
5.31136
21
-2.93828
0
LINE
8
BLACK
6
CONTINUOUS
10
5.31136
20
-2.93828
11
5.31082
21
-2.93931
0
LINE
8
BLACK
6
CONTINUOUS
10
5.31082
20
-2.93931
11
5.31008
21
-2.9402
0
LINE
8
BLACK
6
CONTINUOUS
10
5.31008
20
-2.9402
11
5.30919
21
-2.94093
0
LINE
8
BLACK
6
CONTINUOUS
10
5.30919
20
-2.94093
11
5.30817
21
-2.94148
0
LINE
8
BLACK
6
CONTINUOUS
10
5.30817
20
-2.94148
11
5.30706
21
-2.94182
0
LINE
8
BLACK
6
CONTINUOUS
10
5.30706
20
-2.94182
11
5.30591
21
-2.94193
0
LINE
8
BLACK
6
CONTINUOUS
10
5.30591
20
-2.94193
11
5.29409
21
-2.94193
0
LINE
8
BLACK
6
CONTINUOUS
10
5.29409
20
-2.94193
11
5.29294
21
-2.94182
0
LINE
8
BLACK
6
CONTINUOUS
10
5.29294
20
-2.94182
11
5.29183
21
-2.94148
0
LINE
8
BLACK
6
CONTINUOUS
10
5.29183
20
-2.94148
11
5.29081
21
-2.94093
0
LINE
8
BLACK
6
CONTINUOUS
10
5.29081
20
-2.94093
11
5.28992
21
-2.9402
0
LINE
8
BLACK
6
CONTINUOUS
10
5.28992
20
-2.9402
11
5.28918
21
-2.93931
0
LINE
8
BLACK
6
CONTINUOUS
10
5.28918
20
-2.93931
11
5.28864
21
-2.93828
0
LINE
8
BLACK
6
CONTINUOUS
10
5.28864
20
-2.93828
11
5.2883
21
-2.93718
0
LINE
8
BLACK
6
CONTINUOUS
10
5.2883
20
-2.93718
11
5.28819
21
-2.93602
0
LINE
8
BLACK
6
CONTINUOUS
10
5.28819
20
-2.93602
11
5.28819
21
-2.87106
0
LINE
8
BLACK
6
CONTINUOUS
10
5.28819
20
-2.87106
11
5.2883
21
-2.86991
0
LINE
8
BLACK
6
CONTINUOUS
10
5.2883
20
-2.86991
11
5.28864
21
-2.8688
0
LINE
8
BLACK
6
CONTINUOUS
10
5.28864
20
-2.8688
11
5.28918
21
-2.86778
0
LINE
8
BLACK
6
CONTINUOUS
10
5.28918
20
-2.86778
11
5.28992
21
-2.86689
0
LINE
8
BLACK
6
CONTINUOUS
10
5.28992
20
-2.86689
11
5.29081
21
-2.86615
0
LINE
8
BLACK
6
CONTINUOUS
10
5.29081
20
-2.86615
11
5.29183
21
-2.86561
0
LINE
8
BLACK
6
CONTINUOUS
10
5.29183
20
-2.86561
11
5.29294
21
-2.86527
0
LINE
8
BLACK
6
CONTINUOUS
10
5.29294
20
-2.86527
11
5.29409
21
-2.86516
0
LINE
8
BLACK
6
CONTINUOUS
10
5.29409
20
-2.86516
11
5.30591
21
-2.86516
0
LINE
8
BLACK
6
CONTINUOUS
10
5.30591
20
-2.86516
11
5.30706
21
-2.86527
0
LINE
8
BLACK
6
CONTINUOUS
10
5.25706
20
-2.86527
11
5.25817
21
-2.86561
0
LINE
8
BLACK
6
CONTINUOUS
10
5.25817
20
-2.86561
11
5.25919
21
-2.86615
0
LINE
8
BLACK
6
CONTINUOUS
10
5.25919
20
-2.86615
11
5.26008
21
-2.86689
0
LINE
8
BLACK
6
CONTINUOUS
10
5.26008
20
-2.86689
11
5.26082
21
-2.86778
0
LINE
8
BLACK
6
CONTINUOUS
10
5.26082
20
-2.86778
11
5.26136
21
-2.8688
0
LINE
8
BLACK
6
CONTINUOUS
10
5.26136
20
-2.8688
11
5.2617
21
-2.86991
0
LINE
8
BLACK
6
CONTINUOUS
10
5.2617
20
-2.86991
11
5.26181
21
-2.87106
0
LINE
8
BLACK
6
CONTINUOUS
10
5.26181
20
-2.87106
11
5.26181
21
-2.93602
0
LINE
8
BLACK
6
CONTINUOUS
10
5.26181
20
-2.93602
11
5.2617
21
-2.93718
0
LINE
8
BLACK
6
CONTINUOUS
10
5.2617
20
-2.93718
11
5.26136
21
-2.93828
0
LINE
8
BLACK
6
CONTINUOUS
10
5.26136
20
-2.93828
11
5.26082
21
-2.93931
0
LINE
8
BLACK
6
CONTINUOUS
10
5.26082
20
-2.93931
11
5.26008
21
-2.9402
0
LINE
8
BLACK
6
CONTINUOUS
10
5.26008
20
-2.9402
11
5.25919
21
-2.94093
0
LINE
8
BLACK
6
CONTINUOUS
10
5.25919
20
-2.94093
11
5.25817
21
-2.94148
0
LINE
8
BLACK
6
CONTINUOUS
10
5.25817
20
-2.94148
11
5.25706
21
-2.94182
0
LINE
8
BLACK
6
CONTINUOUS
10
5.25706
20
-2.94182
11
5.25591
21
-2.94193
0
LINE
8
BLACK
6
CONTINUOUS
10
5.25591
20
-2.94193
11
5.24409
21
-2.94193
0
LINE
8
BLACK
6
CONTINUOUS
10
5.24409
20
-2.94193
11
5.24294
21
-2.94182
0
LINE
8
BLACK
6
CONTINUOUS
10
5.24294
20
-2.94182
11
5.24183
21
-2.94148
0
LINE
8
BLACK
6
CONTINUOUS
10
5.24183
20
-2.94148
11
5.24081
21
-2.94093
0
LINE
8
BLACK
6
CONTINUOUS
10
5.24081
20
-2.94093
11
5.23992
21
-2.9402
0
LINE
8
BLACK
6
CONTINUOUS
10
5.23992
20
-2.9402
11
5.23918
21
-2.93931
0
LINE
8
BLACK
6
CONTINUOUS
10
5.23918
20
-2.93931
11
5.23864
21
-2.93828
0
LINE
8
BLACK
6
CONTINUOUS
10
5.23864
20
-2.93828
11
5.2383
21
-2.93718
0
LINE
8
BLACK
6
CONTINUOUS
10
5.2383
20
-2.93718
11
5.23819
21
-2.93602
0
LINE
8
BLACK
6
CONTINUOUS
10
5.23819
20
-2.93602
11
5.23819
21
-2.87106
0
LINE
8
BLACK
6
CONTINUOUS
10
5.23819
20
-2.87106
11
5.2383
21
-2.86991
0
LINE
8
BLACK
6
CONTINUOUS
10
5.2383
20
-2.86991
11
5.23864
21
-2.8688
0
LINE
8
BLACK
6
CONTINUOUS
10
5.23864
20
-2.8688
11
5.23918
21
-2.86778
0
LINE
8
BLACK
6
CONTINUOUS
10
5.23918
20
-2.86778
11
5.23992
21
-2.86689
0
LINE
8
BLACK
6
CONTINUOUS
10
5.23992
20
-2.86689
11
5.24081
21
-2.86615
0
LINE
8
BLACK
6
CONTINUOUS
10
5.24081
20
-2.86615
11
5.24183
21
-2.86561
0
LINE
8
BLACK
6
CONTINUOUS
10
5.24183
20
-2.86561
11
5.24294
21
-2.86527
0
LINE
8
BLACK
6
CONTINUOUS
10
5.24294
20
-2.86527
11
5.24409
21
-2.86516
0
LINE
8
BLACK
6
CONTINUOUS
10
5.24409
20
-2.86516
11
5.25591
21
-2.86516
0
LINE
8
BLACK
6
CONTINUOUS
10
5.25591
20
-2.86516
11
5.25706
21
-2.86527
0
LINE
8
BLACK
6
CONTINUOUS
10
5.35706
20
-2.86527
11
5.35817
21
-2.86561
0
LINE
8
BLACK
6
CONTINUOUS
10
5.35817
20
-2.86561
11
5.35919
21
-2.86615
0
LINE
8
BLACK
6
CONTINUOUS
10
5.35919
20
-2.86615
11
5.36008
21
-2.86689
0
LINE
8
BLACK
6
CONTINUOUS
10
5.36008
20
-2.86689
11
5.36082
21
-2.86778
0
LINE
8
BLACK
6
CONTINUOUS
10
5.36082
20
-2.86778
11
5.36136
21
-2.8688
0
LINE
8
BLACK
6
CONTINUOUS
10
5.36136
20
-2.8688
11
5.3617
21
-2.86991
0
LINE
8
BLACK
6
CONTINUOUS
10
5.3617
20
-2.86991
11
5.36181
21
-2.87106
0
LINE
8
BLACK
6
CONTINUOUS
10
5.36181
20
-2.87106
11
5.36181
21
-2.93602
0
LINE
8
BLACK
6
CONTINUOUS
10
5.36181
20
-2.93602
11
5.3617
21
-2.93718
0
LINE
8
BLACK
6
CONTINUOUS
10
5.3617
20
-2.93718
11
5.36136
21
-2.93828
0
LINE
8
BLACK
6
CONTINUOUS
10
5.36136
20
-2.93828
11
5.36082
21
-2.93931
0
LINE
8
BLACK
6
CONTINUOUS
10
5.36082
20
-2.93931
11
5.36008
21
-2.9402
0
LINE
8
BLACK
6
CONTINUOUS
10
5.36008
20
-2.9402
11
5.35919
21
-2.94093
0
LINE
8
BLACK
6
CONTINUOUS
10
5.35919
20
-2.94093
11
5.35817
21
-2.94148
0
LINE
8
BLACK
6
CONTINUOUS
10
5.35817
20
-2.94148
11
5.35706
21
-2.94182
0
LINE
8
BLACK
6
CONTINUOUS
10
5.35706
20
-2.94182
11
5.35591
21
-2.94193
0
LINE
8
BLACK
6
CONTINUOUS
10
5.35591
20
-2.94193
11
5.34409
21
-2.94193
0
LINE
8
BLACK
6
CONTINUOUS
10
5.34409
20
-2.94193
11
5.34294
21
-2.94182
0
LINE
8
BLACK
6
CONTINUOUS
10
5.34294
20
-2.94182
11
5.34183
21
-2.94148
0
LINE
8
BLACK
6
CONTINUOUS
10
5.34183
20
-2.94148
11
5.34081
21
-2.94093
0
LINE
8
BLACK
6
CONTINUOUS
10
5.34081
20
-2.94093
11
5.33992
21
-2.9402
0
LINE
8
BLACK
6
CONTINUOUS
10
5.33992
20
-2.9402
11
5.33918
21
-2.93931
0
LINE
8
BLACK
6
CONTINUOUS
10
5.33918
20
-2.93931
11
5.33864
21
-2.93828
0
LINE
8
BLACK
6
CONTINUOUS
10
5.33864
20
-2.93828
11
5.3383
21
-2.93718
0
LINE
8
BLACK
6
CONTINUOUS
10
5.3383
20
-2.93718
11
5.33819
21
-2.93602
0
LINE
8
BLACK
6
CONTINUOUS
10
5.33819
20
-2.93602
11
5.33819
21
-2.87106
0
LINE
8
BLACK
6
CONTINUOUS
10
5.33819
20
-2.87106
11
5.3383
21
-2.86991
0
LINE
8
BLACK
6
CONTINUOUS
10
5.3383
20
-2.86991
11
5.33864
21
-2.8688
0
LINE
8
BLACK
6
CONTINUOUS
10
5.33864
20
-2.8688
11
5.33918
21
-2.86778
0
LINE
8
BLACK
6
CONTINUOUS
10
5.33918
20
-2.86778
11
5.33992
21
-2.86689
0
LINE
8
BLACK
6
CONTINUOUS
10
5.33992
20
-2.86689
11
5.34081
21
-2.86615
0
LINE
8
BLACK
6
CONTINUOUS
10
5.34081
20
-2.86615
11
5.34183
21
-2.86561
0
LINE
8
BLACK
6
CONTINUOUS
10
5.34183
20
-2.86561
11
5.34294
21
-2.86527
0
LINE
8
BLACK
6
CONTINUOUS
10
5.34294
20
-2.86527
11
5.34409
21
-2.86516
0
LINE
8
BLACK
6
CONTINUOUS
10
5.34409
20
-2.86516
11
5.35591
21
-2.86516
0
LINE
8
BLACK
6
CONTINUOUS
10
5.35591
20
-2.86516
11
5.35706
21
-2.86527
0
LINE
8
BLACK
6
CONTINUOUS
10
5.40706
20
-2.86527
11
5.40817
21
-2.86561
0
LINE
8
BLACK
6
CONTINUOUS
10
5.40817
20
-2.86561
11
5.40919
21
-2.86615
0
LINE
8
BLACK
6
CONTINUOUS
10
5.40919
20
-2.86615
11
5.41008
21
-2.86689
0
LINE
8
BLACK
6
CONTINUOUS
10
5.41008
20
-2.86689
11
5.41082
21
-2.86778
0
LINE
8
BLACK
6
CONTINUOUS
10
5.41082
20
-2.86778
11
5.41136
21
-2.8688
0
LINE
8
BLACK
6
CONTINUOUS
10
5.41136
20
-2.8688
11
5.4117
21
-2.86991
0
LINE
8
BLACK
6
CONTINUOUS
10
5.4117
20
-2.86991
11
5.41181
21
-2.87106
0
LINE
8
BLACK
6
CONTINUOUS
10
5.41181
20
-2.87106
11
5.41181
21
-2.93602
0
LINE
8
BLACK
6
CONTINUOUS
10
5.41181
20
-2.93602
11
5.4117
21
-2.93718
0
LINE
8
BLACK
6
CONTINUOUS
10
5.4117
20
-2.93718
11
5.41136
21
-2.93828
0
LINE
8
BLACK
6
CONTINUOUS
10
5.41136
20
-2.93828
11
5.41082
21
-2.93931
0
LINE
8
BLACK
6
CONTINUOUS
10
5.41082
20
-2.93931
11
5.41008
21
-2.9402
0
LINE
8
BLACK
6
CONTINUOUS
10
5.41008
20
-2.9402
11
5.40919
21
-2.94093
0
LINE
8
BLACK
6
CONTINUOUS
10
5.40919
20
-2.94093
11
5.40817
21
-2.94148
0
LINE
8
BLACK
6
CONTINUOUS
10
5.40817
20
-2.94148
11
5.40706
21
-2.94182
0
LINE
8
BLACK
6
CONTINUOUS
10
5.40706
20
-2.94182
11
5.40591
21
-2.94193
0
LINE
8
BLACK
6
CONTINUOUS
10
5.40591
20
-2.94193
11
5.39409
21
-2.94193
0
LINE
8
BLACK
6
CONTINUOUS
10
5.39409
20
-2.94193
11
5.39294
21
-2.94182
0
LINE
8
BLACK
6
CONTINUOUS
10
5.39294
20
-2.94182
11
5.39183
21
-2.94148
0
LINE
8
BLACK
6
CONTINUOUS
10
5.39183
20
-2.94148
11
5.39081
21
-2.94093
0
LINE
8
BLACK
6
CONTINUOUS
10
5.39081
20
-2.94093
11
5.38992
21
-2.9402
0
LINE
8
BLACK
6
CONTINUOUS
10
5.38992
20
-2.9402
11
5.38918
21
-2.93931
0
LINE
8
BLACK
6
CONTINUOUS
10
5.38918
20
-2.93931
11
5.38864
21
-2.93828
0
LINE
8
BLACK
6
CONTINUOUS
10
5.38864
20
-2.93828
11
5.3883
21
-2.93718
0
LINE
8
BLACK
6
CONTINUOUS
10
5.3883
20
-2.93718
11
5.38819
21
-2.93602
0
LINE
8
BLACK
6
CONTINUOUS
10
5.38819
20
-2.93602
11
5.38819
21
-2.87106
0
LINE
8
BLACK
6
CONTINUOUS
10
5.38819
20
-2.87106
11
5.3883
21
-2.86991
0
LINE
8
BLACK
6
CONTINUOUS
10
5.3883
20
-2.86991
11
5.38864
21
-2.8688
0
LINE
8
BLACK
6
CONTINUOUS
10
5.38864
20
-2.8688
11
5.38918
21
-2.86778
0
LINE
8
BLACK
6
CONTINUOUS
10
5.38918
20
-2.86778
11
5.38992
21
-2.86689
0
LINE
8
BLACK
6
CONTINUOUS
10
5.38992
20
-2.86689
11
5.39081
21
-2.86615
0
LINE
8
BLACK
6
CONTINUOUS
10
5.39081
20
-2.86615
11
5.39183
21
-2.86561
0
LINE
8
BLACK
6
CONTINUOUS
10
5.39183
20
-2.86561
11
5.39294
21
-2.86527
0
LINE
8
BLACK
6
CONTINUOUS
10
5.39294
20
-2.86527
11
5.39409
21
-2.86516
0
LINE
8
BLACK
6
CONTINUOUS
10
5.39409
20
-2.86516
11
5.40591
21
-2.86516
0
LINE
8
BLACK
6
CONTINUOUS
10
5.40591
20
-2.86516
11
5.40706
21
-2.86527
0
LINE
8
BLACK
6
CONTINUOUS
10
5.35706
20
-2.67039
11
5.35817
21
-2.67073
0
LINE
8
BLACK
6
CONTINUOUS
10
5.35817
20
-2.67073
11
5.35919
21
-2.67127
0
LINE
8
BLACK
6
CONTINUOUS
10
5.35919
20
-2.67127
11
5.36008
21
-2.67201
0
LINE
8
BLACK
6
CONTINUOUS
10
5.36008
20
-2.67201
11
5.36082
21
-2.6729
0
LINE
8
BLACK
6
CONTINUOUS
10
5.36082
20
-2.6729
11
5.36136
21
-2.67392
0
LINE
8
BLACK
6
CONTINUOUS
10
5.36136
20
-2.67392
11
5.3617
21
-2.67503
0
LINE
8
BLACK
6
CONTINUOUS
10
5.3617
20
-2.67503
11
5.36181
21
-2.67618
0
LINE
8
BLACK
6
CONTINUOUS
10
5.36181
20
-2.67618
11
5.36181
21
-2.74114
0
LINE
8
BLACK
6
CONTINUOUS
10
5.36181
20
-2.74114
11
5.3617
21
-2.74229
0
LINE
8
BLACK
6
CONTINUOUS
10
5.3617
20
-2.74229
11
5.36136
21
-2.7434
0
LINE
8
BLACK
6
CONTINUOUS
10
5.36136
20
-2.7434
11
5.36082
21
-2.74442
0
LINE
8
BLACK
6
CONTINUOUS
10
5.36082
20
-2.74442
11
5.36008
21
-2.74532
0
LINE
8
BLACK
6
CONTINUOUS
10
5.36008
20
-2.74532
11
5.35919
21
-2.74605
0
LINE
8
BLACK
6
CONTINUOUS
10
5.35919
20
-2.74605
11
5.35817
21
-2.7466
0
LINE
8
BLACK
6
CONTINUOUS
10
5.35817
20
-2.7466
11
5.35706
21
-2.74693
0
LINE
8
BLACK
6
CONTINUOUS
10
5.35706
20
-2.74693
11
5.35591
21
-2.74705
0
LINE
8
BLACK
6
CONTINUOUS
10
5.35591
20
-2.74705
11
5.34409
21
-2.74705
0
LINE
8
BLACK
6
CONTINUOUS
10
5.34409
20
-2.74705
11
5.34294
21
-2.74693
0
LINE
8
BLACK
6
CONTINUOUS
10
5.34294
20
-2.74693
11
5.34183
21
-2.7466
0
LINE
8
BLACK
6
CONTINUOUS
10
5.34183
20
-2.7466
11
5.34081
21
-2.74605
0
LINE
8
BLACK
6
CONTINUOUS
10
5.34081
20
-2.74605
11
5.33992
21
-2.74532
0
LINE
8
BLACK
6
CONTINUOUS
10
5.33992
20
-2.74532
11
5.33918
21
-2.74442
0
LINE
8
BLACK
6
CONTINUOUS
10
5.33918
20
-2.74442
11
5.33864
21
-2.7434
0
LINE
8
BLACK
6
CONTINUOUS
10
5.33864
20
-2.7434
11
5.3383
21
-2.74229
0
LINE
8
BLACK
6
CONTINUOUS
10
5.3383
20
-2.74229
11
5.33819
21
-2.74114
0
LINE
8
BLACK
6
CONTINUOUS
10
5.33819
20
-2.74114
11
5.33819
21
-2.67618
0
LINE
8
BLACK
6
CONTINUOUS
10
5.33819
20
-2.67618
11
5.3383
21
-2.67503
0
LINE
8
BLACK
6
CONTINUOUS
10
5.3383
20
-2.67503
11
5.33864
21
-2.67392
0
LINE
8
BLACK
6
CONTINUOUS
10
5.33864
20
-2.67392
11
5.33918
21
-2.6729
0
LINE
8
BLACK
6
CONTINUOUS
10
5.33918
20
-2.6729
11
5.33992
21
-2.67201
0
LINE
8
BLACK
6
CONTINUOUS
10
5.33992
20
-2.67201
11
5.34081
21
-2.67127
0
LINE
8
BLACK
6
CONTINUOUS
10
5.34081
20
-2.67127
11
5.34183
21
-2.67073
0
LINE
8
BLACK
6
CONTINUOUS
10
5.34183
20
-2.67073
11
5.34294
21
-2.67039
0
LINE
8
BLACK
6
CONTINUOUS
10
5.34294
20
-2.67039
11
5.34409
21
-2.67028
0
LINE
8
BLACK
6
CONTINUOUS
10
5.34409
20
-2.67028
11
5.35591
21
-2.67028
0
LINE
8
BLACK
6
CONTINUOUS
10
5.35591
20
-2.67028
11
5.35706
21
-2.67039
0
LINE
8
BLACK
6
CONTINUOUS
10
5.40706
20
-2.67039
11
5.40817
21
-2.67073
0
LINE
8
BLACK
6
CONTINUOUS
10
5.40817
20
-2.67073
11
5.40919
21
-2.67127
0
LINE
8
BLACK
6
CONTINUOUS
10
5.40919
20
-2.67127
11
5.41008
21
-2.67201
0
LINE
8
BLACK
6
CONTINUOUS
10
5.41008
20
-2.67201
11
5.41082
21
-2.6729
0
LINE
8
BLACK
6
CONTINUOUS
10
5.41082
20
-2.6729
11
5.41136
21
-2.67392
0
LINE
8
BLACK
6
CONTINUOUS
10
5.41136
20
-2.67392
11
5.4117
21
-2.67503
0
LINE
8
BLACK
6
CONTINUOUS
10
5.4117
20
-2.67503
11
5.41181
21
-2.67618
0
LINE
8
BLACK
6
CONTINUOUS
10
5.41181
20
-2.67618
11
5.41181
21
-2.74114
0
LINE
8
BLACK
6
CONTINUOUS
10
5.41181
20
-2.74114
11
5.4117
21
-2.74229
0
LINE
8
BLACK
6
CONTINUOUS
10
5.4117
20
-2.74229
11
5.41136
21
-2.7434
0
LINE
8
BLACK
6
CONTINUOUS
10
5.41136
20
-2.7434
11
5.41082
21
-2.74442
0
LINE
8
BLACK
6
CONTINUOUS
10
5.41082
20
-2.74442
11
5.41008
21
-2.74532
0
LINE
8
BLACK
6
CONTINUOUS
10
5.41008
20
-2.74532
11
5.40919
21
-2.74605
0
LINE
8
BLACK
6
CONTINUOUS
10
5.40919
20
-2.74605
11
5.40817
21
-2.7466
0
LINE
8
BLACK
6
CONTINUOUS
10
5.40817
20
-2.7466
11
5.40706
21
-2.74693
0
LINE
8
BLACK
6
CONTINUOUS
10
5.40706
20
-2.74693
11
5.40591
21
-2.74705
0
LINE
8
BLACK
6
CONTINUOUS
10
5.40591
20
-2.74705
11
5.39409
21
-2.74705
0
LINE
8
BLACK
6
CONTINUOUS
10
5.39409
20
-2.74705
11
5.39294
21
-2.74693
0
LINE
8
BLACK
6
CONTINUOUS
10
5.39294
20
-2.74693
11
5.39183
21
-2.7466
0
LINE
8
BLACK
6
CONTINUOUS
10
5.39183
20
-2.7466
11
5.39081
21
-2.74605
0
LINE
8
BLACK
6
CONTINUOUS
10
5.39081
20
-2.74605
11
5.38992
21
-2.74532
0
LINE
8
BLACK
6
CONTINUOUS
10
5.38992
20
-2.74532
11
5.38918
21
-2.74442
0
LINE
8
BLACK
6
CONTINUOUS
10
5.38918
20
-2.74442
11
5.38864
21
-2.7434
0
LINE
8
BLACK
6
CONTINUOUS
10
5.38864
20
-2.7434
11
5.3883
21
-2.74229
0
LINE
8
BLACK
6
CONTINUOUS
10
5.3883
20
-2.74229
11
5.38819
21
-2.74114
0
LINE
8
BLACK
6
CONTINUOUS
10
5.38819
20
-2.74114
11
5.38819
21
-2.67618
0
LINE
8
BLACK
6
CONTINUOUS
10
5.38819
20
-2.67618
11
5.3883
21
-2.67503
0
LINE
8
BLACK
6
CONTINUOUS
10
5.3883
20
-2.67503
11
5.38864
21
-2.67392
0
LINE
8
BLACK
6
CONTINUOUS
10
5.38864
20
-2.67392
11
5.38918
21
-2.6729
0
LINE
8
BLACK
6
CONTINUOUS
10
5.38918
20
-2.6729
11
5.38992
21
-2.67201
0
LINE
8
BLACK
6
CONTINUOUS
10
5.38992
20
-2.67201
11
5.39081
21
-2.67127
0
LINE
8
BLACK
6
CONTINUOUS
10
5.39081
20
-2.67127
11
5.39183
21
-2.67073
0
LINE
8
BLACK
6
CONTINUOUS
10
5.39183
20
-2.67073
11
5.39294
21
-2.67039
0
LINE
8
BLACK
6
CONTINUOUS
10
5.39294
20
-2.67039
11
5.39409
21
-2.67028
0
LINE
8
BLACK
6
CONTINUOUS
10
5.39409
20
-2.67028
11
5.40591
21
-2.67028
0
LINE
8
BLACK
6
CONTINUOUS
10
5.40591
20
-2.67028
11
5.40706
21
-2.67039
0
LINE
8
BLACK
6
CONTINUOUS
10
5.30706
20
-2.67039
11
5.30817
21
-2.67073
0
LINE
8
BLACK
6
CONTINUOUS
10
5.30817
20
-2.67073
11
5.30919
21
-2.67127
0
LINE
8
BLACK
6
CONTINUOUS
10
5.30919
20
-2.67127
11
5.31008
21
-2.67201
0
LINE
8
BLACK
6
CONTINUOUS
10
5.31008
20
-2.67201
11
5.31082
21
-2.6729
0
LINE
8
BLACK
6
CONTINUOUS
10
5.31082
20
-2.6729
11
5.31136
21
-2.67392
0
LINE
8
BLACK
6
CONTINUOUS
10
5.31136
20
-2.67392
11
5.3117
21
-2.67503
0
LINE
8
BLACK
6
CONTINUOUS
10
5.3117
20
-2.67503
11
5.31181
21
-2.67618
0
LINE
8
BLACK
6
CONTINUOUS
10
5.31181
20
-2.67618
11
5.31181
21
-2.74114
0
LINE
8
BLACK
6
CONTINUOUS
10
5.31181
20
-2.74114
11
5.3117
21
-2.74229
0
LINE
8
BLACK
6
CONTINUOUS
10
5.3117
20
-2.74229
11
5.31136
21
-2.7434
0
LINE
8
BLACK
6
CONTINUOUS
10
5.31136
20
-2.7434
11
5.31082
21
-2.74442
0
LINE
8
BLACK
6
CONTINUOUS
10
5.31082
20
-2.74442
11
5.31008
21
-2.74532
0
LINE
8
BLACK
6
CONTINUOUS
10
5.31008
20
-2.74532
11
5.30919
21
-2.74605
0
LINE
8
BLACK
6
CONTINUOUS
10
5.30919
20
-2.74605
11
5.30817
21
-2.7466
0
LINE
8
BLACK
6
CONTINUOUS
10
5.30817
20
-2.7466
11
5.30706
21
-2.74693
0
LINE
8
BLACK
6
CONTINUOUS
10
5.30706
20
-2.74693
11
5.30591
21
-2.74705
0
LINE
8
BLACK
6
CONTINUOUS
10
5.30591
20
-2.74705
11
5.29409
21
-2.74705
0
LINE
8
BLACK
6
CONTINUOUS
10
5.29409
20
-2.74705
11
5.29294
21
-2.74693
0
LINE
8
BLACK
6
CONTINUOUS
10
5.29294
20
-2.74693
11
5.29183
21
-2.7466
0
LINE
8
BLACK
6
CONTINUOUS
10
5.29183
20
-2.7466
11
5.29081
21
-2.74605
0
LINE
8
BLACK
6
CONTINUOUS
10
5.29081
20
-2.74605
11
5.28992
21
-2.74532
0
LINE
8
BLACK
6
CONTINUOUS
10
5.28992
20
-2.74532
11
5.28918
21
-2.74442
0
LINE
8
BLACK
6
CONTINUOUS
10
5.28918
20
-2.74442
11
5.28864
21
-2.7434
0
LINE
8
BLACK
6
CONTINUOUS
10
5.28864
20
-2.7434
11
5.2883
21
-2.74229
0
LINE
8
BLACK
6
CONTINUOUS
10
5.2883
20
-2.74229
11
5.28819
21
-2.74114
0
LINE
8
BLACK
6
CONTINUOUS
10
5.28819
20
-2.74114
11
5.28819
21
-2.67618
0
LINE
8
BLACK
6
CONTINUOUS
10
5.28819
20
-2.67618
11
5.2883
21
-2.67503
0
LINE
8
BLACK
6
CONTINUOUS
10
5.2883
20
-2.67503
11
5.28864
21
-2.67392
0
LINE
8
BLACK
6
CONTINUOUS
10
5.28864
20
-2.67392
11
5.28918
21
-2.6729
0
LINE
8
BLACK
6
CONTINUOUS
10
5.28918
20
-2.6729
11
5.28992
21
-2.67201
0
LINE
8
BLACK
6
CONTINUOUS
10
5.28992
20
-2.67201
11
5.29081
21
-2.67127
0
LINE
8
BLACK
6
CONTINUOUS
10
5.29081
20
-2.67127
11
5.29183
21
-2.67073
0
LINE
8
BLACK
6
CONTINUOUS
10
5.29183
20
-2.67073
11
5.29294
21
-2.67039
0
LINE
8
BLACK
6
CONTINUOUS
10
5.29294
20
-2.67039
11
5.29409
21
-2.67028
0
LINE
8
BLACK
6
CONTINUOUS
10
5.29409
20
-2.67028
11
5.30591
21
-2.67028
0
LINE
8
BLACK
6
CONTINUOUS
10
5.30591
20
-2.67028
11
5.30706
21
-2.67039
0
LINE
8
BLACK
6
CONTINUOUS
10
5.25706
20
-2.67039
11
5.25817
21
-2.67073
0
LINE
8
BLACK
6
CONTINUOUS
10
5.25817
20
-2.67073
11
5.25919
21
-2.67127
0
LINE
8
BLACK
6
CONTINUOUS
10
5.25919
20
-2.67127
11
5.26008
21
-2.67201
0
LINE
8
BLACK
6
CONTINUOUS
10
5.26008
20
-2.67201
11
5.26082
21
-2.6729
0
LINE
8
BLACK
6
CONTINUOUS
10
5.26082
20
-2.6729
11
5.26136
21
-2.67392
0
LINE
8
BLACK
6
CONTINUOUS
10
5.26136
20
-2.67392
11
5.2617
21
-2.67503
0
LINE
8
BLACK
6
CONTINUOUS
10
5.2617
20
-2.67503
11
5.26181
21
-2.67618
0
LINE
8
BLACK
6
CONTINUOUS
10
5.26181
20
-2.67618
11
5.26181
21
-2.74114
0
LINE
8
BLACK
6
CONTINUOUS
10
5.26181
20
-2.74114
11
5.2617
21
-2.74229
0
LINE
8
BLACK
6
CONTINUOUS
10
5.2617
20
-2.74229
11
5.26136
21
-2.7434
0
LINE
8
BLACK
6
CONTINUOUS
10
5.26136
20
-2.7434
11
5.26082
21
-2.74442
0
LINE
8
BLACK
6
CONTINUOUS
10
5.26082
20
-2.74442
11
5.26008
21
-2.74532
0
LINE
8
BLACK
6
CONTINUOUS
10
5.26008
20
-2.74532
11
5.25919
21
-2.74605
0
LINE
8
BLACK
6
CONTINUOUS
10
5.25919
20
-2.74605
11
5.25817
21
-2.7466
0
LINE
8
BLACK
6
CONTINUOUS
10
5.25817
20
-2.7466
11
5.25706
21
-2.74693
0
LINE
8
BLACK
6
CONTINUOUS
10
5.25706
20
-2.74693
11
5.25591
21
-2.74705
0
LINE
8
BLACK
6
CONTINUOUS
10
5.25591
20
-2.74705
11
5.24409
21
-2.74705
0
LINE
8
BLACK
6
CONTINUOUS
10
5.24409
20
-2.74705
11
5.24294
21
-2.74693
0
LINE
8
BLACK
6
CONTINUOUS
10
5.24294
20
-2.74693
11
5.24183
21
-2.7466
0
LINE
8
BLACK
6
CONTINUOUS
10
5.24183
20
-2.7466
11
5.24081
21
-2.74605
0
LINE
8
BLACK
6
CONTINUOUS
10
5.24081
20
-2.74605
11
5.23992
21
-2.74532
0
LINE
8
BLACK
6
CONTINUOUS
10
5.23992
20
-2.74532
11
5.23918
21
-2.74442
0
LINE
8
BLACK
6
CONTINUOUS
10
5.23918
20
-2.74442
11
5.23864
21
-2.7434
0
LINE
8
BLACK
6
CONTINUOUS
10
5.23864
20
-2.7434
11
5.2383
21
-2.74229
0
LINE
8
BLACK
6
CONTINUOUS
10
5.2383
20
-2.74229
11
5.23819
21
-2.74114
0
LINE
8
BLACK
6
CONTINUOUS
10
5.23819
20
-2.74114
11
5.23819
21
-2.67618
0
LINE
8
BLACK
6
CONTINUOUS
10
5.23819
20
-2.67618
11
5.2383
21
-2.67503
0
LINE
8
BLACK
6
CONTINUOUS
10
5.2383
20
-2.67503
11
5.23864
21
-2.67392
0
LINE
8
BLACK
6
CONTINUOUS
10
5.23864
20
-2.67392
11
5.23918
21
-2.6729
0
LINE
8
BLACK
6
CONTINUOUS
10
5.23918
20
-2.6729
11
5.23992
21
-2.67201
0
LINE
8
BLACK
6
CONTINUOUS
10
5.23992
20
-2.67201
11
5.24081
21
-2.67127
0
LINE
8
BLACK
6
CONTINUOUS
10
5.24081
20
-2.67127
11
5.24183
21
-2.67073
0
LINE
8
BLACK
6
CONTINUOUS
10
5.24183
20
-2.67073
11
5.24294
21
-2.67039
0
LINE
8
BLACK
6
CONTINUOUS
10
5.24294
20
-2.67039
11
5.24409
21
-2.67028
0
LINE
8
BLACK
6
CONTINUOUS
10
5.24409
20
-2.67028
11
5.25591
21
-2.67028
0
LINE
8
BLACK
6
CONTINUOUS
10
5.25591
20
-2.67028
11
5.25706
21
-2.67039
0
LINE
8
BLACK
6
CONTINUOUS
10
5.36167
20
-2.56273
11
5.36342
21
-2.56327
0
LINE
8
BLACK
6
CONTINUOUS
10
5.36342
20
-2.56327
11
5.36504
21
-2.56413
0
LINE
8
BLACK
6
CONTINUOUS
10
5.36504
20
-2.56413
11
5.36645
21
-2.56529
0
LINE
8
BLACK
6
CONTINUOUS
10
5.36645
20
-2.56529
11
5.36762
21
-2.56671
0
LINE
8
BLACK
6
CONTINUOUS
10
5.36762
20
-2.56671
11
5.36848
21
-2.56833
0
LINE
8
BLACK
6
CONTINUOUS
10
5.36848
20
-2.56833
11
5.36901
21
-2.57008
0
LINE
8
BLACK
6
CONTINUOUS
10
5.36901
20
-2.57008
11
5.36919
21
-2.57191
0
LINE
8
BLACK
6
CONTINUOUS
10
5.36919
20
-2.57191
11
5.36919
21
-2.59061
0
LINE
8
BLACK
6
CONTINUOUS
10
5.36919
20
-2.59061
11
5.36901
21
-2.59243
0
LINE
8
BLACK
6
CONTINUOUS
10
5.36901
20
-2.59243
11
5.36848
21
-2.59418
0
LINE
8
BLACK
6
CONTINUOUS
10
5.36848
20
-2.59418
11
5.36762
21
-2.5958
0
LINE
8
BLACK
6
CONTINUOUS
10
5.36762
20
-2.5958
11
5.36645
21
-2.59722
0
LINE
8
BLACK
6
CONTINUOUS
10
5.36645
20
-2.59722
11
5.36504
21
-2.59838
0
LINE
8
BLACK
6
CONTINUOUS
10
5.36504
20
-2.59838
11
5.36342
21
-2.59925
0
LINE
8
BLACK
6
CONTINUOUS
10
5.36342
20
-2.59925
11
5.36167
21
-2.59978
0
LINE
8
BLACK
6
CONTINUOUS
10
5.36167
20
-2.59978
11
5.35984
21
-2.59996
0
LINE
8
BLACK
6
CONTINUOUS
10
5.35984
20
-2.59996
11
5.34016
21
-2.59996
0
LINE
8
BLACK
6
CONTINUOUS
10
5.34016
20
-2.59996
11
5.33833
21
-2.59978
0
LINE
8
BLACK
6
CONTINUOUS
10
5.33833
20
-2.59978
11
5.33658
21
-2.59925
0
LINE
8
BLACK
6
CONTINUOUS
10
5.33658
20
-2.59925
11
5.33496
21
-2.59838
0
LINE
8
BLACK
6
CONTINUOUS
10
5.33496
20
-2.59838
11
5.33355
21
-2.59722
0
LINE
8
BLACK
6
CONTINUOUS
10
5.33355
20
-2.59722
11
5.33238
21
-2.5958
0
LINE
8
BLACK
6
CONTINUOUS
10
5.33238
20
-2.5958
11
5.33152
21
-2.59418
0
LINE
8
BLACK
6
CONTINUOUS
10
5.33152
20
-2.59418
11
5.33099
21
-2.59243
0
LINE
8
BLACK
6
CONTINUOUS
10
5.33099
20
-2.59243
11
5.33081
21
-2.59061
0
LINE
8
BLACK
6
CONTINUOUS
10
5.33081
20
-2.59061
11
5.33081
21
-2.57191
0
LINE
8
BLACK
6
CONTINUOUS
10
5.33081
20
-2.57191
11
5.33099
21
-2.57008
0
LINE
8
BLACK
6
CONTINUOUS
10
5.33099
20
-2.57008
11
5.33152
21
-2.56833
0
LINE
8
BLACK
6
CONTINUOUS
10
5.33152
20
-2.56833
11
5.33238
21
-2.56671
0
LINE
8
BLACK
6
CONTINUOUS
10
5.33238
20
-2.56671
11
5.33355
21
-2.56529
0
LINE
8
BLACK
6
CONTINUOUS
10
5.33355
20
-2.56529
11
5.33496
21
-2.56413
0
LINE
8
BLACK
6
CONTINUOUS
10
5.33496
20
-2.56413
11
5.33658
21
-2.56327
0
LINE
8
BLACK
6
CONTINUOUS
10
5.33658
20
-2.56327
11
5.33833
21
-2.56273
0
LINE
8
BLACK
6
CONTINUOUS
10
5.33833
20
-2.56273
11
5.34016
21
-2.56256
0
LINE
8
BLACK
6
CONTINUOUS
10
5.34016
20
-2.56256
11
5.35984
21
-2.56256
0
LINE
8
BLACK
6
CONTINUOUS
10
5.35984
20
-2.56256
11
5.36167
21
-2.56273
0
LINE
8
BLACK
6
CONTINUOUS
10
5.43352
20
-2.56273
11
5.43527
21
-2.56327
0
LINE
8
BLACK
6
CONTINUOUS
10
5.43527
20
-2.56327
11
5.43689
21
-2.56413
0
LINE
8
BLACK
6
CONTINUOUS
10
5.43689
20
-2.56413
11
5.4383
21
-2.56529
0
LINE
8
BLACK
6
CONTINUOUS
10
5.4383
20
-2.56529
11
5.43947
21
-2.56671
0
LINE
8
BLACK
6
CONTINUOUS
10
5.43947
20
-2.56671
11
5.44033
21
-2.56833
0
LINE
8
BLACK
6
CONTINUOUS
10
5.44033
20
-2.56833
11
5.44086
21
-2.57008
0
LINE
8
BLACK
6
CONTINUOUS
10
5.44086
20
-2.57008
11
5.44104
21
-2.57191
0
LINE
8
BLACK
6
CONTINUOUS
10
5.44104
20
-2.57191
11
5.44104
21
-2.59061
0
LINE
8
BLACK
6
CONTINUOUS
10
5.44104
20
-2.59061
11
5.44086
21
-2.59243
0
LINE
8
BLACK
6
CONTINUOUS
10
5.44086
20
-2.59243
11
5.44033
21
-2.59418
0
LINE
8
BLACK
6
CONTINUOUS
10
5.44033
20
-2.59418
11
5.43947
21
-2.5958
0
LINE
8
BLACK
6
CONTINUOUS
10
5.43947
20
-2.5958
11
5.4383
21
-2.59722
0
LINE
8
BLACK
6
CONTINUOUS
10
5.4383
20
-2.59722
11
5.43689
21
-2.59838
0
LINE
8
BLACK
6
CONTINUOUS
10
5.43689
20
-2.59838
11
5.43527
21
-2.59925
0
LINE
8
BLACK
6
CONTINUOUS
10
5.43527
20
-2.59925
11
5.43352
21
-2.59978
0
LINE
8
BLACK
6
CONTINUOUS
10
5.43352
20
-2.59978
11
5.43169
21
-2.59996
0
LINE
8
BLACK
6
CONTINUOUS
10
5.43169
20
-2.59996
11
5.41201
21
-2.59996
0
LINE
8
BLACK
6
CONTINUOUS
10
5.41201
20
-2.59996
11
5.41018
21
-2.59978
0
LINE
8
BLACK
6
CONTINUOUS
10
5.41018
20
-2.59978
11
5.40843
21
-2.59925
0
LINE
8
BLACK
6
CONTINUOUS
10
5.40843
20
-2.59925
11
5.40681
21
-2.59838
0
LINE
8
BLACK
6
CONTINUOUS
10
5.40681
20
-2.59838
11
5.4054
21
-2.59722
0
LINE
8
BLACK
6
CONTINUOUS
10
5.4054
20
-2.59722
11
5.40423
21
-2.5958
0
LINE
8
BLACK
6
CONTINUOUS
10
5.40423
20
-2.5958
11
5.40337
21
-2.59418
0
LINE
8
BLACK
6
CONTINUOUS
10
5.40337
20
-2.59418
11
5.40284
21
-2.59243
0
LINE
8
BLACK
6
CONTINUOUS
10
5.40284
20
-2.59243
11
5.40266
21
-2.59061
0
LINE
8
BLACK
6
CONTINUOUS
10
5.40266
20
-2.59061
11
5.40266
21
-2.57191
0
LINE
8
BLACK
6
CONTINUOUS
10
5.40266
20
-2.57191
11
5.40284
21
-2.57008
0
LINE
8
BLACK
6
CONTINUOUS
10
5.40284
20
-2.57008
11
5.40337
21
-2.56833
0
LINE
8
BLACK
6
CONTINUOUS
10
5.40337
20
-2.56833
11
5.40423
21
-2.56671
0
LINE
8
BLACK
6
CONTINUOUS
10
5.40423
20
-2.56671
11
5.4054
21
-2.56529
0
LINE
8
BLACK
6
CONTINUOUS
10
5.4054
20
-2.56529
11
5.40681
21
-2.56413
0
LINE
8
BLACK
6
CONTINUOUS
10
5.40681
20
-2.56413
11
5.40843
21
-2.56327
0
LINE
8
BLACK
6
CONTINUOUS
10
5.40843
20
-2.56327
11
5.41018
21
-2.56273
0
LINE
8
BLACK
6
CONTINUOUS
10
5.41018
20
-2.56273
11
5.41201
21
-2.56256
0
LINE
8
BLACK
6
CONTINUOUS
10
5.41201
20
-2.56256
11
5.43169
21
-2.56256
0
LINE
8
BLACK
6
CONTINUOUS
10
5.43169
20
-2.56256
11
5.43352
21
-2.56273
0
LINE
8
BLACK
6
CONTINUOUS
10
5.26364
20
-2.56273
11
5.26539
21
-2.56327
0
LINE
8
BLACK
6
CONTINUOUS
10
5.26539
20
-2.56327
11
5.26701
21
-2.56413
0
LINE
8
BLACK
6
CONTINUOUS
10
5.26701
20
-2.56413
11
5.26842
21
-2.56529
0
LINE
8
BLACK
6
CONTINUOUS
10
5.26842
20
-2.56529
11
5.26959
21
-2.56671
0
LINE
8
BLACK
6
CONTINUOUS
10
5.26959
20
-2.56671
11
5.27045
21
-2.56833
0
LINE
8
BLACK
6
CONTINUOUS
10
5.27045
20
-2.56833
11
5.27098
21
-2.57008
0
LINE
8
BLACK
6
CONTINUOUS
10
5.27098
20
-2.57008
11
5.27116
21
-2.57191
0
LINE
8
BLACK
6
CONTINUOUS
10
5.27116
20
-2.57191
11
5.27116
21
-2.59061
0
LINE
8
BLACK
6
CONTINUOUS
10
5.27116
20
-2.59061
11
5.27098
21
-2.59243
0
LINE
8
BLACK
6
CONTINUOUS
10
5.27098
20
-2.59243
11
5.27045
21
-2.59418
0
LINE
8
BLACK
6
CONTINUOUS
10
5.27045
20
-2.59418
11
5.26959
21
-2.5958
0
LINE
8
BLACK
6
CONTINUOUS
10
5.26959
20
-2.5958
11
5.26842
21
-2.59722
0
LINE
8
BLACK
6
CONTINUOUS
10
5.26842
20
-2.59722
11
5.26701
21
-2.59838
0
LINE
8
BLACK
6
CONTINUOUS
10
5.26701
20
-2.59838
11
5.26539
21
-2.59925
0
LINE
8
BLACK
6
CONTINUOUS
10
5.26539
20
-2.59925
11
5.26364
21
-2.59978
0
LINE
8
BLACK
6
CONTINUOUS
10
5.26364
20
-2.59978
11
5.26181
21
-2.59996
0
LINE
8
BLACK
6
CONTINUOUS
10
5.26181
20
-2.59996
11
5.23819
21
-2.59996
0
LINE
8
BLACK
6
CONTINUOUS
10
5.23819
20
-2.59996
11
5.23636
21
-2.59978
0
LINE
8
BLACK
6
CONTINUOUS
10
5.23636
20
-2.59978
11
5.23461
21
-2.59925
0
LINE
8
BLACK
6
CONTINUOUS
10
5.23461
20
-2.59925
11
5.23299
21
-2.59838
0
LINE
8
BLACK
6
CONTINUOUS
10
5.23299
20
-2.59838
11
5.23158
21
-2.59722
0
LINE
8
BLACK
6
CONTINUOUS
10
5.23158
20
-2.59722
11
5.23041
21
-2.5958
0
LINE
8
BLACK
6
CONTINUOUS
10
5.23041
20
-2.5958
11
5.22955
21
-2.59418
0
LINE
8
BLACK
6
CONTINUOUS
10
5.22955
20
-2.59418
11
5.22902
21
-2.59243
0
LINE
8
BLACK
6
CONTINUOUS
10
5.22902
20
-2.59243
11
5.22884
21
-2.59061
0
LINE
8
BLACK
6
CONTINUOUS
10
5.22884
20
-2.59061
11
5.22884
21
-2.57191
0
LINE
8
BLACK
6
CONTINUOUS
10
5.22884
20
-2.57191
11
5.22902
21
-2.57008
0
LINE
8
BLACK
6
CONTINUOUS
10
5.22902
20
-2.57008
11
5.22955
21
-2.56833
0
LINE
8
BLACK
6
CONTINUOUS
10
5.22955
20
-2.56833
11
5.23041
21
-2.56671
0
LINE
8
BLACK
6
CONTINUOUS
10
5.23041
20
-2.56671
11
5.23158
21
-2.56529
0
LINE
8
BLACK
6
CONTINUOUS
10
5.23158
20
-2.56529
11
5.23299
21
-2.56413
0
LINE
8
BLACK
6
CONTINUOUS
10
5.23299
20
-2.56413
11
5.23461
21
-2.56327
0
LINE
8
BLACK
6
CONTINUOUS
10
5.23461
20
-2.56327
11
5.23636
21
-2.56273
0
LINE
8
BLACK
6
CONTINUOUS
10
5.23636
20
-2.56273
11
5.23819
21
-2.56256
0
LINE
8
BLACK
6
CONTINUOUS
10
5.23819
20
-2.56256
11
5.26181
21
-2.56256
0
LINE
8
BLACK
6
CONTINUOUS
10
5.26181
20
-2.56256
11
5.26364
21
-2.56273
0
LINE
8
BLACK
6
CONTINUOUS
10
5.19572
20
-2.56273
11
5.19748
21
-2.56327
0
LINE
8
BLACK
6
CONTINUOUS
10
5.19748
20
-2.56327
11
5.19909
21
-2.56413
0
LINE
8
BLACK
6
CONTINUOUS
10
5.19909
20
-2.56413
11
5.20051
21
-2.56529
0
LINE
8
BLACK
6
CONTINUOUS
10
5.20051
20
-2.56529
11
5.20167
21
-2.56671
0
LINE
8
BLACK
6
CONTINUOUS
10
5.20167
20
-2.56671
11
5.20254
21
-2.56833
0
LINE
8
BLACK
6
CONTINUOUS
10
5.20254
20
-2.56833
11
5.20307
21
-2.57008
0
LINE
8
BLACK
6
CONTINUOUS
10
5.20307
20
-2.57008
11
5.20325
21
-2.57191
0
LINE
8
BLACK
6
CONTINUOUS
10
5.20325
20
-2.57191
11
5.20325
21
-2.59061
0
LINE
8
BLACK
6
CONTINUOUS
10
5.20325
20
-2.59061
11
5.20307
21
-2.59243
0
LINE
8
BLACK
6
CONTINUOUS
10
5.20307
20
-2.59243
11
5.20254
21
-2.59418
0
LINE
8
BLACK
6
CONTINUOUS
10
5.20254
20
-2.59418
11
5.20167
21
-2.5958
0
LINE
8
BLACK
6
CONTINUOUS
10
5.20167
20
-2.5958
11
5.20051
21
-2.59722
0
LINE
8
BLACK
6
CONTINUOUS
10
5.20051
20
-2.59722
11
5.19909
21
-2.59838
0
LINE
8
BLACK
6
CONTINUOUS
10
5.19909
20
-2.59838
11
5.19748
21
-2.59925
0
LINE
8
BLACK
6
CONTINUOUS
10
5.19748
20
-2.59925
11
5.19572
21
-2.59978
0
LINE
8
BLACK
6
CONTINUOUS
10
5.19572
20
-2.59978
11
5.1939
21
-2.59996
0
LINE
8
BLACK
6
CONTINUOUS
10
5.1939
20
-2.59996
11
5.17028
21
-2.59996
0
LINE
8
BLACK
6
CONTINUOUS
10
5.17028
20
-2.59996
11
5.16845
21
-2.59978
0
LINE
8
BLACK
6
CONTINUOUS
10
5.16845
20
-2.59978
11
5.1667
21
-2.59925
0
LINE
8
BLACK
6
CONTINUOUS
10
5.1667
20
-2.59925
11
5.16508
21
-2.59838
0
LINE
8
BLACK
6
CONTINUOUS
10
5.16508
20
-2.59838
11
5.16366
21
-2.59722
0
LINE
8
BLACK
6
CONTINUOUS
10
5.16366
20
-2.59722
11
5.1625
21
-2.5958
0
LINE
8
BLACK
6
CONTINUOUS
10
5.1625
20
-2.5958
11
5.16164
21
-2.59418
0
LINE
8
BLACK
6
CONTINUOUS
10
5.16164
20
-2.59418
11
5.1611
21
-2.59243
0
LINE
8
BLACK
6
CONTINUOUS
10
5.1611
20
-2.59243
11
5.16093
21
-2.59061
0
LINE
8
BLACK
6
CONTINUOUS
10
5.16093
20
-2.59061
11
5.16093
21
-2.57191
0
LINE
8
BLACK
6
CONTINUOUS
10
5.16093
20
-2.57191
11
5.1611
21
-2.57008
0
LINE
8
BLACK
6
CONTINUOUS
10
5.1611
20
-2.57008
11
5.16164
21
-2.56833
0
LINE
8
BLACK
6
CONTINUOUS
10
5.16164
20
-2.56833
11
5.1625
21
-2.56671
0
LINE
8
BLACK
6
CONTINUOUS
10
5.1625
20
-2.56671
11
5.16366
21
-2.56529
0
LINE
8
BLACK
6
CONTINUOUS
10
5.16366
20
-2.56529
11
5.16508
21
-2.56413
0
LINE
8
BLACK
6
CONTINUOUS
10
5.16508
20
-2.56413
11
5.1667
21
-2.56327
0
LINE
8
BLACK
6
CONTINUOUS
10
5.1667
20
-2.56327
11
5.16845
21
-2.56273
0
LINE
8
BLACK
6
CONTINUOUS
10
5.16845
20
-2.56273
11
5.17028
21
-2.56256
0
LINE
8
BLACK
6
CONTINUOUS
10
5.17028
20
-2.56256
11
5.1939
21
-2.56256
0
LINE
8
BLACK
6
CONTINUOUS
10
5.1939
20
-2.56256
11
5.19572
21
-2.56273
0
LINE
8
BLACK
6
CONTINUOUS
10
1.74469
20
-2.59469
11
1.70531
21
-2.59469
0
LINE
8
BLACK
6
CONTINUOUS
10
1.70531
20
-2.59469
11
1.70531
21
-2.55531
0
LINE
8
BLACK
6
CONTINUOUS
10
1.70531
20
-2.55531
11
1.74469
21
-2.55531
0
LINE
8
BLACK
6
CONTINUOUS
10
1.74469
20
-2.55531
11
1.74469
21
-2.59469
0
LINE
8
BLACK
6
CONTINUOUS
10
1.64626
20
-2.59469
11
1.60689
21
-2.59469
0
LINE
8
BLACK
6
CONTINUOUS
10
1.60689
20
-2.59469
11
1.60689
21
-2.55531
0
LINE
8
BLACK
6
CONTINUOUS
10
1.60689
20
-2.55531
11
1.64626
21
-2.55531
0
LINE
8
BLACK
6
CONTINUOUS
10
1.64626
20
-2.55531
11
1.64626
21
-2.59469
0
LINE
8
BLACK
6
CONTINUOUS
10
2.49469
20
-2.46969
11
2.45531
21
-2.46969
0
LINE
8
BLACK
6
CONTINUOUS
10
2.45531
20
-2.46969
11
2.45531
21
-2.43031
0
LINE
8
BLACK
6
CONTINUOUS
10
2.45531
20
-2.43031
11
2.49469
21
-2.43031
0
LINE
8
BLACK
6
CONTINUOUS
10
2.49469
20
-2.43031
11
2.49469
21
-2.46969
0
LINE
8
BLACK
6
CONTINUOUS
10
2.39626
20
-2.46969
11
2.35689
21
-2.46969
0
LINE
8
BLACK
6
CONTINUOUS
10
2.35689
20
-2.46969
11
2.35689
21
-2.43031
0
LINE
8
BLACK
6
CONTINUOUS
10
2.35689
20
-2.43031
11
2.39626
21
-2.43031
0
LINE
8
BLACK
6
CONTINUOUS
10
2.39626
20
-2.43031
11
2.39626
21
-2.46969
0
LINE
8
BLACK
6
CONTINUOUS
10
4.64626
20
-2.34469
11
4.60689
21
-2.34469
0
LINE
8
BLACK
6
CONTINUOUS
10
4.60689
20
-2.34469
11
4.60689
21
-2.30531
0
LINE
8
BLACK
6
CONTINUOUS
10
4.60689
20
-2.30531
11
4.64626
21
-2.30531
0
LINE
8
BLACK
6
CONTINUOUS
10
4.64626
20
-2.30531
11
4.64626
21
-2.34469
0
LINE
8
BLACK
6
CONTINUOUS
10
4.74469
20
-2.34469
11
4.70531
21
-2.34469
0
LINE
8
BLACK
6
CONTINUOUS
10
4.70531
20
-2.34469
11
4.70531
21
-2.30531
0
LINE
8
BLACK
6
CONTINUOUS
10
4.70531
20
-2.30531
11
4.74469
21
-2.30531
0
LINE
8
BLACK
6
CONTINUOUS
10
4.74469
20
-2.30531
11
4.74469
21
-2.34469
0
LINE
8
BLACK
6
CONTINUOUS
10
3.24469
20
-2.34469
11
3.20531
21
-2.34469
0
LINE
8
BLACK
6
CONTINUOUS
10
3.20531
20
-2.34469
11
3.20531
21
-2.30531
0
LINE
8
BLACK
6
CONTINUOUS
10
3.20531
20
-2.30531
11
3.24469
21
-2.30531
0
LINE
8
BLACK
6
CONTINUOUS
10
3.24469
20
-2.30531
11
3.24469
21
-2.34469
0
LINE
8
BLACK
6
CONTINUOUS
10
3.14626
20
-2.34469
11
3.10689
21
-2.34469
0
LINE
8
BLACK
6
CONTINUOUS
10
3.10689
20
-2.34469
11
3.10689
21
-2.30531
0
LINE
8
BLACK
6
CONTINUOUS
10
3.10689
20
-2.30531
11
3.14626
21
-2.30531
0
LINE
8
BLACK
6
CONTINUOUS
10
3.14626
20
-2.30531
11
3.14626
21
-2.34469
0
LINE
8
BLACK
6
CONTINUOUS
10
3.89626
20
-2.21969
11
3.85689
21
-2.21969
0
LINE
8
BLACK
6
CONTINUOUS
10
3.85689
20
-2.21969
11
3.85689
21
-2.18031
0
LINE
8
BLACK
6
CONTINUOUS
10
3.85689
20
-2.18031
11
3.89626
21
-2.18031
0
LINE
8
BLACK
6
CONTINUOUS
10
3.89626
20
-2.18031
11
3.89626
21
-2.21969
0
LINE
8
BLACK
6
CONTINUOUS
10
3.99469
20
-2.21969
11
3.95531
21
-2.21969
0
LINE
8
BLACK
6
CONTINUOUS
10
3.95531
20
-2.21969
11
3.95531
21
-2.18031
0
LINE
8
BLACK
6
CONTINUOUS
10
3.95531
20
-2.18031
11
3.99469
21
-2.18031
0
LINE
8
BLACK
6
CONTINUOUS
10
3.99469
20
-2.18031
11
3.99469
21
-2.21969
  0
ENDSEC
  0
EOF
