<?xml version="1.0" standalone="no"?>
 <!DOCTYPE svg PUBLIC "-//W3C//DTD SVG 1.1//EN" 
 "http://www.w3.org/Graphics/SVG/1.1/DTD/svg11.dtd"> 
<svg
  xmlns:svg="http://www.w3.org/2000/svg"
  xmlns="http://www.w3.org/2000/svg"
  xmlns:xlink="http://www.w3.org/1999/xlink"
  version="1.1"
  width="12.438380cm" height="8.102600cm" viewBox="0 0 48970 31900">
<title>SVG Picture created as TartarSauce-brd.svg date 2021/12/28 12:42:33 </title>
  <desc>Picture generated by PCBNEW </desc>
<g style="fill:#000000; fill-opacity:1;stroke:#000000; stroke-opacity:1;
stroke-linecap:round; stroke-linejoin:round;"
 transform="translate(0 0) scale(1 1)">
</g>
<g style="fill:#000000; fill-opacity:0.0; 
stroke:#000000; stroke-width:-0.000393701; stroke-opacity:1; 
stroke-linecap:round; stroke-linejoin:round;">
</g>
<g style="fill:#C2C2C2; fill-opacity:0.0; 
stroke:#C2C2C2; stroke-width:-0.000393701; stroke-opacity:1; 
stroke-linecap:round; stroke-linejoin:round;">
</g>
<g style="fill:#C2C2C2; fill-opacity:0.0; 
stroke:#C2C2C2; stroke-width:19.685; stroke-opacity:1; 
stroke-linecap:round; stroke-linejoin:round;">
<circle cx="44213.4" cy="19548.2" r="964.567" /> 
<circle cx="39713.4" cy="30298.2" r="964.567" /> 
<circle cx="11463.4" cy="30298.2" r="964.567" /> 
<circle cx="16963.4" cy="6048.23" r="964.567" /> 
<circle cx="39213.4" cy="5548.23" r="964.567" /> 
<circle cx="3713.44" cy="7548.23" r="964.567" /> 
<path d="M44922 24408
L43623 24408
" />
<path d="M44922 23834
L44922 24408
" />
<path d="M43623 23834
L44922 23834
" />
<path d="M43623 24408
L43623 23834
" />
<path d="M29923 14409
L28624 14409
" />
<path d="M29923 13834
L29923 14409
" />
<path d="M28624 13834
L29923 13834
" />
<path d="M28624 14409
L28624 13834
" />
<path d="M37422 23158
L36123 23158
" />
<path d="M37422 22584
L37422 23158
" />
<path d="M36123 22584
L37422 22584
" />
<path d="M36123 23158
L36123 22584
" />
<path d="M37422 15659
L36123 15659
" />
<path d="M37422 15084
L37422 15659
" />
<path d="M36123 15084
L37422 15084
" />
<path d="M36123 15659
L36123 15084
" />
<path d="M37422 8159
L36123 8159
" />
<path d="M37422 7585
L37422 8159
" />
<path d="M36123 7585
L37422 7585
" />
<path d="M36123 8159
L36123 7585
" />
<path d="M29923 21909
L28624 21909
" />
<path d="M29923 21334
L29923 21909
" />
<path d="M28624 21334
L29923 21334
" />
<path d="M28624 21909
L28624 21334
" />
<path d="M29923 6910
L28624 6910
" />
<path d="M29923 6335
L29923 6910
" />
<path d="M28624 6335
L29923 6335
" />
<path d="M28624 6910
L28624 6335
" />
<path d="M22423 23158
L21124 23158
" />
<path d="M22423 22584
L22423 23158
" />
<path d="M21124 22584
L22423 22584
" />
<path d="M21124 23158
L21124 22584
" />
<path d="M22423 15659
L21124 15659
" />
<path d="M22423 15084
L22423 15659
" />
<path d="M21124 15084
L22423 15084
" />
<path d="M21124 15659
L21124 15084
" />
<path d="M22423 8159
L21124 8159
" />
<path d="M22423 7585
L22423 8159
" />
<path d="M21124 7585
L22423 7585
" />
<path d="M21124 8159
L21124 7585
" />
<path d="M14924 24408
L13625 24408
" />
<path d="M14924 23834
L14924 24408
" />
<path d="M13625 23834
L14924 23834
" />
<path d="M13625 24408
L13625 23834
" />
<path d="M14924 16909
L13625 16909
" />
<path d="M14924 16334
L14924 16909
" />
<path d="M13625 16334
L14924 16334
" />
<path d="M13625 16909
L13625 16334
" />
<path d="M14924 9409
L13625 9409
" />
<path d="M14924 8835
L14924 9409
" />
<path d="M13625 8835
L14924 8835
" />
<path d="M13625 9409
L13625 8835
" />
<path d="M7424 25658
L6125 25658
" />
<path d="M7424 25084
L7424 25658
" />
<path d="M6125 25084
L7424 25084
" />
<path d="M6125 25658
L6125 25084
" />
<path d="M7424 18159
L6125 18159
" />
<path d="M7424 17584
L7424 18159
" />
<path d="M6125 17584
L7424 17584
" />
<path d="M6125 18159
L6125 17584
" />
<path d="M7424 10659
L6125 10659
" />
<path d="M7424 10084
L7424 10659
" />
<path d="M6125 10084
L7424 10084
" />
<path d="M6125 10659
L6125 10084
" />
<path d="M37922 2339
L35500 2339
" />
<path d="M35500 2339
L35500 3756
" />
<path d="M35500 3756
L37922 3756
" />
<path d="M37922 3756
L37922 2339
" />
<path d="M22670 2339
L20248 2339
" />
<path d="M20248 2339
L20248 3756
" />
<path d="M20248 3756
L22670 3756
" />
<path d="M22670 3756
L22670 2339
" />
<path d="M25002 3756
L33408 3756
" />
<path d="M33408 3756
L33408 2339
" />
<path d="M33408 2339
L25002 2339
" />
<path d="M25002 2339
L25002 3756
" />
<g >
</g>
<g >
</g>
<g >
</g>
<g >
</g>
<g >
</g>
<g >
</g>
<g >
</g>
<g >
</g>
<g >
</g>
<g >
</g>
<g >
</g>
<g >
</g>
<g >
</g>
<g >
</g>
<g >
</g>
<g >
</g>
<g >
</g>
<g >
</g>
<g >
</g>
<g >
</g>
<g >
</g>
<g >
</g>
<g >
</g>
<g >
</g>
<g >
</g>
<g >
</g>
<g >
</g>
<g >
</g>
<g >
</g>
<g >
</g>
<g >
</g>
<g >
</g>
<g >
</g>
<g >
</g>
<g >
</g>
<g >
</g>
<g >
</g>
<g >
</g>
<g >
</g>
<g >
</g>
<g >
</g>
<g >
</g>
<g >
</g>
<g >
</g>
<g >
</g>
<g >
</g>
<g >
</g>
</g>
<g style="fill:#000000; fill-opacity:0.0; 
stroke:#000000; stroke-width:19.685; stroke-opacity:1; 
stroke-linecap:round; stroke-linejoin:round;">
</g>
<g style="fill:#C2C200; fill-opacity:0.0; 
stroke:#C2C200; stroke-width:19.685; stroke-opacity:1; 
stroke-linecap:round; stroke-linejoin:round;">
<path d="M19713 1298
L48213 1298
" />
<path d="M2463 7048
L2463 6298
" />
<path d="M3004.01 5548.23 A790.569 790.569 0.0 0 0 2463.44 6298.23" />
<path d="M19476 1336
L3004 5548
" />
<path d="M19713.4 1298.23 A750 750 0.0 0 0 19476.3 1336.72" />
<path d="M48963 30548
L48963 2048
" />
<path d="M48213.4 31298.2 A750 750 0.0 0 0 48963.4 30548.2" />
<path d="M3213 31298
L48213 31298
" />
<path d="M2463.44 30548.2 A750 750 0.0 0 0 3213.44 31298.2" />
<path d="M48963.4 2048.23 A750 750 0.0 0 0 48213.4 1298.23" />
<path d="M2463 7048
L2463 30548
" />
<g >
</g>
<g >
</g>
<g >
</g>
<g >
</g>
<g >
</g>
<g >
</g>
<g >
</g>
<g >
</g>
<g >
</g>
<g >
</g>
<g >
</g>
<g >
</g>
<g >
</g>
<g >
</g>
<g >
</g>
<g >
</g>
<g >
</g>
<g >
</g>
<g >
</g>
<g >
</g>
<g >
</g>
<g >
</g>
<g >
</g>
<g >
</g>
<g >
</g>
<g >
</g>
<g >
</g>
<g >
</g>
<g >
</g>
<g >
</g>
<g >
</g>
<g >
</g>
<g >
</g>
<g >
</g>
<g >
</g>
<g >
</g>
<g >
</g>
<g >
</g>
<g >
</g>
<g >
</g>
<g >
</g>
<g >
</g>
<g >
</g>
<g >
</g>
<g >
</g>
<g >
</g>
<g >
</g>
</g> 
</svg>
