  0
SECTION
  2
HEADER
  9
$ANGBASE
  50
0.0
  9
$ANGDIR
  70
1
  9
$MEASUREMENT
  70
1
  0
ENDSEC
  0
SECTION
  2
TABLES
  0
TABLE
  2
LTYPE
  70
4
  0
LTYPE
  5
40F
  2
CONTINUOUS
  70
0
  3
Solid line
  72
65
  73
0
  40
0.0
  0
LTYPE
  5
410
  2
DASHDOT
 70
0
  3
Dash Dot ____ _ ____ _
 72
65
 73
4
 40
2.0
 49
1.25
 49
-0.25
 49
0.25
 49
-0.25
  0
LTYPE
  5
411
  2
DASHED
 70
0
  3
Dashed __ __ __ __ __
 72
65
 73
2
 40
0.75
 49
0.5
 49
-0.25
  0
LTYPE
  5
43B
  2
DOTTED
 70
0
  3
Dotted .  .  .  .
 72
65
 73
2
 40
0.2
 49
0.0
 49
-0.2
  0
ENDTAB
  0
TABLE
  2
STYLE
  70
4
  0
STYLE
  2
KICAD
  70
0
  40
0
  41
1
  42
1
  50
0
  71
0
  3
isocp.shx
  0
STYLE
  2
KICADB
  70
0
  40
0
  41
1
  42
1
  50
0
  71
0
  3
isocp.shx
  0
STYLE
  2
KICADI
  70
0
  40
0
  41
1
  42
1
  50
15
  71
0
  3
isocp.shx
  0
STYLE
  2
KICADBI
  70
0
  40
0
  41
1
  42
1
  50
15
  71
0
  3
isocp.shx
  0
ENDTAB
  0
TABLE
  2
LAYER
  70
1
  0
LAYER
  2
BLACK
  70
0
  62
7
  6
CONTINUOUS
  0
ENDTAB
  0
ENDSEC
  0
SECTION
  2
ENTITIES
0
LINE
8
BLACK
6
CONTINUOUS
10
41.8133
20
-92.7759
11
41.8133
21
-92.7759
0
LINE
8
BLACK
6
CONTINUOUS
10
41.8133
20
-92.7759
11
41.817
21
-92.7763
0
LINE
8
BLACK
6
CONTINUOUS
10
41.817
20
-92.7763
11
41.8217
21
-92.7777
0
LINE
8
BLACK
6
CONTINUOUS
10
41.8217
20
-92.7777
11
41.826
21
-92.78
0
LINE
8
BLACK
6
CONTINUOUS
10
41.826
20
-92.78
11
41.8298
21
-92.7831
0
LINE
8
BLACK
6
CONTINUOUS
10
41.8298
20
-92.7831
11
41.833
21
-92.787
0
LINE
8
BLACK
6
CONTINUOUS
10
41.833
20
-92.787
11
41.8353
21
-92.7913
0
LINE
8
BLACK
6
CONTINUOUS
10
41.8353
20
-92.7913
11
41.8367
21
-92.796
0
LINE
8
BLACK
6
CONTINUOUS
10
41.8367
20
-92.796
11
41.8372
21
-92.8009
0
LINE
8
BLACK
6
CONTINUOUS
10
41.8372
20
-92.8009
11
41.8371
21
-92.8021
0
LINE
8
BLACK
6
CONTINUOUS
10
41.8371
20
-92.8021
11
41.8371
21
-94.2597
0
LINE
8
BLACK
6
CONTINUOUS
10
41.8371
20
-94.2597
11
41.8372
21
-94.2609
0
LINE
8
BLACK
6
CONTINUOUS
10
41.8372
20
-94.2609
11
41.8371
21
-94.2621
0
LINE
8
BLACK
6
CONTINUOUS
10
41.8371
20
-94.2621
11
41.8371
21
-94.2621
0
LINE
8
BLACK
6
CONTINUOUS
10
41.8371
20
-94.2621
11
41.8367
21
-94.2658
0
LINE
8
BLACK
6
CONTINUOUS
10
41.8367
20
-94.2658
11
41.8353
21
-94.2705
0
LINE
8
BLACK
6
CONTINUOUS
10
41.8353
20
-94.2705
11
41.833
21
-94.2749
0
LINE
8
BLACK
6
CONTINUOUS
10
41.833
20
-94.2749
11
41.8298
21
-94.2787
0
LINE
8
BLACK
6
CONTINUOUS
10
41.8298
20
-94.2787
11
41.826
21
-94.2818
0
LINE
8
BLACK
6
CONTINUOUS
10
41.826
20
-94.2818
11
41.8217
21
-94.2841
0
LINE
8
BLACK
6
CONTINUOUS
10
41.8217
20
-94.2841
11
41.817
21
-94.2855
0
LINE
8
BLACK
6
CONTINUOUS
10
41.817
20
-94.2855
11
41.8121
21
-94.286
0
LINE
8
BLACK
6
CONTINUOUS
10
41.8121
20
-94.286
11
41.8108
21
-94.2859
0
LINE
8
BLACK
6
CONTINUOUS
10
41.8108
20
-94.2859
11
38.5133
21
-94.2859
0
LINE
8
BLACK
6
CONTINUOUS
10
38.5133
20
-94.2859
11
38.5121
21
-94.286
0
LINE
8
BLACK
6
CONTINUOUS
10
38.5121
20
-94.286
11
38.5072
21
-94.2855
0
LINE
8
BLACK
6
CONTINUOUS
10
38.5072
20
-94.2855
11
38.5025
21
-94.2841
0
LINE
8
BLACK
6
CONTINUOUS
10
38.5025
20
-94.2841
11
38.4981
21
-94.2818
0
LINE
8
BLACK
6
CONTINUOUS
10
38.4981
20
-94.2818
11
38.4943
21
-94.2787
0
LINE
8
BLACK
6
CONTINUOUS
10
38.4943
20
-94.2787
11
38.4912
21
-94.2749
0
LINE
8
BLACK
6
CONTINUOUS
10
38.4912
20
-94.2749
11
38.4889
21
-94.2705
0
LINE
8
BLACK
6
CONTINUOUS
10
38.4889
20
-94.2705
11
38.4874
21
-94.2658
0
LINE
8
BLACK
6
CONTINUOUS
10
38.4874
20
-94.2658
11
38.4869
21
-94.2609
0
LINE
8
BLACK
6
CONTINUOUS
10
38.4869
20
-94.2609
11
38.4871
21
-94.2597
0
LINE
8
BLACK
6
CONTINUOUS
10
38.4871
20
-94.2597
11
38.4871
21
-92.8021
0
LINE
8
BLACK
6
CONTINUOUS
10
38.4871
20
-92.8021
11
38.4869
21
-92.8009
0
LINE
8
BLACK
6
CONTINUOUS
10
38.4869
20
-92.8009
11
38.4874
21
-92.796
0
LINE
8
BLACK
6
CONTINUOUS
10
38.4874
20
-92.796
11
38.4889
21
-92.7913
0
LINE
8
BLACK
6
CONTINUOUS
10
38.4889
20
-92.7913
11
38.4912
21
-92.787
0
LINE
8
BLACK
6
CONTINUOUS
10
38.4912
20
-92.787
11
38.4943
21
-92.7831
0
LINE
8
BLACK
6
CONTINUOUS
10
38.4943
20
-92.7831
11
38.4981
21
-92.78
0
LINE
8
BLACK
6
CONTINUOUS
10
38.4981
20
-92.78
11
38.5025
21
-92.7777
0
LINE
8
BLACK
6
CONTINUOUS
10
38.5025
20
-92.7777
11
38.5072
21
-92.7763
0
LINE
8
BLACK
6
CONTINUOUS
10
38.5072
20
-92.7763
11
38.5108
21
-92.7759
0
LINE
8
BLACK
6
CONTINUOUS
10
38.5108
20
-92.7759
11
38.5108
21
-92.7759
0
LINE
8
BLACK
6
CONTINUOUS
10
38.5108
20
-92.7759
11
38.5121
21
-92.7758
0
LINE
8
BLACK
6
CONTINUOUS
10
38.5121
20
-92.7758
11
38.5133
21
-92.7759
0
LINE
8
BLACK
6
CONTINUOUS
10
38.5133
20
-92.7759
11
41.8108
21
-92.7759
0
LINE
8
BLACK
6
CONTINUOUS
10
41.8108
20
-92.7759
11
41.8121
21
-92.7758
0
LINE
8
BLACK
6
CONTINUOUS
10
41.8121
20
-92.7758
11
41.8133
21
-92.7759
0
LINE
8
BLACK
6
CONTINUOUS
10
38.5371
20
-92.8259
11
38.5371
21
-94.2359
0
LINE
8
BLACK
6
CONTINUOUS
10
38.5371
20
-94.2359
11
41.7871
21
-94.2359
0
LINE
8
BLACK
6
CONTINUOUS
10
41.7871
20
-94.2359
11
41.7871
21
-92.8259
0
LINE
8
BLACK
6
CONTINUOUS
10
41.7871
20
-92.8259
11
38.5371
21
-92.8259
0
LINE
8
BLACK
6
CONTINUOUS
10
137.057
20
-89.6011
11
137.057
21
-89.6011
0
LINE
8
BLACK
6
CONTINUOUS
10
137.057
20
-89.6011
11
137.061
21
-89.6015
0
LINE
8
BLACK
6
CONTINUOUS
10
137.061
20
-89.6015
11
137.066
21
-89.6029
0
LINE
8
BLACK
6
CONTINUOUS
10
137.066
20
-89.6029
11
137.07
21
-89.6052
0
LINE
8
BLACK
6
CONTINUOUS
10
137.07
20
-89.6052
11
137.074
21
-89.6084
0
LINE
8
BLACK
6
CONTINUOUS
10
137.074
20
-89.6084
11
137.077
21
-89.6122
0
LINE
8
BLACK
6
CONTINUOUS
10
137.077
20
-89.6122
11
137.079
21
-89.6165
0
LINE
8
BLACK
6
CONTINUOUS
10
137.079
20
-89.6165
11
137.081
21
-89.6212
0
LINE
8
BLACK
6
CONTINUOUS
10
137.081
20
-89.6212
11
137.081
21
-89.6261
0
LINE
8
BLACK
6
CONTINUOUS
10
137.081
20
-89.6261
11
137.081
21
-89.6273
0
LINE
8
BLACK
6
CONTINUOUS
10
137.081
20
-89.6273
11
137.081
21
-91.0849
0
LINE
8
BLACK
6
CONTINUOUS
10
137.081
20
-91.0849
11
137.081
21
-91.0861
0
LINE
8
BLACK
6
CONTINUOUS
10
137.081
20
-91.0861
11
137.081
21
-91.0873
0
LINE
8
BLACK
6
CONTINUOUS
10
137.081
20
-91.0873
11
137.081
21
-91.0873
0
LINE
8
BLACK
6
CONTINUOUS
10
137.081
20
-91.0873
11
137.081
21
-91.091
0
LINE
8
BLACK
6
CONTINUOUS
10
137.081
20
-91.091
11
137.079
21
-91.0957
0
LINE
8
BLACK
6
CONTINUOUS
10
137.079
20
-91.0957
11
137.077
21
-91.1001
0
LINE
8
BLACK
6
CONTINUOUS
10
137.077
20
-91.1001
11
137.074
21
-91.1039
0
LINE
8
BLACK
6
CONTINUOUS
10
137.074
20
-91.1039
11
137.07
21
-91.107
0
LINE
8
BLACK
6
CONTINUOUS
10
137.07
20
-91.107
11
137.066
21
-91.1093
0
LINE
8
BLACK
6
CONTINUOUS
10
137.066
20
-91.1093
11
137.061
21
-91.1108
0
LINE
8
BLACK
6
CONTINUOUS
10
137.061
20
-91.1108
11
137.056
21
-91.1112
0
LINE
8
BLACK
6
CONTINUOUS
10
137.056
20
-91.1112
11
137.055
21
-91.1111
0
LINE
8
BLACK
6
CONTINUOUS
10
137.055
20
-91.1111
11
133.757
21
-91.1111
0
LINE
8
BLACK
6
CONTINUOUS
10
133.757
20
-91.1111
11
133.756
21
-91.1112
0
LINE
8
BLACK
6
CONTINUOUS
10
133.756
20
-91.1112
11
133.751
21
-91.1108
0
LINE
8
BLACK
6
CONTINUOUS
10
133.751
20
-91.1108
11
133.746
21
-91.1093
0
LINE
8
BLACK
6
CONTINUOUS
10
133.746
20
-91.1093
11
133.742
21
-91.107
0
LINE
8
BLACK
6
CONTINUOUS
10
133.742
20
-91.107
11
133.738
21
-91.1039
0
LINE
8
BLACK
6
CONTINUOUS
10
133.738
20
-91.1039
11
133.735
21
-91.1001
0
LINE
8
BLACK
6
CONTINUOUS
10
133.735
20
-91.1001
11
133.733
21
-91.0957
0
LINE
8
BLACK
6
CONTINUOUS
10
133.733
20
-91.0957
11
133.731
21
-91.091
0
LINE
8
BLACK
6
CONTINUOUS
10
133.731
20
-91.091
11
133.731
21
-91.0861
0
LINE
8
BLACK
6
CONTINUOUS
10
133.731
20
-91.0861
11
133.731
21
-91.0849
0
LINE
8
BLACK
6
CONTINUOUS
10
133.731
20
-91.0849
11
133.731
21
-89.6273
0
LINE
8
BLACK
6
CONTINUOUS
10
133.731
20
-89.6273
11
133.731
21
-89.6261
0
LINE
8
BLACK
6
CONTINUOUS
10
133.731
20
-89.6261
11
133.731
21
-89.6212
0
LINE
8
BLACK
6
CONTINUOUS
10
133.731
20
-89.6212
11
133.733
21
-89.6165
0
LINE
8
BLACK
6
CONTINUOUS
10
133.733
20
-89.6165
11
133.735
21
-89.6122
0
LINE
8
BLACK
6
CONTINUOUS
10
133.735
20
-89.6122
11
133.738
21
-89.6084
0
LINE
8
BLACK
6
CONTINUOUS
10
133.738
20
-89.6084
11
133.742
21
-89.6052
0
LINE
8
BLACK
6
CONTINUOUS
10
133.742
20
-89.6052
11
133.746
21
-89.6029
0
LINE
8
BLACK
6
CONTINUOUS
10
133.746
20
-89.6029
11
133.751
21
-89.6015
0
LINE
8
BLACK
6
CONTINUOUS
10
133.751
20
-89.6015
11
133.755
21
-89.6011
0
LINE
8
BLACK
6
CONTINUOUS
10
133.755
20
-89.6011
11
133.755
21
-89.6011
0
LINE
8
BLACK
6
CONTINUOUS
10
133.755
20
-89.6011
11
133.756
21
-89.601
0
LINE
8
BLACK
6
CONTINUOUS
10
133.756
20
-89.601
11
133.757
21
-89.6011
0
LINE
8
BLACK
6
CONTINUOUS
10
133.757
20
-89.6011
11
137.055
21
-89.6011
0
LINE
8
BLACK
6
CONTINUOUS
10
137.055
20
-89.6011
11
137.056
21
-89.601
0
LINE
8
BLACK
6
CONTINUOUS
10
137.056
20
-89.601
11
137.057
21
-89.6011
0
LINE
8
BLACK
6
CONTINUOUS
10
133.781
20
-89.6511
11
133.781
21
-91.0611
0
LINE
8
BLACK
6
CONTINUOUS
10
133.781
20
-91.0611
11
137.031
21
-91.0611
0
LINE
8
BLACK
6
CONTINUOUS
10
137.031
20
-91.0611
11
137.031
21
-89.6511
0
LINE
8
BLACK
6
CONTINUOUS
10
137.031
20
-89.6511
11
133.781
21
-89.6511
0
LINE
8
BLACK
6
CONTINUOUS
10
60.8621
20
-89.6011
11
60.8621
21
-89.6011
0
LINE
8
BLACK
6
CONTINUOUS
10
60.8621
20
-89.6011
11
60.8657
21
-89.6015
0
LINE
8
BLACK
6
CONTINUOUS
10
60.8657
20
-89.6015
11
60.8705
21
-89.6029
0
LINE
8
BLACK
6
CONTINUOUS
10
60.8705
20
-89.6029
11
60.8748
21
-89.6052
0
LINE
8
BLACK
6
CONTINUOUS
10
60.8748
20
-89.6052
11
60.8786
21
-89.6084
0
LINE
8
BLACK
6
CONTINUOUS
10
60.8786
20
-89.6084
11
60.8817
21
-89.6122
0
LINE
8
BLACK
6
CONTINUOUS
10
60.8817
20
-89.6122
11
60.8841
21
-89.6165
0
LINE
8
BLACK
6
CONTINUOUS
10
60.8841
20
-89.6165
11
60.8855
21
-89.6212
0
LINE
8
BLACK
6
CONTINUOUS
10
60.8855
20
-89.6212
11
60.886
21
-89.6261
0
LINE
8
BLACK
6
CONTINUOUS
10
60.886
20
-89.6261
11
60.8858
21
-89.6273
0
LINE
8
BLACK
6
CONTINUOUS
10
60.8858
20
-89.6273
11
60.8858
21
-91.0849
0
LINE
8
BLACK
6
CONTINUOUS
10
60.8858
20
-91.0849
11
60.886
21
-91.0861
0
LINE
8
BLACK
6
CONTINUOUS
10
60.886
20
-91.0861
11
60.8858
21
-91.0873
0
LINE
8
BLACK
6
CONTINUOUS
10
60.8858
20
-91.0873
11
60.8858
21
-91.0873
0
LINE
8
BLACK
6
CONTINUOUS
10
60.8858
20
-91.0873
11
60.8855
21
-91.091
0
LINE
8
BLACK
6
CONTINUOUS
10
60.8855
20
-91.091
11
60.8841
21
-91.0957
0
LINE
8
BLACK
6
CONTINUOUS
10
60.8841
20
-91.0957
11
60.8817
21
-91.1001
0
LINE
8
BLACK
6
CONTINUOUS
10
60.8817
20
-91.1001
11
60.8786
21
-91.1039
0
LINE
8
BLACK
6
CONTINUOUS
10
60.8786
20
-91.1039
11
60.8748
21
-91.107
0
LINE
8
BLACK
6
CONTINUOUS
10
60.8748
20
-91.107
11
60.8705
21
-91.1093
0
LINE
8
BLACK
6
CONTINUOUS
10
60.8705
20
-91.1093
11
60.8657
21
-91.1108
0
LINE
8
BLACK
6
CONTINUOUS
10
60.8657
20
-91.1108
11
60.8608
21
-91.1112
0
LINE
8
BLACK
6
CONTINUOUS
10
60.8608
20
-91.1112
11
60.8596
21
-91.1111
0
LINE
8
BLACK
6
CONTINUOUS
10
60.8596
20
-91.1111
11
57.5621
21
-91.1111
0
LINE
8
BLACK
6
CONTINUOUS
10
57.5621
20
-91.1111
11
57.5608
21
-91.1112
0
LINE
8
BLACK
6
CONTINUOUS
10
57.5608
20
-91.1112
11
57.5559
21
-91.1108
0
LINE
8
BLACK
6
CONTINUOUS
10
57.5559
20
-91.1108
11
57.5512
21
-91.1093
0
LINE
8
BLACK
6
CONTINUOUS
10
57.5512
20
-91.1093
11
57.5469
21
-91.107
0
LINE
8
BLACK
6
CONTINUOUS
10
57.5469
20
-91.107
11
57.5431
21
-91.1039
0
LINE
8
BLACK
6
CONTINUOUS
10
57.5431
20
-91.1039
11
57.54
21
-91.1001
0
LINE
8
BLACK
6
CONTINUOUS
10
57.54
20
-91.1001
11
57.5376
21
-91.0957
0
LINE
8
BLACK
6
CONTINUOUS
10
57.5376
20
-91.0957
11
57.5362
21
-91.091
0
LINE
8
BLACK
6
CONTINUOUS
10
57.5362
20
-91.091
11
57.5357
21
-91.0861
0
LINE
8
BLACK
6
CONTINUOUS
10
57.5357
20
-91.0861
11
57.5358
21
-91.0849
0
LINE
8
BLACK
6
CONTINUOUS
10
57.5358
20
-91.0849
11
57.5358
21
-89.6273
0
LINE
8
BLACK
6
CONTINUOUS
10
57.5358
20
-89.6273
11
57.5357
21
-89.6261
0
LINE
8
BLACK
6
CONTINUOUS
10
57.5357
20
-89.6261
11
57.5362
21
-89.6212
0
LINE
8
BLACK
6
CONTINUOUS
10
57.5362
20
-89.6212
11
57.5376
21
-89.6165
0
LINE
8
BLACK
6
CONTINUOUS
10
57.5376
20
-89.6165
11
57.54
21
-89.6122
0
LINE
8
BLACK
6
CONTINUOUS
10
57.54
20
-89.6122
11
57.5431
21
-89.6084
0
LINE
8
BLACK
6
CONTINUOUS
10
57.5431
20
-89.6084
11
57.5469
21
-89.6052
0
LINE
8
BLACK
6
CONTINUOUS
10
57.5469
20
-89.6052
11
57.5512
21
-89.6029
0
LINE
8
BLACK
6
CONTINUOUS
10
57.5512
20
-89.6029
11
57.5559
21
-89.6015
0
LINE
8
BLACK
6
CONTINUOUS
10
57.5559
20
-89.6015
11
57.5596
21
-89.6011
0
LINE
8
BLACK
6
CONTINUOUS
10
57.5596
20
-89.6011
11
57.5596
21
-89.6011
0
LINE
8
BLACK
6
CONTINUOUS
10
57.5596
20
-89.6011
11
57.5608
21
-89.601
0
LINE
8
BLACK
6
CONTINUOUS
10
57.5608
20
-89.601
11
57.5621
21
-89.6011
0
LINE
8
BLACK
6
CONTINUOUS
10
57.5621
20
-89.6011
11
60.8596
21
-89.6011
0
LINE
8
BLACK
6
CONTINUOUS
10
60.8596
20
-89.6011
11
60.8608
21
-89.601
0
LINE
8
BLACK
6
CONTINUOUS
10
60.8608
20
-89.601
11
60.8621
21
-89.6011
0
LINE
8
BLACK
6
CONTINUOUS
10
57.5858
20
-89.6511
11
57.5858
21
-91.0611
0
LINE
8
BLACK
6
CONTINUOUS
10
57.5858
20
-91.0611
11
60.8358
21
-91.0611
0
LINE
8
BLACK
6
CONTINUOUS
10
60.8358
20
-91.0611
11
60.8358
21
-89.6511
0
LINE
8
BLACK
6
CONTINUOUS
10
60.8358
20
-89.6511
11
57.5858
21
-89.6511
0
LINE
8
BLACK
6
CONTINUOUS
10
79.9108
20
-86.4263
11
79.9108
21
-86.4263
0
LINE
8
BLACK
6
CONTINUOUS
10
79.9108
20
-86.4263
11
79.9145
21
-86.4267
0
LINE
8
BLACK
6
CONTINUOUS
10
79.9145
20
-86.4267
11
79.9192
21
-86.4281
0
LINE
8
BLACK
6
CONTINUOUS
10
79.9192
20
-86.4281
11
79.9236
21
-86.4304
0
LINE
8
BLACK
6
CONTINUOUS
10
79.9236
20
-86.4304
11
79.9274
21
-86.4336
0
LINE
8
BLACK
6
CONTINUOUS
10
79.9274
20
-86.4336
11
79.9305
21
-86.4374
0
LINE
8
BLACK
6
CONTINUOUS
10
79.9305
20
-86.4374
11
79.9328
21
-86.4417
0
LINE
8
BLACK
6
CONTINUOUS
10
79.9328
20
-86.4417
11
79.9343
21
-86.4464
0
LINE
8
BLACK
6
CONTINUOUS
10
79.9343
20
-86.4464
11
79.9347
21
-86.4513
0
LINE
8
BLACK
6
CONTINUOUS
10
79.9347
20
-86.4513
11
79.9346
21
-86.4525
0
LINE
8
BLACK
6
CONTINUOUS
10
79.9346
20
-86.4525
11
79.9346
21
-87.9101
0
LINE
8
BLACK
6
CONTINUOUS
10
79.9346
20
-87.9101
11
79.9347
21
-87.9113
0
LINE
8
BLACK
6
CONTINUOUS
10
79.9347
20
-87.9113
11
79.9346
21
-87.9125
0
LINE
8
BLACK
6
CONTINUOUS
10
79.9346
20
-87.9125
11
79.9346
21
-87.9125
0
LINE
8
BLACK
6
CONTINUOUS
10
79.9346
20
-87.9125
11
79.9343
21
-87.9162
0
LINE
8
BLACK
6
CONTINUOUS
10
79.9343
20
-87.9162
11
79.9328
21
-87.9209
0
LINE
8
BLACK
6
CONTINUOUS
10
79.9328
20
-87.9209
11
79.9305
21
-87.9253
0
LINE
8
BLACK
6
CONTINUOUS
10
79.9305
20
-87.9253
11
79.9274
21
-87.9291
0
LINE
8
BLACK
6
CONTINUOUS
10
79.9274
20
-87.9291
11
79.9236
21
-87.9322
0
LINE
8
BLACK
6
CONTINUOUS
10
79.9236
20
-87.9322
11
79.9192
21
-87.9345
0
LINE
8
BLACK
6
CONTINUOUS
10
79.9192
20
-87.9345
11
79.9145
21
-87.936
0
LINE
8
BLACK
6
CONTINUOUS
10
79.9145
20
-87.936
11
79.9096
21
-87.9364
0
LINE
8
BLACK
6
CONTINUOUS
10
79.9096
20
-87.9364
11
79.9084
21
-87.9363
0
LINE
8
BLACK
6
CONTINUOUS
10
79.9084
20
-87.9363
11
76.6108
21
-87.9363
0
LINE
8
BLACK
6
CONTINUOUS
10
76.6108
20
-87.9363
11
76.6096
21
-87.9364
0
LINE
8
BLACK
6
CONTINUOUS
10
76.6096
20
-87.9364
11
76.6047
21
-87.936
0
LINE
8
BLACK
6
CONTINUOUS
10
76.6047
20
-87.936
11
76.6
21
-87.9345
0
LINE
8
BLACK
6
CONTINUOUS
10
76.6
20
-87.9345
11
76.5957
21
-87.9322
0
LINE
8
BLACK
6
CONTINUOUS
10
76.5957
20
-87.9322
11
76.5919
21
-87.9291
0
LINE
8
BLACK
6
CONTINUOUS
10
76.5919
20
-87.9291
11
76.5887
21
-87.9253
0
LINE
8
BLACK
6
CONTINUOUS
10
76.5887
20
-87.9253
11
76.5864
21
-87.9209
0
LINE
8
BLACK
6
CONTINUOUS
10
76.5864
20
-87.9209
11
76.585
21
-87.9162
0
LINE
8
BLACK
6
CONTINUOUS
10
76.585
20
-87.9162
11
76.5845
21
-87.9113
0
LINE
8
BLACK
6
CONTINUOUS
10
76.5845
20
-87.9113
11
76.5846
21
-87.9101
0
LINE
8
BLACK
6
CONTINUOUS
10
76.5846
20
-87.9101
11
76.5846
21
-86.4525
0
LINE
8
BLACK
6
CONTINUOUS
10
76.5846
20
-86.4525
11
76.5845
21
-86.4513
0
LINE
8
BLACK
6
CONTINUOUS
10
76.5845
20
-86.4513
11
76.585
21
-86.4464
0
LINE
8
BLACK
6
CONTINUOUS
10
76.585
20
-86.4464
11
76.5864
21
-86.4417
0
LINE
8
BLACK
6
CONTINUOUS
10
76.5864
20
-86.4417
11
76.5887
21
-86.4374
0
LINE
8
BLACK
6
CONTINUOUS
10
76.5887
20
-86.4374
11
76.5919
21
-86.4336
0
LINE
8
BLACK
6
CONTINUOUS
10
76.5919
20
-86.4336
11
76.5957
21
-86.4304
0
LINE
8
BLACK
6
CONTINUOUS
10
76.5957
20
-86.4304
11
76.6
21
-86.4281
0
LINE
8
BLACK
6
CONTINUOUS
10
76.6
20
-86.4281
11
76.6047
21
-86.4267
0
LINE
8
BLACK
6
CONTINUOUS
10
76.6047
20
-86.4267
11
76.6084
21
-86.4263
0
LINE
8
BLACK
6
CONTINUOUS
10
76.6084
20
-86.4263
11
76.6084
21
-86.4263
0
LINE
8
BLACK
6
CONTINUOUS
10
76.6084
20
-86.4263
11
76.6096
21
-86.4262
0
LINE
8
BLACK
6
CONTINUOUS
10
76.6096
20
-86.4262
11
76.6108
21
-86.4263
0
LINE
8
BLACK
6
CONTINUOUS
10
76.6108
20
-86.4263
11
79.9084
21
-86.4263
0
LINE
8
BLACK
6
CONTINUOUS
10
79.9084
20
-86.4263
11
79.9096
21
-86.4262
0
LINE
8
BLACK
6
CONTINUOUS
10
79.9096
20
-86.4262
11
79.9108
21
-86.4263
0
LINE
8
BLACK
6
CONTINUOUS
10
76.6346
20
-86.4763
11
76.6346
21
-87.8863
0
LINE
8
BLACK
6
CONTINUOUS
10
76.6346
20
-87.8863
11
79.8846
21
-87.8863
0
LINE
8
BLACK
6
CONTINUOUS
10
79.8846
20
-87.8863
11
79.8846
21
-86.4763
0
LINE
8
BLACK
6
CONTINUOUS
10
79.8846
20
-86.4763
11
76.6346
21
-86.4763
0
LINE
8
BLACK
6
CONTINUOUS
10
118.008
20
-86.4263
11
118.008
21
-86.4263
0
LINE
8
BLACK
6
CONTINUOUS
10
118.008
20
-86.4263
11
118.012
21
-86.4267
0
LINE
8
BLACK
6
CONTINUOUS
10
118.012
20
-86.4267
11
118.017
21
-86.4281
0
LINE
8
BLACK
6
CONTINUOUS
10
118.017
20
-86.4281
11
118.021
21
-86.4304
0
LINE
8
BLACK
6
CONTINUOUS
10
118.021
20
-86.4304
11
118.025
21
-86.4336
0
LINE
8
BLACK
6
CONTINUOUS
10
118.025
20
-86.4336
11
118.028
21
-86.4374
0
LINE
8
BLACK
6
CONTINUOUS
10
118.028
20
-86.4374
11
118.03
21
-86.4417
0
LINE
8
BLACK
6
CONTINUOUS
10
118.03
20
-86.4417
11
118.032
21
-86.4464
0
LINE
8
BLACK
6
CONTINUOUS
10
118.032
20
-86.4464
11
118.032
21
-86.4513
0
LINE
8
BLACK
6
CONTINUOUS
10
118.032
20
-86.4513
11
118.032
21
-86.4525
0
LINE
8
BLACK
6
CONTINUOUS
10
118.032
20
-86.4525
11
118.032
21
-87.9101
0
LINE
8
BLACK
6
CONTINUOUS
10
118.032
20
-87.9101
11
118.032
21
-87.9113
0
LINE
8
BLACK
6
CONTINUOUS
10
118.032
20
-87.9113
11
118.032
21
-87.9125
0
LINE
8
BLACK
6
CONTINUOUS
10
118.032
20
-87.9125
11
118.032
21
-87.9125
0
LINE
8
BLACK
6
CONTINUOUS
10
118.032
20
-87.9125
11
118.032
21
-87.9162
0
LINE
8
BLACK
6
CONTINUOUS
10
118.032
20
-87.9162
11
118.03
21
-87.9209
0
LINE
8
BLACK
6
CONTINUOUS
10
118.03
20
-87.9209
11
118.028
21
-87.9253
0
LINE
8
BLACK
6
CONTINUOUS
10
118.028
20
-87.9253
11
118.025
21
-87.9291
0
LINE
8
BLACK
6
CONTINUOUS
10
118.025
20
-87.9291
11
118.021
21
-87.9322
0
LINE
8
BLACK
6
CONTINUOUS
10
118.021
20
-87.9322
11
118.017
21
-87.9345
0
LINE
8
BLACK
6
CONTINUOUS
10
118.017
20
-87.9345
11
118.012
21
-87.936
0
LINE
8
BLACK
6
CONTINUOUS
10
118.012
20
-87.936
11
118.007
21
-87.9364
0
LINE
8
BLACK
6
CONTINUOUS
10
118.007
20
-87.9364
11
118.006
21
-87.9363
0
LINE
8
BLACK
6
CONTINUOUS
10
118.006
20
-87.9363
11
114.708
21
-87.9363
0
LINE
8
BLACK
6
CONTINUOUS
10
114.708
20
-87.9363
11
114.707
21
-87.9364
0
LINE
8
BLACK
6
CONTINUOUS
10
114.707
20
-87.9364
11
114.702
21
-87.936
0
LINE
8
BLACK
6
CONTINUOUS
10
114.702
20
-87.936
11
114.698
21
-87.9345
0
LINE
8
BLACK
6
CONTINUOUS
10
114.698
20
-87.9345
11
114.693
21
-87.9322
0
LINE
8
BLACK
6
CONTINUOUS
10
114.693
20
-87.9322
11
114.689
21
-87.9291
0
LINE
8
BLACK
6
CONTINUOUS
10
114.689
20
-87.9291
11
114.686
21
-87.9253
0
LINE
8
BLACK
6
CONTINUOUS
10
114.686
20
-87.9253
11
114.684
21
-87.9209
0
LINE
8
BLACK
6
CONTINUOUS
10
114.684
20
-87.9209
11
114.683
21
-87.9162
0
LINE
8
BLACK
6
CONTINUOUS
10
114.683
20
-87.9162
11
114.682
21
-87.9113
0
LINE
8
BLACK
6
CONTINUOUS
10
114.682
20
-87.9113
11
114.682
21
-87.9101
0
LINE
8
BLACK
6
CONTINUOUS
10
114.682
20
-87.9101
11
114.682
21
-86.4525
0
LINE
8
BLACK
6
CONTINUOUS
10
114.682
20
-86.4525
11
114.682
21
-86.4513
0
LINE
8
BLACK
6
CONTINUOUS
10
114.682
20
-86.4513
11
114.683
21
-86.4464
0
LINE
8
BLACK
6
CONTINUOUS
10
114.683
20
-86.4464
11
114.684
21
-86.4417
0
LINE
8
BLACK
6
CONTINUOUS
10
114.684
20
-86.4417
11
114.686
21
-86.4374
0
LINE
8
BLACK
6
CONTINUOUS
10
114.686
20
-86.4374
11
114.689
21
-86.4336
0
LINE
8
BLACK
6
CONTINUOUS
10
114.689
20
-86.4336
11
114.693
21
-86.4304
0
LINE
8
BLACK
6
CONTINUOUS
10
114.693
20
-86.4304
11
114.698
21
-86.4281
0
LINE
8
BLACK
6
CONTINUOUS
10
114.698
20
-86.4281
11
114.702
21
-86.4267
0
LINE
8
BLACK
6
CONTINUOUS
10
114.702
20
-86.4267
11
114.706
21
-86.4263
0
LINE
8
BLACK
6
CONTINUOUS
10
114.706
20
-86.4263
11
114.706
21
-86.4263
0
LINE
8
BLACK
6
CONTINUOUS
10
114.706
20
-86.4263
11
114.707
21
-86.4262
0
LINE
8
BLACK
6
CONTINUOUS
10
114.707
20
-86.4262
11
114.708
21
-86.4263
0
LINE
8
BLACK
6
CONTINUOUS
10
114.708
20
-86.4263
11
118.006
21
-86.4263
0
LINE
8
BLACK
6
CONTINUOUS
10
118.006
20
-86.4263
11
118.007
21
-86.4262
0
LINE
8
BLACK
6
CONTINUOUS
10
118.007
20
-86.4262
11
118.008
21
-86.4263
0
LINE
8
BLACK
6
CONTINUOUS
10
114.732
20
-86.4763
11
114.732
21
-87.8863
0
LINE
8
BLACK
6
CONTINUOUS
10
114.732
20
-87.8863
11
117.982
21
-87.8863
0
LINE
8
BLACK
6
CONTINUOUS
10
117.982
20
-87.8863
11
117.982
21
-86.4763
0
LINE
8
BLACK
6
CONTINUOUS
10
117.982
20
-86.4763
11
114.732
21
-86.4763
0
LINE
8
BLACK
6
CONTINUOUS
10
98.9596
20
-83.2515
11
98.9596
21
-83.2515
0
LINE
8
BLACK
6
CONTINUOUS
10
98.9596
20
-83.2515
11
98.9633
21
-83.2519
0
LINE
8
BLACK
6
CONTINUOUS
10
98.9633
20
-83.2519
11
98.968
21
-83.2533
0
LINE
8
BLACK
6
CONTINUOUS
10
98.968
20
-83.2533
11
98.9724
21
-83.2556
0
LINE
8
BLACK
6
CONTINUOUS
10
98.9724
20
-83.2556
11
98.9762
21
-83.2588
0
LINE
8
BLACK
6
CONTINUOUS
10
98.9762
20
-83.2588
11
98.9793
21
-83.2626
0
LINE
8
BLACK
6
CONTINUOUS
10
98.9793
20
-83.2626
11
98.9816
21
-83.2669
0
LINE
8
BLACK
6
CONTINUOUS
10
98.9816
20
-83.2669
11
98.983
21
-83.2716
0
LINE
8
BLACK
6
CONTINUOUS
10
98.983
20
-83.2716
11
98.9835
21
-83.2765
0
LINE
8
BLACK
6
CONTINUOUS
10
98.9835
20
-83.2765
11
98.9834
21
-83.2777
0
LINE
8
BLACK
6
CONTINUOUS
10
98.9834
20
-83.2777
11
98.9834
21
-84.7353
0
LINE
8
BLACK
6
CONTINUOUS
10
98.9834
20
-84.7353
11
98.9835
21
-84.7365
0
LINE
8
BLACK
6
CONTINUOUS
10
98.9835
20
-84.7365
11
98.9834
21
-84.7377
0
LINE
8
BLACK
6
CONTINUOUS
10
98.9834
20
-84.7377
11
98.9834
21
-84.7377
0
LINE
8
BLACK
6
CONTINUOUS
10
98.9834
20
-84.7377
11
98.983
21
-84.7414
0
LINE
8
BLACK
6
CONTINUOUS
10
98.983
20
-84.7414
11
98.9816
21
-84.7461
0
LINE
8
BLACK
6
CONTINUOUS
10
98.9816
20
-84.7461
11
98.9793
21
-84.7505
0
LINE
8
BLACK
6
CONTINUOUS
10
98.9793
20
-84.7505
11
98.9762
21
-84.7543
0
LINE
8
BLACK
6
CONTINUOUS
10
98.9762
20
-84.7543
11
98.9724
21
-84.7574
0
LINE
8
BLACK
6
CONTINUOUS
10
98.9724
20
-84.7574
11
98.968
21
-84.7597
0
LINE
8
BLACK
6
CONTINUOUS
10
98.968
20
-84.7597
11
98.9633
21
-84.7612
0
LINE
8
BLACK
6
CONTINUOUS
10
98.9633
20
-84.7612
11
98.9584
21
-84.7616
0
LINE
8
BLACK
6
CONTINUOUS
10
98.9584
20
-84.7616
11
98.9572
21
-84.7615
0
LINE
8
BLACK
6
CONTINUOUS
10
98.9572
20
-84.7615
11
95.6596
21
-84.7615
0
LINE
8
BLACK
6
CONTINUOUS
10
95.6596
20
-84.7615
11
95.6584
21
-84.7616
0
LINE
8
BLACK
6
CONTINUOUS
10
95.6584
20
-84.7616
11
95.6535
21
-84.7612
0
LINE
8
BLACK
6
CONTINUOUS
10
95.6535
20
-84.7612
11
95.6488
21
-84.7597
0
LINE
8
BLACK
6
CONTINUOUS
10
95.6488
20
-84.7597
11
95.6444
21
-84.7574
0
LINE
8
BLACK
6
CONTINUOUS
10
95.6444
20
-84.7574
11
95.6406
21
-84.7543
0
LINE
8
BLACK
6
CONTINUOUS
10
95.6406
20
-84.7543
11
95.6375
21
-84.7505
0
LINE
8
BLACK
6
CONTINUOUS
10
95.6375
20
-84.7505
11
95.6352
21
-84.7461
0
LINE
8
BLACK
6
CONTINUOUS
10
95.6352
20
-84.7461
11
95.6338
21
-84.7414
0
LINE
8
BLACK
6
CONTINUOUS
10
95.6338
20
-84.7414
11
95.6333
21
-84.7365
0
LINE
8
BLACK
6
CONTINUOUS
10
95.6333
20
-84.7365
11
95.6334
21
-84.7353
0
LINE
8
BLACK
6
CONTINUOUS
10
95.6334
20
-84.7353
11
95.6334
21
-83.2777
0
LINE
8
BLACK
6
CONTINUOUS
10
95.6334
20
-83.2777
11
95.6333
21
-83.2765
0
LINE
8
BLACK
6
CONTINUOUS
10
95.6333
20
-83.2765
11
95.6338
21
-83.2716
0
LINE
8
BLACK
6
CONTINUOUS
10
95.6338
20
-83.2716
11
95.6352
21
-83.2669
0
LINE
8
BLACK
6
CONTINUOUS
10
95.6352
20
-83.2669
11
95.6375
21
-83.2626
0
LINE
8
BLACK
6
CONTINUOUS
10
95.6375
20
-83.2626
11
95.6406
21
-83.2588
0
LINE
8
BLACK
6
CONTINUOUS
10
95.6406
20
-83.2588
11
95.6444
21
-83.2556
0
LINE
8
BLACK
6
CONTINUOUS
10
95.6444
20
-83.2556
11
95.6488
21
-83.2533
0
LINE
8
BLACK
6
CONTINUOUS
10
95.6488
20
-83.2533
11
95.6535
21
-83.2519
0
LINE
8
BLACK
6
CONTINUOUS
10
95.6535
20
-83.2519
11
95.6572
21
-83.2515
0
LINE
8
BLACK
6
CONTINUOUS
10
95.6572
20
-83.2515
11
95.6572
21
-83.2515
0
LINE
8
BLACK
6
CONTINUOUS
10
95.6572
20
-83.2515
11
95.6584
21
-83.2514
0
LINE
8
BLACK
6
CONTINUOUS
10
95.6584
20
-83.2514
11
95.6596
21
-83.2515
0
LINE
8
BLACK
6
CONTINUOUS
10
95.6596
20
-83.2515
11
98.9572
21
-83.2515
0
LINE
8
BLACK
6
CONTINUOUS
10
98.9572
20
-83.2515
11
98.9584
21
-83.2514
0
LINE
8
BLACK
6
CONTINUOUS
10
98.9584
20
-83.2514
11
98.9596
21
-83.2515
0
LINE
8
BLACK
6
CONTINUOUS
10
95.6834
20
-83.3015
11
95.6834
21
-84.7115
0
LINE
8
BLACK
6
CONTINUOUS
10
95.6834
20
-84.7115
11
98.9334
21
-84.7115
0
LINE
8
BLACK
6
CONTINUOUS
10
98.9334
20
-84.7115
11
98.9334
21
-83.3015
0
LINE
8
BLACK
6
CONTINUOUS
10
98.9334
20
-83.3015
11
95.6834
21
-83.3015
0
LINE
8
BLACK
6
CONTINUOUS
10
41.8133
20
-73.7271
11
41.8133
21
-73.7271
0
LINE
8
BLACK
6
CONTINUOUS
10
41.8133
20
-73.7271
11
41.817
21
-73.7275
0
LINE
8
BLACK
6
CONTINUOUS
10
41.817
20
-73.7275
11
41.8217
21
-73.7289
0
LINE
8
BLACK
6
CONTINUOUS
10
41.8217
20
-73.7289
11
41.826
21
-73.7312
0
LINE
8
BLACK
6
CONTINUOUS
10
41.826
20
-73.7312
11
41.8298
21
-73.7344
0
LINE
8
BLACK
6
CONTINUOUS
10
41.8298
20
-73.7344
11
41.833
21
-73.7382
0
LINE
8
BLACK
6
CONTINUOUS
10
41.833
20
-73.7382
11
41.8353
21
-73.7425
0
LINE
8
BLACK
6
CONTINUOUS
10
41.8353
20
-73.7425
11
41.8367
21
-73.7472
0
LINE
8
BLACK
6
CONTINUOUS
10
41.8367
20
-73.7472
11
41.8372
21
-73.7521
0
LINE
8
BLACK
6
CONTINUOUS
10
41.8372
20
-73.7521
11
41.8371
21
-73.7534
0
LINE
8
BLACK
6
CONTINUOUS
10
41.8371
20
-73.7534
11
41.8371
21
-75.2109
0
LINE
8
BLACK
6
CONTINUOUS
10
41.8371
20
-75.2109
11
41.8372
21
-75.2121
0
LINE
8
BLACK
6
CONTINUOUS
10
41.8372
20
-75.2121
11
41.8371
21
-75.2134
0
LINE
8
BLACK
6
CONTINUOUS
10
41.8371
20
-75.2134
11
41.8371
21
-75.2134
0
LINE
8
BLACK
6
CONTINUOUS
10
41.8371
20
-75.2134
11
41.8367
21
-75.217
0
LINE
8
BLACK
6
CONTINUOUS
10
41.8367
20
-75.217
11
41.8353
21
-75.2217
0
LINE
8
BLACK
6
CONTINUOUS
10
41.8353
20
-75.2217
11
41.833
21
-75.2261
0
LINE
8
BLACK
6
CONTINUOUS
10
41.833
20
-75.2261
11
41.8298
21
-75.2299
0
LINE
8
BLACK
6
CONTINUOUS
10
41.8298
20
-75.2299
11
41.826
21
-75.233
0
LINE
8
BLACK
6
CONTINUOUS
10
41.826
20
-75.233
11
41.8217
21
-75.2353
0
LINE
8
BLACK
6
CONTINUOUS
10
41.8217
20
-75.2353
11
41.817
21
-75.2368
0
LINE
8
BLACK
6
CONTINUOUS
10
41.817
20
-75.2368
11
41.8121
21
-75.2373
0
LINE
8
BLACK
6
CONTINUOUS
10
41.8121
20
-75.2373
11
41.8108
21
-75.2371
0
LINE
8
BLACK
6
CONTINUOUS
10
41.8108
20
-75.2371
11
38.5133
21
-75.2371
0
LINE
8
BLACK
6
CONTINUOUS
10
38.5133
20
-75.2371
11
38.5121
21
-75.2373
0
LINE
8
BLACK
6
CONTINUOUS
10
38.5121
20
-75.2373
11
38.5072
21
-75.2368
0
LINE
8
BLACK
6
CONTINUOUS
10
38.5072
20
-75.2368
11
38.5025
21
-75.2353
0
LINE
8
BLACK
6
CONTINUOUS
10
38.5025
20
-75.2353
11
38.4981
21
-75.233
0
LINE
8
BLACK
6
CONTINUOUS
10
38.4981
20
-75.233
11
38.4943
21
-75.2299
0
LINE
8
BLACK
6
CONTINUOUS
10
38.4943
20
-75.2299
11
38.4912
21
-75.2261
0
LINE
8
BLACK
6
CONTINUOUS
10
38.4912
20
-75.2261
11
38.4889
21
-75.2217
0
LINE
8
BLACK
6
CONTINUOUS
10
38.4889
20
-75.2217
11
38.4874
21
-75.217
0
LINE
8
BLACK
6
CONTINUOUS
10
38.4874
20
-75.217
11
38.4869
21
-75.2121
0
LINE
8
BLACK
6
CONTINUOUS
10
38.4869
20
-75.2121
11
38.4871
21
-75.2109
0
LINE
8
BLACK
6
CONTINUOUS
10
38.4871
20
-75.2109
11
38.4871
21
-73.7534
0
LINE
8
BLACK
6
CONTINUOUS
10
38.4871
20
-73.7534
11
38.4869
21
-73.7521
0
LINE
8
BLACK
6
CONTINUOUS
10
38.4869
20
-73.7521
11
38.4874
21
-73.7472
0
LINE
8
BLACK
6
CONTINUOUS
10
38.4874
20
-73.7472
11
38.4889
21
-73.7425
0
LINE
8
BLACK
6
CONTINUOUS
10
38.4889
20
-73.7425
11
38.4912
21
-73.7382
0
LINE
8
BLACK
6
CONTINUOUS
10
38.4912
20
-73.7382
11
38.4943
21
-73.7344
0
LINE
8
BLACK
6
CONTINUOUS
10
38.4943
20
-73.7344
11
38.4981
21
-73.7312
0
LINE
8
BLACK
6
CONTINUOUS
10
38.4981
20
-73.7312
11
38.5025
21
-73.7289
0
LINE
8
BLACK
6
CONTINUOUS
10
38.5025
20
-73.7289
11
38.5072
21
-73.7275
0
LINE
8
BLACK
6
CONTINUOUS
10
38.5072
20
-73.7275
11
38.5108
21
-73.7271
0
LINE
8
BLACK
6
CONTINUOUS
10
38.5108
20
-73.7271
11
38.5108
21
-73.7271
0
LINE
8
BLACK
6
CONTINUOUS
10
38.5108
20
-73.7271
11
38.5121
21
-73.727
0
LINE
8
BLACK
6
CONTINUOUS
10
38.5121
20
-73.727
11
38.5133
21
-73.7271
0
LINE
8
BLACK
6
CONTINUOUS
10
38.5133
20
-73.7271
11
41.8108
21
-73.7271
0
LINE
8
BLACK
6
CONTINUOUS
10
41.8108
20
-73.7271
11
41.8121
21
-73.727
0
LINE
8
BLACK
6
CONTINUOUS
10
41.8121
20
-73.727
11
41.8133
21
-73.7271
0
LINE
8
BLACK
6
CONTINUOUS
10
38.5371
20
-73.7771
11
38.5371
21
-75.1871
0
LINE
8
BLACK
6
CONTINUOUS
10
38.5371
20
-75.1871
11
41.7871
21
-75.1871
0
LINE
8
BLACK
6
CONTINUOUS
10
41.7871
20
-75.1871
11
41.7871
21
-73.7771
0
LINE
8
BLACK
6
CONTINUOUS
10
41.7871
20
-73.7771
11
38.5371
21
-73.7771
0
LINE
8
BLACK
6
CONTINUOUS
10
60.8621
20
-70.5523
11
60.8621
21
-70.5523
0
LINE
8
BLACK
6
CONTINUOUS
10
60.8621
20
-70.5523
11
60.8657
21
-70.5527
0
LINE
8
BLACK
6
CONTINUOUS
10
60.8657
20
-70.5527
11
60.8705
21
-70.5541
0
LINE
8
BLACK
6
CONTINUOUS
10
60.8705
20
-70.5541
11
60.8748
21
-70.5565
0
LINE
8
BLACK
6
CONTINUOUS
10
60.8748
20
-70.5565
11
60.8786
21
-70.5596
0
LINE
8
BLACK
6
CONTINUOUS
10
60.8786
20
-70.5596
11
60.8817
21
-70.5634
0
LINE
8
BLACK
6
CONTINUOUS
10
60.8817
20
-70.5634
11
60.8841
21
-70.5677
0
LINE
8
BLACK
6
CONTINUOUS
10
60.8841
20
-70.5677
11
60.8855
21
-70.5724
0
LINE
8
BLACK
6
CONTINUOUS
10
60.8855
20
-70.5724
11
60.886
21
-70.5773
0
LINE
8
BLACK
6
CONTINUOUS
10
60.886
20
-70.5773
11
60.8858
21
-70.5786
0
LINE
8
BLACK
6
CONTINUOUS
10
60.8858
20
-70.5786
11
60.8858
21
-72.0361
0
LINE
8
BLACK
6
CONTINUOUS
10
60.8858
20
-72.0361
11
60.886
21
-72.0373
0
LINE
8
BLACK
6
CONTINUOUS
10
60.886
20
-72.0373
11
60.8858
21
-72.0386
0
LINE
8
BLACK
6
CONTINUOUS
10
60.8858
20
-72.0386
11
60.8858
21
-72.0386
0
LINE
8
BLACK
6
CONTINUOUS
10
60.8858
20
-72.0386
11
60.8855
21
-72.0422
0
LINE
8
BLACK
6
CONTINUOUS
10
60.8855
20
-72.0422
11
60.8841
21
-72.047
0
LINE
8
BLACK
6
CONTINUOUS
10
60.8841
20
-72.047
11
60.8817
21
-72.0513
0
LINE
8
BLACK
6
CONTINUOUS
10
60.8817
20
-72.0513
11
60.8786
21
-72.0551
0
LINE
8
BLACK
6
CONTINUOUS
10
60.8786
20
-72.0551
11
60.8748
21
-72.0582
0
LINE
8
BLACK
6
CONTINUOUS
10
60.8748
20
-72.0582
11
60.8705
21
-72.0605
0
LINE
8
BLACK
6
CONTINUOUS
10
60.8705
20
-72.0605
11
60.8657
21
-72.062
0
LINE
8
BLACK
6
CONTINUOUS
10
60.8657
20
-72.062
11
60.8608
21
-72.0625
0
LINE
8
BLACK
6
CONTINUOUS
10
60.8608
20
-72.0625
11
60.8596
21
-72.0623
0
LINE
8
BLACK
6
CONTINUOUS
10
60.8596
20
-72.0623
11
57.5621
21
-72.0623
0
LINE
8
BLACK
6
CONTINUOUS
10
57.5621
20
-72.0623
11
57.5608
21
-72.0625
0
LINE
8
BLACK
6
CONTINUOUS
10
57.5608
20
-72.0625
11
57.5559
21
-72.062
0
LINE
8
BLACK
6
CONTINUOUS
10
57.5559
20
-72.062
11
57.5512
21
-72.0605
0
LINE
8
BLACK
6
CONTINUOUS
10
57.5512
20
-72.0605
11
57.5469
21
-72.0582
0
LINE
8
BLACK
6
CONTINUOUS
10
57.5469
20
-72.0582
11
57.5431
21
-72.0551
0
LINE
8
BLACK
6
CONTINUOUS
10
57.5431
20
-72.0551
11
57.54
21
-72.0513
0
LINE
8
BLACK
6
CONTINUOUS
10
57.54
20
-72.0513
11
57.5376
21
-72.047
0
LINE
8
BLACK
6
CONTINUOUS
10
57.5376
20
-72.047
11
57.5362
21
-72.0422
0
LINE
8
BLACK
6
CONTINUOUS
10
57.5362
20
-72.0422
11
57.5357
21
-72.0373
0
LINE
8
BLACK
6
CONTINUOUS
10
57.5357
20
-72.0373
11
57.5358
21
-72.0361
0
LINE
8
BLACK
6
CONTINUOUS
10
57.5358
20
-72.0361
11
57.5358
21
-70.5786
0
LINE
8
BLACK
6
CONTINUOUS
10
57.5358
20
-70.5786
11
57.5357
21
-70.5773
0
LINE
8
BLACK
6
CONTINUOUS
10
57.5357
20
-70.5773
11
57.5362
21
-70.5724
0
LINE
8
BLACK
6
CONTINUOUS
10
57.5362
20
-70.5724
11
57.5376
21
-70.5677
0
LINE
8
BLACK
6
CONTINUOUS
10
57.5376
20
-70.5677
11
57.54
21
-70.5634
0
LINE
8
BLACK
6
CONTINUOUS
10
57.54
20
-70.5634
11
57.5431
21
-70.5596
0
LINE
8
BLACK
6
CONTINUOUS
10
57.5431
20
-70.5596
11
57.5469
21
-70.5565
0
LINE
8
BLACK
6
CONTINUOUS
10
57.5469
20
-70.5565
11
57.5512
21
-70.5541
0
LINE
8
BLACK
6
CONTINUOUS
10
57.5512
20
-70.5541
11
57.5559
21
-70.5527
0
LINE
8
BLACK
6
CONTINUOUS
10
57.5559
20
-70.5527
11
57.5596
21
-70.5523
0
LINE
8
BLACK
6
CONTINUOUS
10
57.5596
20
-70.5523
11
57.5596
21
-70.5523
0
LINE
8
BLACK
6
CONTINUOUS
10
57.5596
20
-70.5523
11
57.5608
21
-70.5522
0
LINE
8
BLACK
6
CONTINUOUS
10
57.5608
20
-70.5522
11
57.5621
21
-70.5523
0
LINE
8
BLACK
6
CONTINUOUS
10
57.5621
20
-70.5523
11
60.8596
21
-70.5523
0
LINE
8
BLACK
6
CONTINUOUS
10
60.8596
20
-70.5523
11
60.8608
21
-70.5522
0
LINE
8
BLACK
6
CONTINUOUS
10
60.8608
20
-70.5522
11
60.8621
21
-70.5523
0
LINE
8
BLACK
6
CONTINUOUS
10
57.5858
20
-70.6023
11
57.5858
21
-72.0123
0
LINE
8
BLACK
6
CONTINUOUS
10
57.5858
20
-72.0123
11
60.8358
21
-72.0123
0
LINE
8
BLACK
6
CONTINUOUS
10
60.8358
20
-72.0123
11
60.8358
21
-70.6023
0
LINE
8
BLACK
6
CONTINUOUS
10
60.8358
20
-70.6023
11
57.5858
21
-70.6023
0
LINE
8
BLACK
6
CONTINUOUS
10
118.008
20
-67.3775
11
118.008
21
-67.3775
0
LINE
8
BLACK
6
CONTINUOUS
10
118.008
20
-67.3775
11
118.012
21
-67.3779
0
LINE
8
BLACK
6
CONTINUOUS
10
118.012
20
-67.3779
11
118.017
21
-67.3793
0
LINE
8
BLACK
6
CONTINUOUS
10
118.017
20
-67.3793
11
118.021
21
-67.3817
0
LINE
8
BLACK
6
CONTINUOUS
10
118.021
20
-67.3817
11
118.025
21
-67.3848
0
LINE
8
BLACK
6
CONTINUOUS
10
118.025
20
-67.3848
11
118.028
21
-67.3886
0
LINE
8
BLACK
6
CONTINUOUS
10
118.028
20
-67.3886
11
118.03
21
-67.3929
0
LINE
8
BLACK
6
CONTINUOUS
10
118.03
20
-67.3929
11
118.032
21
-67.3976
0
LINE
8
BLACK
6
CONTINUOUS
10
118.032
20
-67.3976
11
118.032
21
-67.4025
0
LINE
8
BLACK
6
CONTINUOUS
10
118.032
20
-67.4025
11
118.032
21
-67.4038
0
LINE
8
BLACK
6
CONTINUOUS
10
118.032
20
-67.4038
11
118.032
21
-68.8613
0
LINE
8
BLACK
6
CONTINUOUS
10
118.032
20
-68.8613
11
118.032
21
-68.8625
0
LINE
8
BLACK
6
CONTINUOUS
10
118.032
20
-68.8625
11
118.032
21
-68.8638
0
LINE
8
BLACK
6
CONTINUOUS
10
118.032
20
-68.8638
11
118.032
21
-68.8638
0
LINE
8
BLACK
6
CONTINUOUS
10
118.032
20
-68.8638
11
118.032
21
-68.8674
0
LINE
8
BLACK
6
CONTINUOUS
10
118.032
20
-68.8674
11
118.03
21
-68.8722
0
LINE
8
BLACK
6
CONTINUOUS
10
118.03
20
-68.8722
11
118.028
21
-68.8765
0
LINE
8
BLACK
6
CONTINUOUS
10
118.028
20
-68.8765
11
118.025
21
-68.8803
0
LINE
8
BLACK
6
CONTINUOUS
10
118.025
20
-68.8803
11
118.021
21
-68.8834
0
LINE
8
BLACK
6
CONTINUOUS
10
118.021
20
-68.8834
11
118.017
21
-68.8858
0
LINE
8
BLACK
6
CONTINUOUS
10
118.017
20
-68.8858
11
118.012
21
-68.8872
0
LINE
8
BLACK
6
CONTINUOUS
10
118.012
20
-68.8872
11
118.007
21
-68.8877
0
LINE
8
BLACK
6
CONTINUOUS
10
118.007
20
-68.8877
11
118.006
21
-68.8875
0
LINE
8
BLACK
6
CONTINUOUS
10
118.006
20
-68.8875
11
114.708
21
-68.8875
0
LINE
8
BLACK
6
CONTINUOUS
10
114.708
20
-68.8875
11
114.707
21
-68.8877
0
LINE
8
BLACK
6
CONTINUOUS
10
114.707
20
-68.8877
11
114.702
21
-68.8872
0
LINE
8
BLACK
6
CONTINUOUS
10
114.702
20
-68.8872
11
114.698
21
-68.8858
0
LINE
8
BLACK
6
CONTINUOUS
10
114.698
20
-68.8858
11
114.693
21
-68.8834
0
LINE
8
BLACK
6
CONTINUOUS
10
114.693
20
-68.8834
11
114.689
21
-68.8803
0
LINE
8
BLACK
6
CONTINUOUS
10
114.689
20
-68.8803
11
114.686
21
-68.8765
0
LINE
8
BLACK
6
CONTINUOUS
10
114.686
20
-68.8765
11
114.684
21
-68.8722
0
LINE
8
BLACK
6
CONTINUOUS
10
114.684
20
-68.8722
11
114.683
21
-68.8674
0
LINE
8
BLACK
6
CONTINUOUS
10
114.683
20
-68.8674
11
114.682
21
-68.8625
0
LINE
8
BLACK
6
CONTINUOUS
10
114.682
20
-68.8625
11
114.682
21
-68.8613
0
LINE
8
BLACK
6
CONTINUOUS
10
114.682
20
-68.8613
11
114.682
21
-67.4038
0
LINE
8
BLACK
6
CONTINUOUS
10
114.682
20
-67.4038
11
114.682
21
-67.4025
0
LINE
8
BLACK
6
CONTINUOUS
10
114.682
20
-67.4025
11
114.683
21
-67.3976
0
LINE
8
BLACK
6
CONTINUOUS
10
114.683
20
-67.3976
11
114.684
21
-67.3929
0
LINE
8
BLACK
6
CONTINUOUS
10
114.684
20
-67.3929
11
114.686
21
-67.3886
0
LINE
8
BLACK
6
CONTINUOUS
10
114.686
20
-67.3886
11
114.689
21
-67.3848
0
LINE
8
BLACK
6
CONTINUOUS
10
114.689
20
-67.3848
11
114.693
21
-67.3817
0
LINE
8
BLACK
6
CONTINUOUS
10
114.693
20
-67.3817
11
114.698
21
-67.3793
0
LINE
8
BLACK
6
CONTINUOUS
10
114.698
20
-67.3793
11
114.702
21
-67.3779
0
LINE
8
BLACK
6
CONTINUOUS
10
114.702
20
-67.3779
11
114.706
21
-67.3775
0
LINE
8
BLACK
6
CONTINUOUS
10
114.706
20
-67.3775
11
114.706
21
-67.3775
0
LINE
8
BLACK
6
CONTINUOUS
10
114.706
20
-67.3775
11
114.707
21
-67.3774
0
LINE
8
BLACK
6
CONTINUOUS
10
114.707
20
-67.3774
11
114.708
21
-67.3775
0
LINE
8
BLACK
6
CONTINUOUS
10
114.708
20
-67.3775
11
118.006
21
-67.3775
0
LINE
8
BLACK
6
CONTINUOUS
10
118.006
20
-67.3775
11
118.007
21
-67.3774
0
LINE
8
BLACK
6
CONTINUOUS
10
118.007
20
-67.3774
11
118.008
21
-67.3775
0
LINE
8
BLACK
6
CONTINUOUS
10
114.732
20
-67.4275
11
114.732
21
-68.8375
0
LINE
8
BLACK
6
CONTINUOUS
10
114.732
20
-68.8375
11
117.982
21
-68.8375
0
LINE
8
BLACK
6
CONTINUOUS
10
117.982
20
-68.8375
11
117.982
21
-67.4275
0
LINE
8
BLACK
6
CONTINUOUS
10
117.982
20
-67.4275
11
114.732
21
-67.4275
0
LINE
8
BLACK
6
CONTINUOUS
10
79.9108
20
-67.3775
11
79.9108
21
-67.3775
0
LINE
8
BLACK
6
CONTINUOUS
10
79.9108
20
-67.3775
11
79.9145
21
-67.3779
0
LINE
8
BLACK
6
CONTINUOUS
10
79.9145
20
-67.3779
11
79.9192
21
-67.3793
0
LINE
8
BLACK
6
CONTINUOUS
10
79.9192
20
-67.3793
11
79.9236
21
-67.3817
0
LINE
8
BLACK
6
CONTINUOUS
10
79.9236
20
-67.3817
11
79.9274
21
-67.3848
0
LINE
8
BLACK
6
CONTINUOUS
10
79.9274
20
-67.3848
11
79.9305
21
-67.3886
0
LINE
8
BLACK
6
CONTINUOUS
10
79.9305
20
-67.3886
11
79.9328
21
-67.3929
0
LINE
8
BLACK
6
CONTINUOUS
10
79.9328
20
-67.3929
11
79.9343
21
-67.3976
0
LINE
8
BLACK
6
CONTINUOUS
10
79.9343
20
-67.3976
11
79.9347
21
-67.4025
0
LINE
8
BLACK
6
CONTINUOUS
10
79.9347
20
-67.4025
11
79.9346
21
-67.4038
0
LINE
8
BLACK
6
CONTINUOUS
10
79.9346
20
-67.4038
11
79.9346
21
-68.8613
0
LINE
8
BLACK
6
CONTINUOUS
10
79.9346
20
-68.8613
11
79.9347
21
-68.8625
0
LINE
8
BLACK
6
CONTINUOUS
10
79.9347
20
-68.8625
11
79.9346
21
-68.8638
0
LINE
8
BLACK
6
CONTINUOUS
10
79.9346
20
-68.8638
11
79.9346
21
-68.8638
0
LINE
8
BLACK
6
CONTINUOUS
10
79.9346
20
-68.8638
11
79.9343
21
-68.8674
0
LINE
8
BLACK
6
CONTINUOUS
10
79.9343
20
-68.8674
11
79.9328
21
-68.8722
0
LINE
8
BLACK
6
CONTINUOUS
10
79.9328
20
-68.8722
11
79.9305
21
-68.8765
0
LINE
8
BLACK
6
CONTINUOUS
10
79.9305
20
-68.8765
11
79.9274
21
-68.8803
0
LINE
8
BLACK
6
CONTINUOUS
10
79.9274
20
-68.8803
11
79.9236
21
-68.8834
0
LINE
8
BLACK
6
CONTINUOUS
10
79.9236
20
-68.8834
11
79.9192
21
-68.8858
0
LINE
8
BLACK
6
CONTINUOUS
10
79.9192
20
-68.8858
11
79.9145
21
-68.8872
0
LINE
8
BLACK
6
CONTINUOUS
10
79.9145
20
-68.8872
11
79.9096
21
-68.8877
0
LINE
8
BLACK
6
CONTINUOUS
10
79.9096
20
-68.8877
11
79.9084
21
-68.8875
0
LINE
8
BLACK
6
CONTINUOUS
10
79.9084
20
-68.8875
11
76.6108
21
-68.8875
0
LINE
8
BLACK
6
CONTINUOUS
10
76.6108
20
-68.8875
11
76.6096
21
-68.8877
0
LINE
8
BLACK
6
CONTINUOUS
10
76.6096
20
-68.8877
11
76.6047
21
-68.8872
0
LINE
8
BLACK
6
CONTINUOUS
10
76.6047
20
-68.8872
11
76.6
21
-68.8858
0
LINE
8
BLACK
6
CONTINUOUS
10
76.6
20
-68.8858
11
76.5957
21
-68.8834
0
LINE
8
BLACK
6
CONTINUOUS
10
76.5957
20
-68.8834
11
76.5919
21
-68.8803
0
LINE
8
BLACK
6
CONTINUOUS
10
76.5919
20
-68.8803
11
76.5887
21
-68.8765
0
LINE
8
BLACK
6
CONTINUOUS
10
76.5887
20
-68.8765
11
76.5864
21
-68.8722
0
LINE
8
BLACK
6
CONTINUOUS
10
76.5864
20
-68.8722
11
76.585
21
-68.8674
0
LINE
8
BLACK
6
CONTINUOUS
10
76.585
20
-68.8674
11
76.5845
21
-68.8625
0
LINE
8
BLACK
6
CONTINUOUS
10
76.5845
20
-68.8625
11
76.5846
21
-68.8613
0
LINE
8
BLACK
6
CONTINUOUS
10
76.5846
20
-68.8613
11
76.5846
21
-67.4038
0
LINE
8
BLACK
6
CONTINUOUS
10
76.5846
20
-67.4038
11
76.5845
21
-67.4025
0
LINE
8
BLACK
6
CONTINUOUS
10
76.5845
20
-67.4025
11
76.585
21
-67.3976
0
LINE
8
BLACK
6
CONTINUOUS
10
76.585
20
-67.3976
11
76.5864
21
-67.3929
0
LINE
8
BLACK
6
CONTINUOUS
10
76.5864
20
-67.3929
11
76.5887
21
-67.3886
0
LINE
8
BLACK
6
CONTINUOUS
10
76.5887
20
-67.3886
11
76.5919
21
-67.3848
0
LINE
8
BLACK
6
CONTINUOUS
10
76.5919
20
-67.3848
11
76.5957
21
-67.3817
0
LINE
8
BLACK
6
CONTINUOUS
10
76.5957
20
-67.3817
11
76.6
21
-67.3793
0
LINE
8
BLACK
6
CONTINUOUS
10
76.6
20
-67.3793
11
76.6047
21
-67.3779
0
LINE
8
BLACK
6
CONTINUOUS
10
76.6047
20
-67.3779
11
76.6084
21
-67.3775
0
LINE
8
BLACK
6
CONTINUOUS
10
76.6084
20
-67.3775
11
76.6084
21
-67.3775
0
LINE
8
BLACK
6
CONTINUOUS
10
76.6084
20
-67.3775
11
76.6096
21
-67.3774
0
LINE
8
BLACK
6
CONTINUOUS
10
76.6096
20
-67.3774
11
76.6108
21
-67.3775
0
LINE
8
BLACK
6
CONTINUOUS
10
76.6108
20
-67.3775
11
79.9084
21
-67.3775
0
LINE
8
BLACK
6
CONTINUOUS
10
79.9084
20
-67.3775
11
79.9096
21
-67.3774
0
LINE
8
BLACK
6
CONTINUOUS
10
79.9096
20
-67.3774
11
79.9108
21
-67.3775
0
LINE
8
BLACK
6
CONTINUOUS
10
76.6346
20
-67.4275
11
76.6346
21
-68.8375
0
LINE
8
BLACK
6
CONTINUOUS
10
76.6346
20
-68.8375
11
79.8846
21
-68.8375
0
LINE
8
BLACK
6
CONTINUOUS
10
79.8846
20
-68.8375
11
79.8846
21
-67.4275
0
LINE
8
BLACK
6
CONTINUOUS
10
79.8846
20
-67.4275
11
76.6346
21
-67.4275
0
LINE
8
BLACK
6
CONTINUOUS
10
98.9596
20
-64.2027
11
98.9596
21
-64.2027
0
LINE
8
BLACK
6
CONTINUOUS
10
98.9596
20
-64.2027
11
98.9633
21
-64.2031
0
LINE
8
BLACK
6
CONTINUOUS
10
98.9633
20
-64.2031
11
98.968
21
-64.2045
0
LINE
8
BLACK
6
CONTINUOUS
10
98.968
20
-64.2045
11
98.9724
21
-64.2069
0
LINE
8
BLACK
6
CONTINUOUS
10
98.9724
20
-64.2069
11
98.9762
21
-64.21
0
LINE
8
BLACK
6
CONTINUOUS
10
98.9762
20
-64.21
11
98.9793
21
-64.2138
0
LINE
8
BLACK
6
CONTINUOUS
10
98.9793
20
-64.2138
11
98.9816
21
-64.2181
0
LINE
8
BLACK
6
CONTINUOUS
10
98.9816
20
-64.2181
11
98.983
21
-64.2228
0
LINE
8
BLACK
6
CONTINUOUS
10
98.983
20
-64.2228
11
98.9835
21
-64.2277
0
LINE
8
BLACK
6
CONTINUOUS
10
98.9835
20
-64.2277
11
98.9834
21
-64.229
0
LINE
8
BLACK
6
CONTINUOUS
10
98.9834
20
-64.229
11
98.9834
21
-65.6865
0
LINE
8
BLACK
6
CONTINUOUS
10
98.9834
20
-65.6865
11
98.9835
21
-65.6877
0
LINE
8
BLACK
6
CONTINUOUS
10
98.9835
20
-65.6877
11
98.9834
21
-65.689
0
LINE
8
BLACK
6
CONTINUOUS
10
98.9834
20
-65.689
11
98.9834
21
-65.689
0
LINE
8
BLACK
6
CONTINUOUS
10
98.9834
20
-65.689
11
98.983
21
-65.6926
0
LINE
8
BLACK
6
CONTINUOUS
10
98.983
20
-65.6926
11
98.9816
21
-65.6974
0
LINE
8
BLACK
6
CONTINUOUS
10
98.9816
20
-65.6974
11
98.9793
21
-65.7017
0
LINE
8
BLACK
6
CONTINUOUS
10
98.9793
20
-65.7017
11
98.9762
21
-65.7055
0
LINE
8
BLACK
6
CONTINUOUS
10
98.9762
20
-65.7055
11
98.9724
21
-65.7086
0
LINE
8
BLACK
6
CONTINUOUS
10
98.9724
20
-65.7086
11
98.968
21
-65.711
0
LINE
8
BLACK
6
CONTINUOUS
10
98.968
20
-65.711
11
98.9633
21
-65.7124
0
LINE
8
BLACK
6
CONTINUOUS
10
98.9633
20
-65.7124
11
98.9584
21
-65.7129
0
LINE
8
BLACK
6
CONTINUOUS
10
98.9584
20
-65.7129
11
98.9572
21
-65.7127
0
LINE
8
BLACK
6
CONTINUOUS
10
98.9572
20
-65.7127
11
95.6596
21
-65.7127
0
LINE
8
BLACK
6
CONTINUOUS
10
95.6596
20
-65.7127
11
95.6584
21
-65.7129
0
LINE
8
BLACK
6
CONTINUOUS
10
95.6584
20
-65.7129
11
95.6535
21
-65.7124
0
LINE
8
BLACK
6
CONTINUOUS
10
95.6535
20
-65.7124
11
95.6488
21
-65.711
0
LINE
8
BLACK
6
CONTINUOUS
10
95.6488
20
-65.711
11
95.6444
21
-65.7086
0
LINE
8
BLACK
6
CONTINUOUS
10
95.6444
20
-65.7086
11
95.6406
21
-65.7055
0
LINE
8
BLACK
6
CONTINUOUS
10
95.6406
20
-65.7055
11
95.6375
21
-65.7017
0
LINE
8
BLACK
6
CONTINUOUS
10
95.6375
20
-65.7017
11
95.6352
21
-65.6974
0
LINE
8
BLACK
6
CONTINUOUS
10
95.6352
20
-65.6974
11
95.6338
21
-65.6926
0
LINE
8
BLACK
6
CONTINUOUS
10
95.6338
20
-65.6926
11
95.6333
21
-65.6877
0
LINE
8
BLACK
6
CONTINUOUS
10
95.6333
20
-65.6877
11
95.6334
21
-65.6865
0
LINE
8
BLACK
6
CONTINUOUS
10
95.6334
20
-65.6865
11
95.6334
21
-64.229
0
LINE
8
BLACK
6
CONTINUOUS
10
95.6334
20
-64.229
11
95.6333
21
-64.2277
0
LINE
8
BLACK
6
CONTINUOUS
10
95.6333
20
-64.2277
11
95.6338
21
-64.2228
0
LINE
8
BLACK
6
CONTINUOUS
10
95.6338
20
-64.2228
11
95.6352
21
-64.2181
0
LINE
8
BLACK
6
CONTINUOUS
10
95.6352
20
-64.2181
11
95.6375
21
-64.2138
0
LINE
8
BLACK
6
CONTINUOUS
10
95.6375
20
-64.2138
11
95.6406
21
-64.21
0
LINE
8
BLACK
6
CONTINUOUS
10
95.6406
20
-64.21
11
95.6444
21
-64.2069
0
LINE
8
BLACK
6
CONTINUOUS
10
95.6444
20
-64.2069
11
95.6488
21
-64.2045
0
LINE
8
BLACK
6
CONTINUOUS
10
95.6488
20
-64.2045
11
95.6535
21
-64.2031
0
LINE
8
BLACK
6
CONTINUOUS
10
95.6535
20
-64.2031
11
95.6572
21
-64.2027
0
LINE
8
BLACK
6
CONTINUOUS
10
95.6572
20
-64.2027
11
95.6572
21
-64.2027
0
LINE
8
BLACK
6
CONTINUOUS
10
95.6572
20
-64.2027
11
95.6584
21
-64.2026
0
LINE
8
BLACK
6
CONTINUOUS
10
95.6584
20
-64.2026
11
95.6596
21
-64.2027
0
LINE
8
BLACK
6
CONTINUOUS
10
95.6596
20
-64.2027
11
98.9572
21
-64.2027
0
LINE
8
BLACK
6
CONTINUOUS
10
98.9572
20
-64.2027
11
98.9584
21
-64.2026
0
LINE
8
BLACK
6
CONTINUOUS
10
98.9584
20
-64.2026
11
98.9596
21
-64.2027
0
LINE
8
BLACK
6
CONTINUOUS
10
95.6834
20
-64.2527
11
95.6834
21
-65.6627
0
LINE
8
BLACK
6
CONTINUOUS
10
95.6834
20
-65.6627
11
98.9334
21
-65.6627
0
LINE
8
BLACK
6
CONTINUOUS
10
98.9334
20
-65.6627
11
98.9334
21
-64.2527
0
LINE
8
BLACK
6
CONTINUOUS
10
98.9334
20
-64.2527
11
95.6834
21
-64.2527
0
LINE
8
BLACK
6
CONTINUOUS
10
41.8133
20
-54.6784
11
41.8133
21
-54.6784
0
LINE
8
BLACK
6
CONTINUOUS
10
41.8133
20
-54.6784
11
41.817
21
-54.6787
0
LINE
8
BLACK
6
CONTINUOUS
10
41.817
20
-54.6787
11
41.8217
21
-54.6801
0
LINE
8
BLACK
6
CONTINUOUS
10
41.8217
20
-54.6801
11
41.826
21
-54.6825
0
LINE
8
BLACK
6
CONTINUOUS
10
41.826
20
-54.6825
11
41.8298
21
-54.6856
0
LINE
8
BLACK
6
CONTINUOUS
10
41.8298
20
-54.6856
11
41.833
21
-54.6894
0
LINE
8
BLACK
6
CONTINUOUS
10
41.833
20
-54.6894
11
41.8353
21
-54.6937
0
LINE
8
BLACK
6
CONTINUOUS
10
41.8353
20
-54.6937
11
41.8367
21
-54.6985
0
LINE
8
BLACK
6
CONTINUOUS
10
41.8367
20
-54.6985
11
41.8372
21
-54.7034
0
LINE
8
BLACK
6
CONTINUOUS
10
41.8372
20
-54.7034
11
41.8371
21
-54.7046
0
LINE
8
BLACK
6
CONTINUOUS
10
41.8371
20
-54.7046
11
41.8371
21
-56.1621
0
LINE
8
BLACK
6
CONTINUOUS
10
41.8371
20
-56.1621
11
41.8372
21
-56.1634
0
LINE
8
BLACK
6
CONTINUOUS
10
41.8372
20
-56.1634
11
41.8371
21
-56.1646
0
LINE
8
BLACK
6
CONTINUOUS
10
41.8371
20
-56.1646
11
41.8371
21
-56.1646
0
LINE
8
BLACK
6
CONTINUOUS
10
41.8371
20
-56.1646
11
41.8367
21
-56.1683
0
LINE
8
BLACK
6
CONTINUOUS
10
41.8367
20
-56.1683
11
41.8353
21
-56.173
0
LINE
8
BLACK
6
CONTINUOUS
10
41.8353
20
-56.173
11
41.833
21
-56.1773
0
LINE
8
BLACK
6
CONTINUOUS
10
41.833
20
-56.1773
11
41.8298
21
-56.1811
0
LINE
8
BLACK
6
CONTINUOUS
10
41.8298
20
-56.1811
11
41.826
21
-56.1842
0
LINE
8
BLACK
6
CONTINUOUS
10
41.826
20
-56.1842
11
41.8217
21
-56.1866
0
LINE
8
BLACK
6
CONTINUOUS
10
41.8217
20
-56.1866
11
41.817
21
-56.188
0
LINE
8
BLACK
6
CONTINUOUS
10
41.817
20
-56.188
11
41.8121
21
-56.1885
0
LINE
8
BLACK
6
CONTINUOUS
10
41.8121
20
-56.1885
11
41.8108
21
-56.1884
0
LINE
8
BLACK
6
CONTINUOUS
10
41.8108
20
-56.1884
11
38.5133
21
-56.1884
0
LINE
8
BLACK
6
CONTINUOUS
10
38.5133
20
-56.1884
11
38.5121
21
-56.1885
0
LINE
8
BLACK
6
CONTINUOUS
10
38.5121
20
-56.1885
11
38.5072
21
-56.188
0
LINE
8
BLACK
6
CONTINUOUS
10
38.5072
20
-56.188
11
38.5025
21
-56.1866
0
LINE
8
BLACK
6
CONTINUOUS
10
38.5025
20
-56.1866
11
38.4981
21
-56.1842
0
LINE
8
BLACK
6
CONTINUOUS
10
38.4981
20
-56.1842
11
38.4943
21
-56.1811
0
LINE
8
BLACK
6
CONTINUOUS
10
38.4943
20
-56.1811
11
38.4912
21
-56.1773
0
LINE
8
BLACK
6
CONTINUOUS
10
38.4912
20
-56.1773
11
38.4889
21
-56.173
0
LINE
8
BLACK
6
CONTINUOUS
10
38.4889
20
-56.173
11
38.4874
21
-56.1683
0
LINE
8
BLACK
6
CONTINUOUS
10
38.4874
20
-56.1683
11
38.4869
21
-56.1634
0
LINE
8
BLACK
6
CONTINUOUS
10
38.4869
20
-56.1634
11
38.4871
21
-56.1621
0
LINE
8
BLACK
6
CONTINUOUS
10
38.4871
20
-56.1621
11
38.4871
21
-54.7046
0
LINE
8
BLACK
6
CONTINUOUS
10
38.4871
20
-54.7046
11
38.4869
21
-54.7034
0
LINE
8
BLACK
6
CONTINUOUS
10
38.4869
20
-54.7034
11
38.4874
21
-54.6985
0
LINE
8
BLACK
6
CONTINUOUS
10
38.4874
20
-54.6985
11
38.4889
21
-54.6937
0
LINE
8
BLACK
6
CONTINUOUS
10
38.4889
20
-54.6937
11
38.4912
21
-54.6894
0
LINE
8
BLACK
6
CONTINUOUS
10
38.4912
20
-54.6894
11
38.4943
21
-54.6856
0
LINE
8
BLACK
6
CONTINUOUS
10
38.4943
20
-54.6856
11
38.4981
21
-54.6825
0
LINE
8
BLACK
6
CONTINUOUS
10
38.4981
20
-54.6825
11
38.5025
21
-54.6801
0
LINE
8
BLACK
6
CONTINUOUS
10
38.5025
20
-54.6801
11
38.5072
21
-54.6787
0
LINE
8
BLACK
6
CONTINUOUS
10
38.5072
20
-54.6787
11
38.5108
21
-54.6784
0
LINE
8
BLACK
6
CONTINUOUS
10
38.5108
20
-54.6784
11
38.5108
21
-54.6784
0
LINE
8
BLACK
6
CONTINUOUS
10
38.5108
20
-54.6784
11
38.5121
21
-54.6782
0
LINE
8
BLACK
6
CONTINUOUS
10
38.5121
20
-54.6782
11
38.5133
21
-54.6784
0
LINE
8
BLACK
6
CONTINUOUS
10
38.5133
20
-54.6784
11
41.8108
21
-54.6784
0
LINE
8
BLACK
6
CONTINUOUS
10
41.8108
20
-54.6784
11
41.8121
21
-54.6782
0
LINE
8
BLACK
6
CONTINUOUS
10
41.8121
20
-54.6782
11
41.8133
21
-54.6784
0
LINE
8
BLACK
6
CONTINUOUS
10
38.5371
20
-54.7284
11
38.5371
21
-56.1384
0
LINE
8
BLACK
6
CONTINUOUS
10
38.5371
20
-56.1384
11
41.7871
21
-56.1384
0
LINE
8
BLACK
6
CONTINUOUS
10
41.7871
20
-56.1384
11
41.7871
21
-54.7284
0
LINE
8
BLACK
6
CONTINUOUS
10
41.7871
20
-54.7284
11
38.5371
21
-54.7284
0
LINE
8
BLACK
6
CONTINUOUS
10
60.8621
20
-51.5036
11
60.8621
21
-51.5036
0
LINE
8
BLACK
6
CONTINUOUS
10
60.8621
20
-51.5036
11
60.8657
21
-51.5039
0
LINE
8
BLACK
6
CONTINUOUS
10
60.8657
20
-51.5039
11
60.8705
21
-51.5054
0
LINE
8
BLACK
6
CONTINUOUS
10
60.8705
20
-51.5054
11
60.8748
21
-51.5077
0
LINE
8
BLACK
6
CONTINUOUS
10
60.8748
20
-51.5077
11
60.8786
21
-51.5108
0
LINE
8
BLACK
6
CONTINUOUS
10
60.8786
20
-51.5108
11
60.8817
21
-51.5146
0
LINE
8
BLACK
6
CONTINUOUS
10
60.8817
20
-51.5146
11
60.8841
21
-51.5189
0
LINE
8
BLACK
6
CONTINUOUS
10
60.8841
20
-51.5189
11
60.8855
21
-51.5237
0
LINE
8
BLACK
6
CONTINUOUS
10
60.8855
20
-51.5237
11
60.886
21
-51.5286
0
LINE
8
BLACK
6
CONTINUOUS
10
60.886
20
-51.5286
11
60.8858
21
-51.5298
0
LINE
8
BLACK
6
CONTINUOUS
10
60.8858
20
-51.5298
11
60.8858
21
-52.9873
0
LINE
8
BLACK
6
CONTINUOUS
10
60.8858
20
-52.9873
11
60.886
21
-52.9886
0
LINE
8
BLACK
6
CONTINUOUS
10
60.886
20
-52.9886
11
60.8858
21
-52.9898
0
LINE
8
BLACK
6
CONTINUOUS
10
60.8858
20
-52.9898
11
60.8858
21
-52.9898
0
LINE
8
BLACK
6
CONTINUOUS
10
60.8858
20
-52.9898
11
60.8855
21
-52.9935
0
LINE
8
BLACK
6
CONTINUOUS
10
60.8855
20
-52.9935
11
60.8841
21
-52.9982
0
LINE
8
BLACK
6
CONTINUOUS
10
60.8841
20
-52.9982
11
60.8817
21
-53.0025
0
LINE
8
BLACK
6
CONTINUOUS
10
60.8817
20
-53.0025
11
60.8786
21
-53.0063
0
LINE
8
BLACK
6
CONTINUOUS
10
60.8786
20
-53.0063
11
60.8748
21
-53.0094
0
LINE
8
BLACK
6
CONTINUOUS
10
60.8748
20
-53.0094
11
60.8705
21
-53.0118
0
LINE
8
BLACK
6
CONTINUOUS
10
60.8705
20
-53.0118
11
60.8657
21
-53.0132
0
LINE
8
BLACK
6
CONTINUOUS
10
60.8657
20
-53.0132
11
60.8608
21
-53.0137
0
LINE
8
BLACK
6
CONTINUOUS
10
60.8608
20
-53.0137
11
60.8596
21
-53.0136
0
LINE
8
BLACK
6
CONTINUOUS
10
60.8596
20
-53.0136
11
57.5621
21
-53.0136
0
LINE
8
BLACK
6
CONTINUOUS
10
57.5621
20
-53.0136
11
57.5608
21
-53.0137
0
LINE
8
BLACK
6
CONTINUOUS
10
57.5608
20
-53.0137
11
57.5559
21
-53.0132
0
LINE
8
BLACK
6
CONTINUOUS
10
57.5559
20
-53.0132
11
57.5512
21
-53.0118
0
LINE
8
BLACK
6
CONTINUOUS
10
57.5512
20
-53.0118
11
57.5469
21
-53.0094
0
LINE
8
BLACK
6
CONTINUOUS
10
57.5469
20
-53.0094
11
57.5431
21
-53.0063
0
LINE
8
BLACK
6
CONTINUOUS
10
57.5431
20
-53.0063
11
57.54
21
-53.0025
0
LINE
8
BLACK
6
CONTINUOUS
10
57.54
20
-53.0025
11
57.5376
21
-52.9982
0
LINE
8
BLACK
6
CONTINUOUS
10
57.5376
20
-52.9982
11
57.5362
21
-52.9935
0
LINE
8
BLACK
6
CONTINUOUS
10
57.5362
20
-52.9935
11
57.5357
21
-52.9886
0
LINE
8
BLACK
6
CONTINUOUS
10
57.5357
20
-52.9886
11
57.5358
21
-52.9873
0
LINE
8
BLACK
6
CONTINUOUS
10
57.5358
20
-52.9873
11
57.5358
21
-51.5298
0
LINE
8
BLACK
6
CONTINUOUS
10
57.5358
20
-51.5298
11
57.5357
21
-51.5286
0
LINE
8
BLACK
6
CONTINUOUS
10
57.5357
20
-51.5286
11
57.5362
21
-51.5237
0
LINE
8
BLACK
6
CONTINUOUS
10
57.5362
20
-51.5237
11
57.5376
21
-51.5189
0
LINE
8
BLACK
6
CONTINUOUS
10
57.5376
20
-51.5189
11
57.54
21
-51.5146
0
LINE
8
BLACK
6
CONTINUOUS
10
57.54
20
-51.5146
11
57.5431
21
-51.5108
0
LINE
8
BLACK
6
CONTINUOUS
10
57.5431
20
-51.5108
11
57.5469
21
-51.5077
0
LINE
8
BLACK
6
CONTINUOUS
10
57.5469
20
-51.5077
11
57.5512
21
-51.5054
0
LINE
8
BLACK
6
CONTINUOUS
10
57.5512
20
-51.5054
11
57.5559
21
-51.5039
0
LINE
8
BLACK
6
CONTINUOUS
10
57.5559
20
-51.5039
11
57.5596
21
-51.5036
0
LINE
8
BLACK
6
CONTINUOUS
10
57.5596
20
-51.5036
11
57.5596
21
-51.5036
0
LINE
8
BLACK
6
CONTINUOUS
10
57.5596
20
-51.5036
11
57.5608
21
-51.5034
0
LINE
8
BLACK
6
CONTINUOUS
10
57.5608
20
-51.5034
11
57.5621
21
-51.5036
0
LINE
8
BLACK
6
CONTINUOUS
10
57.5621
20
-51.5036
11
60.8596
21
-51.5036
0
LINE
8
BLACK
6
CONTINUOUS
10
60.8596
20
-51.5036
11
60.8608
21
-51.5034
0
LINE
8
BLACK
6
CONTINUOUS
10
60.8608
20
-51.5034
11
60.8621
21
-51.5036
0
LINE
8
BLACK
6
CONTINUOUS
10
57.5858
20
-51.5536
11
57.5858
21
-52.9636
0
LINE
8
BLACK
6
CONTINUOUS
10
57.5858
20
-52.9636
11
60.8358
21
-52.9636
0
LINE
8
BLACK
6
CONTINUOUS
10
60.8358
20
-52.9636
11
60.8358
21
-51.5536
0
LINE
8
BLACK
6
CONTINUOUS
10
60.8358
20
-51.5536
11
57.5858
21
-51.5536
0
LINE
8
BLACK
6
CONTINUOUS
10
79.9108
20
-48.3288
11
79.9108
21
-48.3288
0
LINE
8
BLACK
6
CONTINUOUS
10
79.9108
20
-48.3288
11
79.9145
21
-48.3291
0
LINE
8
BLACK
6
CONTINUOUS
10
79.9145
20
-48.3291
11
79.9192
21
-48.3306
0
LINE
8
BLACK
6
CONTINUOUS
10
79.9192
20
-48.3306
11
79.9236
21
-48.3329
0
LINE
8
BLACK
6
CONTINUOUS
10
79.9236
20
-48.3329
11
79.9274
21
-48.336
0
LINE
8
BLACK
6
CONTINUOUS
10
79.9274
20
-48.336
11
79.9305
21
-48.3398
0
LINE
8
BLACK
6
CONTINUOUS
10
79.9305
20
-48.3398
11
79.9328
21
-48.3442
0
LINE
8
BLACK
6
CONTINUOUS
10
79.9328
20
-48.3442
11
79.9343
21
-48.3489
0
LINE
8
BLACK
6
CONTINUOUS
10
79.9343
20
-48.3489
11
79.9347
21
-48.3538
0
LINE
8
BLACK
6
CONTINUOUS
10
79.9347
20
-48.3538
11
79.9346
21
-48.355
0
LINE
8
BLACK
6
CONTINUOUS
10
79.9346
20
-48.355
11
79.9346
21
-49.8125
0
LINE
8
BLACK
6
CONTINUOUS
10
79.9346
20
-49.8125
11
79.9347
21
-49.8138
0
LINE
8
BLACK
6
CONTINUOUS
10
79.9347
20
-49.8138
11
79.9346
21
-49.815
0
LINE
8
BLACK
6
CONTINUOUS
10
79.9346
20
-49.815
11
79.9346
21
-49.815
0
LINE
8
BLACK
6
CONTINUOUS
10
79.9346
20
-49.815
11
79.9343
21
-49.8187
0
LINE
8
BLACK
6
CONTINUOUS
10
79.9343
20
-49.8187
11
79.9328
21
-49.8234
0
LINE
8
BLACK
6
CONTINUOUS
10
79.9328
20
-49.8234
11
79.9305
21
-49.8277
0
LINE
8
BLACK
6
CONTINUOUS
10
79.9305
20
-49.8277
11
79.9274
21
-49.8315
0
LINE
8
BLACK
6
CONTINUOUS
10
79.9274
20
-49.8315
11
79.9236
21
-49.8347
0
LINE
8
BLACK
6
CONTINUOUS
10
79.9236
20
-49.8347
11
79.9192
21
-49.837
0
LINE
8
BLACK
6
CONTINUOUS
10
79.9192
20
-49.837
11
79.9145
21
-49.8384
0
LINE
8
BLACK
6
CONTINUOUS
10
79.9145
20
-49.8384
11
79.9096
21
-49.8389
0
LINE
8
BLACK
6
CONTINUOUS
10
79.9096
20
-49.8389
11
79.9084
21
-49.8388
0
LINE
8
BLACK
6
CONTINUOUS
10
79.9084
20
-49.8388
11
76.6108
21
-49.8388
0
LINE
8
BLACK
6
CONTINUOUS
10
76.6108
20
-49.8388
11
76.6096
21
-49.8389
0
LINE
8
BLACK
6
CONTINUOUS
10
76.6096
20
-49.8389
11
76.6047
21
-49.8384
0
LINE
8
BLACK
6
CONTINUOUS
10
76.6047
20
-49.8384
11
76.6
21
-49.837
0
LINE
8
BLACK
6
CONTINUOUS
10
76.6
20
-49.837
11
76.5957
21
-49.8347
0
LINE
8
BLACK
6
CONTINUOUS
10
76.5957
20
-49.8347
11
76.5919
21
-49.8315
0
LINE
8
BLACK
6
CONTINUOUS
10
76.5919
20
-49.8315
11
76.5887
21
-49.8277
0
LINE
8
BLACK
6
CONTINUOUS
10
76.5887
20
-49.8277
11
76.5864
21
-49.8234
0
LINE
8
BLACK
6
CONTINUOUS
10
76.5864
20
-49.8234
11
76.585
21
-49.8187
0
LINE
8
BLACK
6
CONTINUOUS
10
76.585
20
-49.8187
11
76.5845
21
-49.8138
0
LINE
8
BLACK
6
CONTINUOUS
10
76.5845
20
-49.8138
11
76.5846
21
-49.8125
0
LINE
8
BLACK
6
CONTINUOUS
10
76.5846
20
-49.8125
11
76.5846
21
-48.355
0
LINE
8
BLACK
6
CONTINUOUS
10
76.5846
20
-48.355
11
76.5845
21
-48.3538
0
LINE
8
BLACK
6
CONTINUOUS
10
76.5845
20
-48.3538
11
76.585
21
-48.3489
0
LINE
8
BLACK
6
CONTINUOUS
10
76.585
20
-48.3489
11
76.5864
21
-48.3442
0
LINE
8
BLACK
6
CONTINUOUS
10
76.5864
20
-48.3442
11
76.5887
21
-48.3398
0
LINE
8
BLACK
6
CONTINUOUS
10
76.5887
20
-48.3398
11
76.5919
21
-48.336
0
LINE
8
BLACK
6
CONTINUOUS
10
76.5919
20
-48.336
11
76.5957
21
-48.3329
0
LINE
8
BLACK
6
CONTINUOUS
10
76.5957
20
-48.3329
11
76.6
21
-48.3306
0
LINE
8
BLACK
6
CONTINUOUS
10
76.6
20
-48.3306
11
76.6047
21
-48.3291
0
LINE
8
BLACK
6
CONTINUOUS
10
76.6047
20
-48.3291
11
76.6084
21
-48.3288
0
LINE
8
BLACK
6
CONTINUOUS
10
76.6084
20
-48.3288
11
76.6084
21
-48.3288
0
LINE
8
BLACK
6
CONTINUOUS
10
76.6084
20
-48.3288
11
76.6096
21
-48.3286
0
LINE
8
BLACK
6
CONTINUOUS
10
76.6096
20
-48.3286
11
76.6108
21
-48.3288
0
LINE
8
BLACK
6
CONTINUOUS
10
76.6108
20
-48.3288
11
79.9084
21
-48.3288
0
LINE
8
BLACK
6
CONTINUOUS
10
79.9084
20
-48.3288
11
79.9096
21
-48.3286
0
LINE
8
BLACK
6
CONTINUOUS
10
79.9096
20
-48.3286
11
79.9108
21
-48.3288
0
LINE
8
BLACK
6
CONTINUOUS
10
76.6346
20
-48.3788
11
76.6346
21
-49.7888
0
LINE
8
BLACK
6
CONTINUOUS
10
76.6346
20
-49.7888
11
79.8846
21
-49.7888
0
LINE
8
BLACK
6
CONTINUOUS
10
79.8846
20
-49.7888
11
79.8846
21
-48.3788
0
LINE
8
BLACK
6
CONTINUOUS
10
79.8846
20
-48.3788
11
76.6346
21
-48.3788
0
LINE
8
BLACK
6
CONTINUOUS
10
118.008
20
-48.3288
11
118.008
21
-48.3288
0
LINE
8
BLACK
6
CONTINUOUS
10
118.008
20
-48.3288
11
118.012
21
-48.3291
0
LINE
8
BLACK
6
CONTINUOUS
10
118.012
20
-48.3291
11
118.017
21
-48.3306
0
LINE
8
BLACK
6
CONTINUOUS
10
118.017
20
-48.3306
11
118.021
21
-48.3329
0
LINE
8
BLACK
6
CONTINUOUS
10
118.021
20
-48.3329
11
118.025
21
-48.336
0
LINE
8
BLACK
6
CONTINUOUS
10
118.025
20
-48.336
11
118.028
21
-48.3398
0
LINE
8
BLACK
6
CONTINUOUS
10
118.028
20
-48.3398
11
118.03
21
-48.3442
0
LINE
8
BLACK
6
CONTINUOUS
10
118.03
20
-48.3442
11
118.032
21
-48.3489
0
LINE
8
BLACK
6
CONTINUOUS
10
118.032
20
-48.3489
11
118.032
21
-48.3538
0
LINE
8
BLACK
6
CONTINUOUS
10
118.032
20
-48.3538
11
118.032
21
-48.355
0
LINE
8
BLACK
6
CONTINUOUS
10
118.032
20
-48.355
11
118.032
21
-49.8125
0
LINE
8
BLACK
6
CONTINUOUS
10
118.032
20
-49.8125
11
118.032
21
-49.8138
0
LINE
8
BLACK
6
CONTINUOUS
10
118.032
20
-49.8138
11
118.032
21
-49.815
0
LINE
8
BLACK
6
CONTINUOUS
10
118.032
20
-49.815
11
118.032
21
-49.815
0
LINE
8
BLACK
6
CONTINUOUS
10
118.032
20
-49.815
11
118.032
21
-49.8187
0
LINE
8
BLACK
6
CONTINUOUS
10
118.032
20
-49.8187
11
118.03
21
-49.8234
0
LINE
8
BLACK
6
CONTINUOUS
10
118.03
20
-49.8234
11
118.028
21
-49.8277
0
LINE
8
BLACK
6
CONTINUOUS
10
118.028
20
-49.8277
11
118.025
21
-49.8315
0
LINE
8
BLACK
6
CONTINUOUS
10
118.025
20
-49.8315
11
118.021
21
-49.8347
0
LINE
8
BLACK
6
CONTINUOUS
10
118.021
20
-49.8347
11
118.017
21
-49.837
0
LINE
8
BLACK
6
CONTINUOUS
10
118.017
20
-49.837
11
118.012
21
-49.8384
0
LINE
8
BLACK
6
CONTINUOUS
10
118.012
20
-49.8384
11
118.007
21
-49.8389
0
LINE
8
BLACK
6
CONTINUOUS
10
118.007
20
-49.8389
11
118.006
21
-49.8388
0
LINE
8
BLACK
6
CONTINUOUS
10
118.006
20
-49.8388
11
114.708
21
-49.8388
0
LINE
8
BLACK
6
CONTINUOUS
10
114.708
20
-49.8388
11
114.707
21
-49.8389
0
LINE
8
BLACK
6
CONTINUOUS
10
114.707
20
-49.8389
11
114.702
21
-49.8384
0
LINE
8
BLACK
6
CONTINUOUS
10
114.702
20
-49.8384
11
114.698
21
-49.837
0
LINE
8
BLACK
6
CONTINUOUS
10
114.698
20
-49.837
11
114.693
21
-49.8347
0
LINE
8
BLACK
6
CONTINUOUS
10
114.693
20
-49.8347
11
114.689
21
-49.8315
0
LINE
8
BLACK
6
CONTINUOUS
10
114.689
20
-49.8315
11
114.686
21
-49.8277
0
LINE
8
BLACK
6
CONTINUOUS
10
114.686
20
-49.8277
11
114.684
21
-49.8234
0
LINE
8
BLACK
6
CONTINUOUS
10
114.684
20
-49.8234
11
114.683
21
-49.8187
0
LINE
8
BLACK
6
CONTINUOUS
10
114.683
20
-49.8187
11
114.682
21
-49.8138
0
LINE
8
BLACK
6
CONTINUOUS
10
114.682
20
-49.8138
11
114.682
21
-49.8125
0
LINE
8
BLACK
6
CONTINUOUS
10
114.682
20
-49.8125
11
114.682
21
-48.355
0
LINE
8
BLACK
6
CONTINUOUS
10
114.682
20
-48.355
11
114.682
21
-48.3538
0
LINE
8
BLACK
6
CONTINUOUS
10
114.682
20
-48.3538
11
114.683
21
-48.3489
0
LINE
8
BLACK
6
CONTINUOUS
10
114.683
20
-48.3489
11
114.684
21
-48.3442
0
LINE
8
BLACK
6
CONTINUOUS
10
114.684
20
-48.3442
11
114.686
21
-48.3398
0
LINE
8
BLACK
6
CONTINUOUS
10
114.686
20
-48.3398
11
114.689
21
-48.336
0
LINE
8
BLACK
6
CONTINUOUS
10
114.689
20
-48.336
11
114.693
21
-48.3329
0
LINE
8
BLACK
6
CONTINUOUS
10
114.693
20
-48.3329
11
114.698
21
-48.3306
0
LINE
8
BLACK
6
CONTINUOUS
10
114.698
20
-48.3306
11
114.702
21
-48.3291
0
LINE
8
BLACK
6
CONTINUOUS
10
114.702
20
-48.3291
11
114.706
21
-48.3288
0
LINE
8
BLACK
6
CONTINUOUS
10
114.706
20
-48.3288
11
114.706
21
-48.3288
0
LINE
8
BLACK
6
CONTINUOUS
10
114.706
20
-48.3288
11
114.707
21
-48.3286
0
LINE
8
BLACK
6
CONTINUOUS
10
114.707
20
-48.3286
11
114.708
21
-48.3288
0
LINE
8
BLACK
6
CONTINUOUS
10
114.708
20
-48.3288
11
118.006
21
-48.3288
0
LINE
8
BLACK
6
CONTINUOUS
10
118.006
20
-48.3288
11
118.007
21
-48.3286
0
LINE
8
BLACK
6
CONTINUOUS
10
118.007
20
-48.3286
11
118.008
21
-48.3288
0
LINE
8
BLACK
6
CONTINUOUS
10
114.732
20
-48.3788
11
114.732
21
-49.7888
0
LINE
8
BLACK
6
CONTINUOUS
10
114.732
20
-49.7888
11
117.982
21
-49.7888
0
LINE
8
BLACK
6
CONTINUOUS
10
117.982
20
-49.7888
11
117.982
21
-48.3788
0
LINE
8
BLACK
6
CONTINUOUS
10
117.982
20
-48.3788
11
114.732
21
-48.3788
0
LINE
8
BLACK
6
CONTINUOUS
10
98.9596
20
-45.154
11
98.9596
21
-45.154
0
LINE
8
BLACK
6
CONTINUOUS
10
98.9596
20
-45.154
11
98.9633
21
-45.1543
0
LINE
8
BLACK
6
CONTINUOUS
10
98.9633
20
-45.1543
11
98.968
21
-45.1558
0
LINE
8
BLACK
6
CONTINUOUS
10
98.968
20
-45.1558
11
98.9724
21
-45.1581
0
LINE
8
BLACK
6
CONTINUOUS
10
98.9724
20
-45.1581
11
98.9762
21
-45.1612
0
LINE
8
BLACK
6
CONTINUOUS
10
98.9762
20
-45.1612
11
98.9793
21
-45.165
0
LINE
8
BLACK
6
CONTINUOUS
10
98.9793
20
-45.165
11
98.9816
21
-45.1694
0
LINE
8
BLACK
6
CONTINUOUS
10
98.9816
20
-45.1694
11
98.983
21
-45.1741
0
LINE
8
BLACK
6
CONTINUOUS
10
98.983
20
-45.1741
11
98.9835
21
-45.179
0
LINE
8
BLACK
6
CONTINUOUS
10
98.9835
20
-45.179
11
98.9834
21
-45.1802
0
LINE
8
BLACK
6
CONTINUOUS
10
98.9834
20
-45.1802
11
98.9834
21
-46.6378
0
LINE
8
BLACK
6
CONTINUOUS
10
98.9834
20
-46.6378
11
98.9835
21
-46.639
0
LINE
8
BLACK
6
CONTINUOUS
10
98.9835
20
-46.639
11
98.9834
21
-46.6402
0
LINE
8
BLACK
6
CONTINUOUS
10
98.9834
20
-46.6402
11
98.9834
21
-46.6402
0
LINE
8
BLACK
6
CONTINUOUS
10
98.9834
20
-46.6402
11
98.983
21
-46.6439
0
LINE
8
BLACK
6
CONTINUOUS
10
98.983
20
-46.6439
11
98.9816
21
-46.6486
0
LINE
8
BLACK
6
CONTINUOUS
10
98.9816
20
-46.6486
11
98.9793
21
-46.6529
0
LINE
8
BLACK
6
CONTINUOUS
10
98.9793
20
-46.6529
11
98.9762
21
-46.6567
0
LINE
8
BLACK
6
CONTINUOUS
10
98.9762
20
-46.6567
11
98.9724
21
-46.6599
0
LINE
8
BLACK
6
CONTINUOUS
10
98.9724
20
-46.6599
11
98.968
21
-46.6622
0
LINE
8
BLACK
6
CONTINUOUS
10
98.968
20
-46.6622
11
98.9633
21
-46.6636
0
LINE
8
BLACK
6
CONTINUOUS
10
98.9633
20
-46.6636
11
98.9584
21
-46.6641
0
LINE
8
BLACK
6
CONTINUOUS
10
98.9584
20
-46.6641
11
98.9572
21
-46.664
0
LINE
8
BLACK
6
CONTINUOUS
10
98.9572
20
-46.664
11
95.6596
21
-46.664
0
LINE
8
BLACK
6
CONTINUOUS
10
95.6596
20
-46.664
11
95.6584
21
-46.6641
0
LINE
8
BLACK
6
CONTINUOUS
10
95.6584
20
-46.6641
11
95.6535
21
-46.6636
0
LINE
8
BLACK
6
CONTINUOUS
10
95.6535
20
-46.6636
11
95.6488
21
-46.6622
0
LINE
8
BLACK
6
CONTINUOUS
10
95.6488
20
-46.6622
11
95.6444
21
-46.6599
0
LINE
8
BLACK
6
CONTINUOUS
10
95.6444
20
-46.6599
11
95.6406
21
-46.6567
0
LINE
8
BLACK
6
CONTINUOUS
10
95.6406
20
-46.6567
11
95.6375
21
-46.6529
0
LINE
8
BLACK
6
CONTINUOUS
10
95.6375
20
-46.6529
11
95.6352
21
-46.6486
0
LINE
8
BLACK
6
CONTINUOUS
10
95.6352
20
-46.6486
11
95.6338
21
-46.6439
0
LINE
8
BLACK
6
CONTINUOUS
10
95.6338
20
-46.6439
11
95.6333
21
-46.639
0
LINE
8
BLACK
6
CONTINUOUS
10
95.6333
20
-46.639
11
95.6334
21
-46.6378
0
LINE
8
BLACK
6
CONTINUOUS
10
95.6334
20
-46.6378
11
95.6334
21
-45.1802
0
LINE
8
BLACK
6
CONTINUOUS
10
95.6334
20
-45.1802
11
95.6333
21
-45.179
0
LINE
8
BLACK
6
CONTINUOUS
10
95.6333
20
-45.179
11
95.6338
21
-45.1741
0
LINE
8
BLACK
6
CONTINUOUS
10
95.6338
20
-45.1741
11
95.6352
21
-45.1694
0
LINE
8
BLACK
6
CONTINUOUS
10
95.6352
20
-45.1694
11
95.6375
21
-45.165
0
LINE
8
BLACK
6
CONTINUOUS
10
95.6375
20
-45.165
11
95.6406
21
-45.1612
0
LINE
8
BLACK
6
CONTINUOUS
10
95.6406
20
-45.1612
11
95.6444
21
-45.1581
0
LINE
8
BLACK
6
CONTINUOUS
10
95.6444
20
-45.1581
11
95.6488
21
-45.1558
0
LINE
8
BLACK
6
CONTINUOUS
10
95.6488
20
-45.1558
11
95.6535
21
-45.1543
0
LINE
8
BLACK
6
CONTINUOUS
10
95.6535
20
-45.1543
11
95.6572
21
-45.154
0
LINE
8
BLACK
6
CONTINUOUS
10
95.6572
20
-45.154
11
95.6572
21
-45.154
0
LINE
8
BLACK
6
CONTINUOUS
10
95.6572
20
-45.154
11
95.6584
21
-45.1538
0
LINE
8
BLACK
6
CONTINUOUS
10
95.6584
20
-45.1538
11
95.6596
21
-45.154
0
LINE
8
BLACK
6
CONTINUOUS
10
95.6596
20
-45.154
11
98.9572
21
-45.154
0
LINE
8
BLACK
6
CONTINUOUS
10
98.9572
20
-45.154
11
98.9584
21
-45.1538
0
LINE
8
BLACK
6
CONTINUOUS
10
98.9584
20
-45.1538
11
98.9596
21
-45.154
0
LINE
8
BLACK
6
CONTINUOUS
10
95.6834
20
-45.204
11
95.6834
21
-46.614
0
LINE
8
BLACK
6
CONTINUOUS
10
95.6834
20
-46.614
11
98.9334
21
-46.614
0
LINE
8
BLACK
6
CONTINUOUS
10
98.9334
20
-46.614
11
98.9334
21
-45.204
0
LINE
8
BLACK
6
CONTINUOUS
10
98.9334
20
-45.204
11
95.6834
21
-45.204
0
LINE
8
BLACK
6
CONTINUOUS
10
119.276
20
-35.005
11
119.28
21
-35.0054
0
LINE
8
BLACK
6
CONTINUOUS
10
119.28
20
-35.0054
11
119.285
21
-35.0068
0
LINE
8
BLACK
6
CONTINUOUS
10
119.285
20
-35.0068
11
119.289
21
-35.0091
0
LINE
8
BLACK
6
CONTINUOUS
10
119.289
20
-35.0091
11
119.293
21
-35.0122
0
LINE
8
BLACK
6
CONTINUOUS
10
119.293
20
-35.0122
11
119.296
21
-35.016
0
LINE
8
BLACK
6
CONTINUOUS
10
119.296
20
-35.016
11
119.298
21
-35.0204
0
LINE
8
BLACK
6
CONTINUOUS
10
119.298
20
-35.0204
11
119.3
21
-35.0251
0
LINE
8
BLACK
6
CONTINUOUS
10
119.3
20
-35.0251
11
119.3
21
-35.03
0
LINE
8
BLACK
6
CONTINUOUS
10
119.3
20
-35.03
11
119.3
21
-35.0312
0
LINE
8
BLACK
6
CONTINUOUS
10
119.3
20
-35.0312
11
119.3
21
-38.6288
0
LINE
8
BLACK
6
CONTINUOUS
10
119.3
20
-38.6288
11
119.3
21
-38.63
0
LINE
8
BLACK
6
CONTINUOUS
10
119.3
20
-38.63
11
119.3
21
-38.6349
0
LINE
8
BLACK
6
CONTINUOUS
10
119.3
20
-38.6349
11
119.298
21
-38.6396
0
LINE
8
BLACK
6
CONTINUOUS
10
119.298
20
-38.6396
11
119.296
21
-38.644
0
LINE
8
BLACK
6
CONTINUOUS
10
119.296
20
-38.644
11
119.293
21
-38.6478
0
LINE
8
BLACK
6
CONTINUOUS
10
119.293
20
-38.6478
11
119.289
21
-38.6509
0
LINE
8
BLACK
6
CONTINUOUS
10
119.289
20
-38.6509
11
119.285
21
-38.6532
0
LINE
8
BLACK
6
CONTINUOUS
10
119.285
20
-38.6532
11
119.28
21
-38.6546
0
LINE
8
BLACK
6
CONTINUOUS
10
119.28
20
-38.6546
11
119.276
21
-38.655
0
LINE
8
BLACK
6
CONTINUOUS
10
119.276
20
-38.655
11
119.276
21
-38.655
0
LINE
8
BLACK
6
CONTINUOUS
10
119.276
20
-38.655
11
119.275
21
-38.6551
0
LINE
8
BLACK
6
CONTINUOUS
10
119.275
20
-38.6551
11
119.274
21
-38.655
0
LINE
8
BLACK
6
CONTINUOUS
10
119.274
20
-38.655
11
113.126
21
-38.655
0
LINE
8
BLACK
6
CONTINUOUS
10
113.126
20
-38.655
11
113.125
21
-38.6551
0
LINE
8
BLACK
6
CONTINUOUS
10
113.125
20
-38.6551
11
113.124
21
-38.655
0
LINE
8
BLACK
6
CONTINUOUS
10
113.124
20
-38.655
11
113.124
21
-38.655
0
LINE
8
BLACK
6
CONTINUOUS
10
113.124
20
-38.655
11
113.12
21
-38.6546
0
LINE
8
BLACK
6
CONTINUOUS
10
113.12
20
-38.6546
11
113.115
21
-38.6532
0
LINE
8
BLACK
6
CONTINUOUS
10
113.115
20
-38.6532
11
113.111
21
-38.6509
0
LINE
8
BLACK
6
CONTINUOUS
10
113.111
20
-38.6509
11
113.107
21
-38.6478
0
LINE
8
BLACK
6
CONTINUOUS
10
113.107
20
-38.6478
11
113.104
21
-38.644
0
LINE
8
BLACK
6
CONTINUOUS
10
113.104
20
-38.644
11
113.102
21
-38.6396
0
LINE
8
BLACK
6
CONTINUOUS
10
113.102
20
-38.6396
11
113.1
21
-38.6349
0
LINE
8
BLACK
6
CONTINUOUS
10
113.1
20
-38.6349
11
113.1
21
-38.63
0
LINE
8
BLACK
6
CONTINUOUS
10
113.1
20
-38.63
11
113.1
21
-38.6288
0
LINE
8
BLACK
6
CONTINUOUS
10
113.1
20
-38.6288
11
113.1
21
-35.0312
0
LINE
8
BLACK
6
CONTINUOUS
10
113.1
20
-35.0312
11
113.1
21
-35.03
0
LINE
8
BLACK
6
CONTINUOUS
10
113.1
20
-35.03
11
113.1
21
-35.0251
0
LINE
8
BLACK
6
CONTINUOUS
10
113.1
20
-35.0251
11
113.102
21
-35.0204
0
LINE
8
BLACK
6
CONTINUOUS
10
113.102
20
-35.0204
11
113.104
21
-35.016
0
LINE
8
BLACK
6
CONTINUOUS
10
113.104
20
-35.016
11
113.107
21
-35.0122
0
LINE
8
BLACK
6
CONTINUOUS
10
113.107
20
-35.0122
11
113.111
21
-35.0091
0
LINE
8
BLACK
6
CONTINUOUS
10
113.111
20
-35.0091
11
113.115
21
-35.0068
0
LINE
8
BLACK
6
CONTINUOUS
10
113.115
20
-35.0068
11
113.12
21
-35.0054
0
LINE
8
BLACK
6
CONTINUOUS
10
113.12
20
-35.0054
11
113.124
21
-35.005
0
LINE
8
BLACK
6
CONTINUOUS
10
113.124
20
-35.005
11
113.125
21
-35.0049
0
LINE
8
BLACK
6
CONTINUOUS
10
113.125
20
-35.0049
11
113.126
21
-35.005
0
LINE
8
BLACK
6
CONTINUOUS
10
113.126
20
-35.005
11
119.274
21
-35.005
0
LINE
8
BLACK
6
CONTINUOUS
10
119.274
20
-35.005
11
119.275
21
-35.0049
0
LINE
8
BLACK
6
CONTINUOUS
10
119.275
20
-35.0049
11
119.276
21
-35.005
0
LINE
8
BLACK
6
CONTINUOUS
10
113.15
20
-35.055
11
113.15
21
-38.605
0
LINE
8
BLACK
6
CONTINUOUS
10
113.15
20
-38.605
11
119.25
21
-38.605
0
LINE
8
BLACK
6
CONTINUOUS
10
119.25
20
-38.605
11
119.25
21
-35.055
0
LINE
8
BLACK
6
CONTINUOUS
10
119.25
20
-35.055
11
113.15
21
-35.055
0
LINE
8
BLACK
6
CONTINUOUS
10
80.5365
20
-35.0044
11
80.5402
21
-35.0048
0
LINE
8
BLACK
6
CONTINUOUS
10
80.5402
20
-35.0048
11
80.5449
21
-35.0062
0
LINE
8
BLACK
6
CONTINUOUS
10
80.5449
20
-35.0062
11
80.5493
21
-35.0085
0
LINE
8
BLACK
6
CONTINUOUS
10
80.5493
20
-35.0085
11
80.5531
21
-35.0116
0
LINE
8
BLACK
6
CONTINUOUS
10
80.5531
20
-35.0116
11
80.5562
21
-35.0154
0
LINE
8
BLACK
6
CONTINUOUS
10
80.5562
20
-35.0154
11
80.5585
21
-35.0198
0
LINE
8
BLACK
6
CONTINUOUS
10
80.5585
20
-35.0198
11
80.5599
21
-35.0245
0
LINE
8
BLACK
6
CONTINUOUS
10
80.5599
20
-35.0245
11
80.5604
21
-35.0294
0
LINE
8
BLACK
6
CONTINUOUS
10
80.5604
20
-35.0294
11
80.5603
21
-35.0306
0
LINE
8
BLACK
6
CONTINUOUS
10
80.5603
20
-35.0306
11
80.5603
21
-38.6282
0
LINE
8
BLACK
6
CONTINUOUS
10
80.5603
20
-38.6282
11
80.5604
21
-38.6294
0
LINE
8
BLACK
6
CONTINUOUS
10
80.5604
20
-38.6294
11
80.5599
21
-38.6343
0
LINE
8
BLACK
6
CONTINUOUS
10
80.5599
20
-38.6343
11
80.5585
21
-38.639
0
LINE
8
BLACK
6
CONTINUOUS
10
80.5585
20
-38.639
11
80.5562
21
-38.6433
0
LINE
8
BLACK
6
CONTINUOUS
10
80.5562
20
-38.6433
11
80.5531
21
-38.6472
0
LINE
8
BLACK
6
CONTINUOUS
10
80.5531
20
-38.6472
11
80.5493
21
-38.6503
0
LINE
8
BLACK
6
CONTINUOUS
10
80.5493
20
-38.6503
11
80.5449
21
-38.6526
0
LINE
8
BLACK
6
CONTINUOUS
10
80.5449
20
-38.6526
11
80.5402
21
-38.654
0
LINE
8
BLACK
6
CONTINUOUS
10
80.5402
20
-38.654
11
80.5365
21
-38.6544
0
LINE
8
BLACK
6
CONTINUOUS
10
80.5365
20
-38.6544
11
80.5365
21
-38.6544
0
LINE
8
BLACK
6
CONTINUOUS
10
80.5365
20
-38.6544
11
80.5353
21
-38.6545
0
LINE
8
BLACK
6
CONTINUOUS
10
80.5353
20
-38.6545
11
80.5341
21
-38.6544
0
LINE
8
BLACK
6
CONTINUOUS
10
80.5341
20
-38.6544
11
74.3865
21
-38.6544
0
LINE
8
BLACK
6
CONTINUOUS
10
74.3865
20
-38.6544
11
74.3853
21
-38.6545
0
LINE
8
BLACK
6
CONTINUOUS
10
74.3853
20
-38.6545
11
74.3841
21
-38.6544
0
LINE
8
BLACK
6
CONTINUOUS
10
74.3841
20
-38.6544
11
74.3841
21
-38.6544
0
LINE
8
BLACK
6
CONTINUOUS
10
74.3841
20
-38.6544
11
74.3804
21
-38.654
0
LINE
8
BLACK
6
CONTINUOUS
10
74.3804
20
-38.654
11
74.3757
21
-38.6526
0
LINE
8
BLACK
6
CONTINUOUS
10
74.3757
20
-38.6526
11
74.3714
21
-38.6503
0
LINE
8
BLACK
6
CONTINUOUS
10
74.3714
20
-38.6503
11
74.3675
21
-38.6472
0
LINE
8
BLACK
6
CONTINUOUS
10
74.3675
20
-38.6472
11
74.3644
21
-38.6433
0
LINE
8
BLACK
6
CONTINUOUS
10
74.3644
20
-38.6433
11
74.3621
21
-38.639
0
LINE
8
BLACK
6
CONTINUOUS
10
74.3621
20
-38.639
11
74.3607
21
-38.6343
0
LINE
8
BLACK
6
CONTINUOUS
10
74.3607
20
-38.6343
11
74.3602
21
-38.6294
0
LINE
8
BLACK
6
CONTINUOUS
10
74.3602
20
-38.6294
11
74.3603
21
-38.6282
0
LINE
8
BLACK
6
CONTINUOUS
10
74.3603
20
-38.6282
11
74.3603
21
-35.0306
0
LINE
8
BLACK
6
CONTINUOUS
10
74.3603
20
-35.0306
11
74.3602
21
-35.0294
0
LINE
8
BLACK
6
CONTINUOUS
10
74.3602
20
-35.0294
11
74.3607
21
-35.0245
0
LINE
8
BLACK
6
CONTINUOUS
10
74.3607
20
-35.0245
11
74.3621
21
-35.0198
0
LINE
8
BLACK
6
CONTINUOUS
10
74.3621
20
-35.0198
11
74.3644
21
-35.0154
0
LINE
8
BLACK
6
CONTINUOUS
10
74.3644
20
-35.0154
11
74.3675
21
-35.0116
0
LINE
8
BLACK
6
CONTINUOUS
10
74.3675
20
-35.0116
11
74.3714
21
-35.0085
0
LINE
8
BLACK
6
CONTINUOUS
10
74.3714
20
-35.0085
11
74.3757
21
-35.0062
0
LINE
8
BLACK
6
CONTINUOUS
10
74.3757
20
-35.0062
11
74.3804
21
-35.0048
0
LINE
8
BLACK
6
CONTINUOUS
10
74.3804
20
-35.0048
11
74.3841
21
-35.0044
0
LINE
8
BLACK
6
CONTINUOUS
10
74.3841
20
-35.0044
11
74.3853
21
-35.0043
0
LINE
8
BLACK
6
CONTINUOUS
10
74.3853
20
-35.0043
11
74.3865
21
-35.0044
0
LINE
8
BLACK
6
CONTINUOUS
10
74.3865
20
-35.0044
11
80.5341
21
-35.0044
0
LINE
8
BLACK
6
CONTINUOUS
10
80.5341
20
-35.0044
11
80.5353
21
-35.0043
0
LINE
8
BLACK
6
CONTINUOUS
10
80.5353
20
-35.0043
11
80.5365
21
-35.0044
0
LINE
8
BLACK
6
CONTINUOUS
10
74.4103
20
-35.0544
11
74.4103
21
-38.6044
0
LINE
8
BLACK
6
CONTINUOUS
10
74.4103
20
-38.6044
11
80.5103
21
-38.6044
0
LINE
8
BLACK
6
CONTINUOUS
10
80.5103
20
-38.6044
11
80.5103
21
-35.0544
0
LINE
8
BLACK
6
CONTINUOUS
10
80.5103
20
-35.0544
11
74.4103
21
-35.0544
0
LINE
8
BLACK
6
CONTINUOUS
10
107.811
20
-35.0044
11
107.815
21
-35.0048
0
LINE
8
BLACK
6
CONTINUOUS
10
107.815
20
-35.0048
11
107.819
21
-35.0062
0
LINE
8
BLACK
6
CONTINUOUS
10
107.819
20
-35.0062
11
107.824
21
-35.0085
0
LINE
8
BLACK
6
CONTINUOUS
10
107.824
20
-35.0085
11
107.827
21
-35.0116
0
LINE
8
BLACK
6
CONTINUOUS
10
107.827
20
-35.0116
11
107.831
21
-35.0154
0
LINE
8
BLACK
6
CONTINUOUS
10
107.831
20
-35.0154
11
107.833
21
-35.0198
0
LINE
8
BLACK
6
CONTINUOUS
10
107.833
20
-35.0198
11
107.834
21
-35.0245
0
LINE
8
BLACK
6
CONTINUOUS
10
107.834
20
-35.0245
11
107.835
21
-35.0294
0
LINE
8
BLACK
6
CONTINUOUS
10
107.835
20
-35.0294
11
107.835
21
-35.0306
0
LINE
8
BLACK
6
CONTINUOUS
10
107.835
20
-35.0306
11
107.835
21
-38.6282
0
LINE
8
BLACK
6
CONTINUOUS
10
107.835
20
-38.6282
11
107.835
21
-38.6294
0
LINE
8
BLACK
6
CONTINUOUS
10
107.835
20
-38.6294
11
107.834
21
-38.6343
0
LINE
8
BLACK
6
CONTINUOUS
10
107.834
20
-38.6343
11
107.833
21
-38.639
0
LINE
8
BLACK
6
CONTINUOUS
10
107.833
20
-38.639
11
107.831
21
-38.6433
0
LINE
8
BLACK
6
CONTINUOUS
10
107.831
20
-38.6433
11
107.827
21
-38.6472
0
LINE
8
BLACK
6
CONTINUOUS
10
107.827
20
-38.6472
11
107.824
21
-38.6503
0
LINE
8
BLACK
6
CONTINUOUS
10
107.824
20
-38.6503
11
107.819
21
-38.6526
0
LINE
8
BLACK
6
CONTINUOUS
10
107.819
20
-38.6526
11
107.815
21
-38.654
0
LINE
8
BLACK
6
CONTINUOUS
10
107.815
20
-38.654
11
107.811
21
-38.6544
0
LINE
8
BLACK
6
CONTINUOUS
10
107.811
20
-38.6544
11
107.811
21
-38.6544
0
LINE
8
BLACK
6
CONTINUOUS
10
107.811
20
-38.6544
11
107.81
21
-38.6545
0
LINE
8
BLACK
6
CONTINUOUS
10
107.81
20
-38.6545
11
107.808
21
-38.6544
0
LINE
8
BLACK
6
CONTINUOUS
10
107.808
20
-38.6544
11
86.4609
21
-38.6544
0
LINE
8
BLACK
6
CONTINUOUS
10
86.4609
20
-38.6544
11
86.4597
21
-38.6545
0
LINE
8
BLACK
6
CONTINUOUS
10
86.4597
20
-38.6545
11
86.4585
21
-38.6544
0
LINE
8
BLACK
6
CONTINUOUS
10
86.4585
20
-38.6544
11
86.4585
21
-38.6544
0
LINE
8
BLACK
6
CONTINUOUS
10
86.4585
20
-38.6544
11
86.4548
21
-38.654
0
LINE
8
BLACK
6
CONTINUOUS
10
86.4548
20
-38.654
11
86.4501
21
-38.6526
0
LINE
8
BLACK
6
CONTINUOUS
10
86.4501
20
-38.6526
11
86.4457
21
-38.6503
0
LINE
8
BLACK
6
CONTINUOUS
10
86.4457
20
-38.6503
11
86.4419
21
-38.6472
0
LINE
8
BLACK
6
CONTINUOUS
10
86.4419
20
-38.6472
11
86.4388
21
-38.6433
0
LINE
8
BLACK
6
CONTINUOUS
10
86.4388
20
-38.6433
11
86.4365
21
-38.639
0
LINE
8
BLACK
6
CONTINUOUS
10
86.4365
20
-38.639
11
86.4351
21
-38.6343
0
LINE
8
BLACK
6
CONTINUOUS
10
86.4351
20
-38.6343
11
86.4346
21
-38.6294
0
LINE
8
BLACK
6
CONTINUOUS
10
86.4346
20
-38.6294
11
86.4347
21
-38.6282
0
LINE
8
BLACK
6
CONTINUOUS
10
86.4347
20
-38.6282
11
86.4347
21
-35.0306
0
LINE
8
BLACK
6
CONTINUOUS
10
86.4347
20
-35.0306
11
86.4346
21
-35.0294
0
LINE
8
BLACK
6
CONTINUOUS
10
86.4346
20
-35.0294
11
86.4351
21
-35.0245
0
LINE
8
BLACK
6
CONTINUOUS
10
86.4351
20
-35.0245
11
86.4365
21
-35.0198
0
LINE
8
BLACK
6
CONTINUOUS
10
86.4365
20
-35.0198
11
86.4388
21
-35.0154
0
LINE
8
BLACK
6
CONTINUOUS
10
86.4388
20
-35.0154
11
86.4419
21
-35.0116
0
LINE
8
BLACK
6
CONTINUOUS
10
86.4419
20
-35.0116
11
86.4457
21
-35.0085
0
LINE
8
BLACK
6
CONTINUOUS
10
86.4457
20
-35.0085
11
86.4501
21
-35.0062
0
LINE
8
BLACK
6
CONTINUOUS
10
86.4501
20
-35.0062
11
86.4548
21
-35.0048
0
LINE
8
BLACK
6
CONTINUOUS
10
86.4548
20
-35.0048
11
86.4585
21
-35.0044
0
LINE
8
BLACK
6
CONTINUOUS
10
86.4585
20
-35.0044
11
86.4597
21
-35.0043
0
LINE
8
BLACK
6
CONTINUOUS
10
86.4597
20
-35.0043
11
86.4609
21
-35.0044
0
LINE
8
BLACK
6
CONTINUOUS
10
86.4609
20
-35.0044
11
107.808
21
-35.0044
0
LINE
8
BLACK
6
CONTINUOUS
10
107.808
20
-35.0044
11
107.81
21
-35.0043
0
LINE
8
BLACK
6
CONTINUOUS
10
107.81
20
-35.0043
11
107.811
21
-35.0044
0
LINE
8
BLACK
6
CONTINUOUS
10
86.4847
20
-35.0544
11
86.4847
21
-38.6044
0
LINE
8
BLACK
6
CONTINUOUS
10
86.4847
20
-38.6044
11
107.785
21
-38.6044
0
LINE
8
BLACK
6
CONTINUOUS
10
107.785
20
-38.6044
11
107.785
21
-35.0544
0
LINE
8
BLACK
6
CONTINUOUS
10
107.785
20
-35.0544
11
86.4847
21
-35.0544
0
LINE
8
BLACK
6
CONTINUOUS
10
121.437
20
-105.321
11
121.625
21
-104.869
0
LINE
8
BLACK
6
CONTINUOUS
10
121.625
20
-104.869
11
121.896
21
-104.462
0
LINE
8
BLACK
6
CONTINUOUS
10
121.896
20
-104.462
11
122.242
21
-104.116
0
LINE
8
BLACK
6
CONTINUOUS
10
122.242
20
-104.116
11
122.649
21
-103.845
0
LINE
8
BLACK
6
CONTINUOUS
10
122.649
20
-103.845
11
123.101
21
-103.657
0
LINE
8
BLACK
6
CONTINUOUS
10
123.101
20
-103.657
11
123.58
21
-103.562
0
LINE
8
BLACK
6
CONTINUOUS
10
123.58
20
-103.562
11
124.07
21
-103.562
0
LINE
8
BLACK
6
CONTINUOUS
10
124.07
20
-103.562
11
124.549
21
-103.657
0
LINE
8
BLACK
6
CONTINUOUS
10
124.549
20
-103.657
11
125.001
21
-103.845
0
LINE
8
BLACK
6
CONTINUOUS
10
125.001
20
-103.845
11
125.408
21
-104.116
0
LINE
8
BLACK
6
CONTINUOUS
10
125.408
20
-104.116
11
125.754
21
-104.462
0
LINE
8
BLACK
6
CONTINUOUS
10
125.754
20
-104.462
11
126.025
21
-104.869
0
LINE
8
BLACK
6
CONTINUOUS
10
126.025
20
-104.869
11
126.213
21
-105.321
0
LINE
8
BLACK
6
CONTINUOUS
10
126.213
20
-105.321
11
126.308
21
-105.8
0
LINE
8
BLACK
6
CONTINUOUS
10
126.308
20
-105.8
11
126.308
21
-106.29
0
LINE
8
BLACK
6
CONTINUOUS
10
126.308
20
-106.29
11
126.213
21
-106.769
0
LINE
8
BLACK
6
CONTINUOUS
10
126.213
20
-106.769
11
126.025
21
-107.221
0
LINE
8
BLACK
6
CONTINUOUS
10
126.025
20
-107.221
11
125.754
21
-107.628
0
LINE
8
BLACK
6
CONTINUOUS
10
125.754
20
-107.628
11
125.408
21
-107.974
0
LINE
8
BLACK
6
CONTINUOUS
10
125.408
20
-107.974
11
125.001
21
-108.245
0
LINE
8
BLACK
6
CONTINUOUS
10
125.001
20
-108.245
11
124.549
21
-108.433
0
LINE
8
BLACK
6
CONTINUOUS
10
124.549
20
-108.433
11
124.07
21
-108.528
0
LINE
8
BLACK
6
CONTINUOUS
10
124.07
20
-108.528
11
123.58
21
-108.528
0
LINE
8
BLACK
6
CONTINUOUS
10
123.58
20
-108.528
11
123.101
21
-108.433
0
LINE
8
BLACK
6
CONTINUOUS
10
123.101
20
-108.433
11
122.649
21
-108.245
0
LINE
8
BLACK
6
CONTINUOUS
10
122.649
20
-108.245
11
122.242
21
-107.974
0
LINE
8
BLACK
6
CONTINUOUS
10
122.242
20
-107.974
11
121.896
21
-107.628
0
LINE
8
BLACK
6
CONTINUOUS
10
121.896
20
-107.628
11
121.625
21
-107.221
0
LINE
8
BLACK
6
CONTINUOUS
10
121.625
20
-107.221
11
121.437
21
-106.769
0
LINE
8
BLACK
6
CONTINUOUS
10
121.437
20
-106.769
11
121.342
21
-106.29
0
LINE
8
BLACK
6
CONTINUOUS
10
121.342
20
-106.29
11
121.342
21
-105.8
0
LINE
8
BLACK
6
CONTINUOUS
10
121.342
20
-105.8
11
121.437
21
-105.321
0
LINE
8
BLACK
6
CONTINUOUS
10
121.504
20
-106.749
11
121.686
21
-107.188
0
LINE
8
BLACK
6
CONTINUOUS
10
121.686
20
-107.188
11
121.95
21
-107.583
0
LINE
8
BLACK
6
CONTINUOUS
10
121.95
20
-107.583
11
122.287
21
-107.92
0
LINE
8
BLACK
6
CONTINUOUS
10
122.287
20
-107.92
11
122.682
21
-108.184
0
LINE
8
BLACK
6
CONTINUOUS
10
122.682
20
-108.184
11
123.121
21
-108.366
0
LINE
8
BLACK
6
CONTINUOUS
10
123.121
20
-108.366
11
123.587
21
-108.458
0
LINE
8
BLACK
6
CONTINUOUS
10
123.587
20
-108.458
11
124.063
21
-108.458
0
LINE
8
BLACK
6
CONTINUOUS
10
124.063
20
-108.458
11
124.529
21
-108.366
0
LINE
8
BLACK
6
CONTINUOUS
10
124.529
20
-108.366
11
124.968
21
-108.184
0
LINE
8
BLACK
6
CONTINUOUS
10
124.968
20
-108.184
11
125.363
21
-107.92
0
LINE
8
BLACK
6
CONTINUOUS
10
125.363
20
-107.92
11
125.7
21
-107.583
0
LINE
8
BLACK
6
CONTINUOUS
10
125.7
20
-107.583
11
125.964
21
-107.188
0
LINE
8
BLACK
6
CONTINUOUS
10
125.964
20
-107.188
11
126.146
21
-106.749
0
LINE
8
BLACK
6
CONTINUOUS
10
126.146
20
-106.749
11
126.238
21
-106.283
0
LINE
8
BLACK
6
CONTINUOUS
10
126.238
20
-106.283
11
126.238
21
-105.807
0
LINE
8
BLACK
6
CONTINUOUS
10
126.238
20
-105.807
11
126.146
21
-105.341
0
LINE
8
BLACK
6
CONTINUOUS
10
126.146
20
-105.341
11
125.964
21
-104.902
0
LINE
8
BLACK
6
CONTINUOUS
10
125.964
20
-104.902
11
125.7
21
-104.507
0
LINE
8
BLACK
6
CONTINUOUS
10
125.7
20
-104.507
11
125.363
21
-104.17
0
LINE
8
BLACK
6
CONTINUOUS
10
125.363
20
-104.17
11
124.968
21
-103.906
0
LINE
8
BLACK
6
CONTINUOUS
10
124.968
20
-103.906
11
124.529
21
-103.724
0
LINE
8
BLACK
6
CONTINUOUS
10
124.529
20
-103.724
11
124.063
21
-103.632
0
LINE
8
BLACK
6
CONTINUOUS
10
124.063
20
-103.632
11
123.587
21
-103.632
0
LINE
8
BLACK
6
CONTINUOUS
10
123.587
20
-103.632
11
123.121
21
-103.724
0
LINE
8
BLACK
6
CONTINUOUS
10
123.121
20
-103.724
11
122.682
21
-103.906
0
LINE
8
BLACK
6
CONTINUOUS
10
122.682
20
-103.906
11
122.287
21
-104.17
0
LINE
8
BLACK
6
CONTINUOUS
10
122.287
20
-104.17
11
121.95
21
-104.507
0
LINE
8
BLACK
6
CONTINUOUS
10
121.95
20
-104.507
11
121.686
21
-104.902
0
LINE
8
BLACK
6
CONTINUOUS
10
121.686
20
-104.902
11
121.504
21
-105.341
0
LINE
8
BLACK
6
CONTINUOUS
10
121.504
20
-105.341
11
121.412
21
-105.807
0
LINE
8
BLACK
6
CONTINUOUS
10
121.412
20
-105.807
11
121.412
21
-106.283
0
LINE
8
BLACK
6
CONTINUOUS
10
121.412
20
-106.283
11
121.504
21
-106.749
0
LINE
8
BLACK
6
CONTINUOUS
10
49.6824
20
-105.321
11
49.8696
21
-104.869
0
LINE
8
BLACK
6
CONTINUOUS
10
49.8696
20
-104.869
11
50.1413
21
-104.462
0
LINE
8
BLACK
6
CONTINUOUS
10
50.1413
20
-104.462
11
50.4872
21
-104.116
0
LINE
8
BLACK
6
CONTINUOUS
10
50.4872
20
-104.116
11
50.8939
21
-103.845
0
LINE
8
BLACK
6
CONTINUOUS
10
50.8939
20
-103.845
11
51.3457
21
-103.657
0
LINE
8
BLACK
6
CONTINUOUS
10
51.3457
20
-103.657
11
51.8254
21
-103.562
0
LINE
8
BLACK
6
CONTINUOUS
10
51.8254
20
-103.562
11
52.3146
21
-103.562
0
LINE
8
BLACK
6
CONTINUOUS
10
52.3146
20
-103.562
11
52.7943
21
-103.657
0
LINE
8
BLACK
6
CONTINUOUS
10
52.7943
20
-103.657
11
53.2461
21
-103.845
0
LINE
8
BLACK
6
CONTINUOUS
10
53.2461
20
-103.845
11
53.6528
21
-104.116
0
LINE
8
BLACK
6
CONTINUOUS
10
53.6528
20
-104.116
11
53.9987
21
-104.462
0
LINE
8
BLACK
6
CONTINUOUS
10
53.9987
20
-104.462
11
54.2704
21
-104.869
0
LINE
8
BLACK
6
CONTINUOUS
10
54.2704
20
-104.869
11
54.4576
21
-105.321
0
LINE
8
BLACK
6
CONTINUOUS
10
54.4576
20
-105.321
11
54.553
21
-105.8
0
LINE
8
BLACK
6
CONTINUOUS
10
54.553
20
-105.8
11
54.553
21
-106.29
0
LINE
8
BLACK
6
CONTINUOUS
10
54.553
20
-106.29
11
54.4576
21
-106.769
0
LINE
8
BLACK
6
CONTINUOUS
10
54.4576
20
-106.769
11
54.2704
21
-107.221
0
LINE
8
BLACK
6
CONTINUOUS
10
54.2704
20
-107.221
11
53.9987
21
-107.628
0
LINE
8
BLACK
6
CONTINUOUS
10
53.9987
20
-107.628
11
53.6528
21
-107.974
0
LINE
8
BLACK
6
CONTINUOUS
10
53.6528
20
-107.974
11
53.2461
21
-108.245
0
LINE
8
BLACK
6
CONTINUOUS
10
53.2461
20
-108.245
11
52.7943
21
-108.433
0
LINE
8
BLACK
6
CONTINUOUS
10
52.7943
20
-108.433
11
52.3146
21
-108.528
0
LINE
8
BLACK
6
CONTINUOUS
10
52.3146
20
-108.528
11
51.8254
21
-108.528
0
LINE
8
BLACK
6
CONTINUOUS
10
51.8254
20
-108.528
11
51.3457
21
-108.433
0
LINE
8
BLACK
6
CONTINUOUS
10
51.3457
20
-108.433
11
50.8939
21
-108.245
0
LINE
8
BLACK
6
CONTINUOUS
10
50.8939
20
-108.245
11
50.4872
21
-107.974
0
LINE
8
BLACK
6
CONTINUOUS
10
50.4872
20
-107.974
11
50.1413
21
-107.628
0
LINE
8
BLACK
6
CONTINUOUS
10
50.1413
20
-107.628
11
49.8696
21
-107.221
0
LINE
8
BLACK
6
CONTINUOUS
10
49.8696
20
-107.221
11
49.6824
21
-106.769
0
LINE
8
BLACK
6
CONTINUOUS
10
49.6824
20
-106.769
11
49.587
21
-106.29
0
LINE
8
BLACK
6
CONTINUOUS
10
49.587
20
-106.29
11
49.587
21
-105.8
0
LINE
8
BLACK
6
CONTINUOUS
10
49.587
20
-105.8
11
49.6824
21
-105.321
0
LINE
8
BLACK
6
CONTINUOUS
10
49.7494
20
-106.749
11
49.9313
21
-107.188
0
LINE
8
BLACK
6
CONTINUOUS
10
49.9313
20
-107.188
11
50.1955
21
-107.583
0
LINE
8
BLACK
6
CONTINUOUS
10
50.1955
20
-107.583
11
50.5316
21
-107.92
0
LINE
8
BLACK
6
CONTINUOUS
10
50.5316
20
-107.92
11
50.9269
21
-108.184
0
LINE
8
BLACK
6
CONTINUOUS
10
50.9269
20
-108.184
11
51.3661
21
-108.366
0
LINE
8
BLACK
6
CONTINUOUS
10
51.3661
20
-108.366
11
51.8323
21
-108.458
0
LINE
8
BLACK
6
CONTINUOUS
10
51.8323
20
-108.458
11
52.3077
21
-108.458
0
LINE
8
BLACK
6
CONTINUOUS
10
52.3077
20
-108.458
11
52.7739
21
-108.366
0
LINE
8
BLACK
6
CONTINUOUS
10
52.7739
20
-108.366
11
53.2131
21
-108.184
0
LINE
8
BLACK
6
CONTINUOUS
10
53.2131
20
-108.184
11
53.6084
21
-107.92
0
LINE
8
BLACK
6
CONTINUOUS
10
53.6084
20
-107.92
11
53.9445
21
-107.583
0
LINE
8
BLACK
6
CONTINUOUS
10
53.9445
20
-107.583
11
54.2087
21
-107.188
0
LINE
8
BLACK
6
CONTINUOUS
10
54.2087
20
-107.188
11
54.3906
21
-106.749
0
LINE
8
BLACK
6
CONTINUOUS
10
54.3906
20
-106.749
11
54.4833
21
-106.283
0
LINE
8
BLACK
6
CONTINUOUS
10
54.4833
20
-106.283
11
54.4833
21
-105.807
0
LINE
8
BLACK
6
CONTINUOUS
10
54.4833
20
-105.807
11
54.3906
21
-105.341
0
LINE
8
BLACK
6
CONTINUOUS
10
54.3906
20
-105.341
11
54.2087
21
-104.902
0
LINE
8
BLACK
6
CONTINUOUS
10
54.2087
20
-104.902
11
53.9445
21
-104.507
0
LINE
8
BLACK
6
CONTINUOUS
10
53.9445
20
-104.507
11
53.6084
21
-104.17
0
LINE
8
BLACK
6
CONTINUOUS
10
53.6084
20
-104.17
11
53.2131
21
-103.906
0
LINE
8
BLACK
6
CONTINUOUS
10
53.2131
20
-103.906
11
52.7739
21
-103.724
0
LINE
8
BLACK
6
CONTINUOUS
10
52.7739
20
-103.724
11
52.3077
21
-103.632
0
LINE
8
BLACK
6
CONTINUOUS
10
52.3077
20
-103.632
11
51.8323
21
-103.632
0
LINE
8
BLACK
6
CONTINUOUS
10
51.8323
20
-103.632
11
51.3661
21
-103.724
0
LINE
8
BLACK
6
CONTINUOUS
10
51.3661
20
-103.724
11
50.9269
21
-103.906
0
LINE
8
BLACK
6
CONTINUOUS
10
50.9269
20
-103.906
11
50.5316
21
-104.17
0
LINE
8
BLACK
6
CONTINUOUS
10
50.5316
20
-104.17
11
50.1955
21
-104.507
0
LINE
8
BLACK
6
CONTINUOUS
10
50.1955
20
-104.507
11
49.9313
21
-104.902
0
LINE
8
BLACK
6
CONTINUOUS
10
49.9313
20
-104.902
11
49.7494
21
-105.341
0
LINE
8
BLACK
6
CONTINUOUS
10
49.7494
20
-105.341
11
49.6567
21
-105.807
0
LINE
8
BLACK
6
CONTINUOUS
10
49.6567
20
-105.807
11
49.6567
21
-106.283
0
LINE
8
BLACK
6
CONTINUOUS
10
49.6567
20
-106.283
11
49.7494
21
-106.749
0
LINE
8
BLACK
6
CONTINUOUS
10
132.867
20
-78.0157
11
133.055
21
-77.5639
0
LINE
8
BLACK
6
CONTINUOUS
10
133.055
20
-77.5639
11
133.326
21
-77.1572
0
LINE
8
BLACK
6
CONTINUOUS
10
133.326
20
-77.1572
11
133.672
21
-76.8113
0
LINE
8
BLACK
6
CONTINUOUS
10
133.672
20
-76.8113
11
134.079
21
-76.5396
0
LINE
8
BLACK
6
CONTINUOUS
10
134.079
20
-76.5396
11
134.531
21
-76.3524
0
LINE
8
BLACK
6
CONTINUOUS
10
134.531
20
-76.3524
11
135.01
21
-76.257
0
LINE
8
BLACK
6
CONTINUOUS
10
135.01
20
-76.257
11
135.5
21
-76.257
0
LINE
8
BLACK
6
CONTINUOUS
10
135.5
20
-76.257
11
135.979
21
-76.3524
0
LINE
8
BLACK
6
CONTINUOUS
10
135.979
20
-76.3524
11
136.431
21
-76.5396
0
LINE
8
BLACK
6
CONTINUOUS
10
136.431
20
-76.5396
11
136.838
21
-76.8113
0
LINE
8
BLACK
6
CONTINUOUS
10
136.838
20
-76.8113
11
137.184
21
-77.1572
0
LINE
8
BLACK
6
CONTINUOUS
10
137.184
20
-77.1572
11
137.455
21
-77.5639
0
LINE
8
BLACK
6
CONTINUOUS
10
137.455
20
-77.5639
11
137.643
21
-78.0157
0
LINE
8
BLACK
6
CONTINUOUS
10
137.643
20
-78.0157
11
137.738
21
-78.4954
0
LINE
8
BLACK
6
CONTINUOUS
10
137.738
20
-78.4954
11
137.738
21
-78.9846
0
LINE
8
BLACK
6
CONTINUOUS
10
137.738
20
-78.9846
11
137.643
21
-79.4643
0
LINE
8
BLACK
6
CONTINUOUS
10
137.643
20
-79.4643
11
137.455
21
-79.9161
0
LINE
8
BLACK
6
CONTINUOUS
10
137.455
20
-79.9161
11
137.184
21
-80.3228
0
LINE
8
BLACK
6
CONTINUOUS
10
137.184
20
-80.3228
11
136.838
21
-80.6687
0
LINE
8
BLACK
6
CONTINUOUS
10
136.838
20
-80.6687
11
136.431
21
-80.9404
0
LINE
8
BLACK
6
CONTINUOUS
10
136.431
20
-80.9404
11
135.979
21
-81.1276
0
LINE
8
BLACK
6
CONTINUOUS
10
135.979
20
-81.1276
11
135.5
21
-81.223
0
LINE
8
BLACK
6
CONTINUOUS
10
135.5
20
-81.223
11
135.01
21
-81.223
0
LINE
8
BLACK
6
CONTINUOUS
10
135.01
20
-81.223
11
134.531
21
-81.1276
0
LINE
8
BLACK
6
CONTINUOUS
10
134.531
20
-81.1276
11
134.079
21
-80.9404
0
LINE
8
BLACK
6
CONTINUOUS
10
134.079
20
-80.9404
11
133.672
21
-80.6687
0
LINE
8
BLACK
6
CONTINUOUS
10
133.672
20
-80.6687
11
133.326
21
-80.3228
0
LINE
8
BLACK
6
CONTINUOUS
10
133.326
20
-80.3228
11
133.055
21
-79.9161
0
LINE
8
BLACK
6
CONTINUOUS
10
133.055
20
-79.9161
11
132.867
21
-79.4643
0
LINE
8
BLACK
6
CONTINUOUS
10
132.867
20
-79.4643
11
132.772
21
-78.9846
0
LINE
8
BLACK
6
CONTINUOUS
10
132.772
20
-78.9846
11
132.772
21
-78.4954
0
LINE
8
BLACK
6
CONTINUOUS
10
132.772
20
-78.4954
11
132.867
21
-78.0157
0
LINE
8
BLACK
6
CONTINUOUS
10
132.934
20
-79.4439
11
133.116
21
-79.8831
0
LINE
8
BLACK
6
CONTINUOUS
10
133.116
20
-79.8831
11
133.38
21
-80.2784
0
LINE
8
BLACK
6
CONTINUOUS
10
133.38
20
-80.2784
11
133.717
21
-80.6145
0
LINE
8
BLACK
6
CONTINUOUS
10
133.717
20
-80.6145
11
134.112
21
-80.8787
0
LINE
8
BLACK
6
CONTINUOUS
10
134.112
20
-80.8787
11
134.551
21
-81.0606
0
LINE
8
BLACK
6
CONTINUOUS
10
134.551
20
-81.0606
11
135.017
21
-81.1533
0
LINE
8
BLACK
6
CONTINUOUS
10
135.017
20
-81.1533
11
135.493
21
-81.1533
0
LINE
8
BLACK
6
CONTINUOUS
10
135.493
20
-81.1533
11
135.959
21
-81.0606
0
LINE
8
BLACK
6
CONTINUOUS
10
135.959
20
-81.0606
11
136.398
21
-80.8787
0
LINE
8
BLACK
6
CONTINUOUS
10
136.398
20
-80.8787
11
136.793
21
-80.6145
0
LINE
8
BLACK
6
CONTINUOUS
10
136.793
20
-80.6145
11
137.13
21
-80.2784
0
LINE
8
BLACK
6
CONTINUOUS
10
137.13
20
-80.2784
11
137.394
21
-79.8831
0
LINE
8
BLACK
6
CONTINUOUS
10
137.394
20
-79.8831
11
137.576
21
-79.4439
0
LINE
8
BLACK
6
CONTINUOUS
10
137.576
20
-79.4439
11
137.668
21
-78.9777
0
LINE
8
BLACK
6
CONTINUOUS
10
137.668
20
-78.9777
11
137.668
21
-78.5023
0
LINE
8
BLACK
6
CONTINUOUS
10
137.668
20
-78.5023
11
137.576
21
-78.0361
0
LINE
8
BLACK
6
CONTINUOUS
10
137.576
20
-78.0361
11
137.394
21
-77.5969
0
LINE
8
BLACK
6
CONTINUOUS
10
137.394
20
-77.5969
11
137.13
21
-77.2016
0
LINE
8
BLACK
6
CONTINUOUS
10
137.13
20
-77.2016
11
136.793
21
-76.8654
0
LINE
8
BLACK
6
CONTINUOUS
10
136.793
20
-76.8654
11
136.398
21
-76.6013
0
LINE
8
BLACK
6
CONTINUOUS
10
136.398
20
-76.6013
11
135.959
21
-76.4194
0
LINE
8
BLACK
6
CONTINUOUS
10
135.959
20
-76.4194
11
135.493
21
-76.3267
0
LINE
8
BLACK
6
CONTINUOUS
10
135.493
20
-76.3267
11
135.017
21
-76.3267
0
LINE
8
BLACK
6
CONTINUOUS
10
135.017
20
-76.3267
11
134.551
21
-76.4194
0
LINE
8
BLACK
6
CONTINUOUS
10
134.551
20
-76.4194
11
134.112
21
-76.6013
0
LINE
8
BLACK
6
CONTINUOUS
10
134.112
20
-76.6013
11
133.717
21
-76.8654
0
LINE
8
BLACK
6
CONTINUOUS
10
133.717
20
-76.8654
11
133.38
21
-77.2016
0
LINE
8
BLACK
6
CONTINUOUS
10
133.38
20
-77.2016
11
133.116
21
-77.5969
0
LINE
8
BLACK
6
CONTINUOUS
10
133.116
20
-77.5969
11
132.934
21
-78.0361
0
LINE
8
BLACK
6
CONTINUOUS
10
132.934
20
-78.0361
11
132.842
21
-78.5023
0
LINE
8
BLACK
6
CONTINUOUS
10
132.842
20
-78.5023
11
132.842
21
-78.9777
0
LINE
8
BLACK
6
CONTINUOUS
10
132.842
20
-78.9777
11
132.934
21
-79.4439
0
LINE
8
BLACK
6
CONTINUOUS
10
29.9974
20
-47.5357
11
30.1846
21
-47.0839
0
LINE
8
BLACK
6
CONTINUOUS
10
30.1846
20
-47.0839
11
30.4563
21
-46.6772
0
LINE
8
BLACK
6
CONTINUOUS
10
30.4563
20
-46.6772
11
30.8022
21
-46.3313
0
LINE
8
BLACK
6
CONTINUOUS
10
30.8022
20
-46.3313
11
31.2089
21
-46.0596
0
LINE
8
BLACK
6
CONTINUOUS
10
31.2089
20
-46.0596
11
31.6607
21
-45.8724
0
LINE
8
BLACK
6
CONTINUOUS
10
31.6607
20
-45.8724
11
32.1404
21
-45.777
0
LINE
8
BLACK
6
CONTINUOUS
10
32.1404
20
-45.777
11
32.6296
21
-45.777
0
LINE
8
BLACK
6
CONTINUOUS
10
32.6296
20
-45.777
11
33.1093
21
-45.8724
0
LINE
8
BLACK
6
CONTINUOUS
10
33.1093
20
-45.8724
11
33.5611
21
-46.0596
0
LINE
8
BLACK
6
CONTINUOUS
10
33.5611
20
-46.0596
11
33.9678
21
-46.3313
0
LINE
8
BLACK
6
CONTINUOUS
10
33.9678
20
-46.3313
11
34.3137
21
-46.6772
0
LINE
8
BLACK
6
CONTINUOUS
10
34.3137
20
-46.6772
11
34.5854
21
-47.0839
0
LINE
8
BLACK
6
CONTINUOUS
10
34.5854
20
-47.0839
11
34.7726
21
-47.5357
0
LINE
8
BLACK
6
CONTINUOUS
10
34.7726
20
-47.5357
11
34.868
21
-48.0154
0
LINE
8
BLACK
6
CONTINUOUS
10
34.868
20
-48.0154
11
34.868
21
-48.5046
0
LINE
8
BLACK
6
CONTINUOUS
10
34.868
20
-48.5046
11
34.7726
21
-48.9843
0
LINE
8
BLACK
6
CONTINUOUS
10
34.7726
20
-48.9843
11
34.5854
21
-49.4361
0
LINE
8
BLACK
6
CONTINUOUS
10
34.5854
20
-49.4361
11
34.3137
21
-49.8428
0
LINE
8
BLACK
6
CONTINUOUS
10
34.3137
20
-49.8428
11
33.9678
21
-50.1887
0
LINE
8
BLACK
6
CONTINUOUS
10
33.9678
20
-50.1887
11
33.5611
21
-50.4604
0
LINE
8
BLACK
6
CONTINUOUS
10
33.5611
20
-50.4604
11
33.1093
21
-50.6476
0
LINE
8
BLACK
6
CONTINUOUS
10
33.1093
20
-50.6476
11
32.6296
21
-50.743
0
LINE
8
BLACK
6
CONTINUOUS
10
32.6296
20
-50.743
11
32.1404
21
-50.743
0
LINE
8
BLACK
6
CONTINUOUS
10
32.1404
20
-50.743
11
31.6607
21
-50.6476
0
LINE
8
BLACK
6
CONTINUOUS
10
31.6607
20
-50.6476
11
31.2089
21
-50.4604
0
LINE
8
BLACK
6
CONTINUOUS
10
31.2089
20
-50.4604
11
30.8022
21
-50.1887
0
LINE
8
BLACK
6
CONTINUOUS
10
30.8022
20
-50.1887
11
30.4563
21
-49.8428
0
LINE
8
BLACK
6
CONTINUOUS
10
30.4563
20
-49.8428
11
30.1846
21
-49.4361
0
LINE
8
BLACK
6
CONTINUOUS
10
30.1846
20
-49.4361
11
29.9974
21
-48.9843
0
LINE
8
BLACK
6
CONTINUOUS
10
29.9974
20
-48.9843
11
29.902
21
-48.5046
0
LINE
8
BLACK
6
CONTINUOUS
10
29.902
20
-48.5046
11
29.902
21
-48.0154
0
LINE
8
BLACK
6
CONTINUOUS
10
29.902
20
-48.0154
11
29.9974
21
-47.5357
0
LINE
8
BLACK
6
CONTINUOUS
10
30.0644
20
-48.9639
11
30.2463
21
-49.4031
0
LINE
8
BLACK
6
CONTINUOUS
10
30.2463
20
-49.4031
11
30.5104
21
-49.7984
0
LINE
8
BLACK
6
CONTINUOUS
10
30.5104
20
-49.7984
11
30.8466
21
-50.1345
0
LINE
8
BLACK
6
CONTINUOUS
10
30.8466
20
-50.1345
11
31.2419
21
-50.3987
0
LINE
8
BLACK
6
CONTINUOUS
10
31.2419
20
-50.3987
11
31.6811
21
-50.5806
0
LINE
8
BLACK
6
CONTINUOUS
10
31.6811
20
-50.5806
11
32.1473
21
-50.6733
0
LINE
8
BLACK
6
CONTINUOUS
10
32.1473
20
-50.6733
11
32.6227
21
-50.6733
0
LINE
8
BLACK
6
CONTINUOUS
10
32.6227
20
-50.6733
11
33.0889
21
-50.5806
0
LINE
8
BLACK
6
CONTINUOUS
10
33.0889
20
-50.5806
11
33.5281
21
-50.3987
0
LINE
8
BLACK
6
CONTINUOUS
10
33.5281
20
-50.3987
11
33.9234
21
-50.1345
0
LINE
8
BLACK
6
CONTINUOUS
10
33.9234
20
-50.1345
11
34.2595
21
-49.7984
0
LINE
8
BLACK
6
CONTINUOUS
10
34.2595
20
-49.7984
11
34.5237
21
-49.4031
0
LINE
8
BLACK
6
CONTINUOUS
10
34.5237
20
-49.4031
11
34.7056
21
-48.9639
0
LINE
8
BLACK
6
CONTINUOUS
10
34.7056
20
-48.9639
11
34.7983
21
-48.4977
0
LINE
8
BLACK
6
CONTINUOUS
10
34.7983
20
-48.4977
11
34.7983
21
-48.0223
0
LINE
8
BLACK
6
CONTINUOUS
10
34.7983
20
-48.0223
11
34.7056
21
-47.5561
0
LINE
8
BLACK
6
CONTINUOUS
10
34.7056
20
-47.5561
11
34.5237
21
-47.1169
0
LINE
8
BLACK
6
CONTINUOUS
10
34.5237
20
-47.1169
11
34.2595
21
-46.7216
0
LINE
8
BLACK
6
CONTINUOUS
10
34.2595
20
-46.7216
11
33.9234
21
-46.3854
0
LINE
8
BLACK
6
CONTINUOUS
10
33.9234
20
-46.3854
11
33.5281
21
-46.1213
0
LINE
8
BLACK
6
CONTINUOUS
10
33.5281
20
-46.1213
11
33.0889
21
-45.9394
0
LINE
8
BLACK
6
CONTINUOUS
10
33.0889
20
-45.9394
11
32.6227
21
-45.8467
0
LINE
8
BLACK
6
CONTINUOUS
10
32.6227
20
-45.8467
11
32.1473
21
-45.8467
0
LINE
8
BLACK
6
CONTINUOUS
10
32.1473
20
-45.8467
11
31.6811
21
-45.9394
0
LINE
8
BLACK
6
CONTINUOUS
10
31.6811
20
-45.9394
11
31.2419
21
-46.1213
0
LINE
8
BLACK
6
CONTINUOUS
10
31.2419
20
-46.1213
11
30.8466
21
-46.3854
0
LINE
8
BLACK
6
CONTINUOUS
10
30.8466
20
-46.3854
11
30.5104
21
-46.7216
0
LINE
8
BLACK
6
CONTINUOUS
10
30.5104
20
-46.7216
11
30.2463
21
-47.1169
0
LINE
8
BLACK
6
CONTINUOUS
10
30.2463
20
-47.1169
11
30.0644
21
-47.5561
0
LINE
8
BLACK
6
CONTINUOUS
10
30.0644
20
-47.5561
11
29.9717
21
-48.0223
0
LINE
8
BLACK
6
CONTINUOUS
10
29.9717
20
-48.0223
11
29.9717
21
-48.4977
0
LINE
8
BLACK
6
CONTINUOUS
10
29.9717
20
-48.4977
11
30.0644
21
-48.9639
0
LINE
8
BLACK
6
CONTINUOUS
10
63.6524
20
-43.7257
11
63.8396
21
-43.2739
0
LINE
8
BLACK
6
CONTINUOUS
10
63.8396
20
-43.2739
11
64.1113
21
-42.8672
0
LINE
8
BLACK
6
CONTINUOUS
10
64.1113
20
-42.8672
11
64.4572
21
-42.5213
0
LINE
8
BLACK
6
CONTINUOUS
10
64.4572
20
-42.5213
11
64.8639
21
-42.2496
0
LINE
8
BLACK
6
CONTINUOUS
10
64.8639
20
-42.2496
11
65.3157
21
-42.0624
0
LINE
8
BLACK
6
CONTINUOUS
10
65.3157
20
-42.0624
11
65.7954
21
-41.967
0
LINE
8
BLACK
6
CONTINUOUS
10
65.7954
20
-41.967
11
66.2846
21
-41.967
0
LINE
8
BLACK
6
CONTINUOUS
10
66.2846
20
-41.967
11
66.7643
21
-42.0624
0
LINE
8
BLACK
6
CONTINUOUS
10
66.7643
20
-42.0624
11
67.2161
21
-42.2496
0
LINE
8
BLACK
6
CONTINUOUS
10
67.2161
20
-42.2496
11
67.6228
21
-42.5213
0
LINE
8
BLACK
6
CONTINUOUS
10
67.6228
20
-42.5213
11
67.9687
21
-42.8672
0
LINE
8
BLACK
6
CONTINUOUS
10
67.9687
20
-42.8672
11
68.2404
21
-43.2739
0
LINE
8
BLACK
6
CONTINUOUS
10
68.2404
20
-43.2739
11
68.4276
21
-43.7257
0
LINE
8
BLACK
6
CONTINUOUS
10
68.4276
20
-43.7257
11
68.523
21
-44.2054
0
LINE
8
BLACK
6
CONTINUOUS
10
68.523
20
-44.2054
11
68.523
21
-44.6946
0
LINE
8
BLACK
6
CONTINUOUS
10
68.523
20
-44.6946
11
68.4276
21
-45.1743
0
LINE
8
BLACK
6
CONTINUOUS
10
68.4276
20
-45.1743
11
68.2404
21
-45.6261
0
LINE
8
BLACK
6
CONTINUOUS
10
68.2404
20
-45.6261
11
67.9687
21
-46.0328
0
LINE
8
BLACK
6
CONTINUOUS
10
67.9687
20
-46.0328
11
67.6228
21
-46.3787
0
LINE
8
BLACK
6
CONTINUOUS
10
67.6228
20
-46.3787
11
67.2161
21
-46.6504
0
LINE
8
BLACK
6
CONTINUOUS
10
67.2161
20
-46.6504
11
66.7643
21
-46.8376
0
LINE
8
BLACK
6
CONTINUOUS
10
66.7643
20
-46.8376
11
66.2846
21
-46.933
0
LINE
8
BLACK
6
CONTINUOUS
10
66.2846
20
-46.933
11
65.7954
21
-46.933
0
LINE
8
BLACK
6
CONTINUOUS
10
65.7954
20
-46.933
11
65.3157
21
-46.8376
0
LINE
8
BLACK
6
CONTINUOUS
10
65.3157
20
-46.8376
11
64.8639
21
-46.6504
0
LINE
8
BLACK
6
CONTINUOUS
10
64.8639
20
-46.6504
11
64.4572
21
-46.3787
0
LINE
8
BLACK
6
CONTINUOUS
10
64.4572
20
-46.3787
11
64.1113
21
-46.0328
0
LINE
8
BLACK
6
CONTINUOUS
10
64.1113
20
-46.0328
11
63.8396
21
-45.6261
0
LINE
8
BLACK
6
CONTINUOUS
10
63.8396
20
-45.6261
11
63.6524
21
-45.1743
0
LINE
8
BLACK
6
CONTINUOUS
10
63.6524
20
-45.1743
11
63.557
21
-44.6946
0
LINE
8
BLACK
6
CONTINUOUS
10
63.557
20
-44.6946
11
63.557
21
-44.2054
0
LINE
8
BLACK
6
CONTINUOUS
10
63.557
20
-44.2054
11
63.6524
21
-43.7257
0
LINE
8
BLACK
6
CONTINUOUS
10
63.7194
20
-45.1539
11
63.9013
21
-45.5931
0
LINE
8
BLACK
6
CONTINUOUS
10
63.9013
20
-45.5931
11
64.1654
21
-45.9884
0
LINE
8
BLACK
6
CONTINUOUS
10
64.1654
20
-45.9884
11
64.5016
21
-46.3245
0
LINE
8
BLACK
6
CONTINUOUS
10
64.5016
20
-46.3245
11
64.8969
21
-46.5887
0
LINE
8
BLACK
6
CONTINUOUS
10
64.8969
20
-46.5887
11
65.3361
21
-46.7706
0
LINE
8
BLACK
6
CONTINUOUS
10
65.3361
20
-46.7706
11
65.8023
21
-46.8633
0
LINE
8
BLACK
6
CONTINUOUS
10
65.8023
20
-46.8633
11
66.2777
21
-46.8633
0
LINE
8
BLACK
6
CONTINUOUS
10
66.2777
20
-46.8633
11
66.7439
21
-46.7706
0
LINE
8
BLACK
6
CONTINUOUS
10
66.7439
20
-46.7706
11
67.1831
21
-46.5887
0
LINE
8
BLACK
6
CONTINUOUS
10
67.1831
20
-46.5887
11
67.5784
21
-46.3245
0
LINE
8
BLACK
6
CONTINUOUS
10
67.5784
20
-46.3245
11
67.9145
21
-45.9884
0
LINE
8
BLACK
6
CONTINUOUS
10
67.9145
20
-45.9884
11
68.1787
21
-45.5931
0
LINE
8
BLACK
6
CONTINUOUS
10
68.1787
20
-45.5931
11
68.3606
21
-45.1539
0
LINE
8
BLACK
6
CONTINUOUS
10
68.3606
20
-45.1539
11
68.4533
21
-44.6877
0
LINE
8
BLACK
6
CONTINUOUS
10
68.4533
20
-44.6877
11
68.4533
21
-44.2123
0
LINE
8
BLACK
6
CONTINUOUS
10
68.4533
20
-44.2123
11
68.3606
21
-43.7461
0
LINE
8
BLACK
6
CONTINUOUS
10
68.3606
20
-43.7461
11
68.1787
21
-43.3069
0
LINE
8
BLACK
6
CONTINUOUS
10
68.1787
20
-43.3069
11
67.9145
21
-42.9116
0
LINE
8
BLACK
6
CONTINUOUS
10
67.9145
20
-42.9116
11
67.5784
21
-42.5754
0
LINE
8
BLACK
6
CONTINUOUS
10
67.5784
20
-42.5754
11
67.1831
21
-42.3113
0
LINE
8
BLACK
6
CONTINUOUS
10
67.1831
20
-42.3113
11
66.7439
21
-42.1294
0
LINE
8
BLACK
6
CONTINUOUS
10
66.7439
20
-42.1294
11
66.2777
21
-42.0367
0
LINE
8
BLACK
6
CONTINUOUS
10
66.2777
20
-42.0367
11
65.8023
21
-42.0367
0
LINE
8
BLACK
6
CONTINUOUS
10
65.8023
20
-42.0367
11
65.3361
21
-42.1294
0
LINE
8
BLACK
6
CONTINUOUS
10
65.3361
20
-42.1294
11
64.8969
21
-42.3113
0
LINE
8
BLACK
6
CONTINUOUS
10
64.8969
20
-42.3113
11
64.5016
21
-42.5754
0
LINE
8
BLACK
6
CONTINUOUS
10
64.5016
20
-42.5754
11
64.1654
21
-42.9116
0
LINE
8
BLACK
6
CONTINUOUS
10
64.1654
20
-42.9116
11
63.9013
21
-43.3069
0
LINE
8
BLACK
6
CONTINUOUS
10
63.9013
20
-43.3069
11
63.7194
21
-43.7461
0
LINE
8
BLACK
6
CONTINUOUS
10
63.7194
20
-43.7461
11
63.6267
21
-44.2123
0
LINE
8
BLACK
6
CONTINUOUS
10
63.6267
20
-44.2123
11
63.6267
21
-44.6877
0
LINE
8
BLACK
6
CONTINUOUS
10
63.6267
20
-44.6877
11
63.7194
21
-45.1539
0
LINE
8
BLACK
6
CONTINUOUS
10
120.167
20
-42.4557
11
120.355
21
-42.0039
0
LINE
8
BLACK
6
CONTINUOUS
10
120.355
20
-42.0039
11
120.626
21
-41.5972
0
LINE
8
BLACK
6
CONTINUOUS
10
120.626
20
-41.5972
11
120.972
21
-41.2513
0
LINE
8
BLACK
6
CONTINUOUS
10
120.972
20
-41.2513
11
121.379
21
-40.9796
0
LINE
8
BLACK
6
CONTINUOUS
10
121.379
20
-40.9796
11
121.831
21
-40.7924
0
LINE
8
BLACK
6
CONTINUOUS
10
121.831
20
-40.7924
11
122.31
21
-40.697
0
LINE
8
BLACK
6
CONTINUOUS
10
122.31
20
-40.697
11
122.8
21
-40.697
0
LINE
8
BLACK
6
CONTINUOUS
10
122.8
20
-40.697
11
123.279
21
-40.7924
0
LINE
8
BLACK
6
CONTINUOUS
10
123.279
20
-40.7924
11
123.731
21
-40.9796
0
LINE
8
BLACK
6
CONTINUOUS
10
123.731
20
-40.9796
11
124.138
21
-41.2513
0
LINE
8
BLACK
6
CONTINUOUS
10
124.138
20
-41.2513
11
124.484
21
-41.5972
0
LINE
8
BLACK
6
CONTINUOUS
10
124.484
20
-41.5972
11
124.755
21
-42.0039
0
LINE
8
BLACK
6
CONTINUOUS
10
124.755
20
-42.0039
11
124.943
21
-42.4557
0
LINE
8
BLACK
6
CONTINUOUS
10
124.943
20
-42.4557
11
125.038
21
-42.9354
0
LINE
8
BLACK
6
CONTINUOUS
10
125.038
20
-42.9354
11
125.038
21
-43.4246
0
LINE
8
BLACK
6
CONTINUOUS
10
125.038
20
-43.4246
11
124.943
21
-43.9043
0
LINE
8
BLACK
6
CONTINUOUS
10
124.943
20
-43.9043
11
124.755
21
-44.3561
0
LINE
8
BLACK
6
CONTINUOUS
10
124.755
20
-44.3561
11
124.484
21
-44.7628
0
LINE
8
BLACK
6
CONTINUOUS
10
124.484
20
-44.7628
11
124.138
21
-45.1087
0
LINE
8
BLACK
6
CONTINUOUS
10
124.138
20
-45.1087
11
123.731
21
-45.3804
0
LINE
8
BLACK
6
CONTINUOUS
10
123.731
20
-45.3804
11
123.279
21
-45.5676
0
LINE
8
BLACK
6
CONTINUOUS
10
123.279
20
-45.5676
11
122.8
21
-45.663
0
LINE
8
BLACK
6
CONTINUOUS
10
122.8
20
-45.663
11
122.31
21
-45.663
0
LINE
8
BLACK
6
CONTINUOUS
10
122.31
20
-45.663
11
121.831
21
-45.5676
0
LINE
8
BLACK
6
CONTINUOUS
10
121.831
20
-45.5676
11
121.379
21
-45.3804
0
LINE
8
BLACK
6
CONTINUOUS
10
121.379
20
-45.3804
11
120.972
21
-45.1087
0
LINE
8
BLACK
6
CONTINUOUS
10
120.972
20
-45.1087
11
120.626
21
-44.7628
0
LINE
8
BLACK
6
CONTINUOUS
10
120.626
20
-44.7628
11
120.355
21
-44.3561
0
LINE
8
BLACK
6
CONTINUOUS
10
120.355
20
-44.3561
11
120.167
21
-43.9043
0
LINE
8
BLACK
6
CONTINUOUS
10
120.167
20
-43.9043
11
120.072
21
-43.4246
0
LINE
8
BLACK
6
CONTINUOUS
10
120.072
20
-43.4246
11
120.072
21
-42.9354
0
LINE
8
BLACK
6
CONTINUOUS
10
120.072
20
-42.9354
11
120.167
21
-42.4557
0
LINE
8
BLACK
6
CONTINUOUS
10
120.234
20
-43.8839
11
120.416
21
-44.3231
0
LINE
8
BLACK
6
CONTINUOUS
10
120.416
20
-44.3231
11
120.68
21
-44.7184
0
LINE
8
BLACK
6
CONTINUOUS
10
120.68
20
-44.7184
11
121.017
21
-45.0545
0
LINE
8
BLACK
6
CONTINUOUS
10
121.017
20
-45.0545
11
121.412
21
-45.3187
0
LINE
8
BLACK
6
CONTINUOUS
10
121.412
20
-45.3187
11
121.851
21
-45.5006
0
LINE
8
BLACK
6
CONTINUOUS
10
121.851
20
-45.5006
11
122.317
21
-45.5933
0
LINE
8
BLACK
6
CONTINUOUS
10
122.317
20
-45.5933
11
122.793
21
-45.5933
0
LINE
8
BLACK
6
CONTINUOUS
10
122.793
20
-45.5933
11
123.259
21
-45.5006
0
LINE
8
BLACK
6
CONTINUOUS
10
123.259
20
-45.5006
11
123.698
21
-45.3187
0
LINE
8
BLACK
6
CONTINUOUS
10
123.698
20
-45.3187
11
124.093
21
-45.0545
0
LINE
8
BLACK
6
CONTINUOUS
10
124.093
20
-45.0545
11
124.43
21
-44.7184
0
LINE
8
BLACK
6
CONTINUOUS
10
124.43
20
-44.7184
11
124.694
21
-44.3231
0
LINE
8
BLACK
6
CONTINUOUS
10
124.694
20
-44.3231
11
124.876
21
-43.8839
0
LINE
8
BLACK
6
CONTINUOUS
10
124.876
20
-43.8839
11
124.968
21
-43.4177
0
LINE
8
BLACK
6
CONTINUOUS
10
124.968
20
-43.4177
11
124.968
21
-42.9423
0
LINE
8
BLACK
6
CONTINUOUS
10
124.968
20
-42.9423
11
124.876
21
-42.4761
0
LINE
8
BLACK
6
CONTINUOUS
10
124.876
20
-42.4761
11
124.694
21
-42.0369
0
LINE
8
BLACK
6
CONTINUOUS
10
124.694
20
-42.0369
11
124.43
21
-41.6416
0
LINE
8
BLACK
6
CONTINUOUS
10
124.43
20
-41.6416
11
124.093
21
-41.3055
0
LINE
8
BLACK
6
CONTINUOUS
10
124.093
20
-41.3055
11
123.698
21
-41.0413
0
LINE
8
BLACK
6
CONTINUOUS
10
123.698
20
-41.0413
11
123.259
21
-40.8594
0
LINE
8
BLACK
6
CONTINUOUS
10
123.259
20
-40.8594
11
122.793
21
-40.7667
0
LINE
8
BLACK
6
CONTINUOUS
10
122.793
20
-40.7667
11
122.317
21
-40.7667
0
LINE
8
BLACK
6
CONTINUOUS
10
122.317
20
-40.7667
11
121.851
21
-40.8594
0
LINE
8
BLACK
6
CONTINUOUS
10
121.851
20
-40.8594
11
121.412
21
-41.0413
0
LINE
8
BLACK
6
CONTINUOUS
10
121.412
20
-41.0413
11
121.017
21
-41.3055
0
LINE
8
BLACK
6
CONTINUOUS
10
121.017
20
-41.3055
11
120.68
21
-41.6416
0
LINE
8
BLACK
6
CONTINUOUS
10
120.68
20
-41.6416
11
120.416
21
-42.0369
0
LINE
8
BLACK
6
CONTINUOUS
10
120.416
20
-42.0369
11
120.234
21
-42.4761
0
LINE
8
BLACK
6
CONTINUOUS
10
120.234
20
-42.4761
11
120.142
21
-42.9423
0
LINE
8
BLACK
6
CONTINUOUS
10
120.142
20
-42.9423
11
120.142
21
-43.4177
0
LINE
8
BLACK
6
CONTINUOUS
10
120.142
20
-43.4177
11
120.234
21
-43.8839
  0
ENDSEC
  0
EOF
