%TF.GenerationSoftware,KiCad,Pcbnew,(5.1.9)-1*%
%TF.CreationDate,2021-08-25T16:33:50-05:00*%
%TF.ProjectId,TartarSauce,54617274-6172-4536-9175-63652e6b6963,rev?*%
%TF.SameCoordinates,Original*%
%TF.FileFunction,Legend,Top*%
%TF.FilePolarity,Positive*%
%FSLAX46Y46*%
G04 Gerber Fmt 4.6, Leading zero omitted, Abs format (unit mm)*
G04 Created by KiCad (PCBNEW (5.1.9)-1) date 2021-08-25 16:33:50*
%MOMM*%
%LPD*%
G01*
G04 APERTURE LIST*
%ADD10C,0.120000*%
%ADD11C,0.150000*%
G04 APERTURE END LIST*
D10*
%TO.C,U1*%
X127000000Y-70485000D02*
X127000000Y-34925000D01*
X129540000Y-70485000D02*
X127000000Y-70485000D01*
X129540000Y-34925000D02*
X129540000Y-70485000D01*
X127000000Y-34925000D02*
X129540000Y-34925000D01*
X142240000Y-70485000D02*
X142240000Y-34925000D01*
X144780000Y-70485000D02*
X142240000Y-70485000D01*
X144780000Y-34925000D02*
X144780000Y-70485000D01*
X142240000Y-34925000D02*
X144780000Y-34925000D01*
%TO.C,MX18*%
X136205947Y-89621114D02*
X133745947Y-89621114D01*
X133745947Y-91091114D02*
X136205947Y-91091114D01*
X133745947Y-89621114D02*
X133745947Y-91091114D01*
%TO.C,MX11*%
X98108395Y-64222746D02*
X95648395Y-64222746D01*
X95648395Y-65692746D02*
X98108395Y-65692746D01*
X95648395Y-64222746D02*
X95648395Y-65692746D01*
%TO.C,MX15*%
X117157171Y-86446318D02*
X114697171Y-86446318D01*
X114697171Y-87916318D02*
X117157171Y-87916318D01*
X114697171Y-86446318D02*
X114697171Y-87916318D01*
%TO.C,MX14*%
X117157171Y-67397542D02*
X114697171Y-67397542D01*
X114697171Y-68867542D02*
X117157171Y-68867542D01*
X114697171Y-67397542D02*
X114697171Y-68867542D01*
%TO.C,MX13*%
X117157171Y-48348766D02*
X114697171Y-48348766D01*
X114697171Y-49818766D02*
X117157171Y-49818766D01*
X114697171Y-48348766D02*
X114697171Y-49818766D01*
%TO.C,MX12*%
X98108395Y-83271522D02*
X95648395Y-83271522D01*
X95648395Y-84741522D02*
X98108395Y-84741522D01*
X95648395Y-83271522D02*
X95648395Y-84741522D01*
%TO.C,MX10*%
X98108395Y-45173970D02*
X95648395Y-45173970D01*
X95648395Y-46643970D02*
X98108395Y-46643970D01*
X95648395Y-45173970D02*
X95648395Y-46643970D01*
%TO.C,MX9*%
X79059619Y-86446318D02*
X76599619Y-86446318D01*
X76599619Y-87916318D02*
X79059619Y-87916318D01*
X76599619Y-86446318D02*
X76599619Y-87916318D01*
%TO.C,MX8*%
X79059619Y-67397542D02*
X76599619Y-67397542D01*
X76599619Y-68867542D02*
X79059619Y-68867542D01*
X76599619Y-67397542D02*
X76599619Y-68867542D01*
%TO.C,MX7*%
X79059619Y-48348766D02*
X76599619Y-48348766D01*
X76599619Y-49818766D02*
X79059619Y-49818766D01*
X76599619Y-48348766D02*
X76599619Y-49818766D01*
%TO.C,MX6*%
X60010843Y-89621114D02*
X57550843Y-89621114D01*
X57550843Y-91091114D02*
X60010843Y-91091114D01*
X57550843Y-89621114D02*
X57550843Y-91091114D01*
%TO.C,MX5*%
X60010843Y-70572338D02*
X57550843Y-70572338D01*
X57550843Y-72042338D02*
X60010843Y-72042338D01*
X57550843Y-70572338D02*
X57550843Y-72042338D01*
%TO.C,MX4*%
X60010843Y-51523562D02*
X57550843Y-51523562D01*
X57550843Y-52993562D02*
X60010843Y-52993562D01*
X57550843Y-51523562D02*
X57550843Y-52993562D01*
%TO.C,MX3*%
X40962067Y-92795910D02*
X38502067Y-92795910D01*
X38502067Y-94265910D02*
X40962067Y-94265910D01*
X38502067Y-92795910D02*
X38502067Y-94265910D01*
%TO.C,MX2*%
X40962067Y-73747134D02*
X38502067Y-73747134D01*
X38502067Y-75217134D02*
X40962067Y-75217134D01*
X38502067Y-73747134D02*
X38502067Y-75217134D01*
%TO.C,MX1*%
X40962067Y-54698358D02*
X38502067Y-54698358D01*
X38502067Y-56168358D02*
X40962067Y-56168358D01*
X38502067Y-54698358D02*
X38502067Y-56168358D01*
%TO.C,J4*%
X118805000Y-35500000D02*
X118805000Y-36830000D01*
X117475000Y-35500000D02*
X118805000Y-35500000D01*
X116205000Y-35500000D02*
X116205000Y-38160000D01*
X116205000Y-38160000D02*
X113605000Y-38160000D01*
X116205000Y-35500000D02*
X113605000Y-35500000D01*
X113605000Y-35500000D02*
X113605000Y-38160000D01*
%TO.C,J3*%
X80065308Y-35499388D02*
X80065308Y-36829388D01*
X78735308Y-35499388D02*
X80065308Y-35499388D01*
X77465308Y-35499388D02*
X77465308Y-38159388D01*
X77465308Y-38159388D02*
X74865308Y-38159388D01*
X77465308Y-35499388D02*
X74865308Y-35499388D01*
X74865308Y-35499388D02*
X74865308Y-38159388D01*
%TO.C,J2*%
X86929696Y-38159388D02*
X86929696Y-36829388D01*
X88259696Y-38159388D02*
X86929696Y-38159388D01*
X89529696Y-38159388D02*
X89529696Y-35499388D01*
X89529696Y-35499388D02*
X107369696Y-35499388D01*
X89529696Y-38159388D02*
X107369696Y-38159388D01*
X107369696Y-38159388D02*
X107369696Y-35499388D01*
%TO.C,U1*%
D11*
X135128095Y-35647380D02*
X135128095Y-36456904D01*
X135175714Y-36552142D01*
X135223333Y-36599761D01*
X135318571Y-36647380D01*
X135509047Y-36647380D01*
X135604285Y-36599761D01*
X135651904Y-36552142D01*
X135699523Y-36456904D01*
X135699523Y-35647380D01*
X136699523Y-36647380D02*
X136128095Y-36647380D01*
X136413809Y-36647380D02*
X136413809Y-35647380D01*
X136318571Y-35790238D01*
X136223333Y-35885476D01*
X136128095Y-35933095D01*
X126712023Y-36647380D02*
X126140595Y-36647380D01*
X126426309Y-36647380D02*
X126426309Y-35647380D01*
X126331071Y-35790238D01*
X126235833Y-35885476D01*
X126140595Y-35933095D01*
X145639404Y-36647380D02*
X145067976Y-36647380D01*
X145353690Y-36647380D02*
X145353690Y-35647380D01*
X145258452Y-35790238D01*
X145163214Y-35885476D01*
X145067976Y-35933095D01*
X146544166Y-35647380D02*
X146067976Y-35647380D01*
X146020357Y-36123571D01*
X146067976Y-36075952D01*
X146163214Y-36028333D01*
X146401309Y-36028333D01*
X146496547Y-36075952D01*
X146544166Y-36123571D01*
X146591785Y-36218809D01*
X146591785Y-36456904D01*
X146544166Y-36552142D01*
X146496547Y-36599761D01*
X146401309Y-36647380D01*
X146163214Y-36647380D01*
X146067976Y-36599761D01*
X146020357Y-36552142D01*
%TO.C,J4*%
X119257380Y-37163333D02*
X119971666Y-37163333D01*
X120114523Y-37210952D01*
X120209761Y-37306190D01*
X120257380Y-37449047D01*
X120257380Y-37544285D01*
X119590714Y-36258571D02*
X120257380Y-36258571D01*
X119209761Y-36496666D02*
X119924047Y-36734761D01*
X119924047Y-36115714D01*
%TO.C,J3*%
X80517688Y-37162721D02*
X81231974Y-37162721D01*
X81374831Y-37210340D01*
X81470069Y-37305578D01*
X81517688Y-37448435D01*
X81517688Y-37543673D01*
X80517688Y-36781768D02*
X80517688Y-36162721D01*
X80898641Y-36496054D01*
X80898641Y-36353197D01*
X80946260Y-36257959D01*
X80993879Y-36210340D01*
X81089117Y-36162721D01*
X81327212Y-36162721D01*
X81422450Y-36210340D01*
X81470069Y-36257959D01*
X81517688Y-36353197D01*
X81517688Y-36638911D01*
X81470069Y-36734149D01*
X81422450Y-36781768D01*
%TO.C,J2*%
X85382076Y-37162721D02*
X86096362Y-37162721D01*
X86239219Y-37210340D01*
X86334457Y-37305578D01*
X86382076Y-37448435D01*
X86382076Y-37543673D01*
X85477315Y-36734149D02*
X85429696Y-36686530D01*
X85382076Y-36591292D01*
X85382076Y-36353197D01*
X85429696Y-36257959D01*
X85477315Y-36210340D01*
X85572553Y-36162721D01*
X85667791Y-36162721D01*
X85810648Y-36210340D01*
X86382076Y-36781768D01*
X86382076Y-36162721D01*
%TD*%
M02*
