M48
; DRILL file {KiCad (5.1.9)-1} date 08/25/21 16:33:51
; FORMAT={-:-/ absolute / inch / decimal}
; #@! TF.CreationDate,2021-08-25T16:33:51-05:00
; #@! TF.GenerationSoftware,Kicad,Pcbnew,(5.1.9)-1
; #@! TF.FileFunction,Plated,1,2,PTH
FMAT,2
INCH
T1C0.0157
T2C0.0394
T3C0.0400
T4C0.0579
%
G90
G05
T1
X1.5467Y-3.4033
X1.65Y-3.425
X1.6676Y-2.9324
X1.7Y-2.9324
X1.8074Y-2.9324
X1.875Y-3.0
X1.875Y-3.375
X1.925Y-3.375
X2.075Y-3.325
X2.325Y-3.325
X2.4Y-3.375
X2.4176Y-2.8074
X2.45Y-2.8074
X2.5824Y-2.8074
X2.625Y-2.85
X2.625Y-3.375
X2.675Y-3.375
X2.825Y-3.325
X3.075Y-3.325
X3.15Y-3.375
X3.1676Y-2.6824
X3.2Y-2.6824
X3.3324Y-2.6824
X3.375Y-2.725
X3.375Y-3.375
X3.425Y-3.375
X3.575Y-3.325
X3.725Y-3.325
X3.9Y-2.625
X3.9Y-3.375
X3.9499Y-2.625
X4.075Y-2.625
X4.125Y-2.675
X4.125Y-3.375
X4.175Y-3.375
X4.325Y-3.325
X4.575Y-3.325
X4.65Y-3.375
X4.6676Y-2.6824
X4.6999Y-2.6824
X4.8Y-3.375
X4.8074Y-2.6824
X4.85Y-2.725
X4.85Y-3.375
X5.1Y-3.375
X5.15Y-3.375
X5.175Y-2.8
X5.2Y-3.375
X5.25Y-3.375
X5.3Y-3.325
X5.3351Y-3.3773
X5.35Y-3.325
X5.3688Y-2.5063
X5.375Y-1.525
X5.375Y-1.625
X5.375Y-1.725
X5.375Y-1.825
X5.375Y-1.925
X5.375Y-2.025
X5.4Y-3.325
X5.4438Y-2.5063
X5.45Y-3.325
X5.475Y-3.0
X5.475Y-3.05
X5.475Y-3.1
X5.475Y-3.15
X5.475Y-3.2
X5.5188Y-2.5063
X5.5188Y-2.5813
X5.5188Y-2.6563
X5.5188Y-2.7313
X5.5188Y-2.8063
X5.55Y-1.525
T2
X2.9998Y-1.45
X3.0998Y-1.45
X3.4748Y-1.45
X3.5748Y-1.45
X3.6748Y-1.45
X3.7748Y-1.45
X3.8748Y-1.45
X3.9748Y-1.45
X4.0748Y-1.45
X4.1748Y-1.45
X4.525Y-1.45
X4.625Y-1.45
X5.475Y-1.625
X5.475Y-1.725
X5.475Y-1.825
X5.475Y-1.925
X5.475Y-2.025
T3
X5.05Y-1.425
X5.05Y-1.525
X5.05Y-1.625
X5.05Y-1.725
X5.05Y-1.825
X5.05Y-1.925
X5.05Y-2.025
X5.05Y-2.125
X5.05Y-2.225
X5.05Y-2.325
X5.05Y-2.425
X5.05Y-2.525
X5.05Y-2.625
X5.05Y-2.725
X5.65Y-1.425
X5.65Y-1.525
X5.65Y-1.625
X5.65Y-1.725
X5.65Y-1.825
X5.65Y-1.925
X5.65Y-2.025
X5.65Y-2.125
X5.65Y-2.225
X5.65Y-2.325
X5.65Y-2.425
X5.65Y-2.525
X5.65Y-2.625
X5.65Y-2.725
T4
X1.4812Y-2.5624
X1.4812Y-3.3124
X1.4812Y-4.0623
X1.7312Y-2.4624
X1.7312Y-3.2124
X1.7312Y-3.9623
X2.2311Y-2.4374
X2.2311Y-3.1874
X2.2311Y-3.9373
X2.4811Y-2.3374
X2.4811Y-3.0874
X2.4811Y-3.8373
X2.9811Y-2.3124
X2.9811Y-3.0624
X2.9811Y-3.8123
X3.2311Y-2.2124
X3.2311Y-2.9624
X3.2311Y-3.7123
X3.731Y-2.1874
X3.731Y-2.9374
X3.731Y-3.6873
X3.981Y-2.0874
X3.981Y-2.8374
X3.981Y-3.5873
X4.481Y-2.3124
X4.481Y-3.0624
X4.481Y-3.8123
X4.731Y-2.2124
X4.731Y-2.9624
X4.731Y-3.7123
X5.2309Y-3.9373
X5.4809Y-3.8373
T0
M30
