%TF.GenerationSoftware,KiCad,Pcbnew,(5.1.9)-1*%
%TF.CreationDate,2021-07-17T19:18:11-05:00*%
%TF.ProjectId,TartarSauce,54617274-6172-4536-9175-63652e6b6963,rev?*%
%TF.SameCoordinates,Original*%
%TF.FileFunction,Legend,Bot*%
%TF.FilePolarity,Positive*%
%FSLAX46Y46*%
G04 Gerber Fmt 4.6, Leading zero omitted, Abs format (unit mm)*
G04 Created by KiCad (PCBNEW (5.1.9)-1) date 2021-07-17 19:18:11*
%MOMM*%
%LPD*%
G01*
G04 APERTURE LIST*
%ADD10C,0.120000*%
%ADD11C,0.150000*%
G04 APERTURE END LIST*
D10*
%TO.C,J1*%
X140395000Y-39945000D02*
X139065000Y-39945000D01*
X140395000Y-41275000D02*
X140395000Y-39945000D01*
X140395000Y-42545000D02*
X137735000Y-42545000D01*
X137735000Y-42545000D02*
X137735000Y-52765000D01*
X140395000Y-42545000D02*
X140395000Y-52765000D01*
X140395000Y-52765000D02*
X137735000Y-52765000D01*
%TO.C,D17*%
X139715000Y-99480000D02*
X136565000Y-99480000D01*
X139715000Y-101180000D02*
X136565000Y-101180000D01*
X139715000Y-99480000D02*
X139715000Y-101180000D01*
%TO.C,D15*%
X120665000Y-96305000D02*
X117515000Y-96305000D01*
X120665000Y-98005000D02*
X117515000Y-98005000D01*
X120665000Y-96305000D02*
X120665000Y-98005000D01*
%TO.C,D14*%
X120665000Y-77255000D02*
X117515000Y-77255000D01*
X120665000Y-78955000D02*
X117515000Y-78955000D01*
X120665000Y-77255000D02*
X120665000Y-78955000D01*
%TO.C,D13*%
X120665000Y-58205000D02*
X117515000Y-58205000D01*
X120665000Y-59905000D02*
X117515000Y-59905000D01*
X120665000Y-58205000D02*
X120665000Y-59905000D01*
%TO.C,D12*%
X101615000Y-93130000D02*
X98465000Y-93130000D01*
X101615000Y-94830000D02*
X98465000Y-94830000D01*
X101615000Y-93130000D02*
X101615000Y-94830000D01*
%TO.C,D11*%
X101615000Y-74080000D02*
X98465000Y-74080000D01*
X101615000Y-75780000D02*
X98465000Y-75780000D01*
X101615000Y-74080000D02*
X101615000Y-75780000D01*
%TO.C,D10*%
X101615000Y-55030000D02*
X98465000Y-55030000D01*
X101615000Y-56730000D02*
X98465000Y-56730000D01*
X101615000Y-55030000D02*
X101615000Y-56730000D01*
%TO.C,D9*%
X82565000Y-96305000D02*
X79415000Y-96305000D01*
X82565000Y-98005000D02*
X79415000Y-98005000D01*
X82565000Y-96305000D02*
X82565000Y-98005000D01*
%TO.C,D8*%
X82565000Y-77255000D02*
X79415000Y-77255000D01*
X82565000Y-78955000D02*
X79415000Y-78955000D01*
X82565000Y-77255000D02*
X82565000Y-78955000D01*
%TO.C,D7*%
X82565000Y-58205000D02*
X79415000Y-58205000D01*
X82565000Y-59905000D02*
X79415000Y-59905000D01*
X82565000Y-58205000D02*
X82565000Y-59905000D01*
%TO.C,D6*%
X63515000Y-99480000D02*
X60365000Y-99480000D01*
X63515000Y-101180000D02*
X60365000Y-101180000D01*
X63515000Y-99480000D02*
X63515000Y-101180000D01*
%TO.C,D5*%
X63515000Y-80430000D02*
X60365000Y-80430000D01*
X63515000Y-82130000D02*
X60365000Y-82130000D01*
X63515000Y-80430000D02*
X63515000Y-82130000D01*
%TO.C,D4*%
X63515000Y-61380000D02*
X60365000Y-61380000D01*
X63515000Y-63080000D02*
X60365000Y-63080000D01*
X63515000Y-61380000D02*
X63515000Y-63080000D01*
%TO.C,D3*%
X44425000Y-102655000D02*
X41275000Y-102655000D01*
X44425000Y-104355000D02*
X41275000Y-104355000D01*
X44425000Y-102655000D02*
X44425000Y-104355000D01*
%TO.C,D2*%
X44465000Y-83605000D02*
X41315000Y-83605000D01*
X44465000Y-85305000D02*
X41315000Y-85305000D01*
X44465000Y-83605000D02*
X44465000Y-85305000D01*
%TO.C,D1*%
X44465000Y-64555000D02*
X41315000Y-64555000D01*
X44465000Y-66255000D02*
X41315000Y-66255000D01*
X44465000Y-64555000D02*
X44465000Y-66255000D01*
%TO.C,U2*%
X132695000Y-71275027D02*
X132695000Y-67825027D01*
X132695000Y-71275027D02*
X132695000Y-73225027D01*
X137815000Y-71275027D02*
X137815000Y-69325027D01*
X137815000Y-71275027D02*
X137815000Y-73225027D01*
%TO.C,R1*%
X137057224Y-66086403D02*
X136547776Y-66086403D01*
X137057224Y-65041403D02*
X136547776Y-65041403D01*
%TO.C,C1*%
X132341233Y-65053903D02*
X132633767Y-65053903D01*
X132341233Y-66073903D02*
X132633767Y-66073903D01*
%TO.C,J1*%
D11*
X139398333Y-38397380D02*
X139398333Y-39111666D01*
X139445952Y-39254523D01*
X139541190Y-39349761D01*
X139684047Y-39397380D01*
X139779285Y-39397380D01*
X138398333Y-39397380D02*
X138969761Y-39397380D01*
X138684047Y-39397380D02*
X138684047Y-38397380D01*
X138779285Y-38540238D01*
X138874523Y-38635476D01*
X138969761Y-38683095D01*
%TO.C,D17*%
X139029285Y-98932380D02*
X139029285Y-97932380D01*
X138791190Y-97932380D01*
X138648333Y-97980000D01*
X138553095Y-98075238D01*
X138505476Y-98170476D01*
X138457857Y-98360952D01*
X138457857Y-98503809D01*
X138505476Y-98694285D01*
X138553095Y-98789523D01*
X138648333Y-98884761D01*
X138791190Y-98932380D01*
X139029285Y-98932380D01*
X137505476Y-98932380D02*
X138076904Y-98932380D01*
X137791190Y-98932380D02*
X137791190Y-97932380D01*
X137886428Y-98075238D01*
X137981666Y-98170476D01*
X138076904Y-98218095D01*
X137172142Y-97932380D02*
X136505476Y-97932380D01*
X136934047Y-98932380D01*
%TO.C,D15*%
X119979285Y-95757380D02*
X119979285Y-94757380D01*
X119741190Y-94757380D01*
X119598333Y-94805000D01*
X119503095Y-94900238D01*
X119455476Y-94995476D01*
X119407857Y-95185952D01*
X119407857Y-95328809D01*
X119455476Y-95519285D01*
X119503095Y-95614523D01*
X119598333Y-95709761D01*
X119741190Y-95757380D01*
X119979285Y-95757380D01*
X118455476Y-95757380D02*
X119026904Y-95757380D01*
X118741190Y-95757380D02*
X118741190Y-94757380D01*
X118836428Y-94900238D01*
X118931666Y-94995476D01*
X119026904Y-95043095D01*
X117550714Y-94757380D02*
X118026904Y-94757380D01*
X118074523Y-95233571D01*
X118026904Y-95185952D01*
X117931666Y-95138333D01*
X117693571Y-95138333D01*
X117598333Y-95185952D01*
X117550714Y-95233571D01*
X117503095Y-95328809D01*
X117503095Y-95566904D01*
X117550714Y-95662142D01*
X117598333Y-95709761D01*
X117693571Y-95757380D01*
X117931666Y-95757380D01*
X118026904Y-95709761D01*
X118074523Y-95662142D01*
%TO.C,D14*%
X119979285Y-76707380D02*
X119979285Y-75707380D01*
X119741190Y-75707380D01*
X119598333Y-75755000D01*
X119503095Y-75850238D01*
X119455476Y-75945476D01*
X119407857Y-76135952D01*
X119407857Y-76278809D01*
X119455476Y-76469285D01*
X119503095Y-76564523D01*
X119598333Y-76659761D01*
X119741190Y-76707380D01*
X119979285Y-76707380D01*
X118455476Y-76707380D02*
X119026904Y-76707380D01*
X118741190Y-76707380D02*
X118741190Y-75707380D01*
X118836428Y-75850238D01*
X118931666Y-75945476D01*
X119026904Y-75993095D01*
X117598333Y-76040714D02*
X117598333Y-76707380D01*
X117836428Y-75659761D02*
X118074523Y-76374047D01*
X117455476Y-76374047D01*
%TO.C,D13*%
X119979285Y-57657380D02*
X119979285Y-56657380D01*
X119741190Y-56657380D01*
X119598333Y-56705000D01*
X119503095Y-56800238D01*
X119455476Y-56895476D01*
X119407857Y-57085952D01*
X119407857Y-57228809D01*
X119455476Y-57419285D01*
X119503095Y-57514523D01*
X119598333Y-57609761D01*
X119741190Y-57657380D01*
X119979285Y-57657380D01*
X118455476Y-57657380D02*
X119026904Y-57657380D01*
X118741190Y-57657380D02*
X118741190Y-56657380D01*
X118836428Y-56800238D01*
X118931666Y-56895476D01*
X119026904Y-56943095D01*
X118122142Y-56657380D02*
X117503095Y-56657380D01*
X117836428Y-57038333D01*
X117693571Y-57038333D01*
X117598333Y-57085952D01*
X117550714Y-57133571D01*
X117503095Y-57228809D01*
X117503095Y-57466904D01*
X117550714Y-57562142D01*
X117598333Y-57609761D01*
X117693571Y-57657380D01*
X117979285Y-57657380D01*
X118074523Y-57609761D01*
X118122142Y-57562142D01*
%TO.C,D12*%
X100929285Y-92582380D02*
X100929285Y-91582380D01*
X100691190Y-91582380D01*
X100548333Y-91630000D01*
X100453095Y-91725238D01*
X100405476Y-91820476D01*
X100357857Y-92010952D01*
X100357857Y-92153809D01*
X100405476Y-92344285D01*
X100453095Y-92439523D01*
X100548333Y-92534761D01*
X100691190Y-92582380D01*
X100929285Y-92582380D01*
X99405476Y-92582380D02*
X99976904Y-92582380D01*
X99691190Y-92582380D02*
X99691190Y-91582380D01*
X99786428Y-91725238D01*
X99881666Y-91820476D01*
X99976904Y-91868095D01*
X99024523Y-91677619D02*
X98976904Y-91630000D01*
X98881666Y-91582380D01*
X98643571Y-91582380D01*
X98548333Y-91630000D01*
X98500714Y-91677619D01*
X98453095Y-91772857D01*
X98453095Y-91868095D01*
X98500714Y-92010952D01*
X99072142Y-92582380D01*
X98453095Y-92582380D01*
%TO.C,D11*%
X100929285Y-73532380D02*
X100929285Y-72532380D01*
X100691190Y-72532380D01*
X100548333Y-72580000D01*
X100453095Y-72675238D01*
X100405476Y-72770476D01*
X100357857Y-72960952D01*
X100357857Y-73103809D01*
X100405476Y-73294285D01*
X100453095Y-73389523D01*
X100548333Y-73484761D01*
X100691190Y-73532380D01*
X100929285Y-73532380D01*
X99405476Y-73532380D02*
X99976904Y-73532380D01*
X99691190Y-73532380D02*
X99691190Y-72532380D01*
X99786428Y-72675238D01*
X99881666Y-72770476D01*
X99976904Y-72818095D01*
X98453095Y-73532380D02*
X99024523Y-73532380D01*
X98738809Y-73532380D02*
X98738809Y-72532380D01*
X98834047Y-72675238D01*
X98929285Y-72770476D01*
X99024523Y-72818095D01*
%TO.C,D10*%
X100929285Y-54482380D02*
X100929285Y-53482380D01*
X100691190Y-53482380D01*
X100548333Y-53530000D01*
X100453095Y-53625238D01*
X100405476Y-53720476D01*
X100357857Y-53910952D01*
X100357857Y-54053809D01*
X100405476Y-54244285D01*
X100453095Y-54339523D01*
X100548333Y-54434761D01*
X100691190Y-54482380D01*
X100929285Y-54482380D01*
X99405476Y-54482380D02*
X99976904Y-54482380D01*
X99691190Y-54482380D02*
X99691190Y-53482380D01*
X99786428Y-53625238D01*
X99881666Y-53720476D01*
X99976904Y-53768095D01*
X98786428Y-53482380D02*
X98691190Y-53482380D01*
X98595952Y-53530000D01*
X98548333Y-53577619D01*
X98500714Y-53672857D01*
X98453095Y-53863333D01*
X98453095Y-54101428D01*
X98500714Y-54291904D01*
X98548333Y-54387142D01*
X98595952Y-54434761D01*
X98691190Y-54482380D01*
X98786428Y-54482380D01*
X98881666Y-54434761D01*
X98929285Y-54387142D01*
X98976904Y-54291904D01*
X99024523Y-54101428D01*
X99024523Y-53863333D01*
X98976904Y-53672857D01*
X98929285Y-53577619D01*
X98881666Y-53530000D01*
X98786428Y-53482380D01*
%TO.C,D9*%
X81403095Y-95757380D02*
X81403095Y-94757380D01*
X81165000Y-94757380D01*
X81022142Y-94805000D01*
X80926904Y-94900238D01*
X80879285Y-94995476D01*
X80831666Y-95185952D01*
X80831666Y-95328809D01*
X80879285Y-95519285D01*
X80926904Y-95614523D01*
X81022142Y-95709761D01*
X81165000Y-95757380D01*
X81403095Y-95757380D01*
X80355476Y-95757380D02*
X80165000Y-95757380D01*
X80069761Y-95709761D01*
X80022142Y-95662142D01*
X79926904Y-95519285D01*
X79879285Y-95328809D01*
X79879285Y-94947857D01*
X79926904Y-94852619D01*
X79974523Y-94805000D01*
X80069761Y-94757380D01*
X80260238Y-94757380D01*
X80355476Y-94805000D01*
X80403095Y-94852619D01*
X80450714Y-94947857D01*
X80450714Y-95185952D01*
X80403095Y-95281190D01*
X80355476Y-95328809D01*
X80260238Y-95376428D01*
X80069761Y-95376428D01*
X79974523Y-95328809D01*
X79926904Y-95281190D01*
X79879285Y-95185952D01*
%TO.C,D8*%
X81403095Y-76707380D02*
X81403095Y-75707380D01*
X81165000Y-75707380D01*
X81022142Y-75755000D01*
X80926904Y-75850238D01*
X80879285Y-75945476D01*
X80831666Y-76135952D01*
X80831666Y-76278809D01*
X80879285Y-76469285D01*
X80926904Y-76564523D01*
X81022142Y-76659761D01*
X81165000Y-76707380D01*
X81403095Y-76707380D01*
X80260238Y-76135952D02*
X80355476Y-76088333D01*
X80403095Y-76040714D01*
X80450714Y-75945476D01*
X80450714Y-75897857D01*
X80403095Y-75802619D01*
X80355476Y-75755000D01*
X80260238Y-75707380D01*
X80069761Y-75707380D01*
X79974523Y-75755000D01*
X79926904Y-75802619D01*
X79879285Y-75897857D01*
X79879285Y-75945476D01*
X79926904Y-76040714D01*
X79974523Y-76088333D01*
X80069761Y-76135952D01*
X80260238Y-76135952D01*
X80355476Y-76183571D01*
X80403095Y-76231190D01*
X80450714Y-76326428D01*
X80450714Y-76516904D01*
X80403095Y-76612142D01*
X80355476Y-76659761D01*
X80260238Y-76707380D01*
X80069761Y-76707380D01*
X79974523Y-76659761D01*
X79926904Y-76612142D01*
X79879285Y-76516904D01*
X79879285Y-76326428D01*
X79926904Y-76231190D01*
X79974523Y-76183571D01*
X80069761Y-76135952D01*
%TO.C,D7*%
X81403095Y-57657380D02*
X81403095Y-56657380D01*
X81165000Y-56657380D01*
X81022142Y-56705000D01*
X80926904Y-56800238D01*
X80879285Y-56895476D01*
X80831666Y-57085952D01*
X80831666Y-57228809D01*
X80879285Y-57419285D01*
X80926904Y-57514523D01*
X81022142Y-57609761D01*
X81165000Y-57657380D01*
X81403095Y-57657380D01*
X80498333Y-56657380D02*
X79831666Y-56657380D01*
X80260238Y-57657380D01*
%TO.C,D6*%
X62353095Y-98932380D02*
X62353095Y-97932380D01*
X62115000Y-97932380D01*
X61972142Y-97980000D01*
X61876904Y-98075238D01*
X61829285Y-98170476D01*
X61781666Y-98360952D01*
X61781666Y-98503809D01*
X61829285Y-98694285D01*
X61876904Y-98789523D01*
X61972142Y-98884761D01*
X62115000Y-98932380D01*
X62353095Y-98932380D01*
X60924523Y-97932380D02*
X61115000Y-97932380D01*
X61210238Y-97980000D01*
X61257857Y-98027619D01*
X61353095Y-98170476D01*
X61400714Y-98360952D01*
X61400714Y-98741904D01*
X61353095Y-98837142D01*
X61305476Y-98884761D01*
X61210238Y-98932380D01*
X61019761Y-98932380D01*
X60924523Y-98884761D01*
X60876904Y-98837142D01*
X60829285Y-98741904D01*
X60829285Y-98503809D01*
X60876904Y-98408571D01*
X60924523Y-98360952D01*
X61019761Y-98313333D01*
X61210238Y-98313333D01*
X61305476Y-98360952D01*
X61353095Y-98408571D01*
X61400714Y-98503809D01*
%TO.C,D5*%
X62353095Y-79882380D02*
X62353095Y-78882380D01*
X62115000Y-78882380D01*
X61972142Y-78930000D01*
X61876904Y-79025238D01*
X61829285Y-79120476D01*
X61781666Y-79310952D01*
X61781666Y-79453809D01*
X61829285Y-79644285D01*
X61876904Y-79739523D01*
X61972142Y-79834761D01*
X62115000Y-79882380D01*
X62353095Y-79882380D01*
X60876904Y-78882380D02*
X61353095Y-78882380D01*
X61400714Y-79358571D01*
X61353095Y-79310952D01*
X61257857Y-79263333D01*
X61019761Y-79263333D01*
X60924523Y-79310952D01*
X60876904Y-79358571D01*
X60829285Y-79453809D01*
X60829285Y-79691904D01*
X60876904Y-79787142D01*
X60924523Y-79834761D01*
X61019761Y-79882380D01*
X61257857Y-79882380D01*
X61353095Y-79834761D01*
X61400714Y-79787142D01*
%TO.C,D4*%
X62353095Y-60832380D02*
X62353095Y-59832380D01*
X62115000Y-59832380D01*
X61972142Y-59880000D01*
X61876904Y-59975238D01*
X61829285Y-60070476D01*
X61781666Y-60260952D01*
X61781666Y-60403809D01*
X61829285Y-60594285D01*
X61876904Y-60689523D01*
X61972142Y-60784761D01*
X62115000Y-60832380D01*
X62353095Y-60832380D01*
X60924523Y-60165714D02*
X60924523Y-60832380D01*
X61162619Y-59784761D02*
X61400714Y-60499047D01*
X60781666Y-60499047D01*
%TO.C,D3*%
X43263095Y-102107380D02*
X43263095Y-101107380D01*
X43025000Y-101107380D01*
X42882142Y-101155000D01*
X42786904Y-101250238D01*
X42739285Y-101345476D01*
X42691666Y-101535952D01*
X42691666Y-101678809D01*
X42739285Y-101869285D01*
X42786904Y-101964523D01*
X42882142Y-102059761D01*
X43025000Y-102107380D01*
X43263095Y-102107380D01*
X42358333Y-101107380D02*
X41739285Y-101107380D01*
X42072619Y-101488333D01*
X41929761Y-101488333D01*
X41834523Y-101535952D01*
X41786904Y-101583571D01*
X41739285Y-101678809D01*
X41739285Y-101916904D01*
X41786904Y-102012142D01*
X41834523Y-102059761D01*
X41929761Y-102107380D01*
X42215476Y-102107380D01*
X42310714Y-102059761D01*
X42358333Y-102012142D01*
%TO.C,D2*%
X43303095Y-83057380D02*
X43303095Y-82057380D01*
X43065000Y-82057380D01*
X42922142Y-82105000D01*
X42826904Y-82200238D01*
X42779285Y-82295476D01*
X42731666Y-82485952D01*
X42731666Y-82628809D01*
X42779285Y-82819285D01*
X42826904Y-82914523D01*
X42922142Y-83009761D01*
X43065000Y-83057380D01*
X43303095Y-83057380D01*
X42350714Y-82152619D02*
X42303095Y-82105000D01*
X42207857Y-82057380D01*
X41969761Y-82057380D01*
X41874523Y-82105000D01*
X41826904Y-82152619D01*
X41779285Y-82247857D01*
X41779285Y-82343095D01*
X41826904Y-82485952D01*
X42398333Y-83057380D01*
X41779285Y-83057380D01*
%TO.C,D1*%
X43303095Y-64007380D02*
X43303095Y-63007380D01*
X43065000Y-63007380D01*
X42922142Y-63055000D01*
X42826904Y-63150238D01*
X42779285Y-63245476D01*
X42731666Y-63435952D01*
X42731666Y-63578809D01*
X42779285Y-63769285D01*
X42826904Y-63864523D01*
X42922142Y-63959761D01*
X43065000Y-64007380D01*
X43303095Y-64007380D01*
X41779285Y-64007380D02*
X42350714Y-64007380D01*
X42065000Y-64007380D02*
X42065000Y-63007380D01*
X42160238Y-63150238D01*
X42255476Y-63245476D01*
X42350714Y-63293095D01*
%TO.C,U2*%
X131307380Y-70513122D02*
X132116904Y-70513122D01*
X132212142Y-70560741D01*
X132259761Y-70608360D01*
X132307380Y-70703598D01*
X132307380Y-70894074D01*
X132259761Y-70989312D01*
X132212142Y-71036931D01*
X132116904Y-71084550D01*
X131307380Y-71084550D01*
X131402619Y-71513122D02*
X131355000Y-71560741D01*
X131307380Y-71655979D01*
X131307380Y-71894074D01*
X131355000Y-71989312D01*
X131402619Y-72036931D01*
X131497857Y-72084550D01*
X131593095Y-72084550D01*
X131735952Y-72036931D01*
X132307380Y-71465503D01*
X132307380Y-72084550D01*
%TO.C,R1*%
X136969166Y-67540283D02*
X137302500Y-67064093D01*
X137540595Y-67540283D02*
X137540595Y-66540283D01*
X137159642Y-66540283D01*
X137064404Y-66587903D01*
X137016785Y-66635522D01*
X136969166Y-66730760D01*
X136969166Y-66873617D01*
X137016785Y-66968855D01*
X137064404Y-67016474D01*
X137159642Y-67064093D01*
X137540595Y-67064093D01*
X136016785Y-67540283D02*
X136588214Y-67540283D01*
X136302500Y-67540283D02*
X136302500Y-66540283D01*
X136397738Y-66683141D01*
X136492976Y-66778379D01*
X136588214Y-66825998D01*
%TO.C,C1*%
X132654166Y-67351045D02*
X132701785Y-67398664D01*
X132844642Y-67446283D01*
X132939880Y-67446283D01*
X133082738Y-67398664D01*
X133177976Y-67303426D01*
X133225595Y-67208188D01*
X133273214Y-67017712D01*
X133273214Y-66874855D01*
X133225595Y-66684379D01*
X133177976Y-66589141D01*
X133082738Y-66493903D01*
X132939880Y-66446283D01*
X132844642Y-66446283D01*
X132701785Y-66493903D01*
X132654166Y-66541522D01*
X131701785Y-67446283D02*
X132273214Y-67446283D01*
X131987500Y-67446283D02*
X131987500Y-66446283D01*
X132082738Y-66589141D01*
X132177976Y-66684379D01*
X132273214Y-66731998D01*
%TD*%
M02*
