%TF.GenerationSoftware,KiCad,Pcbnew,(5.1.9)-1*%
%TF.CreationDate,2021-07-17T19:18:11-05:00*%
%TF.ProjectId,TartarSauce,54617274-6172-4536-9175-63652e6b6963,rev?*%
%TF.SameCoordinates,Original*%
%TF.FileFunction,Paste,Top*%
%TF.FilePolarity,Positive*%
%FSLAX46Y46*%
G04 Gerber Fmt 4.6, Leading zero omitted, Abs format (unit mm)*
G04 Created by KiCad (PCBNEW (5.1.9)-1) date 2021-07-17 19:18:11*
%MOMM*%
%LPD*%
G01*
G04 APERTURE LIST*
G04 APERTURE END LIST*
%TO.C,MX18*%
G36*
G01*
X135755947Y-90593614D02*
X135755947Y-90118614D01*
G75*
G02*
X135993447Y-89881114I237500J0D01*
G01*
X136568447Y-89881114D01*
G75*
G02*
X136805947Y-90118614I0J-237500D01*
G01*
X136805947Y-90593614D01*
G75*
G02*
X136568447Y-90831114I-237500J0D01*
G01*
X135993447Y-90831114D01*
G75*
G02*
X135755947Y-90593614I0J237500D01*
G01*
G37*
G36*
G01*
X134005947Y-90593614D02*
X134005947Y-90118614D01*
G75*
G02*
X134243447Y-89881114I237500J0D01*
G01*
X134818447Y-89881114D01*
G75*
G02*
X135055947Y-90118614I0J-237500D01*
G01*
X135055947Y-90593614D01*
G75*
G02*
X134818447Y-90831114I-237500J0D01*
G01*
X134243447Y-90831114D01*
G75*
G02*
X134005947Y-90593614I0J237500D01*
G01*
G37*
%TD*%
%TO.C,MX11*%
G36*
G01*
X97658395Y-65195246D02*
X97658395Y-64720246D01*
G75*
G02*
X97895895Y-64482746I237500J0D01*
G01*
X98470895Y-64482746D01*
G75*
G02*
X98708395Y-64720246I0J-237500D01*
G01*
X98708395Y-65195246D01*
G75*
G02*
X98470895Y-65432746I-237500J0D01*
G01*
X97895895Y-65432746D01*
G75*
G02*
X97658395Y-65195246I0J237500D01*
G01*
G37*
G36*
G01*
X95908395Y-65195246D02*
X95908395Y-64720246D01*
G75*
G02*
X96145895Y-64482746I237500J0D01*
G01*
X96720895Y-64482746D01*
G75*
G02*
X96958395Y-64720246I0J-237500D01*
G01*
X96958395Y-65195246D01*
G75*
G02*
X96720895Y-65432746I-237500J0D01*
G01*
X96145895Y-65432746D01*
G75*
G02*
X95908395Y-65195246I0J237500D01*
G01*
G37*
%TD*%
%TO.C,MX15*%
G36*
G01*
X116707171Y-87418818D02*
X116707171Y-86943818D01*
G75*
G02*
X116944671Y-86706318I237500J0D01*
G01*
X117519671Y-86706318D01*
G75*
G02*
X117757171Y-86943818I0J-237500D01*
G01*
X117757171Y-87418818D01*
G75*
G02*
X117519671Y-87656318I-237500J0D01*
G01*
X116944671Y-87656318D01*
G75*
G02*
X116707171Y-87418818I0J237500D01*
G01*
G37*
G36*
G01*
X114957171Y-87418818D02*
X114957171Y-86943818D01*
G75*
G02*
X115194671Y-86706318I237500J0D01*
G01*
X115769671Y-86706318D01*
G75*
G02*
X116007171Y-86943818I0J-237500D01*
G01*
X116007171Y-87418818D01*
G75*
G02*
X115769671Y-87656318I-237500J0D01*
G01*
X115194671Y-87656318D01*
G75*
G02*
X114957171Y-87418818I0J237500D01*
G01*
G37*
%TD*%
%TO.C,MX14*%
G36*
G01*
X116707171Y-68370042D02*
X116707171Y-67895042D01*
G75*
G02*
X116944671Y-67657542I237500J0D01*
G01*
X117519671Y-67657542D01*
G75*
G02*
X117757171Y-67895042I0J-237500D01*
G01*
X117757171Y-68370042D01*
G75*
G02*
X117519671Y-68607542I-237500J0D01*
G01*
X116944671Y-68607542D01*
G75*
G02*
X116707171Y-68370042I0J237500D01*
G01*
G37*
G36*
G01*
X114957171Y-68370042D02*
X114957171Y-67895042D01*
G75*
G02*
X115194671Y-67657542I237500J0D01*
G01*
X115769671Y-67657542D01*
G75*
G02*
X116007171Y-67895042I0J-237500D01*
G01*
X116007171Y-68370042D01*
G75*
G02*
X115769671Y-68607542I-237500J0D01*
G01*
X115194671Y-68607542D01*
G75*
G02*
X114957171Y-68370042I0J237500D01*
G01*
G37*
%TD*%
%TO.C,MX13*%
G36*
G01*
X116707171Y-49321266D02*
X116707171Y-48846266D01*
G75*
G02*
X116944671Y-48608766I237500J0D01*
G01*
X117519671Y-48608766D01*
G75*
G02*
X117757171Y-48846266I0J-237500D01*
G01*
X117757171Y-49321266D01*
G75*
G02*
X117519671Y-49558766I-237500J0D01*
G01*
X116944671Y-49558766D01*
G75*
G02*
X116707171Y-49321266I0J237500D01*
G01*
G37*
G36*
G01*
X114957171Y-49321266D02*
X114957171Y-48846266D01*
G75*
G02*
X115194671Y-48608766I237500J0D01*
G01*
X115769671Y-48608766D01*
G75*
G02*
X116007171Y-48846266I0J-237500D01*
G01*
X116007171Y-49321266D01*
G75*
G02*
X115769671Y-49558766I-237500J0D01*
G01*
X115194671Y-49558766D01*
G75*
G02*
X114957171Y-49321266I0J237500D01*
G01*
G37*
%TD*%
%TO.C,MX12*%
G36*
G01*
X97658395Y-84244022D02*
X97658395Y-83769022D01*
G75*
G02*
X97895895Y-83531522I237500J0D01*
G01*
X98470895Y-83531522D01*
G75*
G02*
X98708395Y-83769022I0J-237500D01*
G01*
X98708395Y-84244022D01*
G75*
G02*
X98470895Y-84481522I-237500J0D01*
G01*
X97895895Y-84481522D01*
G75*
G02*
X97658395Y-84244022I0J237500D01*
G01*
G37*
G36*
G01*
X95908395Y-84244022D02*
X95908395Y-83769022D01*
G75*
G02*
X96145895Y-83531522I237500J0D01*
G01*
X96720895Y-83531522D01*
G75*
G02*
X96958395Y-83769022I0J-237500D01*
G01*
X96958395Y-84244022D01*
G75*
G02*
X96720895Y-84481522I-237500J0D01*
G01*
X96145895Y-84481522D01*
G75*
G02*
X95908395Y-84244022I0J237500D01*
G01*
G37*
%TD*%
%TO.C,MX10*%
G36*
G01*
X97658395Y-46146470D02*
X97658395Y-45671470D01*
G75*
G02*
X97895895Y-45433970I237500J0D01*
G01*
X98470895Y-45433970D01*
G75*
G02*
X98708395Y-45671470I0J-237500D01*
G01*
X98708395Y-46146470D01*
G75*
G02*
X98470895Y-46383970I-237500J0D01*
G01*
X97895895Y-46383970D01*
G75*
G02*
X97658395Y-46146470I0J237500D01*
G01*
G37*
G36*
G01*
X95908395Y-46146470D02*
X95908395Y-45671470D01*
G75*
G02*
X96145895Y-45433970I237500J0D01*
G01*
X96720895Y-45433970D01*
G75*
G02*
X96958395Y-45671470I0J-237500D01*
G01*
X96958395Y-46146470D01*
G75*
G02*
X96720895Y-46383970I-237500J0D01*
G01*
X96145895Y-46383970D01*
G75*
G02*
X95908395Y-46146470I0J237500D01*
G01*
G37*
%TD*%
%TO.C,MX9*%
G36*
G01*
X78609619Y-87418818D02*
X78609619Y-86943818D01*
G75*
G02*
X78847119Y-86706318I237500J0D01*
G01*
X79422119Y-86706318D01*
G75*
G02*
X79659619Y-86943818I0J-237500D01*
G01*
X79659619Y-87418818D01*
G75*
G02*
X79422119Y-87656318I-237500J0D01*
G01*
X78847119Y-87656318D01*
G75*
G02*
X78609619Y-87418818I0J237500D01*
G01*
G37*
G36*
G01*
X76859619Y-87418818D02*
X76859619Y-86943818D01*
G75*
G02*
X77097119Y-86706318I237500J0D01*
G01*
X77672119Y-86706318D01*
G75*
G02*
X77909619Y-86943818I0J-237500D01*
G01*
X77909619Y-87418818D01*
G75*
G02*
X77672119Y-87656318I-237500J0D01*
G01*
X77097119Y-87656318D01*
G75*
G02*
X76859619Y-87418818I0J237500D01*
G01*
G37*
%TD*%
%TO.C,MX8*%
G36*
G01*
X78609619Y-68370042D02*
X78609619Y-67895042D01*
G75*
G02*
X78847119Y-67657542I237500J0D01*
G01*
X79422119Y-67657542D01*
G75*
G02*
X79659619Y-67895042I0J-237500D01*
G01*
X79659619Y-68370042D01*
G75*
G02*
X79422119Y-68607542I-237500J0D01*
G01*
X78847119Y-68607542D01*
G75*
G02*
X78609619Y-68370042I0J237500D01*
G01*
G37*
G36*
G01*
X76859619Y-68370042D02*
X76859619Y-67895042D01*
G75*
G02*
X77097119Y-67657542I237500J0D01*
G01*
X77672119Y-67657542D01*
G75*
G02*
X77909619Y-67895042I0J-237500D01*
G01*
X77909619Y-68370042D01*
G75*
G02*
X77672119Y-68607542I-237500J0D01*
G01*
X77097119Y-68607542D01*
G75*
G02*
X76859619Y-68370042I0J237500D01*
G01*
G37*
%TD*%
%TO.C,MX7*%
G36*
G01*
X78609619Y-49321266D02*
X78609619Y-48846266D01*
G75*
G02*
X78847119Y-48608766I237500J0D01*
G01*
X79422119Y-48608766D01*
G75*
G02*
X79659619Y-48846266I0J-237500D01*
G01*
X79659619Y-49321266D01*
G75*
G02*
X79422119Y-49558766I-237500J0D01*
G01*
X78847119Y-49558766D01*
G75*
G02*
X78609619Y-49321266I0J237500D01*
G01*
G37*
G36*
G01*
X76859619Y-49321266D02*
X76859619Y-48846266D01*
G75*
G02*
X77097119Y-48608766I237500J0D01*
G01*
X77672119Y-48608766D01*
G75*
G02*
X77909619Y-48846266I0J-237500D01*
G01*
X77909619Y-49321266D01*
G75*
G02*
X77672119Y-49558766I-237500J0D01*
G01*
X77097119Y-49558766D01*
G75*
G02*
X76859619Y-49321266I0J237500D01*
G01*
G37*
%TD*%
%TO.C,MX6*%
G36*
G01*
X59560843Y-90593614D02*
X59560843Y-90118614D01*
G75*
G02*
X59798343Y-89881114I237500J0D01*
G01*
X60373343Y-89881114D01*
G75*
G02*
X60610843Y-90118614I0J-237500D01*
G01*
X60610843Y-90593614D01*
G75*
G02*
X60373343Y-90831114I-237500J0D01*
G01*
X59798343Y-90831114D01*
G75*
G02*
X59560843Y-90593614I0J237500D01*
G01*
G37*
G36*
G01*
X57810843Y-90593614D02*
X57810843Y-90118614D01*
G75*
G02*
X58048343Y-89881114I237500J0D01*
G01*
X58623343Y-89881114D01*
G75*
G02*
X58860843Y-90118614I0J-237500D01*
G01*
X58860843Y-90593614D01*
G75*
G02*
X58623343Y-90831114I-237500J0D01*
G01*
X58048343Y-90831114D01*
G75*
G02*
X57810843Y-90593614I0J237500D01*
G01*
G37*
%TD*%
%TO.C,MX5*%
G36*
G01*
X59560843Y-71544838D02*
X59560843Y-71069838D01*
G75*
G02*
X59798343Y-70832338I237500J0D01*
G01*
X60373343Y-70832338D01*
G75*
G02*
X60610843Y-71069838I0J-237500D01*
G01*
X60610843Y-71544838D01*
G75*
G02*
X60373343Y-71782338I-237500J0D01*
G01*
X59798343Y-71782338D01*
G75*
G02*
X59560843Y-71544838I0J237500D01*
G01*
G37*
G36*
G01*
X57810843Y-71544838D02*
X57810843Y-71069838D01*
G75*
G02*
X58048343Y-70832338I237500J0D01*
G01*
X58623343Y-70832338D01*
G75*
G02*
X58860843Y-71069838I0J-237500D01*
G01*
X58860843Y-71544838D01*
G75*
G02*
X58623343Y-71782338I-237500J0D01*
G01*
X58048343Y-71782338D01*
G75*
G02*
X57810843Y-71544838I0J237500D01*
G01*
G37*
%TD*%
%TO.C,MX4*%
G36*
G01*
X59560843Y-52496062D02*
X59560843Y-52021062D01*
G75*
G02*
X59798343Y-51783562I237500J0D01*
G01*
X60373343Y-51783562D01*
G75*
G02*
X60610843Y-52021062I0J-237500D01*
G01*
X60610843Y-52496062D01*
G75*
G02*
X60373343Y-52733562I-237500J0D01*
G01*
X59798343Y-52733562D01*
G75*
G02*
X59560843Y-52496062I0J237500D01*
G01*
G37*
G36*
G01*
X57810843Y-52496062D02*
X57810843Y-52021062D01*
G75*
G02*
X58048343Y-51783562I237500J0D01*
G01*
X58623343Y-51783562D01*
G75*
G02*
X58860843Y-52021062I0J-237500D01*
G01*
X58860843Y-52496062D01*
G75*
G02*
X58623343Y-52733562I-237500J0D01*
G01*
X58048343Y-52733562D01*
G75*
G02*
X57810843Y-52496062I0J237500D01*
G01*
G37*
%TD*%
%TO.C,MX3*%
G36*
G01*
X40512067Y-93768410D02*
X40512067Y-93293410D01*
G75*
G02*
X40749567Y-93055910I237500J0D01*
G01*
X41324567Y-93055910D01*
G75*
G02*
X41562067Y-93293410I0J-237500D01*
G01*
X41562067Y-93768410D01*
G75*
G02*
X41324567Y-94005910I-237500J0D01*
G01*
X40749567Y-94005910D01*
G75*
G02*
X40512067Y-93768410I0J237500D01*
G01*
G37*
G36*
G01*
X38762067Y-93768410D02*
X38762067Y-93293410D01*
G75*
G02*
X38999567Y-93055910I237500J0D01*
G01*
X39574567Y-93055910D01*
G75*
G02*
X39812067Y-93293410I0J-237500D01*
G01*
X39812067Y-93768410D01*
G75*
G02*
X39574567Y-94005910I-237500J0D01*
G01*
X38999567Y-94005910D01*
G75*
G02*
X38762067Y-93768410I0J237500D01*
G01*
G37*
%TD*%
%TO.C,MX2*%
G36*
G01*
X40512067Y-74719634D02*
X40512067Y-74244634D01*
G75*
G02*
X40749567Y-74007134I237500J0D01*
G01*
X41324567Y-74007134D01*
G75*
G02*
X41562067Y-74244634I0J-237500D01*
G01*
X41562067Y-74719634D01*
G75*
G02*
X41324567Y-74957134I-237500J0D01*
G01*
X40749567Y-74957134D01*
G75*
G02*
X40512067Y-74719634I0J237500D01*
G01*
G37*
G36*
G01*
X38762067Y-74719634D02*
X38762067Y-74244634D01*
G75*
G02*
X38999567Y-74007134I237500J0D01*
G01*
X39574567Y-74007134D01*
G75*
G02*
X39812067Y-74244634I0J-237500D01*
G01*
X39812067Y-74719634D01*
G75*
G02*
X39574567Y-74957134I-237500J0D01*
G01*
X38999567Y-74957134D01*
G75*
G02*
X38762067Y-74719634I0J237500D01*
G01*
G37*
%TD*%
%TO.C,MX1*%
G36*
G01*
X40512067Y-55670858D02*
X40512067Y-55195858D01*
G75*
G02*
X40749567Y-54958358I237500J0D01*
G01*
X41324567Y-54958358D01*
G75*
G02*
X41562067Y-55195858I0J-237500D01*
G01*
X41562067Y-55670858D01*
G75*
G02*
X41324567Y-55908358I-237500J0D01*
G01*
X40749567Y-55908358D01*
G75*
G02*
X40512067Y-55670858I0J237500D01*
G01*
G37*
G36*
G01*
X38762067Y-55670858D02*
X38762067Y-55195858D01*
G75*
G02*
X38999567Y-54958358I237500J0D01*
G01*
X39574567Y-54958358D01*
G75*
G02*
X39812067Y-55195858I0J-237500D01*
G01*
X39812067Y-55670858D01*
G75*
G02*
X39574567Y-55908358I-237500J0D01*
G01*
X38999567Y-55908358D01*
G75*
G02*
X38762067Y-55670858I0J237500D01*
G01*
G37*
%TD*%
M02*
