  0
SECTION
  2
HEADER
  9
$ANGBASE
  50
0.0
  9
$ANGDIR
  70
1
  9
$MEASUREMENT
  70
1
  0
ENDSEC
  0
SECTION
  2
TABLES
  0
TABLE
  2
LTYPE
  70
4
  0
LTYPE
  5
40F
  2
CONTINUOUS
  70
0
  3
Solid line
  72
65
  73
0
  40
0.0
  0
LTYPE
  5
410
  2
DASHDOT
 70
0
  3
Dash Dot ____ _ ____ _
 72
65
 73
4
 40
2.0
 49
1.25
 49
-0.25
 49
0.25
 49
-0.25
  0
LTYPE
  5
411
  2
DASHED
 70
0
  3
Dashed __ __ __ __ __
 72
65
 73
2
 40
0.75
 49
0.5
 49
-0.25
  0
LTYPE
  5
43B
  2
DOTTED
 70
0
  3
Dotted .  .  .  .
 72
65
 73
2
 40
0.2
 49
0.0
 49
-0.2
  0
ENDTAB
  0
TABLE
  2
STYLE
  70
4
  0
STYLE
  2
KICAD
  70
0
  40
0
  41
1
  42
1
  50
0
  71
0
  3
isocp.shx
  0
STYLE
  2
KICADB
  70
0
  40
0
  41
1
  42
1
  50
0
  71
0
  3
isocp.shx
  0
STYLE
  2
KICADI
  70
0
  40
0
  41
1
  42
1
  50
15
  71
0
  3
isocp.shx
  0
STYLE
  2
KICADBI
  70
0
  40
0
  41
1
  42
1
  50
15
  71
0
  3
isocp.shx
  0
ENDTAB
  0
TABLE
  2
LAYER
  70
1
  0
LAYER
  2
BLACK
  70
0
  62
7
  6
CONTINUOUS
  0
ENDTAB
  0
ENDSEC
  0
SECTION
  2
ENTITIES
0
LINE
8
BLACK
6
CONTINUOUS
10
145.788
20
-32.3964
11
145.79
21
-32.3969
0
LINE
8
BLACK
6
CONTINUOUS
10
145.79
20
-32.3969
11
145.792
21
-32.3973
0
LINE
8
BLACK
6
CONTINUOUS
10
145.792
20
-32.3973
11
146.148
21
-32.5048
0
LINE
8
BLACK
6
CONTINUOUS
10
146.148
20
-32.5048
11
146.148
21
-32.5048
0
LINE
8
BLACK
6
CONTINUOUS
10
146.148
20
-32.5048
11
146.148
21
-32.5049
0
LINE
8
BLACK
6
CONTINUOUS
10
146.148
20
-32.5049
11
146.151
21
-32.5058
0
LINE
8
BLACK
6
CONTINUOUS
10
146.151
20
-32.5058
11
146.153
21
-32.5067
0
LINE
8
BLACK
6
CONTINUOUS
10
146.153
20
-32.5067
11
146.481
21
-32.6812
0
LINE
8
BLACK
6
CONTINUOUS
10
146.481
20
-32.6812
11
146.481
21
-32.6814
0
LINE
8
BLACK
6
CONTINUOUS
10
146.481
20
-32.6814
11
146.483
21
-32.6826
0
LINE
8
BLACK
6
CONTINUOUS
10
146.483
20
-32.6826
11
146.485
21
-32.6839
0
LINE
8
BLACK
6
CONTINUOUS
10
146.485
20
-32.6839
11
146.773
21
-32.9189
0
LINE
8
BLACK
6
CONTINUOUS
10
146.773
20
-32.9189
11
146.773
21
-32.9189
0
LINE
8
BLACK
6
CONTINUOUS
10
146.773
20
-32.9189
11
146.773
21
-32.9189
0
LINE
8
BLACK
6
CONTINUOUS
10
146.773
20
-32.9189
11
146.773
21
-32.9191
0
LINE
8
BLACK
6
CONTINUOUS
10
146.773
20
-32.9191
11
146.775
21
-32.9207
0
LINE
8
BLACK
6
CONTINUOUS
10
146.775
20
-32.9207
11
146.777
21
-32.9223
0
LINE
8
BLACK
6
CONTINUOUS
10
146.777
20
-32.9223
11
147.014
21
-33.2088
0
LINE
8
BLACK
6
CONTINUOUS
10
147.014
20
-33.2088
11
147.014
21
-33.2091
0
LINE
8
BLACK
6
CONTINUOUS
10
147.014
20
-33.2091
11
147.015
21
-33.211
0
LINE
8
BLACK
6
CONTINUOUS
10
147.015
20
-33.211
11
147.016
21
-33.2128
0
LINE
8
BLACK
6
CONTINUOUS
10
147.016
20
-33.2128
11
147.193
21
-33.5399
0
LINE
8
BLACK
6
CONTINUOUS
10
147.193
20
-33.5399
11
147.193
21
-33.5402
0
LINE
8
BLACK
6
CONTINUOUS
10
147.193
20
-33.5402
11
147.194
21
-33.5423
0
LINE
8
BLACK
6
CONTINUOUS
10
147.194
20
-33.5423
11
147.195
21
-33.5444
0
LINE
8
BLACK
6
CONTINUOUS
10
147.195
20
-33.5444
11
147.305
21
-33.8996
0
LINE
8
BLACK
6
CONTINUOUS
10
147.305
20
-33.8996
11
147.305
21
-33.8999
0
LINE
8
BLACK
6
CONTINUOUS
10
147.305
20
-33.8999
11
147.305
21
-33.9021
0
LINE
8
BLACK
6
CONTINUOUS
10
147.305
20
-33.9021
11
147.306
21
-33.9043
0
LINE
8
BLACK
6
CONTINUOUS
10
147.306
20
-33.9043
11
147.345
21
-34.2741
0
LINE
8
BLACK
6
CONTINUOUS
10
147.345
20
-34.2741
11
147.345
21
-34.2744
0
LINE
8
BLACK
6
CONTINUOUS
10
147.345
20
-34.2744
11
147.345
21
-34.2755
0
LINE
8
BLACK
6
CONTINUOUS
10
147.345
20
-34.2755
11
147.345
21
-34.2766
0
LINE
8
BLACK
6
CONTINUOUS
10
147.345
20
-34.2766
11
147.345
21
-34.2887
0
LINE
8
BLACK
6
CONTINUOUS
10
147.345
20
-34.2887
11
147.345
21
-34.2888
0
LINE
8
BLACK
6
CONTINUOUS
10
147.345
20
-34.2888
11
147.345
21
-106.681
0
LINE
8
BLACK
6
CONTINUOUS
10
147.345
20
-106.681
11
147.345
21
-106.682
0
LINE
8
BLACK
6
CONTINUOUS
10
147.345
20
-106.682
11
147.345
21
-106.682
0
LINE
8
BLACK
6
CONTINUOUS
10
147.345
20
-106.682
11
147.309
21
-107.052
0
LINE
8
BLACK
6
CONTINUOUS
10
147.309
20
-107.052
11
147.309
21
-107.053
0
LINE
8
BLACK
6
CONTINUOUS
10
147.309
20
-107.053
11
147.308
21
-107.055
0
LINE
8
BLACK
6
CONTINUOUS
10
147.308
20
-107.055
11
147.308
21
-107.057
0
LINE
8
BLACK
6
CONTINUOUS
10
147.308
20
-107.057
11
147.2
21
-107.413
0
LINE
8
BLACK
6
CONTINUOUS
10
147.2
20
-107.413
11
147.2
21
-107.413
0
LINE
8
BLACK
6
CONTINUOUS
10
147.2
20
-107.413
11
147.199
21
-107.416
0
LINE
8
BLACK
6
CONTINUOUS
10
147.199
20
-107.416
11
147.198
21
-107.418
0
LINE
8
BLACK
6
CONTINUOUS
10
147.198
20
-107.418
11
147.024
21
-107.746
0
LINE
8
BLACK
6
CONTINUOUS
10
147.024
20
-107.746
11
147.024
21
-107.746
0
LINE
8
BLACK
6
CONTINUOUS
10
147.024
20
-107.746
11
147.022
21
-107.748
0
LINE
8
BLACK
6
CONTINUOUS
10
147.022
20
-107.748
11
147.021
21
-107.75
0
LINE
8
BLACK
6
CONTINUOUS
10
147.021
20
-107.75
11
146.786
21
-108.038
0
LINE
8
BLACK
6
CONTINUOUS
10
146.786
20
-108.038
11
146.786
21
-108.038
0
LINE
8
BLACK
6
CONTINUOUS
10
146.786
20
-108.038
11
146.784
21
-108.04
0
LINE
8
BLACK
6
CONTINUOUS
10
146.784
20
-108.04
11
146.783
21
-108.042
0
LINE
8
BLACK
6
CONTINUOUS
10
146.783
20
-108.042
11
146.496
21
-108.279
0
LINE
8
BLACK
6
CONTINUOUS
10
146.496
20
-108.279
11
146.496
21
-108.279
0
LINE
8
BLACK
6
CONTINUOUS
10
146.496
20
-108.279
11
146.494
21
-108.28
0
LINE
8
BLACK
6
CONTINUOUS
10
146.494
20
-108.28
11
146.492
21
-108.281
0
LINE
8
BLACK
6
CONTINUOUS
10
146.492
20
-108.281
11
146.165
21
-108.458
0
LINE
8
BLACK
6
CONTINUOUS
10
146.165
20
-108.458
11
146.165
21
-108.458
0
LINE
8
BLACK
6
CONTINUOUS
10
146.165
20
-108.458
11
146.163
21
-108.459
0
LINE
8
BLACK
6
CONTINUOUS
10
146.163
20
-108.459
11
146.161
21
-108.46
0
LINE
8
BLACK
6
CONTINUOUS
10
146.161
20
-108.46
11
145.805
21
-108.57
0
LINE
8
BLACK
6
CONTINUOUS
10
145.805
20
-108.57
11
145.805
21
-108.57
0
LINE
8
BLACK
6
CONTINUOUS
10
145.805
20
-108.57
11
145.803
21
-108.57
0
LINE
8
BLACK
6
CONTINUOUS
10
145.803
20
-108.57
11
145.801
21
-108.571
0
LINE
8
BLACK
6
CONTINUOUS
10
145.801
20
-108.571
11
145.431
21
-108.61
0
LINE
8
BLACK
6
CONTINUOUS
10
145.431
20
-108.61
11
145.431
21
-108.61
0
LINE
8
BLACK
6
CONTINUOUS
10
145.431
20
-108.61
11
145.429
21
-108.61
0
LINE
8
BLACK
6
CONTINUOUS
10
145.429
20
-108.61
11
145.428
21
-108.61
0
LINE
8
BLACK
6
CONTINUOUS
10
145.428
20
-108.61
11
145.416
21
-108.61
0
LINE
8
BLACK
6
CONTINUOUS
10
145.416
20
-108.61
11
145.416
21
-108.61
0
LINE
8
BLACK
6
CONTINUOUS
10
145.416
20
-108.61
11
31.1138
21
-108.61
0
LINE
8
BLACK
6
CONTINUOUS
10
31.1138
20
-108.61
11
31.1126
21
-108.61
0
LINE
8
BLACK
6
CONTINUOUS
10
31.1126
20
-108.61
11
31.1126
21
-108.61
0
LINE
8
BLACK
6
CONTINUOUS
10
31.1126
20
-108.61
11
30.7425
21
-108.574
0
LINE
8
BLACK
6
CONTINUOUS
10
30.7425
20
-108.574
11
30.7422
21
-108.574
0
LINE
8
BLACK
6
CONTINUOUS
10
30.7422
20
-108.574
11
30.74
21
-108.573
0
LINE
8
BLACK
6
CONTINUOUS
10
30.74
20
-108.573
11
30.7378
21
-108.573
0
LINE
8
BLACK
6
CONTINUOUS
10
30.7378
20
-108.573
11
30.3818
21
-108.465
0
LINE
8
BLACK
6
CONTINUOUS
10
30.3818
20
-108.465
11
30.3815
21
-108.465
0
LINE
8
BLACK
6
CONTINUOUS
10
30.3815
20
-108.465
11
30.3794
21
-108.464
0
LINE
8
BLACK
6
CONTINUOUS
10
30.3794
20
-108.464
11
30.3773
21
-108.463
0
LINE
8
BLACK
6
CONTINUOUS
10
30.3773
20
-108.463
11
30.0491
21
-108.289
0
LINE
8
BLACK
6
CONTINUOUS
10
30.0491
20
-108.289
11
30.0487
21
-108.289
0
LINE
8
BLACK
6
CONTINUOUS
10
30.0487
20
-108.289
11
30.0469
21
-108.287
0
LINE
8
BLACK
6
CONTINUOUS
10
30.0469
20
-108.287
11
30.045
21
-108.286
0
LINE
8
BLACK
6
CONTINUOUS
10
30.045
20
-108.286
11
29.7569
21
-108.051
0
LINE
8
BLACK
6
CONTINUOUS
10
29.7569
20
-108.051
11
29.7566
21
-108.051
0
LINE
8
BLACK
6
CONTINUOUS
10
29.7566
20
-108.051
11
29.755
21
-108.049
0
LINE
8
BLACK
6
CONTINUOUS
10
29.755
20
-108.049
11
29.7534
21
-108.048
0
LINE
8
BLACK
6
CONTINUOUS
10
29.7534
20
-108.048
11
29.5164
21
-107.761
0
LINE
8
BLACK
6
CONTINUOUS
10
29.5164
20
-107.761
11
29.5162
21
-107.761
0
LINE
8
BLACK
6
CONTINUOUS
10
29.5162
20
-107.761
11
29.515
21
-107.759
0
LINE
8
BLACK
6
CONTINUOUS
10
29.515
20
-107.759
11
29.5137
21
-107.757
0
LINE
8
BLACK
6
CONTINUOUS
10
29.5137
20
-107.757
11
29.3369
21
-107.43
0
LINE
8
BLACK
6
CONTINUOUS
10
29.3369
20
-107.43
11
29.3367
21
-107.43
0
LINE
8
BLACK
6
CONTINUOUS
10
29.3367
20
-107.43
11
29.3358
21
-107.428
0
LINE
8
BLACK
6
CONTINUOUS
10
29.3358
20
-107.428
11
29.335
21
-107.426
0
LINE
8
BLACK
6
CONTINUOUS
10
29.335
20
-107.426
11
29.225
21
-107.07
0
LINE
8
BLACK
6
CONTINUOUS
10
29.225
20
-107.07
11
29.2249
21
-107.07
0
LINE
8
BLACK
6
CONTINUOUS
10
29.2249
20
-107.07
11
29.2245
21
-107.068
0
LINE
8
BLACK
6
CONTINUOUS
10
29.2245
20
-107.068
11
29.224
21
-107.066
0
LINE
8
BLACK
6
CONTINUOUS
10
29.224
20
-107.066
11
29.1852
21
-106.696
0
LINE
8
BLACK
6
CONTINUOUS
10
29.1852
20
-106.696
11
29.1851
21
-106.696
0
LINE
8
BLACK
6
CONTINUOUS
10
29.1851
20
-106.696
11
29.1852
21
-106.694
0
LINE
8
BLACK
6
CONTINUOUS
10
29.1852
20
-106.694
11
29.185
21
-106.693
0
LINE
8
BLACK
6
CONTINUOUS
10
29.185
20
-106.693
11
29.185
21
-106.681
0
LINE
8
BLACK
6
CONTINUOUS
10
29.185
20
-106.681
11
29.185
21
-106.681
0
LINE
8
BLACK
6
CONTINUOUS
10
29.185
20
-106.681
11
29.185
21
-106.68
0
LINE
8
BLACK
6
CONTINUOUS
10
29.185
20
-106.68
11
29.185
21
-106.68
0
LINE
8
BLACK
6
CONTINUOUS
10
29.185
20
-106.68
11
29.185
21
-106.68
0
LINE
8
BLACK
6
CONTINUOUS
10
29.185
20
-106.68
11
29.185
21
-46.9888
0
LINE
8
BLACK
6
CONTINUOUS
10
29.185
20
-46.9888
11
29.185
21
-46.9888
0
LINE
8
BLACK
6
CONTINUOUS
10
29.185
20
-46.9888
11
29.185
21
-45.0838
0
LINE
8
BLACK
6
CONTINUOUS
10
29.185
20
-45.0838
11
29.1851
21
-45.0826
0
LINE
8
BLACK
6
CONTINUOUS
10
29.1851
20
-45.0826
11
29.1851
21
-45.0826
0
LINE
8
BLACK
6
CONTINUOUS
10
29.1851
20
-45.0826
11
29.2234
21
-44.6925
0
LINE
8
BLACK
6
CONTINUOUS
10
29.2234
20
-44.6925
11
29.2234
21
-44.6922
0
LINE
8
BLACK
6
CONTINUOUS
10
29.2234
20
-44.6922
11
29.2239
21
-44.6899
0
LINE
8
BLACK
6
CONTINUOUS
10
29.2239
20
-44.6899
11
29.2243
21
-44.6877
0
LINE
8
BLACK
6
CONTINUOUS
10
29.2243
20
-44.6877
11
29.3376
21
-44.3126
0
LINE
8
BLACK
6
CONTINUOUS
10
29.3376
20
-44.3126
11
29.3377
21
-44.3122
0
LINE
8
BLACK
6
CONTINUOUS
10
29.3377
20
-44.3122
11
29.3386
21
-44.3101
0
LINE
8
BLACK
6
CONTINUOUS
10
29.3386
20
-44.3101
11
29.3394
21
-44.3081
0
LINE
8
BLACK
6
CONTINUOUS
10
29.3394
20
-44.3081
11
29.5234
21
-43.962
0
LINE
8
BLACK
6
CONTINUOUS
10
29.5234
20
-43.962
11
29.5236
21
-43.9617
0
LINE
8
BLACK
6
CONTINUOUS
10
29.5236
20
-43.9617
11
29.5249
21
-43.9599
0
LINE
8
BLACK
6
CONTINUOUS
10
29.5249
20
-43.9599
11
29.5261
21
-43.958
0
LINE
8
BLACK
6
CONTINUOUS
10
29.5261
20
-43.958
11
29.7738
21
-43.6543
0
LINE
8
BLACK
6
CONTINUOUS
10
29.7738
20
-43.6543
11
29.7738
21
-43.6543
0
LINE
8
BLACK
6
CONTINUOUS
10
29.7738
20
-43.6543
11
29.7738
21
-43.6543
0
LINE
8
BLACK
6
CONTINUOUS
10
29.7738
20
-43.6543
11
29.774
21
-43.654
0
LINE
8
BLACK
6
CONTINUOUS
10
29.774
20
-43.654
11
29.7757
21
-43.6524
0
LINE
8
BLACK
6
CONTINUOUS
10
29.7757
20
-43.6524
11
29.7773
21
-43.6508
0
LINE
8
BLACK
6
CONTINUOUS
10
29.7773
20
-43.6508
11
30.0792
21
-43.401
0
LINE
8
BLACK
6
CONTINUOUS
10
30.0792
20
-43.401
11
30.0795
21
-43.4008
0
LINE
8
BLACK
6
CONTINUOUS
10
30.0795
20
-43.4008
11
30.0814
21
-43.3995
0
LINE
8
BLACK
6
CONTINUOUS
10
30.0814
20
-43.3995
11
30.0833
21
-43.3983
0
LINE
8
BLACK
6
CONTINUOUS
10
30.0833
20
-43.3983
11
30.428
21
-43.2119
0
LINE
8
BLACK
6
CONTINUOUS
10
30.428
20
-43.2119
11
30.4283
21
-43.2117
0
LINE
8
BLACK
6
CONTINUOUS
10
30.4283
20
-43.2117
11
30.4297
21
-43.2111
0
LINE
8
BLACK
6
CONTINUOUS
10
30.4297
20
-43.2111
11
30.4311
21
-43.2105
0
LINE
8
BLACK
6
CONTINUOUS
10
30.4311
20
-43.2105
11
30.5721
21
-43.1574
0
LINE
8
BLACK
6
CONTINUOUS
10
30.5721
20
-43.1574
11
30.5722
21
-43.1573
0
LINE
8
BLACK
6
CONTINUOUS
10
30.5722
20
-43.1573
11
30.5742
21
-43.1566
0
LINE
8
BLACK
6
CONTINUOUS
10
30.5742
20
-43.1566
11
30.5746
21
-43.1565
0
LINE
8
BLACK
6
CONTINUOUS
10
30.5746
20
-43.1565
11
30.5746
21
-43.1565
0
LINE
8
BLACK
6
CONTINUOUS
10
30.5746
20
-43.1565
11
30.5757
21
-43.1561
0
LINE
8
BLACK
6
CONTINUOUS
10
30.5757
20
-43.1561
11
72.4176
21
-32.4582
0
LINE
8
BLACK
6
CONTINUOUS
10
72.4176
20
-32.4582
11
72.4179
21
-32.4582
0
LINE
8
BLACK
6
CONTINUOUS
10
72.4179
20
-32.4582
11
72.7795
21
-32.3758
0
LINE
8
BLACK
6
CONTINUOUS
10
72.7795
20
-32.3758
11
72.7799
21
-32.3757
0
LINE
8
BLACK
6
CONTINUOUS
10
72.7799
20
-32.3757
11
72.7817
21
-32.3755
0
LINE
8
BLACK
6
CONTINUOUS
10
72.7817
20
-32.3755
11
72.7835
21
-32.3752
0
LINE
8
BLACK
6
CONTINUOUS
10
72.7835
20
-32.3752
11
73.023
21
-32.3601
0
LINE
8
BLACK
6
CONTINUOUS
10
73.023
20
-32.3601
11
73.0238
21
-32.36
0
LINE
8
BLACK
6
CONTINUOUS
10
73.0238
20
-32.36
11
145.416
21
-32.36
0
LINE
8
BLACK
6
CONTINUOUS
10
145.416
20
-32.36
11
145.417
21
-32.3601
0
LINE
8
BLACK
6
CONTINUOUS
10
145.417
20
-32.3601
11
145.417
21
-32.3601
0
LINE
8
BLACK
6
CONTINUOUS
10
145.417
20
-32.3601
11
145.787
21
-32.3964
0
LINE
8
BLACK
6
CONTINUOUS
10
145.787
20
-32.3964
11
145.787
21
-32.3964
0
LINE
8
BLACK
6
CONTINUOUS
10
145.787
20
-32.3964
11
145.788
21
-32.3964
0
LINE
8
BLACK
6
CONTINUOUS
10
29.235
20
-106.692
11
29.2735
21
-107.058
0
LINE
8
BLACK
6
CONTINUOUS
10
29.2735
20
-107.058
11
29.382
21
-107.408
0
LINE
8
BLACK
6
CONTINUOUS
10
29.382
20
-107.408
11
29.5565
21
-107.731
0
LINE
8
BLACK
6
CONTINUOUS
10
29.5565
20
-107.731
11
29.7904
21
-108.014
0
LINE
8
BLACK
6
CONTINUOUS
10
29.7904
20
-108.014
11
30.0747
21
-108.246
0
LINE
8
BLACK
6
CONTINUOUS
10
30.0747
20
-108.246
11
30.3986
21
-108.418
0
LINE
8
BLACK
6
CONTINUOUS
10
30.3986
20
-108.418
11
30.7499
21
-108.524
0
LINE
8
BLACK
6
CONTINUOUS
10
30.7499
20
-108.524
11
31.1162
21
-108.56
0
LINE
8
BLACK
6
CONTINUOUS
10
31.1162
20
-108.56
11
145.415
21
-108.56
0
LINE
8
BLACK
6
CONTINUOUS
10
145.415
20
-108.56
11
145.427
21
-108.56
0
LINE
8
BLACK
6
CONTINUOUS
10
145.427
20
-108.56
11
145.793
21
-108.521
0
LINE
8
BLACK
6
CONTINUOUS
10
145.793
20
-108.521
11
146.143
21
-108.413
0
LINE
8
BLACK
6
CONTINUOUS
10
146.143
20
-108.413
11
146.466
21
-108.238
0
LINE
8
BLACK
6
CONTINUOUS
10
146.466
20
-108.238
11
146.749
21
-108.005
0
LINE
8
BLACK
6
CONTINUOUS
10
146.749
20
-108.005
11
146.981
21
-107.72
0
LINE
8
BLACK
6
CONTINUOUS
10
146.981
20
-107.72
11
147.153
21
-107.396
0
LINE
8
BLACK
6
CONTINUOUS
10
147.153
20
-107.396
11
147.259
21
-107.045
0
LINE
8
BLACK
6
CONTINUOUS
10
147.259
20
-107.045
11
147.295
21
-106.679
0
LINE
8
BLACK
6
CONTINUOUS
10
147.295
20
-106.679
11
147.295
21
-34.2901
0
LINE
8
BLACK
6
CONTINUOUS
10
147.295
20
-34.2901
11
147.295
21
-34.2901
0
LINE
8
BLACK
6
CONTINUOUS
10
147.295
20
-34.2901
11
147.295
21
-34.2781
0
LINE
8
BLACK
6
CONTINUOUS
10
147.295
20
-34.2781
11
147.256
21
-33.912
0
LINE
8
BLACK
6
CONTINUOUS
10
147.256
20
-33.912
11
147.148
21
-33.5615
0
LINE
8
BLACK
6
CONTINUOUS
10
147.148
20
-33.5615
11
146.973
21
-33.2388
0
LINE
8
BLACK
6
CONTINUOUS
10
146.973
20
-33.2388
11
146.74
21
-32.9561
0
LINE
8
BLACK
6
CONTINUOUS
10
146.74
20
-32.9561
11
146.455
21
-32.7242
0
LINE
8
BLACK
6
CONTINUOUS
10
146.455
20
-32.7242
11
146.131
21
-32.552
0
LINE
8
BLACK
6
CONTINUOUS
10
146.131
20
-32.552
11
145.78
21
-32.4459
0
LINE
8
BLACK
6
CONTINUOUS
10
145.78
20
-32.4459
11
145.414
21
-32.41
0
LINE
8
BLACK
6
CONTINUOUS
10
145.414
20
-32.41
11
73.0258
21
-32.41
0
LINE
8
BLACK
6
CONTINUOUS
10
73.0258
20
-32.41
11
72.7887
21
-32.425
0
LINE
8
BLACK
6
CONTINUOUS
10
72.7887
20
-32.425
11
72.4285
21
-32.5071
0
LINE
8
BLACK
6
CONTINUOUS
10
72.4285
20
-32.5071
11
30.5906
21
-43.2039
0
LINE
8
BLACK
6
CONTINUOUS
10
30.5906
20
-43.2039
11
30.4503
21
-43.2567
0
LINE
8
BLACK
6
CONTINUOUS
10
30.4503
20
-43.2567
11
30.1092
21
-43.4411
0
LINE
8
BLACK
6
CONTINUOUS
10
30.1092
20
-43.4411
11
29.811
21
-43.6878
0
LINE
8
BLACK
6
CONTINUOUS
10
29.811
20
-43.6878
11
29.5664
21
-43.9877
0
LINE
8
BLACK
6
CONTINUOUS
10
29.5664
20
-43.9877
11
29.3847
21
-44.3294
0
LINE
8
BLACK
6
CONTINUOUS
10
29.3847
20
-44.3294
11
29.2729
21
-44.6998
0
LINE
8
BLACK
6
CONTINUOUS
10
29.2729
20
-44.6998
11
29.235
21
-45.0862
0
LINE
8
BLACK
6
CONTINUOUS
10
29.235
20
-45.0862
11
29.235
21
-106.68
0
LINE
8
BLACK
6
CONTINUOUS
10
29.235
20
-106.68
11
29.235
21
-106.692
  0
ENDSEC
  0
EOF
