M48
; DRILL file {KiCad (5.1.9)-1} date 08/25/21 16:33:51
; FORMAT={-:-/ absolute / inch / decimal}
; #@! TF.CreationDate,2021-08-25T16:33:51-05:00
; #@! TF.GenerationSoftware,Kicad,Pcbnew,(5.1.9)-1
; #@! TF.FileFunction,NonPlated,1,2,NPTH
FMAT,2
INCH
T1C0.0689
T2C0.0866
T3C0.1570
%
G90
G05
T1
X1.3812Y-2.3624
X1.3812Y-3.1124
X1.3812Y-3.8623
X1.7812Y-2.3624
X1.7812Y-3.1124
X1.7812Y-3.8623
X2.1311Y-2.2374
X2.1311Y-2.9874
X2.1311Y-3.7373
X2.5311Y-2.2374
X2.5311Y-2.9874
X2.5311Y-3.7373
X2.8811Y-2.1124
X2.8811Y-2.8624
X2.8811Y-3.6123
X3.2811Y-2.1124
X3.2811Y-2.8624
X3.2811Y-3.6123
X3.631Y-1.9874
X3.631Y-2.7374
X3.631Y-3.4873
X4.031Y-1.9874
X4.031Y-2.7374
X4.031Y-3.4873
X4.381Y-2.1124
X4.381Y-2.8624
X4.381Y-3.6123
X4.781Y-2.1124
X4.781Y-2.8624
X4.781Y-3.6123
X5.1309Y-3.7373
X5.5309Y-3.7373
T2
X1.275Y-1.9
X2.05Y-4.175
X2.6Y-1.75
X4.825Y-1.7
X4.875Y-4.175
X5.325Y-3.1
T3
X1.5812Y-2.3624
X1.5812Y-3.1124
X1.5812Y-3.8623
X2.3311Y-2.2374
X2.3311Y-2.9874
X2.3311Y-3.7373
X3.0811Y-2.1124
X3.0811Y-2.8624
X3.0811Y-3.6123
X3.831Y-1.9874
X3.831Y-2.7374
X3.831Y-3.4873
X4.581Y-2.1124
X4.581Y-2.8624
X4.581Y-3.6123
X5.3309Y-3.7373
T0
M30
