%TF.GenerationSoftware,KiCad,Pcbnew,(5.1.9)-1*%
%TF.CreationDate,2021-07-17T19:18:11-05:00*%
%TF.ProjectId,TartarSauce,54617274-6172-4536-9175-63652e6b6963,rev?*%
%TF.SameCoordinates,Original*%
%TF.FileFunction,Paste,Bot*%
%TF.FilePolarity,Positive*%
%FSLAX46Y46*%
G04 Gerber Fmt 4.6, Leading zero omitted, Abs format (unit mm)*
G04 Created by KiCad (PCBNEW (5.1.9)-1) date 2021-07-17 19:18:11*
%MOMM*%
%LPD*%
G01*
G04 APERTURE LIST*
%ADD10R,1.000000X1.000000*%
G04 APERTURE END LIST*
D10*
%TO.C,D17*%
X136565000Y-100330000D03*
X139065000Y-100330000D03*
%TD*%
%TO.C,D15*%
X117515000Y-97155000D03*
X120015000Y-97155000D03*
%TD*%
%TO.C,D14*%
X117515000Y-78105000D03*
X120015000Y-78105000D03*
%TD*%
%TO.C,D13*%
X117515000Y-59055000D03*
X120015000Y-59055000D03*
%TD*%
%TO.C,D12*%
X98465000Y-93980000D03*
X100965000Y-93980000D03*
%TD*%
%TO.C,D11*%
X98465000Y-74930000D03*
X100965000Y-74930000D03*
%TD*%
%TO.C,D10*%
X98465000Y-55880000D03*
X100965000Y-55880000D03*
%TD*%
%TO.C,D9*%
X79415000Y-97155000D03*
X81915000Y-97155000D03*
%TD*%
%TO.C,D8*%
X79415000Y-78105000D03*
X81915000Y-78105000D03*
%TD*%
%TO.C,D7*%
X79415000Y-59055000D03*
X81915000Y-59055000D03*
%TD*%
%TO.C,D6*%
X60365000Y-100330000D03*
X62865000Y-100330000D03*
%TD*%
%TO.C,D5*%
X60365000Y-81280000D03*
X62865000Y-81280000D03*
%TD*%
%TO.C,D4*%
X60365000Y-62230000D03*
X62865000Y-62230000D03*
%TD*%
%TO.C,D3*%
X41275000Y-103505000D03*
X43775000Y-103505000D03*
%TD*%
%TO.C,D2*%
X41315000Y-84455000D03*
X43815000Y-84455000D03*
%TD*%
%TO.C,D1*%
X41315000Y-65405000D03*
X43815000Y-65405000D03*
%TD*%
%TO.C,U2*%
G36*
G01*
X133200000Y-72775027D02*
X133500000Y-72775027D01*
G75*
G02*
X133650000Y-72925027I0J-150000D01*
G01*
X133650000Y-74575027D01*
G75*
G02*
X133500000Y-74725027I-150000J0D01*
G01*
X133200000Y-74725027D01*
G75*
G02*
X133050000Y-74575027I0J150000D01*
G01*
X133050000Y-72925027D01*
G75*
G02*
X133200000Y-72775027I150000J0D01*
G01*
G37*
G36*
G01*
X134470000Y-72775027D02*
X134770000Y-72775027D01*
G75*
G02*
X134920000Y-72925027I0J-150000D01*
G01*
X134920000Y-74575027D01*
G75*
G02*
X134770000Y-74725027I-150000J0D01*
G01*
X134470000Y-74725027D01*
G75*
G02*
X134320000Y-74575027I0J150000D01*
G01*
X134320000Y-72925027D01*
G75*
G02*
X134470000Y-72775027I150000J0D01*
G01*
G37*
G36*
G01*
X135740000Y-72775027D02*
X136040000Y-72775027D01*
G75*
G02*
X136190000Y-72925027I0J-150000D01*
G01*
X136190000Y-74575027D01*
G75*
G02*
X136040000Y-74725027I-150000J0D01*
G01*
X135740000Y-74725027D01*
G75*
G02*
X135590000Y-74575027I0J150000D01*
G01*
X135590000Y-72925027D01*
G75*
G02*
X135740000Y-72775027I150000J0D01*
G01*
G37*
G36*
G01*
X137010000Y-72775027D02*
X137310000Y-72775027D01*
G75*
G02*
X137460000Y-72925027I0J-150000D01*
G01*
X137460000Y-74575027D01*
G75*
G02*
X137310000Y-74725027I-150000J0D01*
G01*
X137010000Y-74725027D01*
G75*
G02*
X136860000Y-74575027I0J150000D01*
G01*
X136860000Y-72925027D01*
G75*
G02*
X137010000Y-72775027I150000J0D01*
G01*
G37*
G36*
G01*
X137010000Y-67825027D02*
X137310000Y-67825027D01*
G75*
G02*
X137460000Y-67975027I0J-150000D01*
G01*
X137460000Y-69625027D01*
G75*
G02*
X137310000Y-69775027I-150000J0D01*
G01*
X137010000Y-69775027D01*
G75*
G02*
X136860000Y-69625027I0J150000D01*
G01*
X136860000Y-67975027D01*
G75*
G02*
X137010000Y-67825027I150000J0D01*
G01*
G37*
G36*
G01*
X135740000Y-67825027D02*
X136040000Y-67825027D01*
G75*
G02*
X136190000Y-67975027I0J-150000D01*
G01*
X136190000Y-69625027D01*
G75*
G02*
X136040000Y-69775027I-150000J0D01*
G01*
X135740000Y-69775027D01*
G75*
G02*
X135590000Y-69625027I0J150000D01*
G01*
X135590000Y-67975027D01*
G75*
G02*
X135740000Y-67825027I150000J0D01*
G01*
G37*
G36*
G01*
X134470000Y-67825027D02*
X134770000Y-67825027D01*
G75*
G02*
X134920000Y-67975027I0J-150000D01*
G01*
X134920000Y-69625027D01*
G75*
G02*
X134770000Y-69775027I-150000J0D01*
G01*
X134470000Y-69775027D01*
G75*
G02*
X134320000Y-69625027I0J150000D01*
G01*
X134320000Y-67975027D01*
G75*
G02*
X134470000Y-67825027I150000J0D01*
G01*
G37*
G36*
G01*
X133200000Y-67825027D02*
X133500000Y-67825027D01*
G75*
G02*
X133650000Y-67975027I0J-150000D01*
G01*
X133650000Y-69625027D01*
G75*
G02*
X133500000Y-69775027I-150000J0D01*
G01*
X133200000Y-69775027D01*
G75*
G02*
X133050000Y-69625027I0J150000D01*
G01*
X133050000Y-67975027D01*
G75*
G02*
X133200000Y-67825027I150000J0D01*
G01*
G37*
%TD*%
%TO.C,R1*%
G36*
G01*
X136377500Y-65326403D02*
X136377500Y-65801403D01*
G75*
G02*
X136140000Y-66038903I-237500J0D01*
G01*
X135640000Y-66038903D01*
G75*
G02*
X135402500Y-65801403I0J237500D01*
G01*
X135402500Y-65326403D01*
G75*
G02*
X135640000Y-65088903I237500J0D01*
G01*
X136140000Y-65088903D01*
G75*
G02*
X136377500Y-65326403I0J-237500D01*
G01*
G37*
G36*
G01*
X138202500Y-65326403D02*
X138202500Y-65801403D01*
G75*
G02*
X137965000Y-66038903I-237500J0D01*
G01*
X137465000Y-66038903D01*
G75*
G02*
X137227500Y-65801403I0J237500D01*
G01*
X137227500Y-65326403D01*
G75*
G02*
X137465000Y-65088903I237500J0D01*
G01*
X137965000Y-65088903D01*
G75*
G02*
X138202500Y-65326403I0J-237500D01*
G01*
G37*
%TD*%
%TO.C,C1*%
G36*
G01*
X132812500Y-65801403D02*
X132812500Y-65326403D01*
G75*
G02*
X133050000Y-65088903I237500J0D01*
G01*
X133650000Y-65088903D01*
G75*
G02*
X133887500Y-65326403I0J-237500D01*
G01*
X133887500Y-65801403D01*
G75*
G02*
X133650000Y-66038903I-237500J0D01*
G01*
X133050000Y-66038903D01*
G75*
G02*
X132812500Y-65801403I0J237500D01*
G01*
G37*
G36*
G01*
X131087500Y-65801403D02*
X131087500Y-65326403D01*
G75*
G02*
X131325000Y-65088903I237500J0D01*
G01*
X131925000Y-65088903D01*
G75*
G02*
X132162500Y-65326403I0J-237500D01*
G01*
X132162500Y-65801403D01*
G75*
G02*
X131925000Y-66038903I-237500J0D01*
G01*
X131325000Y-66038903D01*
G75*
G02*
X131087500Y-65801403I0J237500D01*
G01*
G37*
%TD*%
M02*
